%TF.GenerationSoftware,KiCad,Pcbnew,6.0.11+dfsg-1*%
%TF.CreationDate,2023-11-18T19:10:20+05:30*%
%TF.ProjectId,c3rl-at-r-beta-2,6333726c-2d61-4742-9d72-2d626574612d,rev?*%
%TF.SameCoordinates,Original*%
%TF.FileFunction,Legend,Top*%
%TF.FilePolarity,Positive*%
%FSLAX46Y46*%
G04 Gerber Fmt 4.6, Leading zero omitted, Abs format (unit mm)*
G04 Created by KiCad (PCBNEW 6.0.11+dfsg-1) date 2023-11-18 19:10:20*
%MOMM*%
%LPD*%
G01*
G04 APERTURE LIST*
%ADD10C,0.120000*%
%ADD11C,0.127000*%
%ADD12C,0.200000*%
%ADD13C,0.250000*%
%ADD14C,0.150000*%
%ADD15C,0.100000*%
%ADD16C,0.300000*%
%ADD17C,0.152400*%
G04 APERTURE END LIST*
D10*
%TO.C,Q5*%
X99110000Y-99632500D02*
X99110000Y-100282500D01*
X95990000Y-99632500D02*
X95990000Y-101307500D01*
X95990000Y-99632500D02*
X95990000Y-98982500D01*
X99110000Y-99632500D02*
X99110000Y-98982500D01*
%TO.C,R39*%
X83130000Y-80413641D02*
X83130000Y-80106359D01*
X82370000Y-80413641D02*
X82370000Y-80106359D01*
%TO.C,R21*%
X79246359Y-103432500D02*
X79553641Y-103432500D01*
X79246359Y-104192500D02*
X79553641Y-104192500D01*
%TO.C,Q3*%
X77690000Y-87750000D02*
X77690000Y-87100000D01*
X77690000Y-87750000D02*
X77690000Y-89425000D01*
X80810000Y-87750000D02*
X80810000Y-87100000D01*
X80810000Y-87750000D02*
X80810000Y-88400000D01*
%TO.C,R27*%
X98166359Y-102522500D02*
X98473641Y-102522500D01*
X98166359Y-101762500D02*
X98473641Y-101762500D01*
%TO.C,R34*%
X115153641Y-105080000D02*
X114846359Y-105080000D01*
X115153641Y-104320000D02*
X114846359Y-104320000D01*
%TO.C,R38*%
X90146359Y-106920000D02*
X90453641Y-106920000D01*
X90146359Y-106160000D02*
X90453641Y-106160000D01*
%TO.C,SW1*%
X108350000Y-116850000D02*
X108350000Y-117150000D01*
X108350000Y-117150000D02*
X111650000Y-117150000D01*
X108350000Y-114650000D02*
X108350000Y-114350000D01*
X111650000Y-114350000D02*
X111650000Y-114650000D01*
X108350000Y-114350000D02*
X111650000Y-114350000D01*
X111650000Y-117150000D02*
X111650000Y-116850000D01*
%TO.C,C29*%
X94659420Y-116690000D02*
X94940580Y-116690000D01*
X94659420Y-117710000D02*
X94940580Y-117710000D01*
D11*
%TO.C,U6*%
X87915000Y-102905000D02*
X86315000Y-102905000D01*
X87915000Y-106035000D02*
X86315000Y-106035000D01*
D12*
X84715000Y-103520000D02*
G75*
G03*
X84715000Y-103520000I-100000J0D01*
G01*
D10*
%TO.C,J3*%
X117215000Y-104385000D02*
X117215000Y-105115000D01*
X120685000Y-103110000D02*
X120685000Y-107890000D01*
X122385000Y-103110000D02*
X120685000Y-103110000D01*
X121985000Y-107490000D02*
X121985000Y-103510000D01*
X122385000Y-107890000D02*
X122385000Y-103110000D01*
X116415000Y-100890000D02*
X122385000Y-100890000D01*
X120685000Y-109310000D02*
X117215000Y-109310000D01*
X122385000Y-110110000D02*
X116415000Y-110110000D01*
X117215000Y-109310000D02*
X117215000Y-107250000D01*
X120685000Y-107890000D02*
X120685000Y-109310000D01*
X117215000Y-101690000D02*
X117215000Y-102250000D01*
X120685000Y-101690000D02*
X117215000Y-101690000D01*
X117615000Y-100590000D02*
X116115000Y-100590000D01*
X121085000Y-103510000D02*
X121085000Y-107490000D01*
X116415000Y-104210000D02*
X116415000Y-105290000D01*
X116115000Y-100590000D02*
X116115000Y-102090000D01*
X121985000Y-103510000D02*
X121085000Y-103510000D01*
X120685000Y-107890000D02*
X122385000Y-107890000D01*
X116415000Y-102290000D02*
X116415000Y-100890000D01*
X116415000Y-110110000D02*
X116415000Y-107210000D01*
X122385000Y-100890000D02*
X122385000Y-110110000D01*
X121085000Y-107490000D02*
X121985000Y-107490000D01*
X120685000Y-103110000D02*
X120685000Y-101690000D01*
%TO.C,C3*%
X90492164Y-94740000D02*
X90707836Y-94740000D01*
X90492164Y-95460000D02*
X90707836Y-95460000D01*
%TO.C,J10*%
X75940000Y-118190000D02*
X75940000Y-115300000D01*
X80740000Y-118190000D02*
X79460000Y-118190000D01*
X73640000Y-116590000D02*
X74660000Y-116590000D01*
X74660000Y-116590000D02*
X74660000Y-118190000D01*
X75360000Y-124410000D02*
X80040000Y-124410000D01*
X73640000Y-120840000D02*
X73640000Y-116590000D01*
X81760000Y-120840000D02*
X81760000Y-116590000D01*
X80740000Y-116590000D02*
X80740000Y-118190000D01*
X81760000Y-116590000D02*
X80740000Y-116590000D01*
X74660000Y-118190000D02*
X75940000Y-118190000D01*
%TO.C,J11*%
X88660000Y-97150000D02*
X88660000Y-95090000D01*
X88660000Y-99210000D02*
X87600000Y-99210000D01*
X86540000Y-97150000D02*
X86540000Y-95090000D01*
X88660000Y-97150000D02*
X86540000Y-97150000D01*
X88660000Y-98150000D02*
X88660000Y-99210000D01*
X88660000Y-95090000D02*
X86540000Y-95090000D01*
%TO.C,R11*%
X102116359Y-119620000D02*
X102423641Y-119620000D01*
X102116359Y-120380000D02*
X102423641Y-120380000D01*
%TO.C,C34*%
X82140580Y-98040000D02*
X81859420Y-98040000D01*
X82140580Y-99060000D02*
X81859420Y-99060000D01*
%TO.C,C6*%
X94607836Y-109360000D02*
X94392164Y-109360000D01*
X94607836Y-108640000D02*
X94392164Y-108640000D01*
D12*
%TO.C,ANT1*%
X77450000Y-80870000D02*
X77450000Y-80870000D01*
X77450000Y-80670000D02*
X77450000Y-80670000D01*
X77450000Y-80670000D02*
G75*
G03*
X77450000Y-80870000I0J-100000D01*
G01*
X77450000Y-80870000D02*
G75*
G03*
X77450000Y-80670000I0J100000D01*
G01*
D10*
%TO.C,D4*%
X91350000Y-99500000D02*
X89500000Y-99500000D01*
X91350000Y-98300000D02*
X89500000Y-98300000D01*
X89500000Y-98300000D02*
X89500000Y-99500000D01*
D11*
%TO.C,U1*%
X91875000Y-91950000D02*
X91875000Y-84050000D01*
X81625000Y-91950000D02*
X81625000Y-84050000D01*
D12*
X81650000Y-94200000D02*
G75*
G03*
X81650000Y-94200000I-100000J0D01*
G01*
D10*
%TO.C,R33*%
X115420000Y-115246359D02*
X115420000Y-115553641D01*
X116180000Y-115246359D02*
X116180000Y-115553641D01*
%TO.C,Q2*%
X92440000Y-99632500D02*
X92440000Y-101307500D01*
X92440000Y-99632500D02*
X92440000Y-98982500D01*
X95560000Y-99632500D02*
X95560000Y-98982500D01*
X95560000Y-99632500D02*
X95560000Y-100282500D01*
D11*
%TO.C,U7*%
X104050000Y-77800000D02*
X106150000Y-77800000D01*
X104050000Y-75700000D02*
X106150000Y-75700000D01*
D12*
X103400000Y-76050000D02*
G75*
G03*
X103400000Y-76050000I-100000J0D01*
G01*
D13*
%TO.C,IC1*%
X90175000Y-116537500D02*
G75*
G03*
X90175000Y-116537500I-125000J0D01*
G01*
D10*
%TO.C,J9*%
X118640000Y-112550000D02*
X118640000Y-111790000D01*
X120860000Y-113310000D02*
X120860000Y-117055000D01*
X118640000Y-113310000D02*
X119186529Y-113310000D01*
X120313471Y-113310000D02*
X120860000Y-113310000D01*
X118640000Y-117055000D02*
X119442470Y-117055000D01*
X120057530Y-117055000D02*
X120860000Y-117055000D01*
X118640000Y-113310000D02*
X118640000Y-117055000D01*
X118640000Y-111790000D02*
X119750000Y-111790000D01*
%TO.C,C2*%
X90492164Y-95740000D02*
X90707836Y-95740000D01*
X90492164Y-96460000D02*
X90707836Y-96460000D01*
%TO.C,C9*%
X97357836Y-105640000D02*
X97142164Y-105640000D01*
X97357836Y-106360000D02*
X97142164Y-106360000D01*
%TO.C,C13*%
X110367836Y-109560000D02*
X110152164Y-109560000D01*
X110367836Y-108840000D02*
X110152164Y-108840000D01*
%TO.C,C22*%
X104040000Y-79727836D02*
X104040000Y-79512164D01*
X104760000Y-79727836D02*
X104760000Y-79512164D01*
%TO.C,C17*%
X96590000Y-116804664D02*
X96590000Y-117020336D01*
X97310000Y-116804664D02*
X97310000Y-117020336D01*
%TO.C,C20*%
X82640000Y-116392164D02*
X82640000Y-116607836D01*
X83360000Y-116392164D02*
X83360000Y-116607836D01*
%TO.C,J2*%
X96140000Y-124060000D02*
X96140000Y-123160000D01*
X96540000Y-122760000D02*
X91760000Y-122760000D01*
X97360000Y-118490000D02*
X98760000Y-118490000D01*
X95440000Y-118490000D02*
X94360000Y-118490000D01*
X96540000Y-122760000D02*
X97960000Y-122760000D01*
X89540000Y-124460000D02*
X89540000Y-118490000D01*
X97960000Y-119290000D02*
X97400000Y-119290000D01*
X90340000Y-122760000D02*
X90340000Y-119290000D01*
X91760000Y-122760000D02*
X90340000Y-122760000D01*
X91760000Y-122760000D02*
X91760000Y-124460000D01*
X96140000Y-123160000D02*
X92160000Y-123160000D01*
X95265000Y-119290000D02*
X94535000Y-119290000D01*
X91760000Y-124460000D02*
X96540000Y-124460000D01*
X92160000Y-123160000D02*
X92160000Y-124060000D01*
X99060000Y-119690000D02*
X99060000Y-118190000D01*
X92160000Y-124060000D02*
X96140000Y-124060000D01*
X89540000Y-118490000D02*
X92440000Y-118490000D01*
X98760000Y-118490000D02*
X98760000Y-124460000D01*
X99060000Y-118190000D02*
X97560000Y-118190000D01*
X98760000Y-124460000D02*
X89540000Y-124460000D01*
X97960000Y-122760000D02*
X97960000Y-119290000D01*
X90340000Y-119290000D02*
X92400000Y-119290000D01*
X96540000Y-124460000D02*
X96540000Y-122760000D01*
%TO.C,R13*%
X100780000Y-81046359D02*
X100780000Y-81353641D01*
X100020000Y-81046359D02*
X100020000Y-81353641D01*
%TO.C,R7*%
X98330000Y-116758859D02*
X98330000Y-117066141D01*
X97570000Y-116758859D02*
X97570000Y-117066141D01*
%TO.C,R2*%
X79620000Y-100403641D02*
X79620000Y-100096359D01*
X80380000Y-100403641D02*
X80380000Y-100096359D01*
%TO.C,J4*%
X117910000Y-119715000D02*
X117910000Y-118215000D01*
X111290000Y-118515000D02*
X110210000Y-118515000D01*
X114290000Y-118515000D02*
X113210000Y-118515000D01*
X115390000Y-124485000D02*
X115390000Y-122785000D01*
X111115000Y-119315000D02*
X110385000Y-119315000D01*
X114115000Y-119315000D02*
X113385000Y-119315000D01*
X108010000Y-123185000D02*
X108010000Y-124085000D01*
X115390000Y-122785000D02*
X116810000Y-122785000D01*
X114990000Y-123185000D02*
X108010000Y-123185000D01*
X116810000Y-122785000D02*
X116810000Y-119315000D01*
X105390000Y-118515000D02*
X108290000Y-118515000D01*
X114990000Y-124085000D02*
X114990000Y-123185000D01*
X108010000Y-124085000D02*
X114990000Y-124085000D01*
X106190000Y-122785000D02*
X106190000Y-119315000D01*
X117910000Y-118215000D02*
X116410000Y-118215000D01*
X117610000Y-118515000D02*
X117610000Y-124485000D01*
X105390000Y-124485000D02*
X105390000Y-118515000D01*
X107610000Y-122785000D02*
X107610000Y-124485000D01*
X107610000Y-124485000D02*
X115390000Y-124485000D01*
X116210000Y-118515000D02*
X117610000Y-118515000D01*
X115390000Y-122785000D02*
X107610000Y-122785000D01*
X106190000Y-119315000D02*
X108250000Y-119315000D01*
X117610000Y-124485000D02*
X105390000Y-124485000D01*
X107610000Y-122785000D02*
X106190000Y-122785000D01*
X116810000Y-119315000D02*
X116250000Y-119315000D01*
%TO.C,R29*%
X97630000Y-90403641D02*
X97630000Y-90096359D01*
X96870000Y-90403641D02*
X96870000Y-90096359D01*
%TO.C,R37*%
X90453641Y-105120000D02*
X90146359Y-105120000D01*
X90453641Y-105880000D02*
X90146359Y-105880000D01*
%TO.C,C32*%
X87890580Y-102410000D02*
X87609420Y-102410000D01*
X87890580Y-101390000D02*
X87609420Y-101390000D01*
%TO.C,C37*%
X95557836Y-92760000D02*
X95342164Y-92760000D01*
X95557836Y-92040000D02*
X95342164Y-92040000D01*
%TO.C,C35*%
X84860000Y-95797836D02*
X84860000Y-95582164D01*
X84140000Y-95797836D02*
X84140000Y-95582164D01*
%TO.C,C1*%
X90559420Y-97910000D02*
X90840580Y-97910000D01*
X90559420Y-96890000D02*
X90840580Y-96890000D01*
%TO.C,R26*%
X74586359Y-90880000D02*
X74893641Y-90880000D01*
X74586359Y-90120000D02*
X74893641Y-90120000D01*
%TO.C,R24*%
X74893641Y-91120000D02*
X74586359Y-91120000D01*
X74893641Y-91880000D02*
X74586359Y-91880000D01*
%TO.C,C4*%
X107882164Y-109560000D02*
X108097836Y-109560000D01*
X107882164Y-108840000D02*
X108097836Y-108840000D01*
%TO.C,R12*%
X102116359Y-119380000D02*
X102423641Y-119380000D01*
X102116359Y-118620000D02*
X102423641Y-118620000D01*
%TO.C,R25*%
X76596359Y-90880000D02*
X76903641Y-90880000D01*
X76596359Y-90120000D02*
X76903641Y-90120000D01*
%TO.C,C36*%
X85860000Y-95797836D02*
X85860000Y-95582164D01*
X85140000Y-95797836D02*
X85140000Y-95582164D01*
D14*
%TO.C,U5*%
X100875000Y-95500000D02*
X100875000Y-92500000D01*
X98625000Y-94000000D02*
X98625000Y-92500000D01*
D10*
%TO.C,D1*%
X73350000Y-93205000D02*
X73350000Y-94675000D01*
X75635000Y-93205000D02*
X73350000Y-93205000D01*
X73350000Y-94675000D02*
X75635000Y-94675000D01*
%TO.C,C40*%
X95557836Y-87460000D02*
X95342164Y-87460000D01*
X95557836Y-86740000D02*
X95342164Y-86740000D01*
%TO.C,C14*%
X94607836Y-111110000D02*
X94392164Y-111110000D01*
X94607836Y-110390000D02*
X94392164Y-110390000D01*
%TO.C,C8*%
X94607836Y-106640000D02*
X94392164Y-106640000D01*
X94607836Y-107360000D02*
X94392164Y-107360000D01*
%TO.C,C27*%
X83630000Y-80182164D02*
X83630000Y-80397836D01*
X84350000Y-80182164D02*
X84350000Y-80397836D01*
%TO.C,R17*%
X106220000Y-115736359D02*
X106220000Y-116043641D01*
X106980000Y-115736359D02*
X106980000Y-116043641D01*
%TO.C,R23*%
X76893641Y-91880000D02*
X76586359Y-91880000D01*
X76893641Y-91120000D02*
X76586359Y-91120000D01*
%TO.C,C15*%
X104307836Y-92560000D02*
X104092164Y-92560000D01*
X104307836Y-91840000D02*
X104092164Y-91840000D01*
%TO.C,R20*%
X83153641Y-110870000D02*
X82846359Y-110870000D01*
X83153641Y-111630000D02*
X82846359Y-111630000D01*
%TO.C,C5*%
X94607836Y-111402500D02*
X94392164Y-111402500D01*
X94607836Y-112122500D02*
X94392164Y-112122500D01*
%TO.C,C30*%
X114590000Y-102334420D02*
X114590000Y-102615580D01*
X115610000Y-102334420D02*
X115610000Y-102615580D01*
%TO.C,C7*%
X94627836Y-107640000D02*
X94412164Y-107640000D01*
X94627836Y-108360000D02*
X94412164Y-108360000D01*
%TO.C,C24*%
X97892164Y-84240000D02*
X98107836Y-84240000D01*
X97892164Y-84960000D02*
X98107836Y-84960000D01*
%TO.C,R10*%
X102106359Y-121380000D02*
X102413641Y-121380000D01*
X102106359Y-120620000D02*
X102413641Y-120620000D01*
%TO.C,R14*%
X94176359Y-102512500D02*
X94483641Y-102512500D01*
X94176359Y-101752500D02*
X94483641Y-101752500D01*
D15*
%TO.C,J7*%
X115750000Y-83650000D02*
X108750000Y-83650000D01*
D12*
X106050000Y-88900000D02*
X106050000Y-88900000D01*
D15*
X121750000Y-98350000D02*
X121750000Y-83650000D01*
D12*
X106050000Y-88700000D02*
X106050000Y-88700000D01*
D15*
X108750000Y-98350000D02*
X115750000Y-98350000D01*
X121750000Y-83650000D02*
X119210000Y-83650000D01*
X119210000Y-98350000D02*
X121750000Y-98350000D01*
D12*
X106050000Y-88900000D02*
G75*
G03*
X106050000Y-88700000I0J100000D01*
G01*
X106050000Y-88700000D02*
G75*
G03*
X106050000Y-88900000I0J-100000D01*
G01*
D10*
%TO.C,R1*%
X79380000Y-100096359D02*
X79380000Y-100403641D01*
X78620000Y-100096359D02*
X78620000Y-100403641D01*
%TO.C,R44*%
X85120000Y-98146359D02*
X85120000Y-98453641D01*
X85880000Y-98146359D02*
X85880000Y-98453641D01*
%TO.C,R22*%
X82403641Y-81165000D02*
X82096359Y-81165000D01*
X82403641Y-80405000D02*
X82096359Y-80405000D01*
%TO.C,C11*%
X82740000Y-96290580D02*
X82740000Y-96009420D01*
X83760000Y-96290580D02*
X83760000Y-96009420D01*
%TO.C,U4*%
X96560000Y-89750000D02*
X96560000Y-90550000D01*
X93440000Y-89750000D02*
X93440000Y-88950000D01*
X93440000Y-89750000D02*
X93440000Y-90550000D01*
X96560000Y-89750000D02*
X96560000Y-87950000D01*
%TO.C,U3*%
X104410000Y-108352500D02*
X104410000Y-107702500D01*
X97190000Y-107702500D02*
X97840000Y-107702500D01*
X97190000Y-108352500D02*
X97190000Y-107702500D01*
X104410000Y-114922500D02*
X103760000Y-114922500D01*
X104410000Y-114272500D02*
X104410000Y-114922500D01*
X97190000Y-114272500D02*
X97190000Y-114922500D01*
X104410000Y-107702500D02*
X103760000Y-107702500D01*
%TO.C,R15*%
X92196359Y-101752500D02*
X92503641Y-101752500D01*
X92196359Y-102512500D02*
X92503641Y-102512500D01*
D12*
%TO.C,L2*%
X82350000Y-103000000D02*
X84150000Y-103000000D01*
D10*
%TO.C,R6*%
X92376359Y-109020000D02*
X92683641Y-109020000D01*
X92376359Y-109780000D02*
X92683641Y-109780000D01*
%TO.C,U2*%
X85475000Y-112412500D02*
X85475000Y-112672500D01*
X85475000Y-117862500D02*
X85475000Y-117602500D01*
X90925000Y-117602500D02*
X92600000Y-117602500D01*
X88200000Y-112412500D02*
X85475000Y-112412500D01*
X90925000Y-112412500D02*
X90925000Y-112672500D01*
X88200000Y-112412500D02*
X90925000Y-112412500D01*
X88200000Y-117862500D02*
X85475000Y-117862500D01*
X88200000Y-117862500D02*
X90925000Y-117862500D01*
X90925000Y-117862500D02*
X90925000Y-117602500D01*
%TO.C,C38*%
X95009420Y-93190000D02*
X95290580Y-93190000D01*
X95009420Y-94210000D02*
X95290580Y-94210000D01*
%TO.C,R31*%
X105180000Y-88146359D02*
X105180000Y-88453641D01*
X104420000Y-88146359D02*
X104420000Y-88453641D01*
%TO.C,R35*%
X115153641Y-106580000D02*
X114846359Y-106580000D01*
X115153641Y-105820000D02*
X114846359Y-105820000D01*
%TO.C,SW2*%
X111650000Y-105740000D02*
X111650000Y-105440000D01*
X108350000Y-103240000D02*
X108350000Y-102940000D01*
X111650000Y-102940000D02*
X111650000Y-103240000D01*
X108350000Y-105740000D02*
X111650000Y-105740000D01*
X108350000Y-105440000D02*
X108350000Y-105740000D01*
X108350000Y-102940000D02*
X111650000Y-102940000D01*
D11*
%TO.C,J6*%
X84050000Y-75470000D02*
X81450000Y-75470000D01*
D10*
%TO.C,C31*%
X86810000Y-107915580D02*
X86810000Y-107634420D01*
X85790000Y-107915580D02*
X85790000Y-107634420D01*
%TO.C,R36*%
X87536359Y-118220000D02*
X87843641Y-118220000D01*
X87536359Y-118980000D02*
X87843641Y-118980000D01*
D11*
%TO.C,J8*%
X118075000Y-116550000D02*
X118075000Y-117350000D01*
X122325000Y-116150000D02*
X122325000Y-112550000D01*
X118075000Y-112150000D02*
X118075000Y-111350000D01*
X118075000Y-111350000D02*
X120350000Y-111350000D01*
X118075000Y-117350000D02*
X120350000Y-117350000D01*
D16*
X117465000Y-116800000D02*
G75*
G03*
X117465000Y-116800000I-100000J0D01*
G01*
D10*
%TO.C,R42*%
X85446359Y-118220000D02*
X85753641Y-118220000D01*
X85446359Y-118980000D02*
X85753641Y-118980000D01*
D11*
%TO.C,U8*%
X98990000Y-81200000D02*
X99550000Y-81200000D01*
X96450000Y-83800000D02*
X97010000Y-83800000D01*
X97010000Y-81200000D02*
X96450000Y-81200000D01*
X98990000Y-83800000D02*
X99550000Y-83800000D01*
D12*
X96010000Y-81505000D02*
G75*
G03*
X96010000Y-81505000I-100000J0D01*
G01*
D10*
%TO.C,R9*%
X102106359Y-122380000D02*
X102413641Y-122380000D01*
X102106359Y-121620000D02*
X102413641Y-121620000D01*
%TO.C,C28*%
X114234420Y-117710000D02*
X114515580Y-117710000D01*
X114234420Y-116690000D02*
X114515580Y-116690000D01*
%TO.C,J5*%
X80510000Y-91710000D02*
X80510000Y-92915000D01*
X78290000Y-90950000D02*
X78290000Y-90190000D01*
X78290000Y-92915000D02*
X79092470Y-92915000D01*
X79963471Y-91710000D02*
X80510000Y-91710000D01*
X78290000Y-91710000D02*
X78290000Y-92915000D01*
X78290000Y-90190000D02*
X79400000Y-90190000D01*
X78290000Y-91710000D02*
X78836529Y-91710000D01*
X79707530Y-92915000D02*
X80510000Y-92915000D01*
%TO.C,R19*%
X82846359Y-108032500D02*
X83153641Y-108032500D01*
X82846359Y-108792500D02*
X83153641Y-108792500D01*
%TO.C,C10*%
X101890000Y-104857836D02*
X101890000Y-104642164D01*
X102610000Y-104857836D02*
X102610000Y-104642164D01*
%TO.C,R5*%
X92376359Y-110780000D02*
X92683641Y-110780000D01*
X92376359Y-110020000D02*
X92683641Y-110020000D01*
%TO.C,C25*%
X113110000Y-78607836D02*
X113110000Y-78392164D01*
X112390000Y-78607836D02*
X112390000Y-78392164D01*
%TO.C,R41*%
X111403641Y-76620000D02*
X111096359Y-76620000D01*
X111403641Y-77380000D02*
X111096359Y-77380000D01*
%TO.C,C19*%
X101440000Y-116812164D02*
X101440000Y-117027836D01*
X102160000Y-116812164D02*
X102160000Y-117027836D01*
%TO.C,D2*%
X73340000Y-94885000D02*
X73340000Y-96355000D01*
X73340000Y-96355000D02*
X75625000Y-96355000D01*
X75625000Y-94885000D02*
X73340000Y-94885000D01*
%TO.C,C16*%
X99460000Y-90772164D02*
X99460000Y-90987836D01*
X98740000Y-90772164D02*
X98740000Y-90987836D01*
%TO.C,SW3*%
X84550000Y-122400000D02*
X84550000Y-122100000D01*
X87850000Y-119900000D02*
X87850000Y-119600000D01*
X87850000Y-119600000D02*
X84550000Y-119600000D01*
X84550000Y-119600000D02*
X84550000Y-119900000D01*
X87850000Y-122100000D02*
X87850000Y-122400000D01*
X87850000Y-122400000D02*
X84550000Y-122400000D01*
D17*
%TO.C,U9*%
X121176400Y-76323600D02*
X117823600Y-76323600D01*
X117823600Y-79676400D02*
X121176400Y-79676400D01*
X122032000Y-79000000D02*
G75*
G03*
X122032000Y-79000000I-76200J0D01*
G01*
D10*
%TO.C,Q1*%
X78300000Y-99060000D02*
X79975000Y-99060000D01*
X78300000Y-99060000D02*
X77650000Y-99060000D01*
X78300000Y-95940000D02*
X77650000Y-95940000D01*
X78300000Y-95940000D02*
X78950000Y-95940000D01*
%TO.C,R3*%
X77663641Y-94320000D02*
X77356359Y-94320000D01*
X77663641Y-93560000D02*
X77356359Y-93560000D01*
%TO.C,R40*%
X122630000Y-77653641D02*
X122630000Y-77346359D01*
X121870000Y-77653641D02*
X121870000Y-77346359D01*
%TO.C,R4*%
X77643641Y-95630000D02*
X77336359Y-95630000D01*
X77643641Y-94870000D02*
X77336359Y-94870000D01*
D11*
%TO.C,Y1*%
X108946022Y-110450000D02*
G75*
G03*
X108946022Y-110450000I-86022J0D01*
G01*
D10*
%TO.C,R18*%
X108046359Y-106160000D02*
X108353641Y-106160000D01*
X108046359Y-106920000D02*
X108353641Y-106920000D01*
%TO.C,C26*%
X87360000Y-80182164D02*
X87360000Y-80397836D01*
X86640000Y-80182164D02*
X86640000Y-80397836D01*
%TO.C,R32*%
X104320000Y-97153641D02*
X104320000Y-96846359D01*
X105080000Y-97153641D02*
X105080000Y-96846359D01*
%TO.C,R8*%
X99330000Y-116758859D02*
X99330000Y-117066141D01*
X98570000Y-116758859D02*
X98570000Y-117066141D01*
%TO.C,C21*%
X85260000Y-107890580D02*
X85260000Y-107609420D01*
X84240000Y-107890580D02*
X84240000Y-107609420D01*
D12*
%TO.C,J1*%
X78250000Y-104840000D02*
X77000000Y-104840000D01*
X73000000Y-104840000D02*
X73000000Y-114420000D01*
X74280000Y-104840000D02*
X73000000Y-104840000D01*
X78250000Y-114420000D02*
X77000000Y-114420000D01*
X73000000Y-114420000D02*
X74280000Y-114420000D01*
D10*
%TO.C,C39*%
X95009420Y-86310000D02*
X95290580Y-86310000D01*
X95009420Y-85290000D02*
X95290580Y-85290000D01*
%TO.C,R28*%
X96166359Y-102522500D02*
X96473641Y-102522500D01*
X96166359Y-101762500D02*
X96473641Y-101762500D01*
%TO.C,Q4*%
X73940000Y-87750000D02*
X73940000Y-89425000D01*
X77060000Y-87750000D02*
X77060000Y-88400000D01*
X77060000Y-87750000D02*
X77060000Y-87100000D01*
X73940000Y-87750000D02*
X73940000Y-87100000D01*
%TO.C,D3*%
X81150000Y-97150000D02*
X82350000Y-97150000D01*
X82350000Y-95300000D02*
X82350000Y-97150000D01*
X81150000Y-95300000D02*
X81150000Y-97150000D01*
%TO.C,R16*%
X108143641Y-111580000D02*
X107836359Y-111580000D01*
X108143641Y-110820000D02*
X107836359Y-110820000D01*
%TO.C,C12*%
X107882164Y-109840000D02*
X108097836Y-109840000D01*
X107882164Y-110560000D02*
X108097836Y-110560000D01*
%TO.C,C18*%
X112390000Y-112642164D02*
X112390000Y-112857836D01*
X113110000Y-112642164D02*
X113110000Y-112857836D01*
%TO.C,C23*%
X100040000Y-83907836D02*
X100040000Y-83692164D01*
X100760000Y-83907836D02*
X100760000Y-83692164D01*
%TO.C,C33*%
X82140580Y-100760000D02*
X81859420Y-100760000D01*
X82140580Y-99740000D02*
X81859420Y-99740000D01*
%TD*%
M02*
