%TF.GenerationSoftware,KiCad,Pcbnew,6.0.11+dfsg-1*%
%TF.CreationDate,2023-11-18T19:10:20+05:30*%
%TF.ProjectId,c3rl-at-r-beta-2,6333726c-2d61-4742-9d72-2d626574612d,rev?*%
%TF.SameCoordinates,Original*%
%TF.FileFunction,Legend,Bot*%
%TF.FilePolarity,Positive*%
%FSLAX46Y46*%
G04 Gerber Fmt 4.6, Leading zero omitted, Abs format (unit mm)*
G04 Created by KiCad (PCBNEW 6.0.11+dfsg-1) date 2023-11-18 19:10:20*
%MOMM*%
%LPD*%
G01*
G04 APERTURE LIST*
%ADD10C,0.250000*%
G04 APERTURE END LIST*
D10*
X74852976Y-94998333D02*
X75329166Y-94998333D01*
X74757738Y-94712619D02*
X75091071Y-95712619D01*
X75424404Y-94712619D01*
X75614880Y-95712619D02*
X76186309Y-95712619D01*
X75900595Y-94712619D02*
X75900595Y-95712619D01*
X76519642Y-94712619D02*
X76519642Y-95712619D01*
X77091071Y-94712619D01*
X77091071Y-95712619D01*
X77710119Y-94712619D02*
X77614880Y-94760238D01*
X77567261Y-94807857D01*
X77519642Y-94903095D01*
X77519642Y-95188809D01*
X77567261Y-95284047D01*
X77614880Y-95331666D01*
X77710119Y-95379285D01*
X77852976Y-95379285D01*
X77948214Y-95331666D01*
X77995833Y-95284047D01*
X78043452Y-95188809D01*
X78043452Y-94903095D01*
X77995833Y-94807857D01*
X77948214Y-94760238D01*
X77852976Y-94712619D01*
X77710119Y-94712619D01*
X78900595Y-94712619D02*
X78900595Y-95712619D01*
X78900595Y-94760238D02*
X78805357Y-94712619D01*
X78614880Y-94712619D01*
X78519642Y-94760238D01*
X78472023Y-94807857D01*
X78424404Y-94903095D01*
X78424404Y-95188809D01*
X78472023Y-95284047D01*
X78519642Y-95331666D01*
X78614880Y-95379285D01*
X78805357Y-95379285D01*
X78900595Y-95331666D01*
X79757738Y-94760238D02*
X79662500Y-94712619D01*
X79472023Y-94712619D01*
X79376785Y-94760238D01*
X79329166Y-94855476D01*
X79329166Y-95236428D01*
X79376785Y-95331666D01*
X79472023Y-95379285D01*
X79662500Y-95379285D01*
X79757738Y-95331666D01*
X79805357Y-95236428D01*
X79805357Y-95141190D01*
X79329166Y-95045952D01*
X80233928Y-95093571D02*
X80995833Y-95093571D01*
X82043452Y-94712619D02*
X81710119Y-95188809D01*
X81472023Y-94712619D02*
X81472023Y-95712619D01*
X81852976Y-95712619D01*
X81948214Y-95665000D01*
X81995833Y-95617380D01*
X82043452Y-95522142D01*
X82043452Y-95379285D01*
X81995833Y-95284047D01*
X81948214Y-95236428D01*
X81852976Y-95188809D01*
X81472023Y-95188809D01*
X74852976Y-94007380D02*
X74900595Y-94055000D01*
X74995833Y-94102619D01*
X75233928Y-94102619D01*
X75329166Y-94055000D01*
X75376785Y-94007380D01*
X75424404Y-93912142D01*
X75424404Y-93816904D01*
X75376785Y-93674047D01*
X74805357Y-93102619D01*
X75424404Y-93102619D01*
X76043452Y-94102619D02*
X76138690Y-94102619D01*
X76233928Y-94055000D01*
X76281547Y-94007380D01*
X76329166Y-93912142D01*
X76376785Y-93721666D01*
X76376785Y-93483571D01*
X76329166Y-93293095D01*
X76281547Y-93197857D01*
X76233928Y-93150238D01*
X76138690Y-93102619D01*
X76043452Y-93102619D01*
X75948214Y-93150238D01*
X75900595Y-93197857D01*
X75852976Y-93293095D01*
X75805357Y-93483571D01*
X75805357Y-93721666D01*
X75852976Y-93912142D01*
X75900595Y-94007380D01*
X75948214Y-94055000D01*
X76043452Y-94102619D01*
X76757738Y-94007380D02*
X76805357Y-94055000D01*
X76900595Y-94102619D01*
X77138690Y-94102619D01*
X77233928Y-94055000D01*
X77281547Y-94007380D01*
X77329166Y-93912142D01*
X77329166Y-93816904D01*
X77281547Y-93674047D01*
X76710119Y-93102619D01*
X77329166Y-93102619D01*
X77662500Y-94102619D02*
X78281547Y-94102619D01*
X77948214Y-93721666D01*
X78091071Y-93721666D01*
X78186309Y-93674047D01*
X78233928Y-93626428D01*
X78281547Y-93531190D01*
X78281547Y-93293095D01*
X78233928Y-93197857D01*
X78186309Y-93150238D01*
X78091071Y-93102619D01*
X77805357Y-93102619D01*
X77710119Y-93150238D01*
X77662500Y-93197857D01*
X75329166Y-91540238D02*
X75233928Y-91492619D01*
X75043452Y-91492619D01*
X74948214Y-91540238D01*
X74900595Y-91587857D01*
X74852976Y-91683095D01*
X74852976Y-91968809D01*
X74900595Y-92064047D01*
X74948214Y-92111666D01*
X75043452Y-92159285D01*
X75233928Y-92159285D01*
X75329166Y-92111666D01*
X75662500Y-92492619D02*
X76281547Y-92492619D01*
X75948214Y-92111666D01*
X76091071Y-92111666D01*
X76186309Y-92064047D01*
X76233928Y-92016428D01*
X76281547Y-91921190D01*
X76281547Y-91683095D01*
X76233928Y-91587857D01*
X76186309Y-91540238D01*
X76091071Y-91492619D01*
X75805357Y-91492619D01*
X75710119Y-91540238D01*
X75662500Y-91587857D01*
X76710119Y-91492619D02*
X76710119Y-92159285D01*
X76710119Y-91968809D02*
X76757738Y-92064047D01*
X76805357Y-92111666D01*
X76900595Y-92159285D01*
X76995833Y-92159285D01*
X77472023Y-91492619D02*
X77376785Y-91540238D01*
X77329166Y-91635476D01*
X77329166Y-92492619D01*
X75472023Y-89882619D02*
X75138690Y-90358809D01*
X74900595Y-89882619D02*
X74900595Y-90882619D01*
X75281547Y-90882619D01*
X75376785Y-90835000D01*
X75424404Y-90787380D01*
X75472023Y-90692142D01*
X75472023Y-90549285D01*
X75424404Y-90454047D01*
X75376785Y-90406428D01*
X75281547Y-90358809D01*
X74900595Y-90358809D01*
X76281547Y-89930238D02*
X76186309Y-89882619D01*
X75995833Y-89882619D01*
X75900595Y-89930238D01*
X75852976Y-90025476D01*
X75852976Y-90406428D01*
X75900595Y-90501666D01*
X75995833Y-90549285D01*
X76186309Y-90549285D01*
X76281547Y-90501666D01*
X76329166Y-90406428D01*
X76329166Y-90311190D01*
X75852976Y-90215952D01*
X76662500Y-90549285D02*
X76900595Y-89882619D01*
X77138690Y-90549285D01*
X78805357Y-89882619D02*
X78233928Y-89882619D01*
X78519642Y-89882619D02*
X78519642Y-90882619D01*
X78424404Y-90739761D01*
X78329166Y-90644523D01*
X78233928Y-90596904D01*
%TO.C,G\u002A\u002A\u002A*%
G36*
X102120883Y-89699267D02*
G01*
X102142615Y-89704940D01*
X102230784Y-89739941D01*
X102310358Y-89790750D01*
X102379525Y-89855066D01*
X102436474Y-89930587D01*
X102479394Y-90015010D01*
X102506474Y-90106035D01*
X102515904Y-90201358D01*
X102515353Y-90224181D01*
X102501621Y-90317854D01*
X102470832Y-90407084D01*
X102424845Y-90489477D01*
X102365521Y-90562641D01*
X102294720Y-90624182D01*
X102214303Y-90671708D01*
X102126128Y-90702824D01*
X102098169Y-90708788D01*
X102000635Y-90717521D01*
X101905001Y-90708301D01*
X101813628Y-90682220D01*
X101728877Y-90640368D01*
X101653109Y-90583836D01*
X101588686Y-90513716D01*
X101537970Y-90431098D01*
X101505058Y-90350028D01*
X101484063Y-90255524D01*
X101482583Y-90161629D01*
X101500617Y-90067231D01*
X101538167Y-89971219D01*
X101547942Y-89952168D01*
X101602055Y-89871629D01*
X101669222Y-89804116D01*
X101747158Y-89750695D01*
X101833577Y-89712433D01*
X101926195Y-89690397D01*
X102022725Y-89685653D01*
X102120883Y-89699267D01*
G37*
G36*
X95913745Y-89699267D02*
G01*
X95935477Y-89704940D01*
X96023647Y-89739941D01*
X96103220Y-89790750D01*
X96172387Y-89855066D01*
X96229336Y-89930587D01*
X96272257Y-90015010D01*
X96299337Y-90106035D01*
X96308766Y-90201358D01*
X96308216Y-90224181D01*
X96294484Y-90317854D01*
X96263694Y-90407084D01*
X96217708Y-90489477D01*
X96158384Y-90562641D01*
X96087583Y-90624182D01*
X96007165Y-90671708D01*
X95918991Y-90702824D01*
X95891031Y-90708788D01*
X95793498Y-90717521D01*
X95697864Y-90708301D01*
X95606491Y-90682220D01*
X95521739Y-90640368D01*
X95445972Y-90583836D01*
X95381549Y-90513716D01*
X95330833Y-90431098D01*
X95297921Y-90350028D01*
X95276926Y-90255524D01*
X95275446Y-90161629D01*
X95293480Y-90067231D01*
X95331030Y-89971219D01*
X95340805Y-89952168D01*
X95394917Y-89871629D01*
X95462084Y-89804116D01*
X95540020Y-89750695D01*
X95626440Y-89712433D01*
X95719058Y-89690397D01*
X95815588Y-89685653D01*
X95913745Y-89699267D01*
G37*
G36*
X103890294Y-92270047D02*
G01*
X103890306Y-92371696D01*
X103890323Y-92614798D01*
X103890327Y-92665676D01*
X103890337Y-92959639D01*
X103890338Y-92978202D01*
X103890341Y-93304480D01*
X103890341Y-93464923D01*
X103890338Y-93649321D01*
X103890336Y-93787238D01*
X103890328Y-93994162D01*
X103890325Y-94090696D01*
X103890307Y-94339003D01*
X103890304Y-94375879D01*
X103890271Y-94643368D01*
X103890263Y-94683844D01*
X103890222Y-94893743D01*
X103890156Y-95127585D01*
X103890069Y-95345476D01*
X103889960Y-95547997D01*
X103889824Y-95735727D01*
X103889660Y-95909250D01*
X103889465Y-96069144D01*
X103889237Y-96215992D01*
X103888972Y-96350374D01*
X103888667Y-96472872D01*
X103888662Y-96474337D01*
X103888321Y-96584066D01*
X103887930Y-96684537D01*
X103887492Y-96774866D01*
X103887005Y-96855635D01*
X103886465Y-96927423D01*
X103885869Y-96990813D01*
X103885216Y-97046385D01*
X103884502Y-97094721D01*
X103883725Y-97136400D01*
X103882882Y-97172004D01*
X103881970Y-97202115D01*
X103880987Y-97227312D01*
X103879931Y-97248178D01*
X103878797Y-97265292D01*
X103877584Y-97279237D01*
X103876290Y-97290592D01*
X103874910Y-97299940D01*
X103873444Y-97307860D01*
X103871887Y-97314934D01*
X103840236Y-97432041D01*
X103798869Y-97545599D01*
X103747213Y-97652626D01*
X103682501Y-97759623D01*
X103671614Y-97775770D01*
X103581214Y-97890401D01*
X103476062Y-97993986D01*
X103358374Y-98085161D01*
X103230364Y-98162566D01*
X103094248Y-98224836D01*
X102952240Y-98270609D01*
X102806555Y-98298522D01*
X102806110Y-98298557D01*
X102791725Y-98298816D01*
X102758392Y-98299065D01*
X102706779Y-98299302D01*
X102637555Y-98299528D01*
X102551387Y-98299741D01*
X102448946Y-98299942D01*
X102330900Y-98300129D01*
X102197917Y-98300304D01*
X102050666Y-98300464D01*
X101889817Y-98300610D01*
X101716037Y-98300742D01*
X101529995Y-98300858D01*
X101332360Y-98300959D01*
X101123801Y-98301044D01*
X100904986Y-98301112D01*
X100676585Y-98301164D01*
X100439265Y-98301198D01*
X100193697Y-98301215D01*
X99940547Y-98301213D01*
X99680485Y-98301193D01*
X99414180Y-98301154D01*
X99142301Y-98301096D01*
X98865516Y-98301018D01*
X98795636Y-98300996D01*
X98468343Y-98300887D01*
X98160058Y-98300776D01*
X97870203Y-98300658D01*
X97598202Y-98300532D01*
X97343476Y-98300395D01*
X97105448Y-98300244D01*
X96883539Y-98300077D01*
X96677173Y-98299890D01*
X96485772Y-98299682D01*
X96308757Y-98299450D01*
X96145552Y-98299191D01*
X95995578Y-98298902D01*
X95858257Y-98298581D01*
X95733013Y-98298226D01*
X95619268Y-98297832D01*
X95516443Y-98297399D01*
X95423961Y-98296923D01*
X95341245Y-98296401D01*
X95267716Y-98295832D01*
X95202797Y-98295212D01*
X95145910Y-98294538D01*
X95096478Y-98293809D01*
X95053923Y-98293021D01*
X95017667Y-98292172D01*
X94987132Y-98291259D01*
X94961741Y-98290280D01*
X94940917Y-98289232D01*
X94924081Y-98288112D01*
X94910655Y-98286917D01*
X94900063Y-98285646D01*
X94891725Y-98284295D01*
X94885066Y-98282861D01*
X94840330Y-98271196D01*
X94683815Y-98218605D01*
X94539422Y-98151001D01*
X94407735Y-98068973D01*
X94289340Y-97973112D01*
X94184822Y-97864009D01*
X94094767Y-97742253D01*
X94019760Y-97608434D01*
X93960387Y-97463143D01*
X93953545Y-97438382D01*
X97054920Y-97438382D01*
X97061316Y-97478791D01*
X97084659Y-97516943D01*
X97091248Y-97523799D01*
X97130803Y-97550921D01*
X97173329Y-97559656D01*
X97215708Y-97549918D01*
X97254826Y-97521622D01*
X97273947Y-97499270D01*
X97284795Y-97474982D01*
X97287458Y-97442661D01*
X97287457Y-97441873D01*
X97287177Y-97438382D01*
X97399761Y-97438382D01*
X97400438Y-97442661D01*
X97406157Y-97478791D01*
X97429499Y-97516943D01*
X97436089Y-97523799D01*
X97475644Y-97550921D01*
X97518170Y-97559656D01*
X97560549Y-97549918D01*
X97599666Y-97521622D01*
X97618788Y-97499270D01*
X97629636Y-97474982D01*
X97632299Y-97442661D01*
X97632298Y-97441873D01*
X97632018Y-97438382D01*
X98779125Y-97438382D01*
X98779802Y-97442661D01*
X98785521Y-97478791D01*
X98808863Y-97516943D01*
X98815453Y-97523799D01*
X98855008Y-97550921D01*
X98897533Y-97559656D01*
X98939913Y-97549918D01*
X98979030Y-97521622D01*
X98998152Y-97499270D01*
X99009000Y-97474982D01*
X99011663Y-97442661D01*
X99011662Y-97441873D01*
X99011382Y-97438382D01*
X99123966Y-97438382D01*
X99124643Y-97442661D01*
X99130362Y-97478791D01*
X99153704Y-97516943D01*
X99160294Y-97523799D01*
X99199849Y-97550921D01*
X99242374Y-97559656D01*
X99284754Y-97549918D01*
X99323871Y-97521622D01*
X99342993Y-97499270D01*
X99353841Y-97474982D01*
X99356504Y-97442661D01*
X99356503Y-97441873D01*
X99356223Y-97438382D01*
X99468807Y-97438382D01*
X99469484Y-97442661D01*
X99475203Y-97478791D01*
X99498545Y-97516943D01*
X99505135Y-97523799D01*
X99544690Y-97550921D01*
X99587215Y-97559656D01*
X99629595Y-97549918D01*
X99668712Y-97521622D01*
X99687834Y-97499270D01*
X99698682Y-97474982D01*
X99701345Y-97442661D01*
X99701344Y-97441873D01*
X99701064Y-97438382D01*
X99813648Y-97438382D01*
X99814325Y-97442661D01*
X99820044Y-97478791D01*
X99843386Y-97516943D01*
X99849976Y-97523799D01*
X99889531Y-97550921D01*
X99932056Y-97559656D01*
X99974436Y-97549918D01*
X100013553Y-97521622D01*
X100032675Y-97499270D01*
X100043523Y-97474982D01*
X100046186Y-97442661D01*
X100046185Y-97441873D01*
X100043706Y-97411005D01*
X100033625Y-97387920D01*
X100011764Y-97362946D01*
X99990622Y-97344019D01*
X99966295Y-97331513D01*
X99936270Y-97327958D01*
X99920941Y-97328597D01*
X99877845Y-97340821D01*
X99844378Y-97365674D01*
X99822369Y-97399435D01*
X99813648Y-97438382D01*
X99701064Y-97438382D01*
X99698865Y-97411005D01*
X99688784Y-97387920D01*
X99666923Y-97362946D01*
X99645781Y-97344019D01*
X99621454Y-97331513D01*
X99591429Y-97327958D01*
X99576100Y-97328597D01*
X99533004Y-97340821D01*
X99499537Y-97365674D01*
X99477528Y-97399435D01*
X99468807Y-97438382D01*
X99356223Y-97438382D01*
X99354024Y-97411005D01*
X99343943Y-97387920D01*
X99322082Y-97362946D01*
X99300940Y-97344019D01*
X99276613Y-97331513D01*
X99246588Y-97327958D01*
X99231259Y-97328597D01*
X99188163Y-97340821D01*
X99154696Y-97365674D01*
X99132687Y-97399435D01*
X99123966Y-97438382D01*
X99011382Y-97438382D01*
X99009183Y-97411005D01*
X98999102Y-97387920D01*
X98977241Y-97362946D01*
X98956099Y-97344019D01*
X98931772Y-97331513D01*
X98901747Y-97327958D01*
X98886418Y-97328597D01*
X98843322Y-97340821D01*
X98809855Y-97365674D01*
X98787846Y-97399435D01*
X98779125Y-97438382D01*
X97632018Y-97438382D01*
X97629819Y-97411005D01*
X97619738Y-97387920D01*
X97597878Y-97362946D01*
X97576735Y-97344019D01*
X97552409Y-97331513D01*
X97522383Y-97327958D01*
X97507054Y-97328597D01*
X97463958Y-97340821D01*
X97430491Y-97365674D01*
X97408482Y-97399435D01*
X97399761Y-97438382D01*
X97287177Y-97438382D01*
X97284978Y-97411005D01*
X97274897Y-97387920D01*
X97253037Y-97362946D01*
X97231894Y-97344019D01*
X97207568Y-97331513D01*
X97177542Y-97327958D01*
X97162213Y-97328597D01*
X97119117Y-97340821D01*
X97085650Y-97365674D01*
X97063641Y-97399435D01*
X97054920Y-97438382D01*
X93953545Y-97438382D01*
X93917231Y-97306970D01*
X93916264Y-97302216D01*
X93914847Y-97293907D01*
X93913513Y-97283875D01*
X93912261Y-97271541D01*
X93911086Y-97256326D01*
X93909988Y-97237648D01*
X93908963Y-97214928D01*
X93908009Y-97187585D01*
X93907124Y-97155040D01*
X93906304Y-97116712D01*
X93905912Y-97093541D01*
X94641033Y-97093541D01*
X94647429Y-97133950D01*
X94670772Y-97172102D01*
X94691868Y-97190947D01*
X94731249Y-97209345D01*
X94772155Y-97212274D01*
X94810714Y-97201157D01*
X94843052Y-97177414D01*
X94865296Y-97142465D01*
X94873571Y-97097730D01*
X94873571Y-97097064D01*
X94873289Y-97093541D01*
X94985874Y-97093541D01*
X94986537Y-97097730D01*
X94992270Y-97133950D01*
X95015613Y-97172102D01*
X95036709Y-97190947D01*
X95076090Y-97209345D01*
X95116996Y-97212274D01*
X95155555Y-97201157D01*
X95187893Y-97177414D01*
X95210137Y-97142465D01*
X95218412Y-97097730D01*
X95218412Y-97097064D01*
X95218130Y-97093541D01*
X95675556Y-97093541D01*
X95676219Y-97097730D01*
X95681952Y-97133950D01*
X95705295Y-97172102D01*
X95726391Y-97190947D01*
X95765772Y-97209345D01*
X95806678Y-97212274D01*
X95845237Y-97201157D01*
X95877575Y-97177414D01*
X95899819Y-97142465D01*
X95908094Y-97097730D01*
X95908093Y-97097064D01*
X95907811Y-97093541D01*
X96365238Y-97093541D01*
X96365901Y-97097730D01*
X96371634Y-97133950D01*
X96394977Y-97172102D01*
X96416073Y-97190947D01*
X96455454Y-97209345D01*
X96496360Y-97212274D01*
X96534919Y-97201157D01*
X96567257Y-97177414D01*
X96589501Y-97142465D01*
X96597776Y-97097730D01*
X96597775Y-97097064D01*
X96597493Y-97093541D01*
X97399761Y-97093541D01*
X97400424Y-97097730D01*
X97406157Y-97133950D01*
X97429499Y-97172102D01*
X97450596Y-97190947D01*
X97489976Y-97209345D01*
X97530883Y-97212274D01*
X97569442Y-97201157D01*
X97601780Y-97177414D01*
X97624024Y-97142465D01*
X97632299Y-97097730D01*
X97632298Y-97097064D01*
X97632016Y-97093541D01*
X97744602Y-97093541D01*
X97745265Y-97097730D01*
X97750998Y-97133950D01*
X97774340Y-97172102D01*
X97795437Y-97190947D01*
X97834817Y-97209345D01*
X97875724Y-97212274D01*
X97914283Y-97201157D01*
X97946621Y-97177414D01*
X97968864Y-97142465D01*
X97977140Y-97097730D01*
X97977139Y-97097064D01*
X97976857Y-97093541D01*
X99123966Y-97093541D01*
X99124629Y-97097730D01*
X99130362Y-97133950D01*
X99153704Y-97172102D01*
X99174801Y-97190947D01*
X99214181Y-97209345D01*
X99255088Y-97212274D01*
X99293647Y-97201157D01*
X99325985Y-97177414D01*
X99348228Y-97142465D01*
X99356504Y-97097730D01*
X99356503Y-97097064D01*
X99356221Y-97093541D01*
X99813648Y-97093541D01*
X99814311Y-97097730D01*
X99820044Y-97133950D01*
X99843386Y-97172102D01*
X99864483Y-97190947D01*
X99903863Y-97209345D01*
X99944770Y-97212274D01*
X99983329Y-97201157D01*
X100015667Y-97177414D01*
X100037910Y-97142465D01*
X100046186Y-97097730D01*
X100046185Y-97097064D01*
X100043713Y-97066192D01*
X100033632Y-97043093D01*
X100011764Y-97018105D01*
X99990622Y-96999178D01*
X99966295Y-96986672D01*
X99936270Y-96983117D01*
X99920941Y-96983756D01*
X99877845Y-96995980D01*
X99844378Y-97020833D01*
X99822369Y-97054594D01*
X99813648Y-97093541D01*
X99356221Y-97093541D01*
X99354031Y-97066192D01*
X99343950Y-97043093D01*
X99322082Y-97018105D01*
X99300940Y-96999178D01*
X99276613Y-96986672D01*
X99246588Y-96983117D01*
X99231259Y-96983756D01*
X99188163Y-96995980D01*
X99154696Y-97020833D01*
X99132687Y-97054594D01*
X99123966Y-97093541D01*
X97976857Y-97093541D01*
X97974668Y-97066192D01*
X97964586Y-97043093D01*
X97942718Y-97018105D01*
X97921576Y-96999178D01*
X97897249Y-96986672D01*
X97867224Y-96983117D01*
X97851895Y-96983756D01*
X97808799Y-96995980D01*
X97775332Y-97020833D01*
X97753323Y-97054594D01*
X97744602Y-97093541D01*
X97632016Y-97093541D01*
X97629827Y-97066192D01*
X97619745Y-97043093D01*
X97597878Y-97018105D01*
X97576735Y-96999178D01*
X97552409Y-96986672D01*
X97522383Y-96983117D01*
X97507054Y-96983756D01*
X97463958Y-96995980D01*
X97430491Y-97020833D01*
X97408482Y-97054594D01*
X97399761Y-97093541D01*
X96597493Y-97093541D01*
X96595304Y-97066192D01*
X96585222Y-97043093D01*
X96563355Y-97018105D01*
X96542212Y-96999178D01*
X96517886Y-96986672D01*
X96487860Y-96983117D01*
X96472531Y-96983756D01*
X96429435Y-96995980D01*
X96395968Y-97020833D01*
X96373959Y-97054594D01*
X96365238Y-97093541D01*
X95907811Y-97093541D01*
X95905622Y-97066192D01*
X95895541Y-97043093D01*
X95873673Y-97018105D01*
X95852530Y-96999178D01*
X95828204Y-96986672D01*
X95798178Y-96983117D01*
X95782849Y-96983756D01*
X95739753Y-96995980D01*
X95706286Y-97020833D01*
X95684277Y-97054594D01*
X95675556Y-97093541D01*
X95218130Y-97093541D01*
X95215940Y-97066192D01*
X95205859Y-97043093D01*
X95183991Y-97018105D01*
X95162848Y-96999178D01*
X95138522Y-96986672D01*
X95108497Y-96983117D01*
X95093167Y-96983756D01*
X95050071Y-96995980D01*
X95016604Y-97020833D01*
X94994595Y-97054594D01*
X94985874Y-97093541D01*
X94873289Y-97093541D01*
X94871099Y-97066192D01*
X94861018Y-97043093D01*
X94839150Y-97018105D01*
X94818007Y-96999178D01*
X94793681Y-96986672D01*
X94763656Y-96983117D01*
X94748326Y-96983756D01*
X94705230Y-96995980D01*
X94671763Y-97020833D01*
X94649754Y-97054594D01*
X94641033Y-97093541D01*
X93905912Y-97093541D01*
X93905547Y-97072022D01*
X93904852Y-97020389D01*
X93904214Y-96961233D01*
X93903632Y-96893973D01*
X93903104Y-96818031D01*
X93902715Y-96748700D01*
X94641033Y-96748700D01*
X94647429Y-96789110D01*
X94670772Y-96827261D01*
X94691868Y-96846107D01*
X94731249Y-96864504D01*
X94772155Y-96867433D01*
X94810714Y-96856316D01*
X94843052Y-96832573D01*
X94865296Y-96797624D01*
X94873571Y-96752889D01*
X94873571Y-96752223D01*
X94873289Y-96748700D01*
X95675556Y-96748700D01*
X95676219Y-96752889D01*
X95681952Y-96789110D01*
X95705295Y-96827261D01*
X95726391Y-96846107D01*
X95765772Y-96864504D01*
X95806678Y-96867433D01*
X95845237Y-96856316D01*
X95877575Y-96832573D01*
X95899819Y-96797624D01*
X95908094Y-96752889D01*
X95908093Y-96752223D01*
X95907811Y-96748700D01*
X96365238Y-96748700D01*
X96365901Y-96752889D01*
X96371634Y-96789110D01*
X96394977Y-96827261D01*
X96416073Y-96846107D01*
X96455454Y-96864504D01*
X96496360Y-96867433D01*
X96534919Y-96856316D01*
X96567257Y-96832573D01*
X96589501Y-96797624D01*
X96597776Y-96752889D01*
X96597775Y-96752223D01*
X96597493Y-96748700D01*
X98779125Y-96748700D01*
X98779788Y-96752889D01*
X98785521Y-96789110D01*
X98808863Y-96827261D01*
X98829960Y-96846107D01*
X98869340Y-96864504D01*
X98910247Y-96867433D01*
X98948806Y-96856316D01*
X98981144Y-96832573D01*
X99003387Y-96797624D01*
X99011663Y-96752889D01*
X99011662Y-96752223D01*
X99009190Y-96721351D01*
X98999109Y-96698252D01*
X98977241Y-96673264D01*
X98956099Y-96654337D01*
X98931772Y-96641831D01*
X98901747Y-96638276D01*
X98886418Y-96638915D01*
X98843322Y-96651139D01*
X98809855Y-96675992D01*
X98787846Y-96709753D01*
X98779125Y-96748700D01*
X96597493Y-96748700D01*
X96595304Y-96721351D01*
X96585222Y-96698252D01*
X96563355Y-96673264D01*
X96542212Y-96654337D01*
X96517886Y-96641831D01*
X96487860Y-96638276D01*
X96472531Y-96638915D01*
X96429435Y-96651139D01*
X96395968Y-96675992D01*
X96373959Y-96709753D01*
X96365238Y-96748700D01*
X95907811Y-96748700D01*
X95905622Y-96721351D01*
X95895541Y-96698252D01*
X95873673Y-96673264D01*
X95852530Y-96654337D01*
X95828204Y-96641831D01*
X95798178Y-96638276D01*
X95782849Y-96638915D01*
X95739753Y-96651139D01*
X95706286Y-96675992D01*
X95684277Y-96709753D01*
X95675556Y-96748700D01*
X94873289Y-96748700D01*
X94871099Y-96721351D01*
X94861018Y-96698252D01*
X94839150Y-96673264D01*
X94818007Y-96654337D01*
X94793681Y-96641831D01*
X94763656Y-96638276D01*
X94748326Y-96638915D01*
X94705230Y-96651139D01*
X94671763Y-96675992D01*
X94649754Y-96709753D01*
X94641033Y-96748700D01*
X93902715Y-96748700D01*
X93902626Y-96732825D01*
X93902196Y-96637776D01*
X93901812Y-96532304D01*
X93901471Y-96415828D01*
X93901443Y-96403859D01*
X94641033Y-96403859D01*
X94647429Y-96444269D01*
X94670772Y-96482420D01*
X94691868Y-96501266D01*
X94731249Y-96519663D01*
X94772155Y-96522592D01*
X94810714Y-96511475D01*
X94843052Y-96487732D01*
X94865296Y-96452783D01*
X94873571Y-96408048D01*
X94873571Y-96407382D01*
X94873289Y-96403859D01*
X94985874Y-96403859D01*
X94986537Y-96408048D01*
X94992270Y-96444269D01*
X95015613Y-96482420D01*
X95036709Y-96501266D01*
X95076090Y-96519663D01*
X95116996Y-96522592D01*
X95155555Y-96511475D01*
X95187893Y-96487732D01*
X95210137Y-96452783D01*
X95218412Y-96408048D01*
X95218412Y-96407382D01*
X95218130Y-96403859D01*
X96365238Y-96403859D01*
X96365901Y-96408048D01*
X96371634Y-96444269D01*
X96394977Y-96482420D01*
X96416073Y-96501266D01*
X96455454Y-96519663D01*
X96496360Y-96522592D01*
X96534919Y-96511475D01*
X96567257Y-96487732D01*
X96589501Y-96452783D01*
X96597776Y-96408048D01*
X96597775Y-96407382D01*
X96597493Y-96403859D01*
X98089443Y-96403859D01*
X98090106Y-96408048D01*
X98095839Y-96444269D01*
X98119181Y-96482420D01*
X98140278Y-96501266D01*
X98179658Y-96519663D01*
X98220565Y-96522592D01*
X98259124Y-96511475D01*
X98291462Y-96487732D01*
X98313705Y-96452783D01*
X98321981Y-96408048D01*
X98321980Y-96407382D01*
X98321698Y-96403859D01*
X98434284Y-96403859D01*
X98434947Y-96408048D01*
X98440680Y-96444269D01*
X98464022Y-96482420D01*
X98485119Y-96501266D01*
X98524499Y-96519663D01*
X98565406Y-96522592D01*
X98603965Y-96511475D01*
X98636303Y-96487732D01*
X98658546Y-96452783D01*
X98666822Y-96408048D01*
X98666821Y-96407382D01*
X98666539Y-96403859D01*
X99468807Y-96403859D01*
X99469470Y-96408048D01*
X99475203Y-96444269D01*
X99498545Y-96482420D01*
X99519642Y-96501266D01*
X99559022Y-96519663D01*
X99599929Y-96522592D01*
X99638488Y-96511475D01*
X99670826Y-96487732D01*
X99693069Y-96452783D01*
X99701345Y-96408048D01*
X99701344Y-96407382D01*
X99698872Y-96376510D01*
X99688791Y-96353411D01*
X99684274Y-96348249D01*
X100451605Y-96348249D01*
X100452469Y-96408048D01*
X100454004Y-96514243D01*
X100474144Y-96678888D01*
X100491404Y-96752889D01*
X100511892Y-96840734D01*
X100567117Y-96998332D01*
X100614606Y-97097730D01*
X100639689Y-97150232D01*
X100729476Y-97294985D01*
X100836347Y-97431143D01*
X100847056Y-97442661D01*
X100892933Y-97492005D01*
X101016188Y-97604305D01*
X101151140Y-97703181D01*
X101295504Y-97787376D01*
X101446990Y-97855635D01*
X101603311Y-97906703D01*
X101762180Y-97939322D01*
X101802367Y-97944622D01*
X101979420Y-97956155D01*
X102154488Y-97948286D01*
X102326722Y-97921090D01*
X102495276Y-97874641D01*
X102549687Y-97855155D01*
X102706020Y-97785515D01*
X102852792Y-97699460D01*
X102988794Y-97598197D01*
X103112818Y-97482934D01*
X103223653Y-97354880D01*
X103320090Y-97215243D01*
X103400920Y-97065231D01*
X103464932Y-96906051D01*
X103493364Y-96812389D01*
X103528969Y-96643881D01*
X103545603Y-96474337D01*
X103543562Y-96305204D01*
X103523138Y-96137928D01*
X103484624Y-95973957D01*
X103428314Y-95814736D01*
X103354500Y-95661714D01*
X103263477Y-95516336D01*
X103155538Y-95380049D01*
X103100309Y-95320600D01*
X102979761Y-95209519D01*
X102849377Y-95113869D01*
X102706052Y-95031239D01*
X102610711Y-94986536D01*
X102448381Y-94927253D01*
X102282445Y-94886635D01*
X102114351Y-94864601D01*
X101945543Y-94861071D01*
X101777471Y-94875966D01*
X101611580Y-94909204D01*
X101449318Y-94960704D01*
X101295975Y-95028684D01*
X101292131Y-95030388D01*
X101141466Y-95118174D01*
X101100789Y-95146082D01*
X100977602Y-95244456D01*
X100862558Y-95357193D01*
X100848879Y-95373525D01*
X100759313Y-95480463D01*
X100671526Y-95610435D01*
X100622028Y-95699754D01*
X100613740Y-95718366D01*
X100552157Y-95856657D01*
X100500550Y-96018006D01*
X100491344Y-96063207D01*
X100467076Y-96182353D01*
X100451605Y-96348249D01*
X99684274Y-96348249D01*
X99666923Y-96328423D01*
X99645781Y-96309496D01*
X99621454Y-96296990D01*
X99591429Y-96293435D01*
X99576100Y-96294074D01*
X99533004Y-96306298D01*
X99499537Y-96331152D01*
X99477528Y-96364912D01*
X99468807Y-96403859D01*
X98666539Y-96403859D01*
X98664349Y-96376510D01*
X98654268Y-96353411D01*
X98632400Y-96328423D01*
X98611258Y-96309496D01*
X98586931Y-96296990D01*
X98556906Y-96293435D01*
X98541577Y-96294074D01*
X98498481Y-96306298D01*
X98465014Y-96331152D01*
X98443005Y-96364912D01*
X98434284Y-96403859D01*
X98321698Y-96403859D01*
X98319509Y-96376510D01*
X98309427Y-96353411D01*
X98287559Y-96328423D01*
X98266417Y-96309496D01*
X98242090Y-96296990D01*
X98212065Y-96293435D01*
X98196736Y-96294074D01*
X98153640Y-96306298D01*
X98120173Y-96331152D01*
X98098164Y-96364912D01*
X98089443Y-96403859D01*
X96597493Y-96403859D01*
X96595304Y-96376510D01*
X96585222Y-96353411D01*
X96563355Y-96328423D01*
X96542212Y-96309496D01*
X96517886Y-96296990D01*
X96487860Y-96293435D01*
X96472531Y-96294074D01*
X96429435Y-96306298D01*
X96395968Y-96331152D01*
X96373959Y-96364912D01*
X96365238Y-96403859D01*
X95218130Y-96403859D01*
X95215940Y-96376510D01*
X95205859Y-96353411D01*
X95183991Y-96328423D01*
X95162848Y-96309496D01*
X95138522Y-96296990D01*
X95108497Y-96293435D01*
X95093167Y-96294074D01*
X95050071Y-96306298D01*
X95016604Y-96331152D01*
X94994595Y-96364912D01*
X94985874Y-96403859D01*
X94873289Y-96403859D01*
X94871099Y-96376510D01*
X94861018Y-96353411D01*
X94839150Y-96328423D01*
X94818007Y-96309496D01*
X94793681Y-96296990D01*
X94763656Y-96293435D01*
X94748326Y-96294074D01*
X94705230Y-96306298D01*
X94671763Y-96331152D01*
X94649754Y-96364912D01*
X94641033Y-96403859D01*
X93901443Y-96403859D01*
X93901170Y-96287768D01*
X93900908Y-96147545D01*
X93900777Y-96059018D01*
X94641033Y-96059018D01*
X94647429Y-96099428D01*
X94670772Y-96137579D01*
X94691868Y-96156425D01*
X94731249Y-96174822D01*
X94772155Y-96177751D01*
X94810714Y-96166634D01*
X94843052Y-96142891D01*
X94865296Y-96107942D01*
X94873571Y-96063207D01*
X94873571Y-96062541D01*
X94873289Y-96059018D01*
X94985874Y-96059018D01*
X94986537Y-96063207D01*
X94992270Y-96099428D01*
X95015613Y-96137579D01*
X95036709Y-96156425D01*
X95076090Y-96174822D01*
X95116996Y-96177751D01*
X95155555Y-96166634D01*
X95187893Y-96142891D01*
X95210137Y-96107942D01*
X95218412Y-96063207D01*
X95218412Y-96062541D01*
X95218130Y-96059018D01*
X95330715Y-96059018D01*
X95331378Y-96063207D01*
X95337111Y-96099428D01*
X95360454Y-96137579D01*
X95381550Y-96156425D01*
X95420931Y-96174822D01*
X95461837Y-96177751D01*
X95500396Y-96166634D01*
X95532734Y-96142891D01*
X95554978Y-96107942D01*
X95563253Y-96063207D01*
X95563253Y-96062541D01*
X95562971Y-96059018D01*
X97744602Y-96059018D01*
X97745265Y-96063207D01*
X97750998Y-96099428D01*
X97774340Y-96137579D01*
X97795437Y-96156425D01*
X97834817Y-96174822D01*
X97875724Y-96177751D01*
X97914283Y-96166634D01*
X97946621Y-96142891D01*
X97968864Y-96107942D01*
X97977140Y-96063207D01*
X97977139Y-96062541D01*
X97976857Y-96059018D01*
X98434284Y-96059018D01*
X98434947Y-96063207D01*
X98440680Y-96099428D01*
X98464022Y-96137579D01*
X98485119Y-96156425D01*
X98524499Y-96174822D01*
X98565406Y-96177751D01*
X98603965Y-96166634D01*
X98636303Y-96142891D01*
X98658546Y-96107942D01*
X98666822Y-96063207D01*
X98666821Y-96062541D01*
X98666539Y-96059018D01*
X98779125Y-96059018D01*
X98779788Y-96063207D01*
X98785521Y-96099428D01*
X98808863Y-96137579D01*
X98829960Y-96156425D01*
X98869340Y-96174822D01*
X98910247Y-96177751D01*
X98948806Y-96166634D01*
X98981144Y-96142891D01*
X99003387Y-96107942D01*
X99011663Y-96063207D01*
X99011662Y-96062541D01*
X99011380Y-96059018D01*
X99468807Y-96059018D01*
X99469470Y-96063207D01*
X99475203Y-96099428D01*
X99498545Y-96137579D01*
X99519642Y-96156425D01*
X99559022Y-96174822D01*
X99599929Y-96177751D01*
X99638488Y-96166634D01*
X99670826Y-96142891D01*
X99693069Y-96107942D01*
X99701345Y-96063207D01*
X99701344Y-96062541D01*
X99701062Y-96059018D01*
X100158489Y-96059018D01*
X100159152Y-96063207D01*
X100164885Y-96099428D01*
X100188227Y-96137579D01*
X100209324Y-96156425D01*
X100248704Y-96174822D01*
X100289611Y-96177751D01*
X100328170Y-96166634D01*
X100360508Y-96142891D01*
X100382751Y-96107942D01*
X100391026Y-96063207D01*
X100391026Y-96062541D01*
X100388554Y-96031669D01*
X100378473Y-96008570D01*
X100356605Y-95983582D01*
X100335463Y-95964655D01*
X100311136Y-95952149D01*
X100281111Y-95948594D01*
X100265782Y-95949234D01*
X100222686Y-95961457D01*
X100189219Y-95986311D01*
X100167210Y-96020071D01*
X100158489Y-96059018D01*
X99701062Y-96059018D01*
X99698872Y-96031669D01*
X99688791Y-96008570D01*
X99666923Y-95983582D01*
X99645781Y-95964655D01*
X99621454Y-95952149D01*
X99591429Y-95948594D01*
X99576100Y-95949234D01*
X99533004Y-95961457D01*
X99499537Y-95986311D01*
X99477528Y-96020071D01*
X99468807Y-96059018D01*
X99011380Y-96059018D01*
X99009190Y-96031669D01*
X98999109Y-96008570D01*
X98977241Y-95983582D01*
X98956099Y-95964655D01*
X98931772Y-95952149D01*
X98901747Y-95948594D01*
X98886418Y-95949234D01*
X98843322Y-95961457D01*
X98809855Y-95986311D01*
X98787846Y-96020071D01*
X98779125Y-96059018D01*
X98666539Y-96059018D01*
X98664349Y-96031669D01*
X98654268Y-96008570D01*
X98632400Y-95983582D01*
X98611258Y-95964655D01*
X98586931Y-95952149D01*
X98556906Y-95948594D01*
X98541577Y-95949234D01*
X98498481Y-95961457D01*
X98465014Y-95986311D01*
X98443005Y-96020071D01*
X98434284Y-96059018D01*
X97976857Y-96059018D01*
X97974668Y-96031669D01*
X97964586Y-96008570D01*
X97942718Y-95983582D01*
X97921576Y-95964655D01*
X97897249Y-95952149D01*
X97867224Y-95948594D01*
X97851895Y-95949234D01*
X97808799Y-95961457D01*
X97775332Y-95986311D01*
X97753323Y-96020071D01*
X97744602Y-96059018D01*
X95562971Y-96059018D01*
X95560781Y-96031669D01*
X95550700Y-96008570D01*
X95528832Y-95983582D01*
X95507689Y-95964655D01*
X95483363Y-95952149D01*
X95453337Y-95948594D01*
X95438008Y-95949234D01*
X95394912Y-95961457D01*
X95361445Y-95986311D01*
X95339436Y-96020071D01*
X95330715Y-96059018D01*
X95218130Y-96059018D01*
X95215940Y-96031669D01*
X95205859Y-96008570D01*
X95183991Y-95983582D01*
X95162848Y-95964655D01*
X95138522Y-95952149D01*
X95108497Y-95948594D01*
X95093167Y-95949234D01*
X95050071Y-95961457D01*
X95016604Y-95986311D01*
X94994595Y-96020071D01*
X94985874Y-96059018D01*
X94873289Y-96059018D01*
X94871099Y-96031669D01*
X94861018Y-96008570D01*
X94839150Y-95983582D01*
X94818007Y-95964655D01*
X94793681Y-95952149D01*
X94763656Y-95948594D01*
X94748326Y-95949234D01*
X94705230Y-95961457D01*
X94671763Y-95986311D01*
X94649754Y-96020071D01*
X94641033Y-96059018D01*
X93900777Y-96059018D01*
X93900681Y-95994577D01*
X93900487Y-95828286D01*
X93900383Y-95714177D01*
X94641033Y-95714177D01*
X94647429Y-95754587D01*
X94670772Y-95792738D01*
X94691868Y-95811584D01*
X94731249Y-95829981D01*
X94772155Y-95832910D01*
X94810714Y-95821793D01*
X94843052Y-95798050D01*
X94865296Y-95763101D01*
X94873571Y-95718366D01*
X94873571Y-95717700D01*
X94873289Y-95714177D01*
X95330715Y-95714177D01*
X95331378Y-95718366D01*
X95337111Y-95754587D01*
X95360454Y-95792738D01*
X95381550Y-95811584D01*
X95420931Y-95829981D01*
X95461837Y-95832910D01*
X95500396Y-95821793D01*
X95532734Y-95798050D01*
X95554978Y-95763101D01*
X95563253Y-95718366D01*
X95563253Y-95717700D01*
X95562971Y-95714177D01*
X95675556Y-95714177D01*
X95676219Y-95718366D01*
X95681952Y-95754587D01*
X95705295Y-95792738D01*
X95726391Y-95811584D01*
X95765772Y-95829981D01*
X95806678Y-95832910D01*
X95845237Y-95821793D01*
X95877575Y-95798050D01*
X95899819Y-95763101D01*
X95908094Y-95718366D01*
X95908093Y-95717700D01*
X95905622Y-95686828D01*
X95895541Y-95663730D01*
X95873673Y-95638742D01*
X95852530Y-95619814D01*
X95828204Y-95607308D01*
X95798178Y-95603753D01*
X95782849Y-95604393D01*
X95739753Y-95616616D01*
X95706286Y-95641470D01*
X95684277Y-95675230D01*
X95675556Y-95714177D01*
X95562971Y-95714177D01*
X95560781Y-95686828D01*
X95550700Y-95663730D01*
X95528832Y-95638742D01*
X95507689Y-95619814D01*
X95483363Y-95607308D01*
X95453337Y-95603753D01*
X95438008Y-95604393D01*
X95394912Y-95616616D01*
X95361445Y-95641470D01*
X95339436Y-95675230D01*
X95330715Y-95714177D01*
X94873289Y-95714177D01*
X94871099Y-95686828D01*
X94861018Y-95663730D01*
X94839150Y-95638742D01*
X94818007Y-95619814D01*
X94793681Y-95607308D01*
X94763656Y-95603753D01*
X94748326Y-95604393D01*
X94705230Y-95616616D01*
X94671763Y-95641470D01*
X94649754Y-95675230D01*
X94641033Y-95714177D01*
X93900383Y-95714177D01*
X93900323Y-95648090D01*
X93900188Y-95453410D01*
X93900144Y-95369336D01*
X95675556Y-95369336D01*
X95681952Y-95409746D01*
X95705295Y-95447897D01*
X95726391Y-95466743D01*
X95765772Y-95485140D01*
X95806678Y-95488069D01*
X95845237Y-95476952D01*
X95877575Y-95453209D01*
X95899819Y-95418260D01*
X95902084Y-95406014D01*
X96312688Y-95406014D01*
X96327530Y-95498552D01*
X96359047Y-95586164D01*
X96405762Y-95666738D01*
X96449450Y-95718366D01*
X96466200Y-95738161D01*
X96538883Y-95798321D01*
X96622337Y-95845104D01*
X96715085Y-95876400D01*
X96791078Y-95888108D01*
X96883269Y-95886064D01*
X96971750Y-95867240D01*
X97054766Y-95833249D01*
X97130563Y-95785703D01*
X97197384Y-95726217D01*
X97207057Y-95714177D01*
X98089443Y-95714177D01*
X98095839Y-95754587D01*
X98119181Y-95792738D01*
X98140278Y-95811584D01*
X98179658Y-95829981D01*
X98220565Y-95832910D01*
X98259124Y-95821793D01*
X98291462Y-95798050D01*
X98313705Y-95763101D01*
X98321981Y-95718366D01*
X98321980Y-95717700D01*
X98321698Y-95714177D01*
X98434284Y-95714177D01*
X98434947Y-95718366D01*
X98440680Y-95754587D01*
X98464022Y-95792738D01*
X98485119Y-95811584D01*
X98524499Y-95829981D01*
X98565406Y-95832910D01*
X98603965Y-95821793D01*
X98636303Y-95798050D01*
X98658546Y-95763101D01*
X98666822Y-95718366D01*
X98666821Y-95717700D01*
X98666539Y-95714177D01*
X99123966Y-95714177D01*
X99124629Y-95718366D01*
X99130362Y-95754587D01*
X99153704Y-95792738D01*
X99174801Y-95811584D01*
X99214181Y-95829981D01*
X99255088Y-95832910D01*
X99293647Y-95821793D01*
X99325985Y-95798050D01*
X99348228Y-95763101D01*
X99356504Y-95718366D01*
X99356503Y-95717700D01*
X99356221Y-95714177D01*
X99468807Y-95714177D01*
X99469470Y-95718366D01*
X99475203Y-95754587D01*
X99498545Y-95792738D01*
X99519642Y-95811584D01*
X99559022Y-95829981D01*
X99599929Y-95832910D01*
X99638488Y-95821793D01*
X99670826Y-95798050D01*
X99693069Y-95763101D01*
X99701345Y-95718366D01*
X99701344Y-95717700D01*
X99701062Y-95714177D01*
X99813648Y-95714177D01*
X99814311Y-95718366D01*
X99820044Y-95754587D01*
X99843386Y-95792738D01*
X99864483Y-95811584D01*
X99903863Y-95829981D01*
X99944770Y-95832910D01*
X99983329Y-95821793D01*
X100015667Y-95798050D01*
X100037910Y-95763101D01*
X100046186Y-95718366D01*
X100046185Y-95717700D01*
X100045903Y-95714177D01*
X100158489Y-95714177D01*
X100159152Y-95718366D01*
X100164885Y-95754587D01*
X100188227Y-95792738D01*
X100209324Y-95811584D01*
X100248704Y-95829981D01*
X100289611Y-95832910D01*
X100328170Y-95821793D01*
X100360508Y-95798050D01*
X100382751Y-95763101D01*
X100391026Y-95718366D01*
X100391026Y-95717700D01*
X100388554Y-95686828D01*
X100378473Y-95663730D01*
X100356605Y-95638742D01*
X100335463Y-95619814D01*
X100311136Y-95607308D01*
X100281111Y-95603753D01*
X100265782Y-95604393D01*
X100222686Y-95616616D01*
X100189219Y-95641470D01*
X100167210Y-95675230D01*
X100158489Y-95714177D01*
X100045903Y-95714177D01*
X100043713Y-95686828D01*
X100033632Y-95663730D01*
X100011764Y-95638742D01*
X99990622Y-95619814D01*
X99966295Y-95607308D01*
X99936270Y-95603753D01*
X99920941Y-95604393D01*
X99877845Y-95616616D01*
X99844378Y-95641470D01*
X99822369Y-95675230D01*
X99813648Y-95714177D01*
X99701062Y-95714177D01*
X99698872Y-95686828D01*
X99688791Y-95663730D01*
X99666923Y-95638742D01*
X99645781Y-95619814D01*
X99621454Y-95607308D01*
X99591429Y-95603753D01*
X99576100Y-95604393D01*
X99533004Y-95616616D01*
X99499537Y-95641470D01*
X99477528Y-95675230D01*
X99468807Y-95714177D01*
X99356221Y-95714177D01*
X99354031Y-95686828D01*
X99343950Y-95663730D01*
X99322082Y-95638742D01*
X99300940Y-95619814D01*
X99276613Y-95607308D01*
X99246588Y-95603753D01*
X99231259Y-95604393D01*
X99188163Y-95616616D01*
X99154696Y-95641470D01*
X99132687Y-95675230D01*
X99123966Y-95714177D01*
X98666539Y-95714177D01*
X98664349Y-95686828D01*
X98654268Y-95663730D01*
X98632400Y-95638742D01*
X98611258Y-95619814D01*
X98586931Y-95607308D01*
X98556906Y-95603753D01*
X98541577Y-95604393D01*
X98498481Y-95616616D01*
X98465014Y-95641470D01*
X98443005Y-95675230D01*
X98434284Y-95714177D01*
X98321698Y-95714177D01*
X98319509Y-95686828D01*
X98309427Y-95663730D01*
X98287559Y-95638742D01*
X98266417Y-95619814D01*
X98242090Y-95607308D01*
X98212065Y-95603753D01*
X98196736Y-95604393D01*
X98153640Y-95616616D01*
X98120173Y-95641470D01*
X98098164Y-95675230D01*
X98089443Y-95714177D01*
X97207057Y-95714177D01*
X97253475Y-95656403D01*
X97297081Y-95577876D01*
X97326446Y-95492249D01*
X97339815Y-95401135D01*
X97338348Y-95369336D01*
X97744602Y-95369336D01*
X97749635Y-95401135D01*
X97750998Y-95409746D01*
X97774340Y-95447897D01*
X97795437Y-95466743D01*
X97834817Y-95485140D01*
X97875724Y-95488069D01*
X97914283Y-95476952D01*
X97946621Y-95453209D01*
X97968864Y-95418260D01*
X97977140Y-95373525D01*
X97977139Y-95372859D01*
X97976857Y-95369336D01*
X98434284Y-95369336D01*
X98434947Y-95373525D01*
X98440680Y-95409746D01*
X98464022Y-95447897D01*
X98485119Y-95466743D01*
X98524499Y-95485140D01*
X98565406Y-95488069D01*
X98603965Y-95476952D01*
X98636303Y-95453209D01*
X98658546Y-95418260D01*
X98666822Y-95373525D01*
X98666821Y-95372859D01*
X98666539Y-95369336D01*
X98779125Y-95369336D01*
X98779788Y-95373525D01*
X98785521Y-95409746D01*
X98808863Y-95447897D01*
X98829960Y-95466743D01*
X98869340Y-95485140D01*
X98910247Y-95488069D01*
X98948806Y-95476952D01*
X98981144Y-95453209D01*
X99003387Y-95418260D01*
X99011663Y-95373525D01*
X99011662Y-95372859D01*
X99011380Y-95369336D01*
X99123966Y-95369336D01*
X99124629Y-95373525D01*
X99130362Y-95409746D01*
X99153704Y-95447897D01*
X99174801Y-95466743D01*
X99214181Y-95485140D01*
X99255088Y-95488069D01*
X99293647Y-95476952D01*
X99325985Y-95453209D01*
X99348228Y-95418260D01*
X99356504Y-95373525D01*
X99356503Y-95372859D01*
X99356221Y-95369336D01*
X100158489Y-95369336D01*
X100159152Y-95373525D01*
X100164885Y-95409746D01*
X100188227Y-95447897D01*
X100209324Y-95466743D01*
X100248704Y-95485140D01*
X100289611Y-95488069D01*
X100328170Y-95476952D01*
X100360508Y-95453209D01*
X100382751Y-95418260D01*
X100391026Y-95373525D01*
X100391026Y-95372859D01*
X100388554Y-95341987D01*
X100378473Y-95318889D01*
X100356605Y-95293901D01*
X100335463Y-95274973D01*
X100311136Y-95262467D01*
X100281111Y-95258912D01*
X100265782Y-95259552D01*
X100222686Y-95271775D01*
X100189219Y-95296629D01*
X100167210Y-95330389D01*
X100158489Y-95369336D01*
X99356221Y-95369336D01*
X99354031Y-95341987D01*
X99343950Y-95318889D01*
X99322082Y-95293901D01*
X99300940Y-95274973D01*
X99276613Y-95262467D01*
X99246588Y-95258912D01*
X99231259Y-95259552D01*
X99188163Y-95271775D01*
X99154696Y-95296629D01*
X99132687Y-95330389D01*
X99123966Y-95369336D01*
X99011380Y-95369336D01*
X99009190Y-95341987D01*
X98999109Y-95318889D01*
X98977241Y-95293901D01*
X98956099Y-95274973D01*
X98931772Y-95262467D01*
X98901747Y-95258912D01*
X98886418Y-95259552D01*
X98843322Y-95271775D01*
X98809855Y-95296629D01*
X98787846Y-95330389D01*
X98779125Y-95369336D01*
X98666539Y-95369336D01*
X98664349Y-95341987D01*
X98654268Y-95318889D01*
X98632400Y-95293901D01*
X98611258Y-95274973D01*
X98586931Y-95262467D01*
X98556906Y-95258912D01*
X98541577Y-95259552D01*
X98498481Y-95271775D01*
X98465014Y-95296629D01*
X98443005Y-95330389D01*
X98434284Y-95369336D01*
X97976857Y-95369336D01*
X97974668Y-95341987D01*
X97964586Y-95318889D01*
X97942718Y-95293901D01*
X97921576Y-95274973D01*
X97897249Y-95262467D01*
X97867224Y-95258912D01*
X97851895Y-95259552D01*
X97808799Y-95271775D01*
X97775332Y-95296629D01*
X97753323Y-95330389D01*
X97744602Y-95369336D01*
X97338348Y-95369336D01*
X97335432Y-95306148D01*
X97334175Y-95297859D01*
X97309904Y-95203469D01*
X97269811Y-95117568D01*
X97215898Y-95041557D01*
X97198570Y-95024495D01*
X97744602Y-95024495D01*
X97750998Y-95064905D01*
X97774340Y-95103056D01*
X97795437Y-95121902D01*
X97834817Y-95140299D01*
X97875724Y-95143229D01*
X97914283Y-95132111D01*
X97946621Y-95108368D01*
X97968864Y-95073419D01*
X97977140Y-95028684D01*
X97977139Y-95028018D01*
X97976857Y-95024495D01*
X99468807Y-95024495D01*
X99469470Y-95028684D01*
X99475203Y-95064905D01*
X99498545Y-95103056D01*
X99519642Y-95121902D01*
X99559022Y-95140299D01*
X99599929Y-95143229D01*
X99638488Y-95132111D01*
X99670826Y-95108368D01*
X99693069Y-95073419D01*
X99701345Y-95028684D01*
X99701344Y-95028018D01*
X99698872Y-94997146D01*
X99688791Y-94974048D01*
X99666923Y-94949060D01*
X99645781Y-94930132D01*
X99621454Y-94917626D01*
X99591429Y-94914071D01*
X99576100Y-94914711D01*
X99533004Y-94926934D01*
X99499537Y-94951788D01*
X99477528Y-94985549D01*
X99468807Y-95024495D01*
X97976857Y-95024495D01*
X97974668Y-94997146D01*
X97964586Y-94974048D01*
X97942718Y-94949060D01*
X97921576Y-94930132D01*
X97897249Y-94917626D01*
X97867224Y-94914071D01*
X97851895Y-94914711D01*
X97808799Y-94926934D01*
X97775332Y-94951788D01*
X97753323Y-94985549D01*
X97744602Y-95024495D01*
X97198570Y-95024495D01*
X97150171Y-94976838D01*
X97074633Y-94924813D01*
X96991287Y-94886884D01*
X96902138Y-94864453D01*
X96809191Y-94858922D01*
X96714448Y-94871693D01*
X96677251Y-94881928D01*
X96586465Y-94920349D01*
X96505557Y-94974298D01*
X96449786Y-95028684D01*
X96436324Y-95041812D01*
X96380560Y-95120933D01*
X96340062Y-95209698D01*
X96316623Y-95306148D01*
X96315996Y-95310662D01*
X96313815Y-95373525D01*
X96312688Y-95406014D01*
X95902084Y-95406014D01*
X95908094Y-95373525D01*
X95908093Y-95372859D01*
X95905622Y-95341987D01*
X95895541Y-95318889D01*
X95873673Y-95293901D01*
X95852530Y-95274973D01*
X95828204Y-95262467D01*
X95798178Y-95258912D01*
X95782849Y-95259552D01*
X95739753Y-95271775D01*
X95706286Y-95296629D01*
X95684277Y-95330389D01*
X95675556Y-95369336D01*
X93900144Y-95369336D01*
X93900078Y-95243666D01*
X93899992Y-95024495D01*
X94985874Y-95024495D01*
X94992270Y-95064905D01*
X95015613Y-95103056D01*
X95036709Y-95121902D01*
X95076090Y-95140299D01*
X95116996Y-95143229D01*
X95155555Y-95132111D01*
X95187893Y-95108368D01*
X95210137Y-95073419D01*
X95218412Y-95028684D01*
X95218412Y-95028018D01*
X95218130Y-95024495D01*
X95675556Y-95024495D01*
X95676219Y-95028684D01*
X95681952Y-95064905D01*
X95705295Y-95103056D01*
X95726391Y-95121902D01*
X95765772Y-95140299D01*
X95806678Y-95143229D01*
X95845237Y-95132111D01*
X95877575Y-95108368D01*
X95899819Y-95073419D01*
X95908094Y-95028684D01*
X95908093Y-95028018D01*
X95905622Y-94997146D01*
X95895541Y-94974048D01*
X95873673Y-94949060D01*
X95852530Y-94930132D01*
X95828204Y-94917626D01*
X95798178Y-94914071D01*
X95782849Y-94914711D01*
X95739753Y-94926934D01*
X95706286Y-94951788D01*
X95684277Y-94985549D01*
X95675556Y-95024495D01*
X95218130Y-95024495D01*
X95215940Y-94997146D01*
X95205859Y-94974048D01*
X95183991Y-94949060D01*
X95162848Y-94930132D01*
X95138522Y-94917626D01*
X95108497Y-94914071D01*
X95093167Y-94914711D01*
X95050071Y-94926934D01*
X95016604Y-94951788D01*
X94994595Y-94985549D01*
X94985874Y-95024495D01*
X93899992Y-95024495D01*
X93899990Y-95018277D01*
X93899924Y-94776664D01*
X93899905Y-94679654D01*
X97744602Y-94679654D01*
X97750998Y-94720064D01*
X97774340Y-94758215D01*
X97795437Y-94777061D01*
X97834817Y-94795458D01*
X97875724Y-94798388D01*
X97914283Y-94787270D01*
X97946621Y-94763527D01*
X97968864Y-94728578D01*
X97977140Y-94683844D01*
X97977139Y-94683177D01*
X97976857Y-94679654D01*
X98089443Y-94679654D01*
X98090106Y-94683844D01*
X98095839Y-94720064D01*
X98119181Y-94758215D01*
X98140278Y-94777061D01*
X98179658Y-94795458D01*
X98220565Y-94798388D01*
X98259124Y-94787270D01*
X98291462Y-94763527D01*
X98313705Y-94728578D01*
X98321981Y-94683844D01*
X98321980Y-94683177D01*
X98321698Y-94679654D01*
X98779125Y-94679654D01*
X98779788Y-94683844D01*
X98785521Y-94720064D01*
X98808863Y-94758215D01*
X98829960Y-94777061D01*
X98869340Y-94795458D01*
X98910247Y-94798388D01*
X98948806Y-94787270D01*
X98981144Y-94763527D01*
X99003387Y-94728578D01*
X99011663Y-94683844D01*
X99011662Y-94683177D01*
X99011380Y-94679654D01*
X99468807Y-94679654D01*
X99469470Y-94683844D01*
X99475203Y-94720064D01*
X99498545Y-94758215D01*
X99519642Y-94777061D01*
X99559022Y-94795458D01*
X99599929Y-94798388D01*
X99638488Y-94787270D01*
X99670826Y-94763527D01*
X99693069Y-94728578D01*
X99701345Y-94683844D01*
X99701344Y-94683177D01*
X99701062Y-94679654D01*
X100158489Y-94679654D01*
X100159152Y-94683844D01*
X100164885Y-94720064D01*
X100188227Y-94758215D01*
X100209324Y-94777061D01*
X100248704Y-94795458D01*
X100289611Y-94798388D01*
X100328170Y-94787270D01*
X100360508Y-94763527D01*
X100382751Y-94728578D01*
X100391026Y-94683844D01*
X100391026Y-94683177D01*
X100390744Y-94679654D01*
X101537853Y-94679654D01*
X101538516Y-94683844D01*
X101544249Y-94720064D01*
X101567591Y-94758215D01*
X101588688Y-94777061D01*
X101628068Y-94795458D01*
X101668975Y-94798388D01*
X101707534Y-94787270D01*
X101739872Y-94763527D01*
X101762115Y-94728578D01*
X101770390Y-94683844D01*
X101770390Y-94683177D01*
X101770108Y-94679654D01*
X101882694Y-94679654D01*
X101883357Y-94683844D01*
X101889090Y-94720064D01*
X101912432Y-94758215D01*
X101933528Y-94777061D01*
X101972909Y-94795458D01*
X102013816Y-94798388D01*
X102052375Y-94787270D01*
X102084713Y-94763527D01*
X102106956Y-94728578D01*
X102115231Y-94683844D01*
X102115231Y-94683177D01*
X102114949Y-94679654D01*
X102572376Y-94679654D01*
X102573039Y-94683844D01*
X102578772Y-94720064D01*
X102602114Y-94758215D01*
X102623210Y-94777061D01*
X102662591Y-94795458D01*
X102703497Y-94798388D01*
X102742057Y-94787270D01*
X102774395Y-94763527D01*
X102796638Y-94728578D01*
X102804913Y-94683844D01*
X102804913Y-94683177D01*
X102804631Y-94679654D01*
X102917217Y-94679654D01*
X102917880Y-94683844D01*
X102923613Y-94720064D01*
X102946955Y-94758215D01*
X102968051Y-94777061D01*
X103007432Y-94795458D01*
X103048338Y-94798388D01*
X103086898Y-94787270D01*
X103119236Y-94763527D01*
X103141479Y-94728578D01*
X103149754Y-94683844D01*
X103149754Y-94683177D01*
X103147282Y-94652305D01*
X103137201Y-94629207D01*
X103115333Y-94604219D01*
X103094190Y-94585291D01*
X103069864Y-94572785D01*
X103039839Y-94569231D01*
X103024509Y-94569870D01*
X102981413Y-94582093D01*
X102947946Y-94606947D01*
X102925938Y-94640708D01*
X102917217Y-94679654D01*
X102804631Y-94679654D01*
X102802441Y-94652305D01*
X102792360Y-94629207D01*
X102770492Y-94604219D01*
X102749349Y-94585291D01*
X102725023Y-94572785D01*
X102694998Y-94569231D01*
X102679668Y-94569870D01*
X102636572Y-94582093D01*
X102603105Y-94606947D01*
X102581097Y-94640708D01*
X102572376Y-94679654D01*
X102114949Y-94679654D01*
X102112759Y-94652305D01*
X102102678Y-94629207D01*
X102080810Y-94604219D01*
X102059667Y-94585291D01*
X102035341Y-94572785D01*
X102005316Y-94569231D01*
X101989986Y-94569870D01*
X101946890Y-94582093D01*
X101913423Y-94606947D01*
X101891415Y-94640708D01*
X101882694Y-94679654D01*
X101770108Y-94679654D01*
X101767918Y-94652305D01*
X101757837Y-94629207D01*
X101735969Y-94604219D01*
X101714826Y-94585291D01*
X101690500Y-94572785D01*
X101660475Y-94569231D01*
X101645145Y-94569870D01*
X101602049Y-94582093D01*
X101568582Y-94606947D01*
X101546574Y-94640708D01*
X101537853Y-94679654D01*
X100390744Y-94679654D01*
X100388554Y-94652305D01*
X100378473Y-94629207D01*
X100356605Y-94604219D01*
X100335463Y-94585291D01*
X100311136Y-94572785D01*
X100281111Y-94569231D01*
X100265782Y-94569870D01*
X100222686Y-94582093D01*
X100189219Y-94606947D01*
X100167210Y-94640708D01*
X100158489Y-94679654D01*
X99701062Y-94679654D01*
X99698872Y-94652305D01*
X99688791Y-94629207D01*
X99666923Y-94604219D01*
X99645781Y-94585291D01*
X99621454Y-94572785D01*
X99591429Y-94569231D01*
X99576100Y-94569870D01*
X99533004Y-94582093D01*
X99499537Y-94606947D01*
X99477528Y-94640708D01*
X99468807Y-94679654D01*
X99011380Y-94679654D01*
X99009190Y-94652305D01*
X98999109Y-94629207D01*
X98977241Y-94604219D01*
X98956099Y-94585291D01*
X98931772Y-94572785D01*
X98901747Y-94569231D01*
X98886418Y-94569870D01*
X98843322Y-94582093D01*
X98809855Y-94606947D01*
X98787846Y-94640708D01*
X98779125Y-94679654D01*
X98321698Y-94679654D01*
X98319509Y-94652305D01*
X98309427Y-94629207D01*
X98287559Y-94604219D01*
X98266417Y-94585291D01*
X98242090Y-94572785D01*
X98212065Y-94569231D01*
X98196736Y-94569870D01*
X98153640Y-94582093D01*
X98120173Y-94606947D01*
X98098164Y-94640708D01*
X98089443Y-94679654D01*
X97976857Y-94679654D01*
X97974668Y-94652305D01*
X97964586Y-94629207D01*
X97942718Y-94604219D01*
X97921576Y-94585291D01*
X97897249Y-94572785D01*
X97867224Y-94569231D01*
X97851895Y-94569870D01*
X97808799Y-94582093D01*
X97775332Y-94606947D01*
X97753323Y-94640708D01*
X97744602Y-94679654D01*
X93899905Y-94679654D01*
X93899874Y-94518246D01*
X93899852Y-94334813D01*
X94985874Y-94334813D01*
X94992270Y-94375223D01*
X95015613Y-94413374D01*
X95036709Y-94432220D01*
X95076090Y-94450617D01*
X95116996Y-94453547D01*
X95155555Y-94442430D01*
X95187893Y-94418686D01*
X95210137Y-94383737D01*
X95218412Y-94339003D01*
X95218412Y-94338336D01*
X95218130Y-94334813D01*
X95330715Y-94334813D01*
X95331378Y-94339003D01*
X95337111Y-94375223D01*
X95360454Y-94413374D01*
X95381550Y-94432220D01*
X95420931Y-94450617D01*
X95461837Y-94453547D01*
X95500396Y-94442430D01*
X95532734Y-94418686D01*
X95554978Y-94383737D01*
X95563253Y-94339003D01*
X95563253Y-94338336D01*
X95562971Y-94334813D01*
X95675556Y-94334813D01*
X95676219Y-94339003D01*
X95681952Y-94375223D01*
X95705295Y-94413374D01*
X95726391Y-94432220D01*
X95765772Y-94450617D01*
X95806678Y-94453547D01*
X95845237Y-94442430D01*
X95877575Y-94418686D01*
X95899819Y-94383737D01*
X95908094Y-94339003D01*
X95908093Y-94338336D01*
X95907811Y-94334813D01*
X96710079Y-94334813D01*
X96710742Y-94339003D01*
X96716475Y-94375223D01*
X96739818Y-94413374D01*
X96760914Y-94432220D01*
X96800295Y-94450617D01*
X96841201Y-94453547D01*
X96879760Y-94442430D01*
X96912098Y-94418686D01*
X96934342Y-94383737D01*
X96942617Y-94339003D01*
X96942616Y-94338336D01*
X96942334Y-94334813D01*
X97054920Y-94334813D01*
X97055583Y-94339003D01*
X97061316Y-94375223D01*
X97084659Y-94413374D01*
X97105755Y-94432220D01*
X97145136Y-94450617D01*
X97186042Y-94453547D01*
X97224601Y-94442430D01*
X97256939Y-94418686D01*
X97279183Y-94383737D01*
X97287458Y-94339003D01*
X97287457Y-94338336D01*
X97287175Y-94334813D01*
X97399761Y-94334813D01*
X97400424Y-94339003D01*
X97406157Y-94375223D01*
X97429499Y-94413374D01*
X97450596Y-94432220D01*
X97489976Y-94450617D01*
X97530883Y-94453547D01*
X97569442Y-94442430D01*
X97601780Y-94418686D01*
X97624024Y-94383737D01*
X97632299Y-94339003D01*
X97632298Y-94338336D01*
X97632016Y-94334813D01*
X97744602Y-94334813D01*
X97745265Y-94339003D01*
X97750998Y-94375223D01*
X97774340Y-94413374D01*
X97795437Y-94432220D01*
X97834817Y-94450617D01*
X97875724Y-94453547D01*
X97914283Y-94442430D01*
X97946621Y-94418686D01*
X97968864Y-94383737D01*
X97977140Y-94339003D01*
X97977139Y-94338336D01*
X97976857Y-94334813D01*
X98089443Y-94334813D01*
X98090106Y-94339003D01*
X98095839Y-94375223D01*
X98119181Y-94413374D01*
X98140278Y-94432220D01*
X98179658Y-94450617D01*
X98220565Y-94453547D01*
X98259124Y-94442430D01*
X98291462Y-94418686D01*
X98313705Y-94383737D01*
X98321981Y-94339003D01*
X98321980Y-94338336D01*
X98321698Y-94334813D01*
X98434284Y-94334813D01*
X98434947Y-94339003D01*
X98440680Y-94375223D01*
X98464022Y-94413374D01*
X98485119Y-94432220D01*
X98524499Y-94450617D01*
X98565406Y-94453547D01*
X98603965Y-94442430D01*
X98636303Y-94418686D01*
X98658546Y-94383737D01*
X98666822Y-94339003D01*
X98666821Y-94338336D01*
X98666539Y-94334813D01*
X99123966Y-94334813D01*
X99124629Y-94339003D01*
X99130362Y-94375223D01*
X99153704Y-94413374D01*
X99174801Y-94432220D01*
X99214181Y-94450617D01*
X99255088Y-94453547D01*
X99293647Y-94442430D01*
X99325985Y-94418686D01*
X99348228Y-94383737D01*
X99356504Y-94339003D01*
X99356503Y-94338336D01*
X99356221Y-94334813D01*
X99468807Y-94334813D01*
X99469470Y-94339003D01*
X99475203Y-94375223D01*
X99498545Y-94413374D01*
X99519642Y-94432220D01*
X99559022Y-94450617D01*
X99599929Y-94453547D01*
X99638488Y-94442430D01*
X99670826Y-94418686D01*
X99693069Y-94383737D01*
X99701345Y-94339003D01*
X99701344Y-94338336D01*
X99701062Y-94334813D01*
X99813648Y-94334813D01*
X99814311Y-94339003D01*
X99820044Y-94375223D01*
X99843386Y-94413374D01*
X99864483Y-94432220D01*
X99903863Y-94450617D01*
X99944770Y-94453547D01*
X99983329Y-94442430D01*
X100015667Y-94418686D01*
X100037910Y-94383737D01*
X100046186Y-94339003D01*
X100046185Y-94338336D01*
X100045903Y-94334813D01*
X100848171Y-94334813D01*
X100848834Y-94339003D01*
X100854567Y-94375223D01*
X100877909Y-94413374D01*
X100899006Y-94432220D01*
X100938386Y-94450617D01*
X100979293Y-94453547D01*
X101017852Y-94442430D01*
X101050190Y-94418686D01*
X101072433Y-94383737D01*
X101080708Y-94339003D01*
X101080708Y-94338336D01*
X101080426Y-94334813D01*
X101193012Y-94334813D01*
X101193675Y-94339003D01*
X101199408Y-94375223D01*
X101222750Y-94413374D01*
X101243847Y-94432220D01*
X101283227Y-94450617D01*
X101324134Y-94453547D01*
X101362693Y-94442430D01*
X101395031Y-94418686D01*
X101417274Y-94383737D01*
X101425549Y-94339003D01*
X101425549Y-94338336D01*
X101425267Y-94334813D01*
X101537853Y-94334813D01*
X101538516Y-94339003D01*
X101544249Y-94375223D01*
X101567591Y-94413374D01*
X101588688Y-94432220D01*
X101628068Y-94450617D01*
X101668975Y-94453547D01*
X101707534Y-94442430D01*
X101739872Y-94418686D01*
X101762115Y-94383737D01*
X101770390Y-94339003D01*
X101770390Y-94338336D01*
X101770108Y-94334813D01*
X102572376Y-94334813D01*
X102573039Y-94339003D01*
X102578772Y-94375223D01*
X102602114Y-94413374D01*
X102623210Y-94432220D01*
X102662591Y-94450617D01*
X102703497Y-94453547D01*
X102742057Y-94442430D01*
X102774395Y-94418686D01*
X102796638Y-94383737D01*
X102804913Y-94339003D01*
X102804913Y-94338336D01*
X102802441Y-94307464D01*
X102792360Y-94284366D01*
X102770492Y-94259378D01*
X102749349Y-94240450D01*
X102725023Y-94227944D01*
X102694998Y-94224390D01*
X102679668Y-94225029D01*
X102636572Y-94237252D01*
X102603105Y-94262106D01*
X102581097Y-94295867D01*
X102572376Y-94334813D01*
X101770108Y-94334813D01*
X101767918Y-94307464D01*
X101757837Y-94284366D01*
X101735969Y-94259378D01*
X101714826Y-94240450D01*
X101690500Y-94227944D01*
X101660475Y-94224390D01*
X101645145Y-94225029D01*
X101602049Y-94237252D01*
X101568582Y-94262106D01*
X101546574Y-94295867D01*
X101537853Y-94334813D01*
X101425267Y-94334813D01*
X101423077Y-94307464D01*
X101412996Y-94284366D01*
X101391128Y-94259378D01*
X101369985Y-94240450D01*
X101345659Y-94227944D01*
X101315634Y-94224390D01*
X101300305Y-94225029D01*
X101257208Y-94237252D01*
X101223741Y-94262106D01*
X101201733Y-94295867D01*
X101193012Y-94334813D01*
X101080426Y-94334813D01*
X101078236Y-94307464D01*
X101068155Y-94284366D01*
X101046287Y-94259378D01*
X101025144Y-94240450D01*
X101000818Y-94227944D01*
X100970793Y-94224390D01*
X100955464Y-94225029D01*
X100912368Y-94237252D01*
X100878900Y-94262106D01*
X100856892Y-94295867D01*
X100848171Y-94334813D01*
X100045903Y-94334813D01*
X100043713Y-94307464D01*
X100033632Y-94284366D01*
X100011764Y-94259378D01*
X99990622Y-94240450D01*
X99966295Y-94227944D01*
X99936270Y-94224390D01*
X99920941Y-94225029D01*
X99877845Y-94237252D01*
X99844378Y-94262106D01*
X99822369Y-94295867D01*
X99813648Y-94334813D01*
X99701062Y-94334813D01*
X99698872Y-94307464D01*
X99688791Y-94284366D01*
X99666923Y-94259378D01*
X99645781Y-94240450D01*
X99621454Y-94227944D01*
X99591429Y-94224390D01*
X99576100Y-94225029D01*
X99533004Y-94237252D01*
X99499537Y-94262106D01*
X99477528Y-94295867D01*
X99468807Y-94334813D01*
X99356221Y-94334813D01*
X99354031Y-94307464D01*
X99343950Y-94284366D01*
X99322082Y-94259378D01*
X99300940Y-94240450D01*
X99276613Y-94227944D01*
X99246588Y-94224390D01*
X99231259Y-94225029D01*
X99188163Y-94237252D01*
X99154696Y-94262106D01*
X99132687Y-94295867D01*
X99123966Y-94334813D01*
X98666539Y-94334813D01*
X98664349Y-94307464D01*
X98654268Y-94284366D01*
X98632400Y-94259378D01*
X98611258Y-94240450D01*
X98586931Y-94227944D01*
X98556906Y-94224390D01*
X98541577Y-94225029D01*
X98498481Y-94237252D01*
X98465014Y-94262106D01*
X98443005Y-94295867D01*
X98434284Y-94334813D01*
X98321698Y-94334813D01*
X98319509Y-94307464D01*
X98309427Y-94284366D01*
X98287559Y-94259378D01*
X98266417Y-94240450D01*
X98242090Y-94227944D01*
X98212065Y-94224390D01*
X98196736Y-94225029D01*
X98153640Y-94237252D01*
X98120173Y-94262106D01*
X98098164Y-94295867D01*
X98089443Y-94334813D01*
X97976857Y-94334813D01*
X97974668Y-94307464D01*
X97964586Y-94284366D01*
X97942718Y-94259378D01*
X97921576Y-94240450D01*
X97897249Y-94227944D01*
X97867224Y-94224390D01*
X97851895Y-94225029D01*
X97808799Y-94237252D01*
X97775332Y-94262106D01*
X97753323Y-94295867D01*
X97744602Y-94334813D01*
X97632016Y-94334813D01*
X97629827Y-94307464D01*
X97619745Y-94284366D01*
X97597878Y-94259378D01*
X97576735Y-94240450D01*
X97552409Y-94227944D01*
X97522383Y-94224390D01*
X97507054Y-94225029D01*
X97463958Y-94237252D01*
X97430491Y-94262106D01*
X97408482Y-94295867D01*
X97399761Y-94334813D01*
X97287175Y-94334813D01*
X97284986Y-94307464D01*
X97274904Y-94284366D01*
X97253037Y-94259378D01*
X97231894Y-94240450D01*
X97207568Y-94227944D01*
X97177542Y-94224390D01*
X97162213Y-94225029D01*
X97119117Y-94237252D01*
X97085650Y-94262106D01*
X97063641Y-94295867D01*
X97054920Y-94334813D01*
X96942334Y-94334813D01*
X96940145Y-94307464D01*
X96930063Y-94284366D01*
X96908196Y-94259378D01*
X96887053Y-94240450D01*
X96862727Y-94227944D01*
X96832701Y-94224390D01*
X96817372Y-94225029D01*
X96774276Y-94237252D01*
X96740809Y-94262106D01*
X96718800Y-94295867D01*
X96710079Y-94334813D01*
X95907811Y-94334813D01*
X95905622Y-94307464D01*
X95895541Y-94284366D01*
X95873673Y-94259378D01*
X95852530Y-94240450D01*
X95828204Y-94227944D01*
X95798178Y-94224390D01*
X95782849Y-94225029D01*
X95739753Y-94237252D01*
X95706286Y-94262106D01*
X95684277Y-94295867D01*
X95675556Y-94334813D01*
X95562971Y-94334813D01*
X95560781Y-94307464D01*
X95550700Y-94284366D01*
X95528832Y-94259378D01*
X95507689Y-94240450D01*
X95483363Y-94227944D01*
X95453337Y-94224390D01*
X95438008Y-94225029D01*
X95394912Y-94237252D01*
X95361445Y-94262106D01*
X95339436Y-94295867D01*
X95330715Y-94334813D01*
X95218130Y-94334813D01*
X95215940Y-94307464D01*
X95205859Y-94284366D01*
X95183991Y-94259378D01*
X95162848Y-94240450D01*
X95138522Y-94227944D01*
X95108497Y-94224390D01*
X95093167Y-94225029D01*
X95050071Y-94237252D01*
X95016604Y-94262106D01*
X94994595Y-94295867D01*
X94985874Y-94334813D01*
X93899852Y-94334813D01*
X93899841Y-94242444D01*
X93899823Y-93989972D01*
X94641033Y-93989972D01*
X94647429Y-94030382D01*
X94670772Y-94068533D01*
X94691868Y-94087379D01*
X94731249Y-94105776D01*
X94772155Y-94108706D01*
X94810714Y-94097589D01*
X94843052Y-94073845D01*
X94865296Y-94038896D01*
X94873571Y-93994162D01*
X94873571Y-93993496D01*
X94873289Y-93989972D01*
X95675556Y-93989972D01*
X95676219Y-93994162D01*
X95681952Y-94030382D01*
X95705295Y-94068533D01*
X95726391Y-94087379D01*
X95765772Y-94105776D01*
X95806678Y-94108706D01*
X95845237Y-94097589D01*
X95877575Y-94073845D01*
X95899819Y-94038896D01*
X95908094Y-93994162D01*
X95908093Y-93993496D01*
X95907811Y-93989972D01*
X96365238Y-93989972D01*
X96365901Y-93994162D01*
X96371634Y-94030382D01*
X96394977Y-94068533D01*
X96416073Y-94087379D01*
X96455454Y-94105776D01*
X96496360Y-94108706D01*
X96534919Y-94097589D01*
X96567257Y-94073845D01*
X96589501Y-94038896D01*
X96597776Y-93994162D01*
X96597775Y-93993496D01*
X96597493Y-93989972D01*
X96710079Y-93989972D01*
X96710742Y-93994162D01*
X96716475Y-94030382D01*
X96739818Y-94068533D01*
X96760914Y-94087379D01*
X96800295Y-94105776D01*
X96841201Y-94108706D01*
X96879760Y-94097589D01*
X96912098Y-94073845D01*
X96934342Y-94038896D01*
X96942617Y-93994162D01*
X96942616Y-93993496D01*
X96942334Y-93989972D01*
X97054920Y-93989972D01*
X97055583Y-93994162D01*
X97061316Y-94030382D01*
X97084659Y-94068533D01*
X97105755Y-94087379D01*
X97145136Y-94105776D01*
X97186042Y-94108706D01*
X97224601Y-94097589D01*
X97256939Y-94073845D01*
X97279183Y-94038896D01*
X97287458Y-93994162D01*
X97287457Y-93993496D01*
X97287175Y-93989972D01*
X97399761Y-93989972D01*
X97400424Y-93994162D01*
X97406157Y-94030382D01*
X97429499Y-94068533D01*
X97450596Y-94087379D01*
X97489976Y-94105776D01*
X97530883Y-94108706D01*
X97569442Y-94097589D01*
X97601780Y-94073845D01*
X97624024Y-94038896D01*
X97632299Y-93994162D01*
X97632298Y-93993496D01*
X97632016Y-93989972D01*
X97744602Y-93989972D01*
X97745265Y-93994162D01*
X97750998Y-94030382D01*
X97774340Y-94068533D01*
X97795437Y-94087379D01*
X97834817Y-94105776D01*
X97875724Y-94108706D01*
X97914283Y-94097589D01*
X97946621Y-94073845D01*
X97968864Y-94038896D01*
X97977140Y-93994162D01*
X97977139Y-93993496D01*
X97976857Y-93989972D01*
X99123966Y-93989972D01*
X99124629Y-93994162D01*
X99130362Y-94030382D01*
X99153704Y-94068533D01*
X99174801Y-94087379D01*
X99214181Y-94105776D01*
X99255088Y-94108706D01*
X99293647Y-94097589D01*
X99325985Y-94073845D01*
X99348228Y-94038896D01*
X99356504Y-93994162D01*
X99356503Y-93993496D01*
X99356221Y-93989972D01*
X99468807Y-93989972D01*
X99469470Y-93994162D01*
X99475203Y-94030382D01*
X99498545Y-94068533D01*
X99519642Y-94087379D01*
X99559022Y-94105776D01*
X99599929Y-94108706D01*
X99638488Y-94097589D01*
X99670826Y-94073845D01*
X99693069Y-94038896D01*
X99701345Y-93994162D01*
X99701344Y-93993496D01*
X99701062Y-93989972D01*
X99813648Y-93989972D01*
X99814311Y-93994162D01*
X99820044Y-94030382D01*
X99843386Y-94068533D01*
X99864483Y-94087379D01*
X99903863Y-94105776D01*
X99944770Y-94108706D01*
X99983329Y-94097589D01*
X100015667Y-94073845D01*
X100037910Y-94038896D01*
X100046186Y-93994162D01*
X100046185Y-93993496D01*
X100045903Y-93989972D01*
X100503330Y-93989972D01*
X100503993Y-93994162D01*
X100509726Y-94030382D01*
X100533068Y-94068533D01*
X100554165Y-94087379D01*
X100593545Y-94105776D01*
X100634452Y-94108706D01*
X100673011Y-94097589D01*
X100705349Y-94073845D01*
X100727592Y-94038896D01*
X100735867Y-93994162D01*
X100735867Y-93993496D01*
X100735585Y-93989972D01*
X101193012Y-93989972D01*
X101193675Y-93994162D01*
X101199408Y-94030382D01*
X101222750Y-94068533D01*
X101243847Y-94087379D01*
X101283227Y-94105776D01*
X101324134Y-94108706D01*
X101362693Y-94097589D01*
X101395031Y-94073845D01*
X101417274Y-94038896D01*
X101425549Y-93994162D01*
X101425549Y-93993496D01*
X101425267Y-93989972D01*
X102917217Y-93989972D01*
X102917880Y-93994162D01*
X102923613Y-94030382D01*
X102946955Y-94068533D01*
X102968051Y-94087379D01*
X103007432Y-94105776D01*
X103048338Y-94108706D01*
X103086898Y-94097589D01*
X103119236Y-94073845D01*
X103141479Y-94038896D01*
X103149754Y-93994162D01*
X103149754Y-93993496D01*
X103147282Y-93962623D01*
X103137201Y-93939525D01*
X103115333Y-93914537D01*
X103094190Y-93895609D01*
X103069864Y-93883103D01*
X103039839Y-93879549D01*
X103024509Y-93880188D01*
X102981413Y-93892411D01*
X102947946Y-93917265D01*
X102925938Y-93951026D01*
X102917217Y-93989972D01*
X101425267Y-93989972D01*
X101423077Y-93962623D01*
X101412996Y-93939525D01*
X101391128Y-93914537D01*
X101369985Y-93895609D01*
X101345659Y-93883103D01*
X101315634Y-93879549D01*
X101300305Y-93880188D01*
X101257208Y-93892411D01*
X101223741Y-93917265D01*
X101201733Y-93951026D01*
X101193012Y-93989972D01*
X100735585Y-93989972D01*
X100733395Y-93962623D01*
X100723314Y-93939525D01*
X100701446Y-93914537D01*
X100680304Y-93895609D01*
X100655977Y-93883103D01*
X100625952Y-93879549D01*
X100610623Y-93880188D01*
X100567527Y-93892411D01*
X100534060Y-93917265D01*
X100512051Y-93951026D01*
X100503330Y-93989972D01*
X100045903Y-93989972D01*
X100043713Y-93962623D01*
X100033632Y-93939525D01*
X100011764Y-93914537D01*
X99990622Y-93895609D01*
X99966295Y-93883103D01*
X99936270Y-93879549D01*
X99920941Y-93880188D01*
X99877845Y-93892411D01*
X99844378Y-93917265D01*
X99822369Y-93951026D01*
X99813648Y-93989972D01*
X99701062Y-93989972D01*
X99698872Y-93962623D01*
X99688791Y-93939525D01*
X99666923Y-93914537D01*
X99645781Y-93895609D01*
X99621454Y-93883103D01*
X99591429Y-93879549D01*
X99576100Y-93880188D01*
X99533004Y-93892411D01*
X99499537Y-93917265D01*
X99477528Y-93951026D01*
X99468807Y-93989972D01*
X99356221Y-93989972D01*
X99354031Y-93962623D01*
X99343950Y-93939525D01*
X99322082Y-93914537D01*
X99300940Y-93895609D01*
X99276613Y-93883103D01*
X99246588Y-93879549D01*
X99231259Y-93880188D01*
X99188163Y-93892411D01*
X99154696Y-93917265D01*
X99132687Y-93951026D01*
X99123966Y-93989972D01*
X97976857Y-93989972D01*
X97974668Y-93962623D01*
X97964586Y-93939525D01*
X97942718Y-93914537D01*
X97921576Y-93895609D01*
X97897249Y-93883103D01*
X97867224Y-93879549D01*
X97851895Y-93880188D01*
X97808799Y-93892411D01*
X97775332Y-93917265D01*
X97753323Y-93951026D01*
X97744602Y-93989972D01*
X97632016Y-93989972D01*
X97629827Y-93962623D01*
X97619745Y-93939525D01*
X97597878Y-93914537D01*
X97576735Y-93895609D01*
X97552409Y-93883103D01*
X97522383Y-93879549D01*
X97507054Y-93880188D01*
X97463958Y-93892411D01*
X97430491Y-93917265D01*
X97408482Y-93951026D01*
X97399761Y-93989972D01*
X97287175Y-93989972D01*
X97284986Y-93962623D01*
X97274904Y-93939525D01*
X97253037Y-93914537D01*
X97231894Y-93895609D01*
X97207568Y-93883103D01*
X97177542Y-93879549D01*
X97162213Y-93880188D01*
X97119117Y-93892411D01*
X97085650Y-93917265D01*
X97063641Y-93951026D01*
X97054920Y-93989972D01*
X96942334Y-93989972D01*
X96940145Y-93962623D01*
X96930063Y-93939525D01*
X96908196Y-93914537D01*
X96887053Y-93895609D01*
X96862727Y-93883103D01*
X96832701Y-93879549D01*
X96817372Y-93880188D01*
X96774276Y-93892411D01*
X96740809Y-93917265D01*
X96718800Y-93951026D01*
X96710079Y-93989972D01*
X96597493Y-93989972D01*
X96595304Y-93962623D01*
X96585222Y-93939525D01*
X96563355Y-93914537D01*
X96542212Y-93895609D01*
X96517886Y-93883103D01*
X96487860Y-93879549D01*
X96472531Y-93880188D01*
X96429435Y-93892411D01*
X96395968Y-93917265D01*
X96373959Y-93951026D01*
X96365238Y-93989972D01*
X95907811Y-93989972D01*
X95905622Y-93962623D01*
X95895541Y-93939525D01*
X95873673Y-93914537D01*
X95852530Y-93895609D01*
X95828204Y-93883103D01*
X95798178Y-93879549D01*
X95782849Y-93880188D01*
X95739753Y-93892411D01*
X95706286Y-93917265D01*
X95684277Y-93951026D01*
X95675556Y-93989972D01*
X94873289Y-93989972D01*
X94871099Y-93962623D01*
X94861018Y-93939525D01*
X94839150Y-93914537D01*
X94818007Y-93895609D01*
X94793681Y-93883103D01*
X94763656Y-93879549D01*
X94748326Y-93880188D01*
X94705230Y-93892411D01*
X94671763Y-93917265D01*
X94649754Y-93951026D01*
X94641033Y-93989972D01*
X93899823Y-93989972D01*
X93899820Y-93948676D01*
X93899809Y-93645131D01*
X94985874Y-93645131D01*
X94992270Y-93685541D01*
X95015613Y-93723692D01*
X95036709Y-93742538D01*
X95076090Y-93760935D01*
X95116996Y-93763865D01*
X95155555Y-93752748D01*
X95187893Y-93729004D01*
X95210137Y-93694055D01*
X95218412Y-93649321D01*
X95218412Y-93648655D01*
X95218130Y-93645131D01*
X95330715Y-93645131D01*
X95331378Y-93649321D01*
X95337111Y-93685541D01*
X95360454Y-93723692D01*
X95381550Y-93742538D01*
X95420931Y-93760935D01*
X95461837Y-93763865D01*
X95500396Y-93752748D01*
X95532734Y-93729004D01*
X95554978Y-93694055D01*
X95563253Y-93649321D01*
X95563253Y-93648655D01*
X95562971Y-93645131D01*
X95675556Y-93645131D01*
X95676219Y-93649321D01*
X95681952Y-93685541D01*
X95705295Y-93723692D01*
X95726391Y-93742538D01*
X95765772Y-93760935D01*
X95806678Y-93763865D01*
X95845237Y-93752748D01*
X95877575Y-93729004D01*
X95899819Y-93694055D01*
X95908094Y-93649321D01*
X95908093Y-93648655D01*
X95907811Y-93645131D01*
X97054920Y-93645131D01*
X97055583Y-93649321D01*
X97061316Y-93685541D01*
X97084659Y-93723692D01*
X97105755Y-93742538D01*
X97145136Y-93760935D01*
X97186042Y-93763865D01*
X97224601Y-93752748D01*
X97256939Y-93729004D01*
X97279183Y-93694055D01*
X97287458Y-93649321D01*
X97287457Y-93648655D01*
X97287175Y-93645131D01*
X98434284Y-93645131D01*
X98434947Y-93649321D01*
X98440680Y-93685541D01*
X98464022Y-93723692D01*
X98485119Y-93742538D01*
X98524499Y-93760935D01*
X98565406Y-93763865D01*
X98603965Y-93752748D01*
X98636303Y-93729004D01*
X98658546Y-93694055D01*
X98666822Y-93649321D01*
X98666821Y-93648655D01*
X98666539Y-93645131D01*
X99123966Y-93645131D01*
X99124629Y-93649321D01*
X99130362Y-93685541D01*
X99153704Y-93723692D01*
X99174801Y-93742538D01*
X99214181Y-93760935D01*
X99255088Y-93763865D01*
X99293647Y-93752748D01*
X99325985Y-93729004D01*
X99348228Y-93694055D01*
X99356504Y-93649321D01*
X99356503Y-93648655D01*
X99356221Y-93645131D01*
X99468807Y-93645131D01*
X99469470Y-93649321D01*
X99475203Y-93685541D01*
X99498545Y-93723692D01*
X99519642Y-93742538D01*
X99559022Y-93760935D01*
X99599929Y-93763865D01*
X99638488Y-93752748D01*
X99670826Y-93729004D01*
X99693069Y-93694055D01*
X99701345Y-93649321D01*
X99701344Y-93648655D01*
X99701062Y-93645131D01*
X100158489Y-93645131D01*
X100159152Y-93649321D01*
X100164885Y-93685541D01*
X100188227Y-93723692D01*
X100209324Y-93742538D01*
X100248704Y-93760935D01*
X100289611Y-93763865D01*
X100328170Y-93752748D01*
X100360508Y-93729004D01*
X100382751Y-93694055D01*
X100391026Y-93649321D01*
X100391026Y-93648655D01*
X100390744Y-93645131D01*
X100503330Y-93645131D01*
X100503993Y-93649321D01*
X100509726Y-93685541D01*
X100533068Y-93723692D01*
X100554165Y-93742538D01*
X100593545Y-93760935D01*
X100634452Y-93763865D01*
X100673011Y-93752748D01*
X100705349Y-93729004D01*
X100727592Y-93694055D01*
X100735867Y-93649321D01*
X100735867Y-93648655D01*
X100735585Y-93645131D01*
X100848171Y-93645131D01*
X100848834Y-93649321D01*
X100854567Y-93685541D01*
X100877909Y-93723692D01*
X100899006Y-93742538D01*
X100938386Y-93760935D01*
X100979293Y-93763865D01*
X101017852Y-93752748D01*
X101050190Y-93729004D01*
X101072433Y-93694055D01*
X101080708Y-93649321D01*
X101080708Y-93648655D01*
X101080426Y-93645131D01*
X102572376Y-93645131D01*
X102573039Y-93649321D01*
X102578772Y-93685541D01*
X102602114Y-93723692D01*
X102623210Y-93742538D01*
X102662591Y-93760935D01*
X102703497Y-93763865D01*
X102742057Y-93752748D01*
X102774395Y-93729004D01*
X102796638Y-93694055D01*
X102804913Y-93649321D01*
X102804913Y-93648655D01*
X102804631Y-93645131D01*
X102917217Y-93645131D01*
X102917880Y-93649321D01*
X102923613Y-93685541D01*
X102946955Y-93723692D01*
X102968051Y-93742538D01*
X103007432Y-93760935D01*
X103048338Y-93763865D01*
X103086898Y-93752748D01*
X103119236Y-93729004D01*
X103141479Y-93694055D01*
X103149754Y-93649321D01*
X103149754Y-93648655D01*
X103147282Y-93617782D01*
X103137201Y-93594684D01*
X103115333Y-93569696D01*
X103094190Y-93550769D01*
X103069864Y-93538262D01*
X103039839Y-93534708D01*
X103024509Y-93535347D01*
X102981413Y-93547571D01*
X102947946Y-93572424D01*
X102925938Y-93606185D01*
X102917217Y-93645131D01*
X102804631Y-93645131D01*
X102802441Y-93617782D01*
X102792360Y-93594684D01*
X102770492Y-93569696D01*
X102749349Y-93550769D01*
X102725023Y-93538262D01*
X102694998Y-93534708D01*
X102679668Y-93535347D01*
X102636572Y-93547571D01*
X102603105Y-93572424D01*
X102581097Y-93606185D01*
X102572376Y-93645131D01*
X101080426Y-93645131D01*
X101078236Y-93617782D01*
X101068155Y-93594684D01*
X101046287Y-93569696D01*
X101025144Y-93550769D01*
X101000818Y-93538262D01*
X100970793Y-93534708D01*
X100955464Y-93535347D01*
X100912368Y-93547571D01*
X100878900Y-93572424D01*
X100856892Y-93606185D01*
X100848171Y-93645131D01*
X100735585Y-93645131D01*
X100733395Y-93617782D01*
X100723314Y-93594684D01*
X100701446Y-93569696D01*
X100680304Y-93550769D01*
X100655977Y-93538262D01*
X100625952Y-93534708D01*
X100610623Y-93535347D01*
X100567527Y-93547571D01*
X100534060Y-93572424D01*
X100512051Y-93606185D01*
X100503330Y-93645131D01*
X100390744Y-93645131D01*
X100388554Y-93617782D01*
X100378473Y-93594684D01*
X100356605Y-93569696D01*
X100335463Y-93550769D01*
X100311136Y-93538262D01*
X100281111Y-93534708D01*
X100265782Y-93535347D01*
X100222686Y-93547571D01*
X100189219Y-93572424D01*
X100167210Y-93606185D01*
X100158489Y-93645131D01*
X99701062Y-93645131D01*
X99698872Y-93617782D01*
X99688791Y-93594684D01*
X99666923Y-93569696D01*
X99645781Y-93550769D01*
X99621454Y-93538262D01*
X99591429Y-93534708D01*
X99576100Y-93535347D01*
X99533004Y-93547571D01*
X99499537Y-93572424D01*
X99477528Y-93606185D01*
X99468807Y-93645131D01*
X99356221Y-93645131D01*
X99354031Y-93617782D01*
X99343950Y-93594684D01*
X99322082Y-93569696D01*
X99300940Y-93550769D01*
X99276613Y-93538262D01*
X99246588Y-93534708D01*
X99231259Y-93535347D01*
X99188163Y-93547571D01*
X99154696Y-93572424D01*
X99132687Y-93606185D01*
X99123966Y-93645131D01*
X98666539Y-93645131D01*
X98664349Y-93617782D01*
X98654268Y-93594684D01*
X98632400Y-93569696D01*
X98611258Y-93550769D01*
X98586931Y-93538262D01*
X98556906Y-93534708D01*
X98541577Y-93535347D01*
X98498481Y-93547571D01*
X98465014Y-93572424D01*
X98443005Y-93606185D01*
X98434284Y-93645131D01*
X97287175Y-93645131D01*
X97284986Y-93617782D01*
X97274904Y-93594684D01*
X97253037Y-93569696D01*
X97231894Y-93550769D01*
X97207568Y-93538262D01*
X97177542Y-93534708D01*
X97162213Y-93535347D01*
X97119117Y-93547571D01*
X97085650Y-93572424D01*
X97063641Y-93606185D01*
X97054920Y-93645131D01*
X95907811Y-93645131D01*
X95905622Y-93617782D01*
X95895541Y-93594684D01*
X95873673Y-93569696D01*
X95852530Y-93550769D01*
X95828204Y-93538262D01*
X95798178Y-93534708D01*
X95782849Y-93535347D01*
X95739753Y-93547571D01*
X95706286Y-93572424D01*
X95684277Y-93606185D01*
X95675556Y-93645131D01*
X95562971Y-93645131D01*
X95560781Y-93617782D01*
X95550700Y-93594684D01*
X95528832Y-93569696D01*
X95507689Y-93550769D01*
X95483363Y-93538262D01*
X95453337Y-93534708D01*
X95438008Y-93535347D01*
X95394912Y-93547571D01*
X95361445Y-93572424D01*
X95339436Y-93606185D01*
X95330715Y-93645131D01*
X95218130Y-93645131D01*
X95215940Y-93617782D01*
X95205859Y-93594684D01*
X95183991Y-93569696D01*
X95162848Y-93550769D01*
X95138522Y-93538262D01*
X95108497Y-93534708D01*
X95093167Y-93535347D01*
X95050071Y-93547571D01*
X95016604Y-93572424D01*
X94994595Y-93606185D01*
X94985874Y-93645131D01*
X93899809Y-93645131D01*
X93899809Y-93636364D01*
X93899806Y-93304926D01*
X93899806Y-93300290D01*
X95675556Y-93300290D01*
X95681952Y-93340700D01*
X95705295Y-93378851D01*
X95726391Y-93397697D01*
X95765772Y-93416094D01*
X95806678Y-93419024D01*
X95845237Y-93407907D01*
X95877575Y-93384163D01*
X95899819Y-93349214D01*
X95908094Y-93304480D01*
X95908093Y-93303814D01*
X95907811Y-93300290D01*
X96365238Y-93300290D01*
X96365901Y-93304480D01*
X96371634Y-93340700D01*
X96394977Y-93378851D01*
X96416073Y-93397697D01*
X96455454Y-93416094D01*
X96496360Y-93419024D01*
X96534919Y-93407907D01*
X96567257Y-93384163D01*
X96589501Y-93349214D01*
X96597776Y-93304480D01*
X96597775Y-93303814D01*
X96597493Y-93300290D01*
X97399761Y-93300290D01*
X97400424Y-93304480D01*
X97406157Y-93340700D01*
X97429499Y-93378851D01*
X97450596Y-93397697D01*
X97489976Y-93416094D01*
X97530883Y-93419024D01*
X97569442Y-93407907D01*
X97601780Y-93384163D01*
X97624024Y-93349214D01*
X97632299Y-93304480D01*
X97632298Y-93303814D01*
X97632016Y-93300290D01*
X97744602Y-93300290D01*
X97745265Y-93304480D01*
X97750998Y-93340700D01*
X97774340Y-93378851D01*
X97795437Y-93397697D01*
X97834817Y-93416094D01*
X97875724Y-93419024D01*
X97914283Y-93407907D01*
X97946621Y-93384163D01*
X97968864Y-93349214D01*
X97977140Y-93304480D01*
X97977139Y-93303814D01*
X97976857Y-93300290D01*
X98779125Y-93300290D01*
X98779788Y-93304480D01*
X98785521Y-93340700D01*
X98808863Y-93378851D01*
X98829960Y-93397697D01*
X98869340Y-93416094D01*
X98910247Y-93419024D01*
X98948806Y-93407907D01*
X98981144Y-93384163D01*
X99003387Y-93349214D01*
X99011663Y-93304480D01*
X99011662Y-93303814D01*
X99011380Y-93300290D01*
X99123966Y-93300290D01*
X99124629Y-93304480D01*
X99130362Y-93340700D01*
X99153704Y-93378851D01*
X99174801Y-93397697D01*
X99214181Y-93416094D01*
X99255088Y-93419024D01*
X99293647Y-93407907D01*
X99325985Y-93384163D01*
X99348228Y-93349214D01*
X99356504Y-93304480D01*
X99356503Y-93303814D01*
X99356221Y-93300290D01*
X99468807Y-93300290D01*
X99469470Y-93304480D01*
X99475203Y-93340700D01*
X99498545Y-93378851D01*
X99519642Y-93397697D01*
X99559022Y-93416094D01*
X99599929Y-93419024D01*
X99638488Y-93407907D01*
X99670826Y-93384163D01*
X99693069Y-93349214D01*
X99701345Y-93304480D01*
X99701344Y-93303814D01*
X99701062Y-93300290D01*
X100158489Y-93300290D01*
X100159152Y-93304480D01*
X100164885Y-93340700D01*
X100188227Y-93378851D01*
X100209324Y-93397697D01*
X100248704Y-93416094D01*
X100289611Y-93419024D01*
X100328170Y-93407907D01*
X100360508Y-93384163D01*
X100382751Y-93349214D01*
X100391026Y-93304480D01*
X100391026Y-93303814D01*
X100390744Y-93300290D01*
X101193012Y-93300290D01*
X101193675Y-93304480D01*
X101199408Y-93340700D01*
X101222750Y-93378851D01*
X101243847Y-93397697D01*
X101283227Y-93416094D01*
X101324134Y-93419024D01*
X101362693Y-93407907D01*
X101395031Y-93384163D01*
X101417274Y-93349214D01*
X101425549Y-93304480D01*
X101425549Y-93303814D01*
X101425267Y-93300290D01*
X101537853Y-93300290D01*
X101538516Y-93304480D01*
X101544249Y-93340700D01*
X101567591Y-93378851D01*
X101588688Y-93397697D01*
X101628068Y-93416094D01*
X101668975Y-93419024D01*
X101707534Y-93407907D01*
X101739872Y-93384163D01*
X101762115Y-93349214D01*
X101770390Y-93304480D01*
X101770390Y-93303814D01*
X101770108Y-93300290D01*
X102227535Y-93300290D01*
X102228198Y-93304480D01*
X102233931Y-93340700D01*
X102257273Y-93378851D01*
X102278369Y-93397697D01*
X102317750Y-93416094D01*
X102358657Y-93419024D01*
X102397216Y-93407907D01*
X102429554Y-93384163D01*
X102451797Y-93349214D01*
X102460072Y-93304480D01*
X102460072Y-93303814D01*
X102459790Y-93300290D01*
X102572376Y-93300290D01*
X102573039Y-93304480D01*
X102578772Y-93340700D01*
X102602114Y-93378851D01*
X102623210Y-93397697D01*
X102662591Y-93416094D01*
X102703497Y-93419024D01*
X102742057Y-93407907D01*
X102774395Y-93384163D01*
X102796638Y-93349214D01*
X102804913Y-93304480D01*
X102804913Y-93303814D01*
X102804631Y-93300290D01*
X102917217Y-93300290D01*
X102917880Y-93304480D01*
X102923613Y-93340700D01*
X102946955Y-93378851D01*
X102968051Y-93397697D01*
X103007432Y-93416094D01*
X103048338Y-93419024D01*
X103086898Y-93407907D01*
X103119236Y-93384163D01*
X103141479Y-93349214D01*
X103149754Y-93304480D01*
X103149754Y-93303814D01*
X103147282Y-93272941D01*
X103137201Y-93249843D01*
X103115333Y-93224855D01*
X103094190Y-93205928D01*
X103069864Y-93193421D01*
X103039839Y-93189867D01*
X103024509Y-93190506D01*
X102981413Y-93202730D01*
X102947946Y-93227583D01*
X102925938Y-93261344D01*
X102917217Y-93300290D01*
X102804631Y-93300290D01*
X102802441Y-93272941D01*
X102792360Y-93249843D01*
X102770492Y-93224855D01*
X102749349Y-93205928D01*
X102725023Y-93193421D01*
X102694998Y-93189867D01*
X102679668Y-93190506D01*
X102636572Y-93202730D01*
X102603105Y-93227583D01*
X102581097Y-93261344D01*
X102572376Y-93300290D01*
X102459790Y-93300290D01*
X102457600Y-93272941D01*
X102447519Y-93249843D01*
X102425651Y-93224855D01*
X102404508Y-93205928D01*
X102380182Y-93193421D01*
X102350157Y-93189867D01*
X102334827Y-93190506D01*
X102291731Y-93202730D01*
X102258264Y-93227583D01*
X102236256Y-93261344D01*
X102227535Y-93300290D01*
X101770108Y-93300290D01*
X101767918Y-93272941D01*
X101757837Y-93249843D01*
X101735969Y-93224855D01*
X101714826Y-93205928D01*
X101690500Y-93193421D01*
X101660475Y-93189867D01*
X101645145Y-93190506D01*
X101602049Y-93202730D01*
X101568582Y-93227583D01*
X101546574Y-93261344D01*
X101537853Y-93300290D01*
X101425267Y-93300290D01*
X101423077Y-93272941D01*
X101412996Y-93249843D01*
X101391128Y-93224855D01*
X101369985Y-93205928D01*
X101345659Y-93193421D01*
X101315634Y-93189867D01*
X101300305Y-93190506D01*
X101257208Y-93202730D01*
X101223741Y-93227583D01*
X101201733Y-93261344D01*
X101193012Y-93300290D01*
X100390744Y-93300290D01*
X100388554Y-93272941D01*
X100378473Y-93249843D01*
X100356605Y-93224855D01*
X100335463Y-93205928D01*
X100311136Y-93193421D01*
X100281111Y-93189867D01*
X100265782Y-93190506D01*
X100222686Y-93202730D01*
X100189219Y-93227583D01*
X100167210Y-93261344D01*
X100158489Y-93300290D01*
X99701062Y-93300290D01*
X99698872Y-93272941D01*
X99688791Y-93249843D01*
X99666923Y-93224855D01*
X99645781Y-93205928D01*
X99621454Y-93193421D01*
X99591429Y-93189867D01*
X99576100Y-93190506D01*
X99533004Y-93202730D01*
X99499537Y-93227583D01*
X99477528Y-93261344D01*
X99468807Y-93300290D01*
X99356221Y-93300290D01*
X99354031Y-93272941D01*
X99343950Y-93249843D01*
X99322082Y-93224855D01*
X99300940Y-93205928D01*
X99276613Y-93193421D01*
X99246588Y-93189867D01*
X99231259Y-93190506D01*
X99188163Y-93202730D01*
X99154696Y-93227583D01*
X99132687Y-93261344D01*
X99123966Y-93300290D01*
X99011380Y-93300290D01*
X99009190Y-93272941D01*
X98999109Y-93249843D01*
X98977241Y-93224855D01*
X98956099Y-93205928D01*
X98931772Y-93193421D01*
X98901747Y-93189867D01*
X98886418Y-93190506D01*
X98843322Y-93202730D01*
X98809855Y-93227583D01*
X98787846Y-93261344D01*
X98779125Y-93300290D01*
X97976857Y-93300290D01*
X97974668Y-93272941D01*
X97964586Y-93249843D01*
X97942718Y-93224855D01*
X97921576Y-93205928D01*
X97897249Y-93193421D01*
X97867224Y-93189867D01*
X97851895Y-93190506D01*
X97808799Y-93202730D01*
X97775332Y-93227583D01*
X97753323Y-93261344D01*
X97744602Y-93300290D01*
X97632016Y-93300290D01*
X97629827Y-93272941D01*
X97619745Y-93249843D01*
X97597878Y-93224855D01*
X97576735Y-93205928D01*
X97552409Y-93193421D01*
X97522383Y-93189867D01*
X97507054Y-93190506D01*
X97463958Y-93202730D01*
X97430491Y-93227583D01*
X97408482Y-93261344D01*
X97399761Y-93300290D01*
X96597493Y-93300290D01*
X96595304Y-93272941D01*
X96585222Y-93249843D01*
X96563355Y-93224855D01*
X96542212Y-93205928D01*
X96517886Y-93193421D01*
X96487860Y-93189867D01*
X96472531Y-93190506D01*
X96429435Y-93202730D01*
X96395968Y-93227583D01*
X96373959Y-93261344D01*
X96365238Y-93300290D01*
X95907811Y-93300290D01*
X95905622Y-93272941D01*
X95895541Y-93249843D01*
X95873673Y-93224855D01*
X95852530Y-93205928D01*
X95828204Y-93193421D01*
X95798178Y-93189867D01*
X95782849Y-93190506D01*
X95739753Y-93202730D01*
X95706286Y-93227583D01*
X95684277Y-93261344D01*
X95675556Y-93300290D01*
X93899806Y-93300290D01*
X93899807Y-93087242D01*
X93899810Y-92955449D01*
X94641033Y-92955449D01*
X94647429Y-92995859D01*
X94670772Y-93034010D01*
X94691868Y-93052856D01*
X94731249Y-93071253D01*
X94772155Y-93074183D01*
X94810714Y-93063066D01*
X94843052Y-93039322D01*
X94865296Y-93004373D01*
X94873571Y-92959639D01*
X94873571Y-92958973D01*
X94873289Y-92955449D01*
X94985874Y-92955449D01*
X94986537Y-92959639D01*
X94992270Y-92995859D01*
X95015613Y-93034010D01*
X95036709Y-93052856D01*
X95076090Y-93071253D01*
X95116996Y-93074183D01*
X95155555Y-93063066D01*
X95187893Y-93039322D01*
X95210137Y-93004373D01*
X95218412Y-92959639D01*
X95218412Y-92958973D01*
X95218130Y-92955449D01*
X96020397Y-92955449D01*
X96021060Y-92959639D01*
X96026793Y-92995859D01*
X96050136Y-93034010D01*
X96071232Y-93052856D01*
X96110613Y-93071253D01*
X96151519Y-93074183D01*
X96190078Y-93063066D01*
X96222416Y-93039322D01*
X96244660Y-93004373D01*
X96252935Y-92959639D01*
X96252934Y-92958973D01*
X96252652Y-92955449D01*
X97399761Y-92955449D01*
X97400424Y-92959639D01*
X97406157Y-92995859D01*
X97429499Y-93034010D01*
X97450596Y-93052856D01*
X97489976Y-93071253D01*
X97530883Y-93074183D01*
X97569442Y-93063066D01*
X97601780Y-93039322D01*
X97624024Y-93004373D01*
X97632299Y-92959639D01*
X97632298Y-92958973D01*
X97632016Y-92955449D01*
X99123966Y-92955449D01*
X99124629Y-92959639D01*
X99130362Y-92995859D01*
X99153704Y-93034010D01*
X99174801Y-93052856D01*
X99214181Y-93071253D01*
X99255088Y-93074183D01*
X99293647Y-93063066D01*
X99325985Y-93039322D01*
X99348228Y-93004373D01*
X99356504Y-92959639D01*
X99356503Y-92958973D01*
X99356221Y-92955449D01*
X99813648Y-92955449D01*
X99814311Y-92959639D01*
X99820044Y-92995859D01*
X99843386Y-93034010D01*
X99864483Y-93052856D01*
X99903863Y-93071253D01*
X99944770Y-93074183D01*
X99983329Y-93063066D01*
X100015667Y-93039322D01*
X100037910Y-93004373D01*
X100046186Y-92959639D01*
X100046185Y-92958973D01*
X100045903Y-92955449D01*
X100848171Y-92955449D01*
X100848834Y-92959639D01*
X100854567Y-92995859D01*
X100877909Y-93034010D01*
X100899006Y-93052856D01*
X100938386Y-93071253D01*
X100979293Y-93074183D01*
X101017852Y-93063066D01*
X101050190Y-93039322D01*
X101072433Y-93004373D01*
X101080708Y-92959639D01*
X101080708Y-92958973D01*
X101080426Y-92955449D01*
X101193012Y-92955449D01*
X101193675Y-92959639D01*
X101199408Y-92995859D01*
X101222750Y-93034010D01*
X101243847Y-93052856D01*
X101283227Y-93071253D01*
X101324134Y-93074183D01*
X101362693Y-93063066D01*
X101395031Y-93039322D01*
X101417274Y-93004373D01*
X101425549Y-92959639D01*
X101425549Y-92958973D01*
X101425267Y-92955449D01*
X101537853Y-92955449D01*
X101538516Y-92959639D01*
X101544249Y-92995859D01*
X101567591Y-93034010D01*
X101588688Y-93052856D01*
X101628068Y-93071253D01*
X101668975Y-93074183D01*
X101707534Y-93063066D01*
X101739872Y-93039322D01*
X101762115Y-93004373D01*
X101770390Y-92959639D01*
X101770390Y-92958973D01*
X101770108Y-92955449D01*
X101882694Y-92955449D01*
X101883357Y-92959639D01*
X101889090Y-92995859D01*
X101912432Y-93034010D01*
X101933528Y-93052856D01*
X101972909Y-93071253D01*
X102013816Y-93074183D01*
X102052375Y-93063066D01*
X102084713Y-93039322D01*
X102106956Y-93004373D01*
X102115231Y-92959639D01*
X102115231Y-92958973D01*
X102114949Y-92955449D01*
X102227535Y-92955449D01*
X102228198Y-92959639D01*
X102233931Y-92995859D01*
X102257273Y-93034010D01*
X102278369Y-93052856D01*
X102317750Y-93071253D01*
X102358657Y-93074183D01*
X102397216Y-93063066D01*
X102429554Y-93039322D01*
X102451797Y-93004373D01*
X102460072Y-92959639D01*
X102460072Y-92958973D01*
X102459790Y-92955449D01*
X102917217Y-92955449D01*
X102917880Y-92959639D01*
X102923613Y-92995859D01*
X102946955Y-93034010D01*
X102968051Y-93052856D01*
X103007432Y-93071253D01*
X103048338Y-93074183D01*
X103086898Y-93063066D01*
X103119236Y-93039322D01*
X103141479Y-93004373D01*
X103149754Y-92959639D01*
X103149754Y-92958973D01*
X103147282Y-92928101D01*
X103137201Y-92905002D01*
X103115333Y-92880014D01*
X103094190Y-92861087D01*
X103069864Y-92848580D01*
X103039839Y-92845026D01*
X103024509Y-92845665D01*
X102981413Y-92857889D01*
X102947946Y-92882742D01*
X102925938Y-92916503D01*
X102917217Y-92955449D01*
X102459790Y-92955449D01*
X102457600Y-92928101D01*
X102447519Y-92905002D01*
X102425651Y-92880014D01*
X102404508Y-92861087D01*
X102380182Y-92848580D01*
X102350157Y-92845026D01*
X102334827Y-92845665D01*
X102291731Y-92857889D01*
X102258264Y-92882742D01*
X102236256Y-92916503D01*
X102227535Y-92955449D01*
X102114949Y-92955449D01*
X102112759Y-92928101D01*
X102102678Y-92905002D01*
X102080810Y-92880014D01*
X102059667Y-92861087D01*
X102035341Y-92848580D01*
X102005316Y-92845026D01*
X101989986Y-92845665D01*
X101946890Y-92857889D01*
X101913423Y-92882742D01*
X101891415Y-92916503D01*
X101882694Y-92955449D01*
X101770108Y-92955449D01*
X101767918Y-92928101D01*
X101757837Y-92905002D01*
X101735969Y-92880014D01*
X101714826Y-92861087D01*
X101690500Y-92848580D01*
X101660475Y-92845026D01*
X101645145Y-92845665D01*
X101602049Y-92857889D01*
X101568582Y-92882742D01*
X101546574Y-92916503D01*
X101537853Y-92955449D01*
X101425267Y-92955449D01*
X101423077Y-92928101D01*
X101412996Y-92905002D01*
X101391128Y-92880014D01*
X101369985Y-92861087D01*
X101345659Y-92848580D01*
X101315634Y-92845026D01*
X101300305Y-92845665D01*
X101257208Y-92857889D01*
X101223741Y-92882742D01*
X101201733Y-92916503D01*
X101193012Y-92955449D01*
X101080426Y-92955449D01*
X101078236Y-92928101D01*
X101068155Y-92905002D01*
X101046287Y-92880014D01*
X101025144Y-92861087D01*
X101000818Y-92848580D01*
X100970793Y-92845026D01*
X100955464Y-92845665D01*
X100912368Y-92857889D01*
X100878900Y-92882742D01*
X100856892Y-92916503D01*
X100848171Y-92955449D01*
X100045903Y-92955449D01*
X100043713Y-92928101D01*
X100033632Y-92905002D01*
X100011764Y-92880014D01*
X99990622Y-92861087D01*
X99966295Y-92848580D01*
X99936270Y-92845026D01*
X99920941Y-92845665D01*
X99877845Y-92857889D01*
X99844378Y-92882742D01*
X99822369Y-92916503D01*
X99813648Y-92955449D01*
X99356221Y-92955449D01*
X99354031Y-92928101D01*
X99343950Y-92905002D01*
X99322082Y-92880014D01*
X99300940Y-92861087D01*
X99276613Y-92848580D01*
X99246588Y-92845026D01*
X99231259Y-92845665D01*
X99188163Y-92857889D01*
X99154696Y-92882742D01*
X99132687Y-92916503D01*
X99123966Y-92955449D01*
X97632016Y-92955449D01*
X97629827Y-92928101D01*
X97619745Y-92905002D01*
X97597878Y-92880014D01*
X97576735Y-92861087D01*
X97552409Y-92848580D01*
X97522383Y-92845026D01*
X97507054Y-92845665D01*
X97463958Y-92857889D01*
X97430491Y-92882742D01*
X97408482Y-92916503D01*
X97399761Y-92955449D01*
X96252652Y-92955449D01*
X96250463Y-92928101D01*
X96240382Y-92905002D01*
X96218514Y-92880014D01*
X96197371Y-92861087D01*
X96173045Y-92848580D01*
X96143019Y-92845026D01*
X96127690Y-92845665D01*
X96084594Y-92857889D01*
X96051127Y-92882742D01*
X96029118Y-92916503D01*
X96020397Y-92955449D01*
X95218130Y-92955449D01*
X95215940Y-92928101D01*
X95205859Y-92905002D01*
X95183991Y-92880014D01*
X95162848Y-92861087D01*
X95138522Y-92848580D01*
X95108497Y-92845026D01*
X95093167Y-92845665D01*
X95050071Y-92857889D01*
X95016604Y-92882742D01*
X94994595Y-92916503D01*
X94985874Y-92955449D01*
X94873289Y-92955449D01*
X94871099Y-92928101D01*
X94861018Y-92905002D01*
X94839150Y-92880014D01*
X94818007Y-92861087D01*
X94793681Y-92848580D01*
X94763656Y-92845026D01*
X94748326Y-92845665D01*
X94705230Y-92857889D01*
X94671763Y-92882742D01*
X94649754Y-92916503D01*
X94641033Y-92955449D01*
X93899810Y-92955449D01*
X93899815Y-92768304D01*
X93899824Y-92610608D01*
X94641033Y-92610608D01*
X94647429Y-92651018D01*
X94670772Y-92689169D01*
X94691868Y-92708015D01*
X94731249Y-92726412D01*
X94772155Y-92729342D01*
X94810714Y-92718225D01*
X94843052Y-92694481D01*
X94865296Y-92659532D01*
X94873571Y-92614798D01*
X94873571Y-92614132D01*
X94873289Y-92610608D01*
X94985874Y-92610608D01*
X94986537Y-92614798D01*
X94992270Y-92651018D01*
X95015613Y-92689169D01*
X95036709Y-92708015D01*
X95076090Y-92726412D01*
X95116996Y-92729342D01*
X95155555Y-92718225D01*
X95187893Y-92694481D01*
X95210137Y-92659532D01*
X95218412Y-92614798D01*
X95218412Y-92614132D01*
X95218130Y-92610608D01*
X95330715Y-92610608D01*
X95331378Y-92614798D01*
X95337111Y-92651018D01*
X95360454Y-92689169D01*
X95381550Y-92708015D01*
X95420931Y-92726412D01*
X95461837Y-92729342D01*
X95500396Y-92718225D01*
X95532734Y-92694481D01*
X95554978Y-92659532D01*
X95563253Y-92614798D01*
X95563253Y-92614132D01*
X95562971Y-92610608D01*
X95675556Y-92610608D01*
X95676219Y-92614798D01*
X95681952Y-92651018D01*
X95705295Y-92689169D01*
X95726391Y-92708015D01*
X95765772Y-92726412D01*
X95806678Y-92729342D01*
X95845237Y-92718225D01*
X95877575Y-92694481D01*
X95899819Y-92659532D01*
X95908094Y-92614798D01*
X95908093Y-92614132D01*
X95907811Y-92610608D01*
X96020397Y-92610608D01*
X96021060Y-92614798D01*
X96026793Y-92651018D01*
X96050136Y-92689169D01*
X96071232Y-92708015D01*
X96110613Y-92726412D01*
X96151519Y-92729342D01*
X96190078Y-92718225D01*
X96222416Y-92694481D01*
X96244660Y-92659532D01*
X96252935Y-92614798D01*
X96252934Y-92614132D01*
X96252652Y-92610608D01*
X96710079Y-92610608D01*
X96710742Y-92614798D01*
X96716475Y-92651018D01*
X96739818Y-92689169D01*
X96760914Y-92708015D01*
X96800295Y-92726412D01*
X96841201Y-92729342D01*
X96879760Y-92718225D01*
X96912098Y-92694481D01*
X96934342Y-92659532D01*
X96942617Y-92614798D01*
X96942616Y-92614132D01*
X96942334Y-92610608D01*
X97744602Y-92610608D01*
X97745265Y-92614798D01*
X97750998Y-92651018D01*
X97774340Y-92689169D01*
X97795437Y-92708015D01*
X97834817Y-92726412D01*
X97875724Y-92729342D01*
X97914283Y-92718225D01*
X97946621Y-92694481D01*
X97968864Y-92659532D01*
X97977140Y-92614798D01*
X97977139Y-92614132D01*
X97976857Y-92610608D01*
X98089443Y-92610608D01*
X98090106Y-92614798D01*
X98095839Y-92651018D01*
X98119181Y-92689169D01*
X98140278Y-92708015D01*
X98179658Y-92726412D01*
X98220565Y-92729342D01*
X98259124Y-92718225D01*
X98291462Y-92694481D01*
X98313705Y-92659532D01*
X98321981Y-92614798D01*
X98321980Y-92614132D01*
X98321698Y-92610608D01*
X98779125Y-92610608D01*
X98779788Y-92614798D01*
X98785521Y-92651018D01*
X98808863Y-92689169D01*
X98829960Y-92708015D01*
X98869340Y-92726412D01*
X98910247Y-92729342D01*
X98948806Y-92718225D01*
X98981144Y-92694481D01*
X99003387Y-92659532D01*
X99011663Y-92614798D01*
X99011662Y-92614132D01*
X99011380Y-92610608D01*
X99468807Y-92610608D01*
X99469470Y-92614798D01*
X99475203Y-92651018D01*
X99498545Y-92689169D01*
X99519642Y-92708015D01*
X99559022Y-92726412D01*
X99599929Y-92729342D01*
X99638488Y-92718225D01*
X99670826Y-92694481D01*
X99693069Y-92659532D01*
X99701345Y-92614798D01*
X99701344Y-92614132D01*
X99701062Y-92610608D01*
X101193012Y-92610608D01*
X101193675Y-92614798D01*
X101199408Y-92651018D01*
X101222750Y-92689169D01*
X101243847Y-92708015D01*
X101283227Y-92726412D01*
X101324134Y-92729342D01*
X101362693Y-92718225D01*
X101395031Y-92694481D01*
X101417274Y-92659532D01*
X101425549Y-92614798D01*
X101425549Y-92614132D01*
X101425267Y-92610608D01*
X101882694Y-92610608D01*
X101883357Y-92614798D01*
X101889090Y-92651018D01*
X101912432Y-92689169D01*
X101919022Y-92696026D01*
X101958576Y-92723148D01*
X102001102Y-92731882D01*
X102043482Y-92722145D01*
X102082599Y-92693849D01*
X102101721Y-92671496D01*
X102112569Y-92647209D01*
X102115231Y-92614888D01*
X102115231Y-92614100D01*
X102114951Y-92610608D01*
X102227535Y-92610608D01*
X102228212Y-92614888D01*
X102233931Y-92651018D01*
X102257273Y-92689169D01*
X102278369Y-92708015D01*
X102317750Y-92726412D01*
X102358657Y-92729342D01*
X102397216Y-92718225D01*
X102429554Y-92694481D01*
X102451797Y-92659532D01*
X102460072Y-92614798D01*
X102460072Y-92614132D01*
X102459790Y-92610608D01*
X102572376Y-92610608D01*
X102573039Y-92614798D01*
X102578772Y-92651018D01*
X102602114Y-92689169D01*
X102623210Y-92708015D01*
X102662591Y-92726412D01*
X102703497Y-92729342D01*
X102742057Y-92718225D01*
X102774395Y-92694481D01*
X102796638Y-92659532D01*
X102804913Y-92614798D01*
X102804913Y-92614132D01*
X102804631Y-92610608D01*
X102917217Y-92610608D01*
X102917880Y-92614798D01*
X102923613Y-92651018D01*
X102946955Y-92689169D01*
X102968051Y-92708015D01*
X103007432Y-92726412D01*
X103048338Y-92729342D01*
X103086898Y-92718225D01*
X103119236Y-92694481D01*
X103141479Y-92659532D01*
X103149754Y-92614798D01*
X103149754Y-92614132D01*
X103147282Y-92583260D01*
X103137201Y-92560161D01*
X103115333Y-92535173D01*
X103094190Y-92516246D01*
X103069864Y-92503739D01*
X103039839Y-92500185D01*
X103024509Y-92500824D01*
X102981413Y-92513048D01*
X102947946Y-92537901D01*
X102925938Y-92571662D01*
X102917217Y-92610608D01*
X102804631Y-92610608D01*
X102802441Y-92583260D01*
X102792360Y-92560161D01*
X102770492Y-92535173D01*
X102749349Y-92516246D01*
X102725023Y-92503739D01*
X102694998Y-92500185D01*
X102679668Y-92500824D01*
X102636572Y-92513048D01*
X102603105Y-92537901D01*
X102581097Y-92571662D01*
X102572376Y-92610608D01*
X102459790Y-92610608D01*
X102457600Y-92583260D01*
X102447519Y-92560161D01*
X102425651Y-92535173D01*
X102404508Y-92516246D01*
X102380182Y-92503739D01*
X102350157Y-92500185D01*
X102334827Y-92500824D01*
X102291731Y-92513048D01*
X102258264Y-92537901D01*
X102236256Y-92571662D01*
X102227535Y-92610608D01*
X102114951Y-92610608D01*
X102112752Y-92583231D01*
X102102671Y-92560147D01*
X102080810Y-92535173D01*
X102059667Y-92516246D01*
X102035341Y-92503739D01*
X102005316Y-92500185D01*
X101989986Y-92500824D01*
X101946890Y-92513048D01*
X101913423Y-92537901D01*
X101891415Y-92571662D01*
X101882694Y-92610608D01*
X101425267Y-92610608D01*
X101423077Y-92583260D01*
X101412996Y-92560161D01*
X101391128Y-92535173D01*
X101369985Y-92516246D01*
X101345659Y-92503739D01*
X101315634Y-92500185D01*
X101300305Y-92500824D01*
X101257208Y-92513048D01*
X101223741Y-92537901D01*
X101201733Y-92571662D01*
X101193012Y-92610608D01*
X99701062Y-92610608D01*
X99698872Y-92583260D01*
X99688791Y-92560161D01*
X99666923Y-92535173D01*
X99645781Y-92516246D01*
X99621454Y-92503739D01*
X99591429Y-92500185D01*
X99576100Y-92500824D01*
X99533004Y-92513048D01*
X99499537Y-92537901D01*
X99477528Y-92571662D01*
X99468807Y-92610608D01*
X99011380Y-92610608D01*
X99009190Y-92583260D01*
X98999109Y-92560161D01*
X98977241Y-92535173D01*
X98956099Y-92516246D01*
X98931772Y-92503739D01*
X98901747Y-92500185D01*
X98886418Y-92500824D01*
X98843322Y-92513048D01*
X98809855Y-92537901D01*
X98787846Y-92571662D01*
X98779125Y-92610608D01*
X98321698Y-92610608D01*
X98319509Y-92583260D01*
X98309427Y-92560161D01*
X98287559Y-92535173D01*
X98266417Y-92516246D01*
X98242090Y-92503739D01*
X98212065Y-92500185D01*
X98196736Y-92500824D01*
X98153640Y-92513048D01*
X98120173Y-92537901D01*
X98098164Y-92571662D01*
X98089443Y-92610608D01*
X97976857Y-92610608D01*
X97974668Y-92583260D01*
X97964586Y-92560161D01*
X97942718Y-92535173D01*
X97921576Y-92516246D01*
X97897249Y-92503739D01*
X97867224Y-92500185D01*
X97851895Y-92500824D01*
X97808799Y-92513048D01*
X97775332Y-92537901D01*
X97753323Y-92571662D01*
X97744602Y-92610608D01*
X96942334Y-92610608D01*
X96940145Y-92583260D01*
X96930063Y-92560161D01*
X96908196Y-92535173D01*
X96887053Y-92516246D01*
X96862727Y-92503739D01*
X96832701Y-92500185D01*
X96817372Y-92500824D01*
X96774276Y-92513048D01*
X96740809Y-92537901D01*
X96718800Y-92571662D01*
X96710079Y-92610608D01*
X96252652Y-92610608D01*
X96250463Y-92583260D01*
X96240382Y-92560161D01*
X96218514Y-92535173D01*
X96197371Y-92516246D01*
X96173045Y-92503739D01*
X96143019Y-92500185D01*
X96127690Y-92500824D01*
X96084594Y-92513048D01*
X96051127Y-92537901D01*
X96029118Y-92571662D01*
X96020397Y-92610608D01*
X95907811Y-92610608D01*
X95905622Y-92583260D01*
X95895541Y-92560161D01*
X95873673Y-92535173D01*
X95852530Y-92516246D01*
X95828204Y-92503739D01*
X95798178Y-92500185D01*
X95782849Y-92500824D01*
X95739753Y-92513048D01*
X95706286Y-92537901D01*
X95684277Y-92571662D01*
X95675556Y-92610608D01*
X95562971Y-92610608D01*
X95560781Y-92583260D01*
X95550700Y-92560161D01*
X95528832Y-92535173D01*
X95507689Y-92516246D01*
X95483363Y-92503739D01*
X95453337Y-92500185D01*
X95438008Y-92500824D01*
X95394912Y-92513048D01*
X95361445Y-92537901D01*
X95339436Y-92571662D01*
X95330715Y-92610608D01*
X95218130Y-92610608D01*
X95215940Y-92583260D01*
X95205859Y-92560161D01*
X95183991Y-92535173D01*
X95162848Y-92516246D01*
X95138522Y-92503739D01*
X95108497Y-92500185D01*
X95093167Y-92500824D01*
X95050071Y-92513048D01*
X95016604Y-92537901D01*
X94994595Y-92571662D01*
X94985874Y-92610608D01*
X94873289Y-92610608D01*
X94871099Y-92583260D01*
X94861018Y-92560161D01*
X94839150Y-92535173D01*
X94818007Y-92516246D01*
X94793681Y-92503739D01*
X94763656Y-92500185D01*
X94748326Y-92500824D01*
X94705230Y-92513048D01*
X94671763Y-92537901D01*
X94649754Y-92571662D01*
X94641033Y-92610608D01*
X93899824Y-92610608D01*
X93899832Y-92468114D01*
X93899853Y-92265767D01*
X94641033Y-92265767D01*
X94647429Y-92306177D01*
X94670772Y-92344328D01*
X94691868Y-92363174D01*
X94731249Y-92381571D01*
X94772155Y-92384501D01*
X94810714Y-92373384D01*
X94843052Y-92349640D01*
X94865296Y-92314691D01*
X94873571Y-92269957D01*
X94873571Y-92269291D01*
X94873289Y-92265767D01*
X95330715Y-92265767D01*
X95331378Y-92269957D01*
X95337111Y-92306177D01*
X95360454Y-92344328D01*
X95381550Y-92363174D01*
X95420931Y-92381571D01*
X95461837Y-92384501D01*
X95500396Y-92373384D01*
X95532734Y-92349640D01*
X95554978Y-92314691D01*
X95563253Y-92269957D01*
X95563253Y-92269291D01*
X95562971Y-92265767D01*
X95675556Y-92265767D01*
X95676219Y-92269957D01*
X95681952Y-92306177D01*
X95705295Y-92344328D01*
X95726391Y-92363174D01*
X95765772Y-92381571D01*
X95806678Y-92384501D01*
X95845237Y-92373384D01*
X95877575Y-92349640D01*
X95899819Y-92314691D01*
X95908094Y-92269957D01*
X95908093Y-92269291D01*
X95907811Y-92265767D01*
X96020397Y-92265767D01*
X96021060Y-92269957D01*
X96026793Y-92306177D01*
X96050136Y-92344328D01*
X96071232Y-92363174D01*
X96110613Y-92381571D01*
X96151519Y-92384501D01*
X96190078Y-92373384D01*
X96222416Y-92349640D01*
X96244660Y-92314691D01*
X96252935Y-92269957D01*
X96252934Y-92269291D01*
X96252652Y-92265767D01*
X96365238Y-92265767D01*
X96365901Y-92269957D01*
X96371634Y-92306177D01*
X96394977Y-92344328D01*
X96416073Y-92363174D01*
X96455454Y-92381571D01*
X96496360Y-92384501D01*
X96534919Y-92373384D01*
X96567257Y-92349640D01*
X96589501Y-92314691D01*
X96597776Y-92269957D01*
X96597775Y-92269291D01*
X96597493Y-92265767D01*
X96710079Y-92265767D01*
X96710742Y-92269957D01*
X96716475Y-92306177D01*
X96739818Y-92344328D01*
X96760914Y-92363174D01*
X96800295Y-92381571D01*
X96841201Y-92384501D01*
X96879760Y-92373384D01*
X96912098Y-92349640D01*
X96934342Y-92314691D01*
X96942617Y-92269957D01*
X96942616Y-92269291D01*
X96942334Y-92265767D01*
X97744602Y-92265767D01*
X97745265Y-92269957D01*
X97750998Y-92306177D01*
X97774340Y-92344328D01*
X97795437Y-92363174D01*
X97834817Y-92381571D01*
X97875724Y-92384501D01*
X97914283Y-92373384D01*
X97946621Y-92349640D01*
X97968864Y-92314691D01*
X97977140Y-92269957D01*
X97977139Y-92269291D01*
X97976857Y-92265767D01*
X98089443Y-92265767D01*
X98090106Y-92269957D01*
X98095839Y-92306177D01*
X98119181Y-92344328D01*
X98140278Y-92363174D01*
X98179658Y-92381571D01*
X98220565Y-92384501D01*
X98259124Y-92373384D01*
X98291462Y-92349640D01*
X98313705Y-92314691D01*
X98321981Y-92269957D01*
X98321980Y-92269291D01*
X98321698Y-92265767D01*
X98779125Y-92265767D01*
X98779788Y-92269957D01*
X98785521Y-92306177D01*
X98808863Y-92344328D01*
X98829960Y-92363174D01*
X98869340Y-92381571D01*
X98910247Y-92384501D01*
X98948806Y-92373384D01*
X98981144Y-92349640D01*
X99003387Y-92314691D01*
X99011663Y-92269957D01*
X99011662Y-92269291D01*
X99011380Y-92265767D01*
X100503330Y-92265767D01*
X100503993Y-92269957D01*
X100509726Y-92306177D01*
X100533068Y-92344328D01*
X100554165Y-92363174D01*
X100593545Y-92381571D01*
X100634452Y-92384501D01*
X100673011Y-92373384D01*
X100705349Y-92349640D01*
X100727592Y-92314691D01*
X100735867Y-92269957D01*
X100735867Y-92269291D01*
X100735585Y-92265767D01*
X100848171Y-92265767D01*
X100848834Y-92269957D01*
X100854567Y-92306177D01*
X100877909Y-92344328D01*
X100899006Y-92363174D01*
X100938386Y-92381571D01*
X100979293Y-92384501D01*
X101017852Y-92373384D01*
X101050190Y-92349640D01*
X101072433Y-92314691D01*
X101080708Y-92269957D01*
X101080708Y-92269291D01*
X101080426Y-92265767D01*
X101193012Y-92265767D01*
X101193675Y-92269957D01*
X101199408Y-92306177D01*
X101222750Y-92344328D01*
X101243847Y-92363174D01*
X101283227Y-92381571D01*
X101324134Y-92384501D01*
X101362693Y-92373384D01*
X101395031Y-92349640D01*
X101417274Y-92314691D01*
X101425549Y-92269957D01*
X101425549Y-92269291D01*
X101425267Y-92265767D01*
X101537853Y-92265767D01*
X101538516Y-92269957D01*
X101544249Y-92306177D01*
X101567591Y-92344328D01*
X101588688Y-92363174D01*
X101628068Y-92381571D01*
X101668975Y-92384501D01*
X101707534Y-92373384D01*
X101739872Y-92349640D01*
X101762115Y-92314691D01*
X101770390Y-92269957D01*
X101770390Y-92269291D01*
X101770108Y-92265767D01*
X101882694Y-92265767D01*
X101883357Y-92269957D01*
X101889090Y-92306177D01*
X101912432Y-92344328D01*
X101919022Y-92351185D01*
X101958576Y-92378307D01*
X102001102Y-92387041D01*
X102043482Y-92377304D01*
X102082599Y-92349008D01*
X102101721Y-92326655D01*
X102112569Y-92302368D01*
X102115231Y-92270047D01*
X102115231Y-92269259D01*
X102112752Y-92238390D01*
X102102671Y-92215306D01*
X102080810Y-92190332D01*
X102059667Y-92171405D01*
X102035341Y-92158898D01*
X102005316Y-92155344D01*
X101989986Y-92155983D01*
X101946890Y-92168207D01*
X101913423Y-92193060D01*
X101891415Y-92226821D01*
X101882694Y-92265767D01*
X101770108Y-92265767D01*
X101767918Y-92238419D01*
X101757837Y-92215320D01*
X101735969Y-92190332D01*
X101714826Y-92171405D01*
X101690500Y-92158898D01*
X101660475Y-92155344D01*
X101645145Y-92155983D01*
X101602049Y-92168207D01*
X101568582Y-92193060D01*
X101546574Y-92226821D01*
X101537853Y-92265767D01*
X101425267Y-92265767D01*
X101423077Y-92238419D01*
X101412996Y-92215320D01*
X101391128Y-92190332D01*
X101369985Y-92171405D01*
X101345659Y-92158898D01*
X101315634Y-92155344D01*
X101300305Y-92155983D01*
X101257208Y-92168207D01*
X101223741Y-92193060D01*
X101201733Y-92226821D01*
X101193012Y-92265767D01*
X101080426Y-92265767D01*
X101078236Y-92238419D01*
X101068155Y-92215320D01*
X101046287Y-92190332D01*
X101025144Y-92171405D01*
X101000818Y-92158898D01*
X100970793Y-92155344D01*
X100955464Y-92155983D01*
X100912368Y-92168207D01*
X100878900Y-92193060D01*
X100856892Y-92226821D01*
X100848171Y-92265767D01*
X100735585Y-92265767D01*
X100733395Y-92238419D01*
X100723314Y-92215320D01*
X100701446Y-92190332D01*
X100680304Y-92171405D01*
X100655977Y-92158898D01*
X100625952Y-92155344D01*
X100610623Y-92155983D01*
X100567527Y-92168207D01*
X100534060Y-92193060D01*
X100512051Y-92226821D01*
X100503330Y-92265767D01*
X99011380Y-92265767D01*
X99009190Y-92238419D01*
X98999109Y-92215320D01*
X98977241Y-92190332D01*
X98956099Y-92171405D01*
X98931772Y-92158898D01*
X98901747Y-92155344D01*
X98886418Y-92155983D01*
X98843322Y-92168207D01*
X98809855Y-92193060D01*
X98787846Y-92226821D01*
X98779125Y-92265767D01*
X98321698Y-92265767D01*
X98319509Y-92238419D01*
X98309427Y-92215320D01*
X98287559Y-92190332D01*
X98266417Y-92171405D01*
X98242090Y-92158898D01*
X98212065Y-92155344D01*
X98196736Y-92155983D01*
X98153640Y-92168207D01*
X98120173Y-92193060D01*
X98098164Y-92226821D01*
X98089443Y-92265767D01*
X97976857Y-92265767D01*
X97974668Y-92238419D01*
X97964586Y-92215320D01*
X97942718Y-92190332D01*
X97921576Y-92171405D01*
X97897249Y-92158898D01*
X97867224Y-92155344D01*
X97851895Y-92155983D01*
X97808799Y-92168207D01*
X97775332Y-92193060D01*
X97753323Y-92226821D01*
X97744602Y-92265767D01*
X96942334Y-92265767D01*
X96940145Y-92238419D01*
X96930063Y-92215320D01*
X96908196Y-92190332D01*
X96887053Y-92171405D01*
X96862727Y-92158898D01*
X96832701Y-92155344D01*
X96817372Y-92155983D01*
X96774276Y-92168207D01*
X96740809Y-92193060D01*
X96718800Y-92226821D01*
X96710079Y-92265767D01*
X96597493Y-92265767D01*
X96595304Y-92238419D01*
X96585222Y-92215320D01*
X96563355Y-92190332D01*
X96542212Y-92171405D01*
X96517886Y-92158898D01*
X96487860Y-92155344D01*
X96472531Y-92155983D01*
X96429435Y-92168207D01*
X96395968Y-92193060D01*
X96373959Y-92226821D01*
X96365238Y-92265767D01*
X96252652Y-92265767D01*
X96250463Y-92238419D01*
X96240382Y-92215320D01*
X96218514Y-92190332D01*
X96197371Y-92171405D01*
X96173045Y-92158898D01*
X96143019Y-92155344D01*
X96127690Y-92155983D01*
X96084594Y-92168207D01*
X96051127Y-92193060D01*
X96029118Y-92226821D01*
X96020397Y-92265767D01*
X95907811Y-92265767D01*
X95905622Y-92238419D01*
X95895541Y-92215320D01*
X95873673Y-92190332D01*
X95852530Y-92171405D01*
X95828204Y-92158898D01*
X95798178Y-92155344D01*
X95782849Y-92155983D01*
X95739753Y-92168207D01*
X95706286Y-92193060D01*
X95684277Y-92226821D01*
X95675556Y-92265767D01*
X95562971Y-92265767D01*
X95560781Y-92238419D01*
X95550700Y-92215320D01*
X95528832Y-92190332D01*
X95507689Y-92171405D01*
X95483363Y-92158898D01*
X95453337Y-92155344D01*
X95438008Y-92155983D01*
X95394912Y-92168207D01*
X95361445Y-92193060D01*
X95339436Y-92226821D01*
X95330715Y-92265767D01*
X94873289Y-92265767D01*
X94871099Y-92238419D01*
X94861018Y-92215320D01*
X94839150Y-92190332D01*
X94818007Y-92171405D01*
X94793681Y-92158898D01*
X94763656Y-92155344D01*
X94748326Y-92155983D01*
X94705230Y-92168207D01*
X94671763Y-92193060D01*
X94649754Y-92226821D01*
X94641033Y-92265767D01*
X93899853Y-92265767D01*
X93899861Y-92186092D01*
X93899904Y-91921658D01*
X93899904Y-91920926D01*
X94985874Y-91920926D01*
X94992270Y-91961336D01*
X95015613Y-91999487D01*
X95036709Y-92018333D01*
X95076090Y-92036730D01*
X95116996Y-92039660D01*
X95155555Y-92028543D01*
X95187893Y-92004799D01*
X95210137Y-91969850D01*
X95218412Y-91925116D01*
X95218412Y-91924450D01*
X95218130Y-91920926D01*
X96365238Y-91920926D01*
X96365901Y-91925116D01*
X96371634Y-91961336D01*
X96394977Y-91999487D01*
X96416073Y-92018333D01*
X96455454Y-92036730D01*
X96496360Y-92039660D01*
X96534919Y-92028543D01*
X96567257Y-92004799D01*
X96589501Y-91969850D01*
X96597776Y-91925116D01*
X96597775Y-91924450D01*
X96597493Y-91920926D01*
X96710079Y-91920926D01*
X96710742Y-91925116D01*
X96716475Y-91961336D01*
X96739818Y-91999487D01*
X96760914Y-92018333D01*
X96800295Y-92036730D01*
X96841201Y-92039660D01*
X96879760Y-92028543D01*
X96912098Y-92004799D01*
X96934342Y-91969850D01*
X96942617Y-91925116D01*
X96942616Y-91924450D01*
X96942334Y-91920926D01*
X98434284Y-91920926D01*
X98434947Y-91925116D01*
X98440680Y-91961336D01*
X98464022Y-91999487D01*
X98485119Y-92018333D01*
X98524499Y-92036730D01*
X98565406Y-92039660D01*
X98603965Y-92028543D01*
X98636303Y-92004799D01*
X98658546Y-91969850D01*
X98666822Y-91925116D01*
X98666821Y-91924450D01*
X98666539Y-91920926D01*
X98779125Y-91920926D01*
X98779788Y-91925116D01*
X98785521Y-91961336D01*
X98808863Y-91999487D01*
X98829960Y-92018333D01*
X98869340Y-92036730D01*
X98910247Y-92039660D01*
X98948806Y-92028543D01*
X98981144Y-92004799D01*
X99003387Y-91969850D01*
X99011663Y-91925116D01*
X99011662Y-91924450D01*
X99011380Y-91920926D01*
X99468807Y-91920926D01*
X99469470Y-91925116D01*
X99475203Y-91961336D01*
X99498545Y-91999487D01*
X99519642Y-92018333D01*
X99559022Y-92036730D01*
X99599929Y-92039660D01*
X99638488Y-92028543D01*
X99670826Y-92004799D01*
X99693069Y-91969850D01*
X99701345Y-91925116D01*
X99701344Y-91924450D01*
X99701062Y-91920926D01*
X100503330Y-91920926D01*
X100503993Y-91925116D01*
X100509726Y-91961336D01*
X100533068Y-91999487D01*
X100554165Y-92018333D01*
X100593545Y-92036730D01*
X100634452Y-92039660D01*
X100673011Y-92028543D01*
X100705349Y-92004799D01*
X100727592Y-91969850D01*
X100735867Y-91925116D01*
X100735867Y-91924450D01*
X100735585Y-91920926D01*
X101193012Y-91920926D01*
X101193675Y-91925116D01*
X101199408Y-91961336D01*
X101222750Y-91999487D01*
X101243847Y-92018333D01*
X101283227Y-92036730D01*
X101324134Y-92039660D01*
X101362693Y-92028543D01*
X101395031Y-92004799D01*
X101417274Y-91969850D01*
X101425549Y-91925116D01*
X101425549Y-91924450D01*
X101425267Y-91920926D01*
X101537853Y-91920926D01*
X101538516Y-91925116D01*
X101544249Y-91961336D01*
X101567591Y-91999487D01*
X101588688Y-92018333D01*
X101628068Y-92036730D01*
X101668975Y-92039660D01*
X101707534Y-92028543D01*
X101739872Y-92004799D01*
X101762115Y-91969850D01*
X101770390Y-91925116D01*
X101770390Y-91924450D01*
X101767918Y-91893578D01*
X101757837Y-91870479D01*
X101735969Y-91845491D01*
X101714826Y-91826564D01*
X101690500Y-91814057D01*
X101660475Y-91810503D01*
X101645145Y-91811142D01*
X101602049Y-91823366D01*
X101568582Y-91848219D01*
X101546574Y-91881980D01*
X101537853Y-91920926D01*
X101425267Y-91920926D01*
X101423077Y-91893578D01*
X101412996Y-91870479D01*
X101391128Y-91845491D01*
X101369985Y-91826564D01*
X101345659Y-91814057D01*
X101315634Y-91810503D01*
X101300305Y-91811142D01*
X101257208Y-91823366D01*
X101223741Y-91848219D01*
X101201733Y-91881980D01*
X101193012Y-91920926D01*
X100735585Y-91920926D01*
X100733395Y-91893578D01*
X100723314Y-91870479D01*
X100701446Y-91845491D01*
X100680304Y-91826564D01*
X100655977Y-91814057D01*
X100625952Y-91810503D01*
X100610623Y-91811142D01*
X100567527Y-91823366D01*
X100534060Y-91848219D01*
X100512051Y-91881980D01*
X100503330Y-91920926D01*
X99701062Y-91920926D01*
X99698872Y-91893578D01*
X99688791Y-91870479D01*
X99666923Y-91845491D01*
X99645781Y-91826564D01*
X99621454Y-91814057D01*
X99591429Y-91810503D01*
X99576100Y-91811142D01*
X99533004Y-91823366D01*
X99499537Y-91848219D01*
X99477528Y-91881980D01*
X99468807Y-91920926D01*
X99011380Y-91920926D01*
X99009190Y-91893578D01*
X98999109Y-91870479D01*
X98977241Y-91845491D01*
X98956099Y-91826564D01*
X98931772Y-91814057D01*
X98901747Y-91810503D01*
X98886418Y-91811142D01*
X98843322Y-91823366D01*
X98809855Y-91848219D01*
X98787846Y-91881980D01*
X98779125Y-91920926D01*
X98666539Y-91920926D01*
X98664349Y-91893578D01*
X98654268Y-91870479D01*
X98632400Y-91845491D01*
X98611258Y-91826564D01*
X98586931Y-91814057D01*
X98556906Y-91810503D01*
X98541577Y-91811142D01*
X98498481Y-91823366D01*
X98465014Y-91848219D01*
X98443005Y-91881980D01*
X98434284Y-91920926D01*
X96942334Y-91920926D01*
X96940145Y-91893578D01*
X96930063Y-91870479D01*
X96908196Y-91845491D01*
X96887053Y-91826564D01*
X96862727Y-91814057D01*
X96832701Y-91810503D01*
X96817372Y-91811142D01*
X96774276Y-91823366D01*
X96740809Y-91848219D01*
X96718800Y-91881980D01*
X96710079Y-91920926D01*
X96597493Y-91920926D01*
X96595304Y-91893578D01*
X96585222Y-91870479D01*
X96563355Y-91845491D01*
X96542212Y-91826564D01*
X96517886Y-91814057D01*
X96487860Y-91810503D01*
X96472531Y-91811142D01*
X96429435Y-91823366D01*
X96395968Y-91848219D01*
X96373959Y-91881980D01*
X96365238Y-91920926D01*
X95218130Y-91920926D01*
X95215940Y-91893578D01*
X95205859Y-91870479D01*
X95183991Y-91845491D01*
X95162848Y-91826564D01*
X95138522Y-91814057D01*
X95108497Y-91810503D01*
X95093167Y-91811142D01*
X95050071Y-91823366D01*
X95016604Y-91848219D01*
X94994595Y-91881980D01*
X94985874Y-91920926D01*
X93899904Y-91920926D01*
X93899965Y-91674232D01*
X93900045Y-91443233D01*
X93900147Y-91228081D01*
X93900273Y-91028197D01*
X93900426Y-90843000D01*
X93900609Y-90671910D01*
X93900825Y-90514347D01*
X93901074Y-90369731D01*
X93901361Y-90237481D01*
X93901623Y-90141111D01*
X94244467Y-90141111D01*
X94246867Y-90307106D01*
X94267006Y-90471751D01*
X94304755Y-90633597D01*
X94359980Y-90791194D01*
X94432552Y-90943094D01*
X94522339Y-91087848D01*
X94629210Y-91224006D01*
X94685796Y-91284867D01*
X94809050Y-91397168D01*
X94944003Y-91496044D01*
X95088366Y-91580239D01*
X95239853Y-91648498D01*
X95396174Y-91699565D01*
X95555043Y-91732185D01*
X95595230Y-91737485D01*
X95772283Y-91749018D01*
X95947350Y-91741149D01*
X96119585Y-91713953D01*
X96288138Y-91667504D01*
X96342550Y-91648018D01*
X96498882Y-91578378D01*
X96502793Y-91576085D01*
X97744602Y-91576085D01*
X97750998Y-91616495D01*
X97774340Y-91654646D01*
X97795437Y-91673492D01*
X97834817Y-91691889D01*
X97875724Y-91694819D01*
X97914283Y-91683702D01*
X97946621Y-91659958D01*
X97968864Y-91625009D01*
X97977140Y-91580275D01*
X97977139Y-91579609D01*
X97976857Y-91576085D01*
X98434284Y-91576085D01*
X98434947Y-91580275D01*
X98440680Y-91616495D01*
X98464022Y-91654646D01*
X98485119Y-91673492D01*
X98524499Y-91691889D01*
X98565406Y-91694819D01*
X98603965Y-91683702D01*
X98636303Y-91659958D01*
X98658546Y-91625009D01*
X98666822Y-91580275D01*
X98666821Y-91579609D01*
X98666539Y-91576085D01*
X99123966Y-91576085D01*
X99124629Y-91580275D01*
X99130362Y-91616495D01*
X99153704Y-91654646D01*
X99174801Y-91673492D01*
X99214181Y-91691889D01*
X99255088Y-91694819D01*
X99293647Y-91683702D01*
X99325985Y-91659958D01*
X99348228Y-91625009D01*
X99356504Y-91580275D01*
X99356503Y-91579609D01*
X99356221Y-91576085D01*
X99813648Y-91576085D01*
X99814311Y-91580275D01*
X99820044Y-91616495D01*
X99843386Y-91654646D01*
X99864483Y-91673492D01*
X99903863Y-91691889D01*
X99944770Y-91694819D01*
X99983329Y-91683702D01*
X100015667Y-91659958D01*
X100037910Y-91625009D01*
X100046186Y-91580275D01*
X100046185Y-91579609D01*
X100045903Y-91576085D01*
X100158489Y-91576085D01*
X100159152Y-91580275D01*
X100164885Y-91616495D01*
X100188227Y-91654646D01*
X100209324Y-91673492D01*
X100248704Y-91691889D01*
X100289611Y-91694819D01*
X100328170Y-91683702D01*
X100360508Y-91659958D01*
X100382751Y-91625009D01*
X100391026Y-91580275D01*
X100391026Y-91579609D01*
X100388554Y-91548737D01*
X100378473Y-91525638D01*
X100356605Y-91500650D01*
X100335463Y-91481723D01*
X100311136Y-91469217D01*
X100281111Y-91465662D01*
X100265782Y-91466301D01*
X100222686Y-91478525D01*
X100189219Y-91503378D01*
X100167210Y-91537139D01*
X100158489Y-91576085D01*
X100045903Y-91576085D01*
X100043713Y-91548737D01*
X100033632Y-91525638D01*
X100011764Y-91500650D01*
X99990622Y-91481723D01*
X99966295Y-91469217D01*
X99936270Y-91465662D01*
X99920941Y-91466301D01*
X99877845Y-91478525D01*
X99844378Y-91503378D01*
X99822369Y-91537139D01*
X99813648Y-91576085D01*
X99356221Y-91576085D01*
X99354031Y-91548737D01*
X99343950Y-91525638D01*
X99322082Y-91500650D01*
X99300940Y-91481723D01*
X99276613Y-91469217D01*
X99246588Y-91465662D01*
X99231259Y-91466301D01*
X99188163Y-91478525D01*
X99154696Y-91503378D01*
X99132687Y-91537139D01*
X99123966Y-91576085D01*
X98666539Y-91576085D01*
X98664349Y-91548737D01*
X98654268Y-91525638D01*
X98632400Y-91500650D01*
X98611258Y-91481723D01*
X98586931Y-91469217D01*
X98556906Y-91465662D01*
X98541577Y-91466301D01*
X98498481Y-91478525D01*
X98465014Y-91503378D01*
X98443005Y-91537139D01*
X98434284Y-91576085D01*
X97976857Y-91576085D01*
X97974668Y-91548737D01*
X97964586Y-91525638D01*
X97942718Y-91500650D01*
X97921576Y-91481723D01*
X97897249Y-91469217D01*
X97867224Y-91465662D01*
X97851895Y-91466301D01*
X97808799Y-91478525D01*
X97775332Y-91503378D01*
X97753323Y-91537139D01*
X97744602Y-91576085D01*
X96502793Y-91576085D01*
X96645654Y-91492323D01*
X96781657Y-91391060D01*
X96905681Y-91275797D01*
X96944243Y-91231244D01*
X97744602Y-91231244D01*
X97750998Y-91271654D01*
X97774340Y-91309805D01*
X97795437Y-91328651D01*
X97834817Y-91347048D01*
X97875724Y-91349978D01*
X97914283Y-91338861D01*
X97946621Y-91315117D01*
X97968864Y-91280168D01*
X97977140Y-91235434D01*
X97977139Y-91234768D01*
X97976857Y-91231244D01*
X98434284Y-91231244D01*
X98434947Y-91235434D01*
X98440680Y-91271654D01*
X98464022Y-91309805D01*
X98485119Y-91328651D01*
X98524499Y-91347048D01*
X98565406Y-91349978D01*
X98603965Y-91338861D01*
X98636303Y-91315117D01*
X98658546Y-91280168D01*
X98666822Y-91235434D01*
X98666821Y-91234768D01*
X98666539Y-91231244D01*
X99123966Y-91231244D01*
X99124629Y-91235434D01*
X99130362Y-91271654D01*
X99153704Y-91309805D01*
X99174801Y-91328651D01*
X99214181Y-91347048D01*
X99255088Y-91349978D01*
X99293647Y-91338861D01*
X99325985Y-91315117D01*
X99348228Y-91280168D01*
X99356504Y-91235434D01*
X99356503Y-91234768D01*
X99356221Y-91231244D01*
X99813648Y-91231244D01*
X99814311Y-91235434D01*
X99820044Y-91271654D01*
X99843386Y-91309805D01*
X99864483Y-91328651D01*
X99903863Y-91347048D01*
X99944770Y-91349978D01*
X99983329Y-91338861D01*
X100015667Y-91315117D01*
X100037910Y-91280168D01*
X100046186Y-91235434D01*
X100046185Y-91234768D01*
X100043713Y-91203896D01*
X100033632Y-91180797D01*
X100011764Y-91155809D01*
X99990622Y-91136882D01*
X99966295Y-91124376D01*
X99936270Y-91120821D01*
X99920941Y-91121460D01*
X99877845Y-91133684D01*
X99844378Y-91158537D01*
X99822369Y-91192298D01*
X99813648Y-91231244D01*
X99356221Y-91231244D01*
X99354031Y-91203896D01*
X99343950Y-91180797D01*
X99322082Y-91155809D01*
X99300940Y-91136882D01*
X99276613Y-91124376D01*
X99246588Y-91120821D01*
X99231259Y-91121460D01*
X99188163Y-91133684D01*
X99154696Y-91158537D01*
X99132687Y-91192298D01*
X99123966Y-91231244D01*
X98666539Y-91231244D01*
X98664349Y-91203896D01*
X98654268Y-91180797D01*
X98632400Y-91155809D01*
X98611258Y-91136882D01*
X98586931Y-91124376D01*
X98556906Y-91120821D01*
X98541577Y-91121460D01*
X98498481Y-91133684D01*
X98465014Y-91158537D01*
X98443005Y-91192298D01*
X98434284Y-91231244D01*
X97976857Y-91231244D01*
X97974668Y-91203896D01*
X97964586Y-91180797D01*
X97942718Y-91155809D01*
X97921576Y-91136882D01*
X97897249Y-91124376D01*
X97867224Y-91120821D01*
X97851895Y-91121460D01*
X97808799Y-91133684D01*
X97775332Y-91158537D01*
X97753323Y-91192298D01*
X97744602Y-91231244D01*
X96944243Y-91231244D01*
X97016516Y-91147743D01*
X97112953Y-91008106D01*
X97178528Y-90886403D01*
X97399761Y-90886403D01*
X97406157Y-90926813D01*
X97429499Y-90964964D01*
X97450596Y-90983810D01*
X97489976Y-91002207D01*
X97530883Y-91005137D01*
X97569442Y-90994020D01*
X97601780Y-90970277D01*
X97624024Y-90935327D01*
X97632299Y-90890593D01*
X97632298Y-90889927D01*
X97632016Y-90886403D01*
X97744602Y-90886403D01*
X97745265Y-90890593D01*
X97750998Y-90926813D01*
X97774340Y-90964964D01*
X97795437Y-90983810D01*
X97834817Y-91002207D01*
X97875724Y-91005137D01*
X97914283Y-90994020D01*
X97946621Y-90970277D01*
X97968864Y-90935327D01*
X97977140Y-90890593D01*
X97977139Y-90889927D01*
X97976857Y-90886403D01*
X98089443Y-90886403D01*
X98090106Y-90890593D01*
X98095839Y-90926813D01*
X98119181Y-90964964D01*
X98140278Y-90983810D01*
X98179658Y-91002207D01*
X98220565Y-91005137D01*
X98259124Y-90994020D01*
X98291462Y-90970277D01*
X98313705Y-90935327D01*
X98321981Y-90890593D01*
X98321980Y-90889927D01*
X98321698Y-90886403D01*
X98434284Y-90886403D01*
X98434947Y-90890593D01*
X98440680Y-90926813D01*
X98464022Y-90964964D01*
X98485119Y-90983810D01*
X98524499Y-91002207D01*
X98565406Y-91005137D01*
X98603965Y-90994020D01*
X98636303Y-90970277D01*
X98658546Y-90935327D01*
X98666822Y-90890593D01*
X98666821Y-90889927D01*
X98666539Y-90886403D01*
X98779125Y-90886403D01*
X98779788Y-90890593D01*
X98785521Y-90926813D01*
X98808863Y-90964964D01*
X98829960Y-90983810D01*
X98869340Y-91002207D01*
X98910247Y-91005137D01*
X98948806Y-90994020D01*
X98981144Y-90970277D01*
X99003387Y-90935327D01*
X99011663Y-90890593D01*
X99011662Y-90889927D01*
X99011380Y-90886403D01*
X99123966Y-90886403D01*
X99124629Y-90890593D01*
X99130362Y-90926813D01*
X99153704Y-90964964D01*
X99174801Y-90983810D01*
X99214181Y-91002207D01*
X99255088Y-91005137D01*
X99293647Y-90994020D01*
X99325985Y-90970277D01*
X99348228Y-90935327D01*
X99356504Y-90890593D01*
X99356503Y-90889927D01*
X99356221Y-90886403D01*
X99468807Y-90886403D01*
X99469470Y-90890593D01*
X99475203Y-90926813D01*
X99498545Y-90964964D01*
X99519642Y-90983810D01*
X99559022Y-91002207D01*
X99599929Y-91005137D01*
X99638488Y-90994020D01*
X99670826Y-90970277D01*
X99693069Y-90935327D01*
X99701345Y-90890593D01*
X99701344Y-90889927D01*
X99701062Y-90886403D01*
X99813648Y-90886403D01*
X99814311Y-90890593D01*
X99820044Y-90926813D01*
X99843386Y-90964964D01*
X99864483Y-90983810D01*
X99903863Y-91002207D01*
X99944770Y-91005137D01*
X99983329Y-90994020D01*
X100015667Y-90970277D01*
X100037910Y-90935327D01*
X100046186Y-90890593D01*
X100046185Y-90889927D01*
X100045903Y-90886403D01*
X100158489Y-90886403D01*
X100159152Y-90890593D01*
X100164885Y-90926813D01*
X100188227Y-90964964D01*
X100209324Y-90983810D01*
X100248704Y-91002207D01*
X100289611Y-91005137D01*
X100328170Y-90994020D01*
X100360508Y-90970277D01*
X100382751Y-90935327D01*
X100391026Y-90890593D01*
X100391026Y-90889927D01*
X100388554Y-90859055D01*
X100378473Y-90835956D01*
X100356605Y-90810968D01*
X100335463Y-90792041D01*
X100311136Y-90779535D01*
X100281111Y-90775980D01*
X100265782Y-90776619D01*
X100222686Y-90788843D01*
X100189219Y-90813696D01*
X100167210Y-90847457D01*
X100158489Y-90886403D01*
X100045903Y-90886403D01*
X100043713Y-90859055D01*
X100033632Y-90835956D01*
X100011764Y-90810968D01*
X99990622Y-90792041D01*
X99966295Y-90779535D01*
X99936270Y-90775980D01*
X99920941Y-90776619D01*
X99877845Y-90788843D01*
X99844378Y-90813696D01*
X99822369Y-90847457D01*
X99813648Y-90886403D01*
X99701062Y-90886403D01*
X99698872Y-90859055D01*
X99688791Y-90835956D01*
X99666923Y-90810968D01*
X99645781Y-90792041D01*
X99621454Y-90779535D01*
X99591429Y-90775980D01*
X99576100Y-90776619D01*
X99533004Y-90788843D01*
X99499537Y-90813696D01*
X99477528Y-90847457D01*
X99468807Y-90886403D01*
X99356221Y-90886403D01*
X99354031Y-90859055D01*
X99343950Y-90835956D01*
X99322082Y-90810968D01*
X99300940Y-90792041D01*
X99276613Y-90779535D01*
X99246588Y-90775980D01*
X99231259Y-90776619D01*
X99188163Y-90788843D01*
X99154696Y-90813696D01*
X99132687Y-90847457D01*
X99123966Y-90886403D01*
X99011380Y-90886403D01*
X99009190Y-90859055D01*
X98999109Y-90835956D01*
X98977241Y-90810968D01*
X98956099Y-90792041D01*
X98931772Y-90779535D01*
X98901747Y-90775980D01*
X98886418Y-90776619D01*
X98843322Y-90788843D01*
X98809855Y-90813696D01*
X98787846Y-90847457D01*
X98779125Y-90886403D01*
X98666539Y-90886403D01*
X98664349Y-90859055D01*
X98654268Y-90835956D01*
X98632400Y-90810968D01*
X98611258Y-90792041D01*
X98586931Y-90779535D01*
X98556906Y-90775980D01*
X98541577Y-90776619D01*
X98498481Y-90788843D01*
X98465014Y-90813696D01*
X98443005Y-90847457D01*
X98434284Y-90886403D01*
X98321698Y-90886403D01*
X98319509Y-90859055D01*
X98309427Y-90835956D01*
X98287559Y-90810968D01*
X98266417Y-90792041D01*
X98242090Y-90779535D01*
X98212065Y-90775980D01*
X98196736Y-90776619D01*
X98153640Y-90788843D01*
X98120173Y-90813696D01*
X98098164Y-90847457D01*
X98089443Y-90886403D01*
X97976857Y-90886403D01*
X97974668Y-90859055D01*
X97964586Y-90835956D01*
X97942718Y-90810968D01*
X97921576Y-90792041D01*
X97897249Y-90779535D01*
X97867224Y-90775980D01*
X97851895Y-90776619D01*
X97808799Y-90788843D01*
X97775332Y-90813696D01*
X97753323Y-90847457D01*
X97744602Y-90886403D01*
X97632016Y-90886403D01*
X97629827Y-90859055D01*
X97619745Y-90835956D01*
X97597878Y-90810968D01*
X97576735Y-90792041D01*
X97552409Y-90779535D01*
X97522383Y-90775980D01*
X97507054Y-90776619D01*
X97463958Y-90788843D01*
X97430491Y-90813696D01*
X97408482Y-90847457D01*
X97399761Y-90886403D01*
X97178528Y-90886403D01*
X97193782Y-90858093D01*
X97257795Y-90698914D01*
X97286227Y-90605252D01*
X97299684Y-90541562D01*
X97399761Y-90541562D01*
X97406157Y-90581972D01*
X97429499Y-90620123D01*
X97450596Y-90638969D01*
X97489976Y-90657366D01*
X97530883Y-90660296D01*
X97569442Y-90649179D01*
X97601780Y-90625436D01*
X97624024Y-90590486D01*
X97632299Y-90545752D01*
X97632298Y-90545086D01*
X97632016Y-90541562D01*
X98089443Y-90541562D01*
X98090106Y-90545752D01*
X98095839Y-90581972D01*
X98119181Y-90620123D01*
X98140278Y-90638969D01*
X98179658Y-90657366D01*
X98220565Y-90660296D01*
X98259124Y-90649179D01*
X98291462Y-90625436D01*
X98313705Y-90590486D01*
X98321981Y-90545752D01*
X98321980Y-90545086D01*
X98321698Y-90541562D01*
X98434284Y-90541562D01*
X98434947Y-90545752D01*
X98440680Y-90581972D01*
X98464022Y-90620123D01*
X98485119Y-90638969D01*
X98524499Y-90657366D01*
X98565406Y-90660296D01*
X98603965Y-90649179D01*
X98636303Y-90625436D01*
X98658546Y-90590486D01*
X98666822Y-90545752D01*
X98666821Y-90545086D01*
X98666539Y-90541562D01*
X99123966Y-90541562D01*
X99124629Y-90545752D01*
X99130362Y-90581972D01*
X99153704Y-90620123D01*
X99174801Y-90638969D01*
X99214181Y-90657366D01*
X99255088Y-90660296D01*
X99293647Y-90649179D01*
X99325985Y-90625436D01*
X99348228Y-90590486D01*
X99356504Y-90545752D01*
X99356503Y-90545086D01*
X99356221Y-90541562D01*
X99468807Y-90541562D01*
X99469470Y-90545752D01*
X99475203Y-90581972D01*
X99498545Y-90620123D01*
X99519642Y-90638969D01*
X99559022Y-90657366D01*
X99599929Y-90660296D01*
X99638488Y-90649179D01*
X99670826Y-90625436D01*
X99693069Y-90590486D01*
X99701345Y-90545752D01*
X99701344Y-90545086D01*
X99701062Y-90541562D01*
X99813648Y-90541562D01*
X99814311Y-90545752D01*
X99820044Y-90581972D01*
X99843386Y-90620123D01*
X99864483Y-90638969D01*
X99903863Y-90657366D01*
X99944770Y-90660296D01*
X99983329Y-90649179D01*
X100015667Y-90625436D01*
X100037910Y-90590486D01*
X100046186Y-90545752D01*
X100046185Y-90545086D01*
X100043713Y-90514214D01*
X100033632Y-90491115D01*
X100011764Y-90466127D01*
X99990622Y-90447200D01*
X99966295Y-90434694D01*
X99936270Y-90431139D01*
X99920941Y-90431778D01*
X99877845Y-90444002D01*
X99844378Y-90468855D01*
X99822369Y-90502616D01*
X99813648Y-90541562D01*
X99701062Y-90541562D01*
X99698872Y-90514214D01*
X99688791Y-90491115D01*
X99666923Y-90466127D01*
X99645781Y-90447200D01*
X99621454Y-90434694D01*
X99591429Y-90431139D01*
X99576100Y-90431778D01*
X99533004Y-90444002D01*
X99499537Y-90468855D01*
X99477528Y-90502616D01*
X99468807Y-90541562D01*
X99356221Y-90541562D01*
X99354031Y-90514214D01*
X99343950Y-90491115D01*
X99322082Y-90466127D01*
X99300940Y-90447200D01*
X99276613Y-90434694D01*
X99246588Y-90431139D01*
X99231259Y-90431778D01*
X99188163Y-90444002D01*
X99154696Y-90468855D01*
X99132687Y-90502616D01*
X99123966Y-90541562D01*
X98666539Y-90541562D01*
X98664349Y-90514214D01*
X98654268Y-90491115D01*
X98632400Y-90466127D01*
X98611258Y-90447200D01*
X98586931Y-90434694D01*
X98556906Y-90431139D01*
X98541577Y-90431778D01*
X98498481Y-90444002D01*
X98465014Y-90468855D01*
X98443005Y-90502616D01*
X98434284Y-90541562D01*
X98321698Y-90541562D01*
X98319509Y-90514214D01*
X98309427Y-90491115D01*
X98287559Y-90466127D01*
X98266417Y-90447200D01*
X98242090Y-90434694D01*
X98212065Y-90431139D01*
X98196736Y-90431778D01*
X98153640Y-90444002D01*
X98120173Y-90468855D01*
X98098164Y-90502616D01*
X98089443Y-90541562D01*
X97632016Y-90541562D01*
X97629827Y-90514214D01*
X97619745Y-90491115D01*
X97597878Y-90466127D01*
X97576735Y-90447200D01*
X97552409Y-90434694D01*
X97522383Y-90431139D01*
X97507054Y-90431778D01*
X97463958Y-90444002D01*
X97430491Y-90468855D01*
X97408482Y-90502616D01*
X97399761Y-90541562D01*
X97299684Y-90541562D01*
X97321831Y-90436744D01*
X97338466Y-90267200D01*
X97337616Y-90196721D01*
X97399761Y-90196721D01*
X97406157Y-90237131D01*
X97424554Y-90267200D01*
X97429499Y-90275283D01*
X97450596Y-90294128D01*
X97489976Y-90312525D01*
X97530883Y-90315455D01*
X97569442Y-90304338D01*
X97601780Y-90280595D01*
X97624024Y-90245645D01*
X97632299Y-90200911D01*
X97632298Y-90200245D01*
X97632016Y-90196721D01*
X97744602Y-90196721D01*
X97745265Y-90200911D01*
X97750998Y-90237131D01*
X97774340Y-90275283D01*
X97795437Y-90294128D01*
X97834817Y-90312525D01*
X97875724Y-90315455D01*
X97914283Y-90304338D01*
X97946621Y-90280595D01*
X97968864Y-90245645D01*
X97977140Y-90200911D01*
X97977139Y-90200245D01*
X97976857Y-90196721D01*
X99813648Y-90196721D01*
X99814311Y-90200911D01*
X99820044Y-90237131D01*
X99843386Y-90275283D01*
X99864483Y-90294128D01*
X99903863Y-90312525D01*
X99944770Y-90315455D01*
X99983329Y-90304338D01*
X100015667Y-90280595D01*
X100037910Y-90245645D01*
X100046186Y-90200911D01*
X100046185Y-90200245D01*
X100043713Y-90169373D01*
X100033632Y-90146274D01*
X100029114Y-90141111D01*
X100451605Y-90141111D01*
X100452469Y-90200911D01*
X100454004Y-90307106D01*
X100474144Y-90471751D01*
X100491404Y-90545752D01*
X100511892Y-90633597D01*
X100567117Y-90791194D01*
X100614606Y-90890593D01*
X100639689Y-90943094D01*
X100729476Y-91087848D01*
X100836347Y-91224006D01*
X100846972Y-91235434D01*
X100892933Y-91284867D01*
X101016188Y-91397168D01*
X101151140Y-91496044D01*
X101295504Y-91580239D01*
X101295584Y-91580275D01*
X101446990Y-91648498D01*
X101603311Y-91699565D01*
X101762180Y-91732185D01*
X101802367Y-91737485D01*
X101979420Y-91749018D01*
X102154488Y-91741149D01*
X102326722Y-91713953D01*
X102495276Y-91667504D01*
X102549687Y-91648018D01*
X102706020Y-91578378D01*
X102852792Y-91492323D01*
X102988794Y-91391060D01*
X103112818Y-91275797D01*
X103223653Y-91147743D01*
X103320090Y-91008106D01*
X103400920Y-90858093D01*
X103464932Y-90698914D01*
X103493364Y-90605252D01*
X103528969Y-90436744D01*
X103545603Y-90267200D01*
X103543562Y-90098066D01*
X103523138Y-89930791D01*
X103484624Y-89766819D01*
X103428314Y-89607599D01*
X103354500Y-89454577D01*
X103263477Y-89309198D01*
X103155538Y-89172912D01*
X103100309Y-89113463D01*
X102979761Y-89002382D01*
X102849377Y-88906732D01*
X102706052Y-88824102D01*
X102610711Y-88779399D01*
X102448381Y-88720115D01*
X102282445Y-88679497D01*
X102114351Y-88657464D01*
X101945543Y-88653934D01*
X101777471Y-88668829D01*
X101611580Y-88702066D01*
X101449318Y-88753567D01*
X101292131Y-88823251D01*
X101141466Y-88911036D01*
X101100789Y-88938945D01*
X100977602Y-89037318D01*
X100862558Y-89150055D01*
X100851063Y-89163780D01*
X100759313Y-89273325D01*
X100671526Y-89403297D01*
X100622028Y-89492617D01*
X100613740Y-89511229D01*
X100552157Y-89649519D01*
X100500550Y-89810869D01*
X100491344Y-89856070D01*
X100467076Y-89975216D01*
X100451605Y-90141111D01*
X100029114Y-90141111D01*
X100011764Y-90121286D01*
X99990622Y-90102359D01*
X99966295Y-90089853D01*
X99936270Y-90086298D01*
X99920941Y-90086937D01*
X99877845Y-90099161D01*
X99844378Y-90124014D01*
X99822369Y-90157775D01*
X99813648Y-90196721D01*
X97976857Y-90196721D01*
X97974668Y-90169373D01*
X97964586Y-90146274D01*
X97942718Y-90121286D01*
X97921576Y-90102359D01*
X97897249Y-90089853D01*
X97867224Y-90086298D01*
X97851895Y-90086937D01*
X97808799Y-90099161D01*
X97775332Y-90124014D01*
X97753323Y-90157775D01*
X97744602Y-90196721D01*
X97632016Y-90196721D01*
X97629827Y-90169373D01*
X97619745Y-90146274D01*
X97597878Y-90121286D01*
X97576735Y-90102359D01*
X97552409Y-90089853D01*
X97522383Y-90086298D01*
X97507054Y-90086937D01*
X97463958Y-90099161D01*
X97430491Y-90124014D01*
X97408482Y-90157775D01*
X97399761Y-90196721D01*
X97337616Y-90196721D01*
X97336425Y-90098066D01*
X97316000Y-89930791D01*
X97297466Y-89851880D01*
X97399761Y-89851880D01*
X97406157Y-89892290D01*
X97429499Y-89930442D01*
X97450596Y-89949287D01*
X97489976Y-89967684D01*
X97530883Y-89970614D01*
X97569442Y-89959497D01*
X97601780Y-89935754D01*
X97624024Y-89900804D01*
X97632299Y-89856070D01*
X97632298Y-89855404D01*
X97632016Y-89851880D01*
X98089443Y-89851880D01*
X98090106Y-89856070D01*
X98095839Y-89892290D01*
X98119181Y-89930442D01*
X98140278Y-89949287D01*
X98179658Y-89967684D01*
X98220565Y-89970614D01*
X98259124Y-89959497D01*
X98291462Y-89935754D01*
X98313705Y-89900804D01*
X98321981Y-89856070D01*
X98321980Y-89855404D01*
X98321698Y-89851880D01*
X99813648Y-89851880D01*
X99814311Y-89856070D01*
X99820044Y-89892290D01*
X99843386Y-89930442D01*
X99864483Y-89949287D01*
X99903863Y-89967684D01*
X99944770Y-89970614D01*
X99983329Y-89959497D01*
X100015667Y-89935754D01*
X100037910Y-89900804D01*
X100046186Y-89856070D01*
X100046185Y-89855404D01*
X100043713Y-89824532D01*
X100033632Y-89801433D01*
X100011764Y-89776445D01*
X99990622Y-89757518D01*
X99966295Y-89745012D01*
X99936270Y-89741457D01*
X99920941Y-89742096D01*
X99877845Y-89754320D01*
X99844378Y-89779173D01*
X99822369Y-89812934D01*
X99813648Y-89851880D01*
X98321698Y-89851880D01*
X98319509Y-89824532D01*
X98309427Y-89801433D01*
X98287559Y-89776445D01*
X98266417Y-89757518D01*
X98242090Y-89745012D01*
X98212065Y-89741457D01*
X98196736Y-89742096D01*
X98153640Y-89754320D01*
X98120173Y-89779173D01*
X98098164Y-89812934D01*
X98089443Y-89851880D01*
X97632016Y-89851880D01*
X97629827Y-89824532D01*
X97619745Y-89801433D01*
X97597878Y-89776445D01*
X97576735Y-89757518D01*
X97552409Y-89745012D01*
X97522383Y-89741457D01*
X97507054Y-89742096D01*
X97463958Y-89754320D01*
X97430491Y-89779173D01*
X97408482Y-89812934D01*
X97399761Y-89851880D01*
X97297466Y-89851880D01*
X97277487Y-89766819D01*
X97221176Y-89607599D01*
X97172670Y-89507040D01*
X97744602Y-89507040D01*
X97750998Y-89547449D01*
X97774340Y-89585601D01*
X97795437Y-89604446D01*
X97834817Y-89622843D01*
X97875724Y-89625773D01*
X97914283Y-89614656D01*
X97946621Y-89590913D01*
X97968864Y-89555963D01*
X97977140Y-89511229D01*
X97977139Y-89510563D01*
X97976857Y-89507040D01*
X98434284Y-89507040D01*
X98434947Y-89511229D01*
X98440680Y-89547449D01*
X98464022Y-89585601D01*
X98485119Y-89604446D01*
X98524499Y-89622843D01*
X98565406Y-89625773D01*
X98603965Y-89614656D01*
X98636303Y-89590913D01*
X98658546Y-89555963D01*
X98666822Y-89511229D01*
X98666821Y-89510563D01*
X98666539Y-89507040D01*
X99813648Y-89507040D01*
X99814311Y-89511229D01*
X99820044Y-89547449D01*
X99843386Y-89585601D01*
X99864483Y-89604446D01*
X99903863Y-89622843D01*
X99944770Y-89625773D01*
X99983329Y-89614656D01*
X100015667Y-89590913D01*
X100037910Y-89555963D01*
X100046186Y-89511229D01*
X100046185Y-89510563D01*
X100045903Y-89507040D01*
X100158489Y-89507040D01*
X100159152Y-89511229D01*
X100164885Y-89547449D01*
X100188227Y-89585601D01*
X100209324Y-89604446D01*
X100248704Y-89622843D01*
X100289611Y-89625773D01*
X100328170Y-89614656D01*
X100360508Y-89590913D01*
X100382751Y-89555963D01*
X100391026Y-89511229D01*
X100391026Y-89510563D01*
X100388554Y-89479691D01*
X100378473Y-89456592D01*
X100356605Y-89431604D01*
X100335463Y-89412677D01*
X100311136Y-89400171D01*
X100281111Y-89396616D01*
X100265782Y-89397255D01*
X100222686Y-89409479D01*
X100189219Y-89434332D01*
X100167210Y-89468093D01*
X100158489Y-89507040D01*
X100045903Y-89507040D01*
X100043713Y-89479691D01*
X100033632Y-89456592D01*
X100011764Y-89431604D01*
X99990622Y-89412677D01*
X99966295Y-89400171D01*
X99936270Y-89396616D01*
X99920941Y-89397255D01*
X99877845Y-89409479D01*
X99844378Y-89434332D01*
X99822369Y-89468093D01*
X99813648Y-89507040D01*
X98666539Y-89507040D01*
X98664349Y-89479691D01*
X98654268Y-89456592D01*
X98632400Y-89431604D01*
X98611258Y-89412677D01*
X98586931Y-89400171D01*
X98556906Y-89396616D01*
X98541577Y-89397255D01*
X98498481Y-89409479D01*
X98465014Y-89434332D01*
X98443005Y-89468093D01*
X98434284Y-89507040D01*
X97976857Y-89507040D01*
X97974668Y-89479691D01*
X97964586Y-89456592D01*
X97942718Y-89431604D01*
X97921576Y-89412677D01*
X97897249Y-89400171D01*
X97867224Y-89396616D01*
X97851895Y-89397255D01*
X97808799Y-89409479D01*
X97775332Y-89434332D01*
X97753323Y-89468093D01*
X97744602Y-89507040D01*
X97172670Y-89507040D01*
X97147363Y-89454577D01*
X97056340Y-89309198D01*
X96948401Y-89172912D01*
X96948314Y-89172818D01*
X97745657Y-89172818D01*
X97754745Y-89213325D01*
X97779936Y-89248897D01*
X97781490Y-89250336D01*
X97819304Y-89274613D01*
X97858167Y-89282541D01*
X97895522Y-89276600D01*
X97928816Y-89259273D01*
X97955494Y-89233039D01*
X97972999Y-89200381D01*
X97977351Y-89172818D01*
X98435339Y-89172818D01*
X98444427Y-89213325D01*
X98469618Y-89248897D01*
X98471172Y-89250336D01*
X98508986Y-89274613D01*
X98547849Y-89282541D01*
X98585204Y-89276600D01*
X98618498Y-89259273D01*
X98645176Y-89233039D01*
X98662681Y-89200381D01*
X98667032Y-89172818D01*
X98780180Y-89172818D01*
X98789268Y-89213325D01*
X98814459Y-89248897D01*
X98816013Y-89250336D01*
X98853827Y-89274613D01*
X98892690Y-89282541D01*
X98930045Y-89276600D01*
X98963339Y-89259273D01*
X98990017Y-89233039D01*
X99007522Y-89200381D01*
X99011873Y-89172818D01*
X99469862Y-89172818D01*
X99478950Y-89213325D01*
X99504141Y-89248897D01*
X99505695Y-89250336D01*
X99543509Y-89274613D01*
X99582372Y-89282541D01*
X99619727Y-89276600D01*
X99653021Y-89259273D01*
X99679698Y-89233039D01*
X99697204Y-89200381D01*
X99702982Y-89163780D01*
X99694479Y-89125716D01*
X99669139Y-89088671D01*
X99635007Y-89061034D01*
X99598171Y-89049539D01*
X99555705Y-89054647D01*
X99527253Y-89066722D01*
X99495209Y-89095013D01*
X99475679Y-89131879D01*
X99471146Y-89163780D01*
X99469862Y-89172818D01*
X99011873Y-89172818D01*
X99013300Y-89163780D01*
X99004797Y-89125716D01*
X98979457Y-89088671D01*
X98945325Y-89061034D01*
X98908489Y-89049539D01*
X98866023Y-89054647D01*
X98837572Y-89066722D01*
X98805527Y-89095013D01*
X98785998Y-89131879D01*
X98781464Y-89163780D01*
X98780180Y-89172818D01*
X98667032Y-89172818D01*
X98668459Y-89163780D01*
X98659956Y-89125716D01*
X98634616Y-89088671D01*
X98600484Y-89061034D01*
X98563648Y-89049539D01*
X98521182Y-89054647D01*
X98492731Y-89066722D01*
X98460686Y-89095013D01*
X98441157Y-89131879D01*
X98436623Y-89163780D01*
X98435339Y-89172818D01*
X97977351Y-89172818D01*
X97978778Y-89163780D01*
X97970274Y-89125716D01*
X97944934Y-89088671D01*
X97910802Y-89061034D01*
X97873966Y-89049539D01*
X97831500Y-89054647D01*
X97803049Y-89066722D01*
X97771004Y-89095013D01*
X97751475Y-89131879D01*
X97745657Y-89172818D01*
X96948314Y-89172818D01*
X96893171Y-89113463D01*
X96772624Y-89002382D01*
X96642239Y-88906732D01*
X96498914Y-88824102D01*
X96403574Y-88779399D01*
X96241244Y-88720115D01*
X96075308Y-88679497D01*
X95907213Y-88657464D01*
X95738406Y-88653934D01*
X95570334Y-88668829D01*
X95404443Y-88702066D01*
X95242181Y-88753567D01*
X95084994Y-88823251D01*
X94934329Y-88911036D01*
X94893652Y-88938945D01*
X94770465Y-89037318D01*
X94655420Y-89150055D01*
X94552176Y-89273325D01*
X94464388Y-89403297D01*
X94414891Y-89492617D01*
X94345019Y-89649519D01*
X94293412Y-89810869D01*
X94259939Y-89975216D01*
X94244467Y-90141111D01*
X93901623Y-90141111D01*
X93901688Y-90117018D01*
X93902057Y-90007762D01*
X93902470Y-89909132D01*
X93902931Y-89820549D01*
X93903442Y-89741432D01*
X93904004Y-89671200D01*
X93904622Y-89609275D01*
X93905297Y-89555076D01*
X93906032Y-89508023D01*
X93906830Y-89467535D01*
X93907692Y-89433033D01*
X93908622Y-89403936D01*
X93909621Y-89379665D01*
X93910694Y-89359638D01*
X93911841Y-89343277D01*
X93913066Y-89330002D01*
X93914371Y-89319231D01*
X93915759Y-89310384D01*
X93917231Y-89302883D01*
X93942936Y-89202039D01*
X93978921Y-89094855D01*
X94020369Y-88999341D01*
X94043650Y-88954690D01*
X94126992Y-88822059D01*
X94224612Y-88702511D01*
X94335544Y-88596790D01*
X94458818Y-88505642D01*
X94593469Y-88429811D01*
X94738529Y-88370044D01*
X94893030Y-88327084D01*
X94897784Y-88326117D01*
X94906093Y-88324700D01*
X94916125Y-88323366D01*
X94928459Y-88322114D01*
X94943674Y-88320939D01*
X94962352Y-88319841D01*
X94985072Y-88318816D01*
X95012415Y-88317862D01*
X95044960Y-88316977D01*
X95083288Y-88316157D01*
X95127978Y-88315400D01*
X95179611Y-88314705D01*
X95238767Y-88314067D01*
X95306027Y-88313485D01*
X95381969Y-88312957D01*
X95467175Y-88312479D01*
X95562224Y-88312049D01*
X95667696Y-88311665D01*
X95784172Y-88311324D01*
X95912232Y-88311023D01*
X96052455Y-88310761D01*
X96205423Y-88310534D01*
X96371714Y-88310340D01*
X96551910Y-88310176D01*
X96746590Y-88310041D01*
X96956334Y-88309931D01*
X97181723Y-88309843D01*
X97423336Y-88309776D01*
X97681754Y-88309727D01*
X97957556Y-88309694D01*
X98251324Y-88309673D01*
X98563636Y-88309662D01*
X98895074Y-88309659D01*
X99112758Y-88309660D01*
X99431696Y-88309668D01*
X99731886Y-88309685D01*
X100013908Y-88309714D01*
X100278342Y-88309757D01*
X100525768Y-88309818D01*
X100756767Y-88309898D01*
X100971919Y-88310000D01*
X101171803Y-88310126D01*
X101357000Y-88310279D01*
X101528090Y-88310462D01*
X101685653Y-88310677D01*
X101830269Y-88310927D01*
X101962519Y-88311214D01*
X102082982Y-88311541D01*
X102192238Y-88311910D01*
X102290868Y-88312323D01*
X102379451Y-88312784D01*
X102458568Y-88313294D01*
X102528800Y-88313857D01*
X102590725Y-88314475D01*
X102644924Y-88315150D01*
X102691977Y-88315885D01*
X102732465Y-88316682D01*
X102766967Y-88317545D01*
X102796064Y-88318475D01*
X102820335Y-88319474D01*
X102840362Y-88320547D01*
X102856723Y-88321694D01*
X102869998Y-88322919D01*
X102880769Y-88324224D01*
X102889616Y-88325612D01*
X102897117Y-88327084D01*
X102997961Y-88352789D01*
X103105145Y-88388774D01*
X103200659Y-88430221D01*
X103245310Y-88453503D01*
X103377941Y-88536845D01*
X103497489Y-88634465D01*
X103603210Y-88745396D01*
X103694358Y-88868671D01*
X103770189Y-89003322D01*
X103829956Y-89148381D01*
X103872916Y-89302883D01*
X103873913Y-89307794D01*
X103875328Y-89316130D01*
X103876659Y-89326199D01*
X103877909Y-89338581D01*
X103879081Y-89353857D01*
X103880177Y-89372605D01*
X103881200Y-89395406D01*
X103882153Y-89422839D01*
X103883037Y-89455484D01*
X103883855Y-89493920D01*
X103884610Y-89538728D01*
X103885304Y-89590488D01*
X103885941Y-89649778D01*
X103886522Y-89717179D01*
X103887049Y-89793270D01*
X103887526Y-89878631D01*
X103887955Y-89973842D01*
X103888339Y-90079483D01*
X103888679Y-90196133D01*
X103888845Y-90267200D01*
X103888979Y-90324372D01*
X103889241Y-90464779D01*
X103889468Y-90617936D01*
X103889661Y-90784420D01*
X103889825Y-90964812D01*
X103889960Y-91159692D01*
X103890070Y-91369639D01*
X103890157Y-91595233D01*
X103890224Y-91837054D01*
X103890241Y-91925116D01*
X103890273Y-92095682D01*
X103890294Y-92270047D01*
G37*
G36*
X96974803Y-90438529D02*
G01*
X96936823Y-90579171D01*
X96882323Y-90713364D01*
X96812448Y-90839759D01*
X96728347Y-90957009D01*
X96631164Y-91063765D01*
X96522048Y-91158678D01*
X96402144Y-91240401D01*
X96272600Y-91307584D01*
X96134562Y-91358881D01*
X95989176Y-91392941D01*
X95973557Y-91395451D01*
X95826577Y-91408261D01*
X95677977Y-91402441D01*
X95530596Y-91378435D01*
X95387271Y-91336686D01*
X95250841Y-91277637D01*
X95208640Y-91255043D01*
X95079558Y-91172113D01*
X94963848Y-91075972D01*
X94862213Y-90968007D01*
X94775354Y-90849609D01*
X94703974Y-90722166D01*
X94648776Y-90587068D01*
X94610461Y-90445703D01*
X94589732Y-90299459D01*
X94587541Y-90165061D01*
X94935603Y-90165061D01*
X94935772Y-90246277D01*
X94941428Y-90323218D01*
X94952569Y-90388557D01*
X94959609Y-90415773D01*
X95003350Y-90540115D01*
X95062825Y-90653921D01*
X95136806Y-90756073D01*
X95224067Y-90845452D01*
X95323382Y-90920940D01*
X95433523Y-90981419D01*
X95553263Y-91025771D01*
X95681376Y-91052877D01*
X95705589Y-91055934D01*
X95794394Y-91061588D01*
X95879576Y-91056858D01*
X95967467Y-91041097D01*
X96064397Y-91013656D01*
X96162275Y-90975227D01*
X96271656Y-90913694D01*
X96369586Y-90836794D01*
X96455245Y-90745424D01*
X96527813Y-90640484D01*
X96586471Y-90522871D01*
X96630397Y-90393483D01*
X96638195Y-90356260D01*
X96645661Y-90290264D01*
X96648536Y-90216068D01*
X96646830Y-90140167D01*
X96640555Y-90069057D01*
X96629723Y-90009232D01*
X96610789Y-89943620D01*
X96561077Y-89821036D01*
X96496190Y-89710082D01*
X96417079Y-89611700D01*
X96324694Y-89526830D01*
X96219984Y-89456413D01*
X96103899Y-89401391D01*
X95977389Y-89362706D01*
X95940909Y-89355685D01*
X95858115Y-89346892D01*
X95769180Y-89345131D01*
X95682288Y-89350402D01*
X95605621Y-89362706D01*
X95527934Y-89384250D01*
X95408722Y-89433054D01*
X95299773Y-89497745D01*
X95202330Y-89577080D01*
X95117633Y-89669817D01*
X95046925Y-89774715D01*
X94991447Y-89890532D01*
X94952442Y-90016025D01*
X94951736Y-90019101D01*
X94940924Y-90086893D01*
X94935603Y-90165061D01*
X94587541Y-90165061D01*
X94587291Y-90149727D01*
X94603840Y-89997895D01*
X94620114Y-89915738D01*
X94644392Y-89827029D01*
X94676277Y-89742469D01*
X94718582Y-89653615D01*
X94783130Y-89542987D01*
X94873769Y-89421594D01*
X94977380Y-89313543D01*
X95092534Y-89219709D01*
X95217804Y-89140969D01*
X95351764Y-89078202D01*
X95492985Y-89032282D01*
X95640041Y-89004087D01*
X95791505Y-88994494D01*
X95797104Y-88994507D01*
X95947433Y-89004615D01*
X96092285Y-89032768D01*
X96230520Y-89077823D01*
X96361001Y-89138636D01*
X96482586Y-89214062D01*
X96594138Y-89302957D01*
X96694516Y-89404178D01*
X96782582Y-89516581D01*
X96857197Y-89639022D01*
X96917220Y-89770357D01*
X96961513Y-89909441D01*
X96988936Y-90055132D01*
X96998351Y-90206284D01*
X96997985Y-90216068D01*
X96995116Y-90292786D01*
X96974803Y-90438529D01*
G37*
G36*
X103181941Y-90438529D02*
G01*
X103143961Y-90579171D01*
X103089460Y-90713364D01*
X103019586Y-90839759D01*
X102935484Y-90957009D01*
X102838301Y-91063765D01*
X102729185Y-91158678D01*
X102609281Y-91240401D01*
X102479737Y-91307584D01*
X102341699Y-91358881D01*
X102196313Y-91392941D01*
X102164127Y-91397610D01*
X102077510Y-91404863D01*
X101983946Y-91406616D01*
X101891878Y-91402855D01*
X101809752Y-91393566D01*
X101804387Y-91392683D01*
X101657887Y-91358705D01*
X101519158Y-91307699D01*
X101389269Y-91240976D01*
X101269289Y-91159846D01*
X101160287Y-91065619D01*
X101063333Y-90959604D01*
X100979495Y-90843113D01*
X100909843Y-90717454D01*
X100855445Y-90583939D01*
X100817371Y-90443878D01*
X100796689Y-90298580D01*
X100794703Y-90165061D01*
X101142741Y-90165061D01*
X101142910Y-90246277D01*
X101148566Y-90323218D01*
X101159706Y-90388557D01*
X101166746Y-90415773D01*
X101210487Y-90540115D01*
X101269962Y-90653921D01*
X101343943Y-90756073D01*
X101431205Y-90845452D01*
X101530519Y-90920940D01*
X101640660Y-90981419D01*
X101760400Y-91025771D01*
X101888513Y-91052877D01*
X101912726Y-91055934D01*
X102001532Y-91061588D01*
X102086714Y-91056858D01*
X102174604Y-91041097D01*
X102271535Y-91013656D01*
X102369412Y-90975227D01*
X102478793Y-90913694D01*
X102576723Y-90836794D01*
X102662382Y-90745424D01*
X102734951Y-90640484D01*
X102793608Y-90522871D01*
X102837534Y-90393483D01*
X102845332Y-90356260D01*
X102852799Y-90290264D01*
X102855673Y-90216068D01*
X102853967Y-90140167D01*
X102847693Y-90069057D01*
X102836860Y-90009232D01*
X102817927Y-89943620D01*
X102768214Y-89821036D01*
X102703327Y-89710082D01*
X102624216Y-89611700D01*
X102531831Y-89526830D01*
X102427121Y-89456413D01*
X102311036Y-89401391D01*
X102184526Y-89362706D01*
X102148046Y-89355685D01*
X102065252Y-89346892D01*
X101976318Y-89345131D01*
X101889425Y-89350402D01*
X101812758Y-89362706D01*
X101735071Y-89384250D01*
X101615859Y-89433054D01*
X101506911Y-89497745D01*
X101409467Y-89577080D01*
X101324771Y-89669817D01*
X101254063Y-89774715D01*
X101198585Y-89890532D01*
X101159579Y-90016025D01*
X101158873Y-90019101D01*
X101148061Y-90086893D01*
X101142741Y-90165061D01*
X100794703Y-90165061D01*
X100794469Y-90149355D01*
X100796386Y-90116409D01*
X100810035Y-89994066D01*
X100834521Y-89881516D01*
X100871489Y-89772483D01*
X100922584Y-89660694D01*
X100990332Y-89543673D01*
X101080985Y-89421947D01*
X101184513Y-89313676D01*
X101299533Y-89219713D01*
X101424663Y-89140916D01*
X101558521Y-89078140D01*
X101699725Y-89032240D01*
X101846893Y-89004073D01*
X101998642Y-88994494D01*
X102004242Y-88994507D01*
X102154570Y-89004615D01*
X102299422Y-89032768D01*
X102437658Y-89077823D01*
X102568138Y-89138636D01*
X102689724Y-89214062D01*
X102801275Y-89302957D01*
X102901654Y-89404178D01*
X102989720Y-89516581D01*
X103064334Y-89639022D01*
X103124357Y-89770357D01*
X103168650Y-89909441D01*
X103196073Y-90055132D01*
X103205488Y-90206284D01*
X103205122Y-90216068D01*
X103202254Y-90292786D01*
X103181941Y-90438529D01*
G37*
G36*
X96897047Y-95217494D02*
G01*
X96943009Y-95248978D01*
X96949464Y-95255288D01*
X96982353Y-95301179D01*
X96997749Y-95351277D01*
X96996181Y-95402470D01*
X96978181Y-95451641D01*
X96944276Y-95495678D01*
X96894996Y-95531465D01*
X96863944Y-95542186D01*
X96816955Y-95544458D01*
X96769147Y-95534440D01*
X96728010Y-95512964D01*
X96695953Y-95484782D01*
X96669935Y-95448057D01*
X96656883Y-95405123D01*
X96654657Y-95384703D01*
X96659886Y-95330692D01*
X96679890Y-95284007D01*
X96711683Y-95246277D01*
X96752281Y-95219132D01*
X96798697Y-95204200D01*
X96847948Y-95203111D01*
X96897047Y-95217494D01*
G37*
G36*
X102120883Y-95906405D02*
G01*
X102142615Y-95912077D01*
X102230784Y-95947078D01*
X102310358Y-95997887D01*
X102379525Y-96062203D01*
X102436474Y-96137724D01*
X102479394Y-96222148D01*
X102506474Y-96313172D01*
X102515904Y-96408495D01*
X102515353Y-96431319D01*
X102501621Y-96524991D01*
X102470832Y-96614221D01*
X102424845Y-96696614D01*
X102365521Y-96769778D01*
X102294720Y-96831320D01*
X102214303Y-96878845D01*
X102126128Y-96909962D01*
X102098169Y-96915925D01*
X102000635Y-96924658D01*
X101905001Y-96915438D01*
X101813628Y-96889357D01*
X101728877Y-96847505D01*
X101653109Y-96790974D01*
X101588686Y-96720854D01*
X101537970Y-96638236D01*
X101505058Y-96557165D01*
X101484063Y-96462661D01*
X101482583Y-96368766D01*
X101500617Y-96274369D01*
X101538167Y-96178357D01*
X101547942Y-96159305D01*
X101602055Y-96078767D01*
X101669222Y-96011254D01*
X101747158Y-95957833D01*
X101833577Y-95919571D01*
X101926195Y-95897534D01*
X102022725Y-95892790D01*
X102120883Y-95906405D01*
G37*
G36*
X103181941Y-96645666D02*
G01*
X103143961Y-96786308D01*
X103089460Y-96920501D01*
X103019586Y-97046896D01*
X102935484Y-97164146D01*
X102838301Y-97270902D01*
X102729185Y-97365815D01*
X102609281Y-97447538D01*
X102479737Y-97514722D01*
X102341699Y-97566018D01*
X102196313Y-97600079D01*
X102164127Y-97604747D01*
X102077510Y-97612000D01*
X101983946Y-97613753D01*
X101891878Y-97609992D01*
X101809752Y-97600703D01*
X101804387Y-97599821D01*
X101657887Y-97565842D01*
X101519158Y-97514837D01*
X101389269Y-97448114D01*
X101269289Y-97366983D01*
X101160287Y-97272756D01*
X101063333Y-97166741D01*
X100979495Y-97050250D01*
X100909843Y-96924592D01*
X100855445Y-96791077D01*
X100817371Y-96651015D01*
X100796689Y-96505717D01*
X100794703Y-96372198D01*
X101142741Y-96372198D01*
X101142910Y-96453415D01*
X101148566Y-96530355D01*
X101159706Y-96595694D01*
X101166746Y-96622910D01*
X101210487Y-96747252D01*
X101269962Y-96861059D01*
X101343943Y-96963210D01*
X101431205Y-97052589D01*
X101530519Y-97128078D01*
X101640660Y-97188557D01*
X101760400Y-97232908D01*
X101888513Y-97260015D01*
X101912726Y-97263071D01*
X102001532Y-97268725D01*
X102086714Y-97263996D01*
X102174604Y-97248234D01*
X102271535Y-97220793D01*
X102369412Y-97182364D01*
X102478793Y-97120832D01*
X102576723Y-97043931D01*
X102662382Y-96952562D01*
X102734951Y-96847621D01*
X102793608Y-96730008D01*
X102837534Y-96600621D01*
X102845332Y-96563397D01*
X102852799Y-96497401D01*
X102855673Y-96423205D01*
X102853967Y-96347304D01*
X102847693Y-96276194D01*
X102836860Y-96216369D01*
X102832939Y-96201304D01*
X102789686Y-96075403D01*
X102731210Y-95960675D01*
X102658738Y-95858090D01*
X102573495Y-95768621D01*
X102476707Y-95693239D01*
X102369602Y-95632918D01*
X102253406Y-95588627D01*
X102129343Y-95561340D01*
X101998642Y-95552029D01*
X101971343Y-95552378D01*
X101849538Y-95563549D01*
X101735044Y-95591186D01*
X101624528Y-95636307D01*
X101514657Y-95699930D01*
X101499855Y-95709973D01*
X101404621Y-95787964D01*
X101321649Y-95880234D01*
X101252266Y-95984828D01*
X101197801Y-96099789D01*
X101159579Y-96223162D01*
X101158873Y-96226239D01*
X101148061Y-96294031D01*
X101142741Y-96372198D01*
X100794703Y-96372198D01*
X100794469Y-96356493D01*
X100796386Y-96323546D01*
X100810035Y-96201203D01*
X100834521Y-96088653D01*
X100871489Y-95979621D01*
X100922584Y-95867831D01*
X100990332Y-95750811D01*
X101080985Y-95629085D01*
X101184513Y-95520813D01*
X101299533Y-95426850D01*
X101424663Y-95348053D01*
X101558521Y-95285277D01*
X101699725Y-95239377D01*
X101846893Y-95211210D01*
X101998642Y-95201631D01*
X102004123Y-95201643D01*
X102154488Y-95211736D01*
X102299369Y-95239873D01*
X102437628Y-95284913D01*
X102568124Y-95345711D01*
X102689721Y-95421125D01*
X102801280Y-95510011D01*
X102901662Y-95611227D01*
X102989729Y-95723629D01*
X103064342Y-95846074D01*
X103124363Y-95977419D01*
X103168653Y-96116520D01*
X103196074Y-96262236D01*
X103205488Y-96413421D01*
X103205122Y-96423205D01*
X103202254Y-96499923D01*
X103181941Y-96645666D01*
G37*
G36*
X88514722Y-121113540D02*
G01*
X88039488Y-121113540D01*
X88039488Y-117124076D01*
X88514722Y-117124076D01*
X88514722Y-121113540D01*
G37*
G36*
X86326331Y-117852560D02*
G01*
X86326409Y-117949226D01*
X86326938Y-118130996D01*
X86328025Y-118290515D01*
X86329748Y-118429639D01*
X86332185Y-118550226D01*
X86335413Y-118654132D01*
X86339511Y-118743215D01*
X86344557Y-118819331D01*
X86350627Y-118884337D01*
X86357801Y-118940090D01*
X86366157Y-118988447D01*
X86375771Y-119031265D01*
X86420373Y-119166576D01*
X86481966Y-119288834D01*
X86558701Y-119395382D01*
X86648902Y-119484262D01*
X86750896Y-119553515D01*
X86863008Y-119601182D01*
X86930550Y-119619533D01*
X87080253Y-119642355D01*
X87230069Y-119641540D01*
X87376828Y-119617240D01*
X87517356Y-119569610D01*
X87517870Y-119569390D01*
X87525327Y-119567882D01*
X87530820Y-119572618D01*
X87534646Y-119586728D01*
X87537104Y-119613337D01*
X87538490Y-119655576D01*
X87539104Y-119716570D01*
X87539242Y-119799448D01*
X87539190Y-119833640D01*
X87538434Y-119914200D01*
X87536656Y-119973100D01*
X87533697Y-120012806D01*
X87529401Y-120035782D01*
X87523609Y-120044495D01*
X87493208Y-120051752D01*
X87440935Y-120058444D01*
X87375994Y-120063196D01*
X87304920Y-120065674D01*
X87234250Y-120065545D01*
X87170521Y-120062477D01*
X87076121Y-120052571D01*
X86967236Y-120032884D01*
X86867208Y-120003597D01*
X86767254Y-119962531D01*
X86689619Y-119922255D01*
X86568255Y-119839381D01*
X86463589Y-119740939D01*
X86378653Y-119629525D01*
X86366085Y-119610603D01*
X86347031Y-119585690D01*
X86335525Y-119575739D01*
X86333059Y-119583122D01*
X86330303Y-119611728D01*
X86328112Y-119658091D01*
X86326667Y-119718160D01*
X86326145Y-119787887D01*
X86326145Y-120000492D01*
X85850911Y-120000492D01*
X85850911Y-117124076D01*
X86326145Y-117124076D01*
X86326331Y-117852560D01*
G37*
G36*
X83570467Y-117057716D02*
G01*
X83678287Y-117063048D01*
X83777280Y-117070807D01*
X83860208Y-117080782D01*
X83917511Y-117090256D01*
X84103058Y-117132993D01*
X84270328Y-117191707D01*
X84420533Y-117266975D01*
X84554885Y-117359376D01*
X84674598Y-117469489D01*
X84727762Y-117530326D01*
X84815948Y-117659252D01*
X84882413Y-117799673D01*
X84926053Y-117949483D01*
X84940116Y-118035017D01*
X84950255Y-118154355D01*
X84951378Y-118275968D01*
X84943476Y-118391324D01*
X84926542Y-118491890D01*
X84899216Y-118584368D01*
X84839200Y-118717603D01*
X84758931Y-118838803D01*
X84660326Y-118945993D01*
X84545305Y-119037200D01*
X84415785Y-119110449D01*
X84273685Y-119163766D01*
X84177395Y-119191590D01*
X84273163Y-119223983D01*
X84345645Y-119251391D01*
X84478484Y-119319461D01*
X84592897Y-119403808D01*
X84688152Y-119503422D01*
X84763516Y-119617298D01*
X84818254Y-119744427D01*
X84851635Y-119883802D01*
X84862925Y-120034416D01*
X84861570Y-120096209D01*
X84848508Y-120219783D01*
X84820210Y-120333257D01*
X84774998Y-120444461D01*
X84736397Y-120515058D01*
X84652854Y-120628667D01*
X84549668Y-120730916D01*
X84429370Y-120819770D01*
X84294496Y-120893189D01*
X84147577Y-120949136D01*
X84113831Y-120959040D01*
X83940143Y-120997744D01*
X83753575Y-121019603D01*
X83553230Y-121024575D01*
X83338213Y-121012617D01*
X83107630Y-120983684D01*
X82860586Y-120937736D01*
X82596184Y-120874727D01*
X82549286Y-120862453D01*
X82549286Y-120631571D01*
X82549521Y-120559220D01*
X82550181Y-120495708D01*
X82551187Y-120445517D01*
X82552462Y-120412546D01*
X82553927Y-120400689D01*
X82566886Y-120404127D01*
X82598925Y-120413539D01*
X82645200Y-120427483D01*
X82700874Y-120444516D01*
X82708638Y-120446890D01*
X82828199Y-120479984D01*
X82961281Y-120511399D01*
X83098686Y-120539258D01*
X83231218Y-120561686D01*
X83349680Y-120576809D01*
X83392870Y-120580692D01*
X83564661Y-120586642D01*
X83721729Y-120576316D01*
X83863238Y-120550131D01*
X83988355Y-120508503D01*
X84096242Y-120451850D01*
X84186067Y-120380587D01*
X84256994Y-120295131D01*
X84308187Y-120195898D01*
X84338812Y-120083306D01*
X84343794Y-120048615D01*
X84347059Y-119927457D01*
X84327900Y-119814460D01*
X84287230Y-119711494D01*
X84225958Y-119620426D01*
X84144998Y-119543126D01*
X84045260Y-119481461D01*
X84026334Y-119472391D01*
X83977052Y-119451028D01*
X83927718Y-119433860D01*
X83874767Y-119420348D01*
X83814634Y-119409956D01*
X83743752Y-119402146D01*
X83658558Y-119396379D01*
X83555486Y-119392119D01*
X83430970Y-119388828D01*
X83093304Y-119381437D01*
X83086446Y-118962481D01*
X83339998Y-118962379D01*
X83401232Y-118962134D01*
X83536736Y-118959471D01*
X83652485Y-118953434D01*
X83752124Y-118943473D01*
X83839302Y-118929039D01*
X83917665Y-118909581D01*
X83990859Y-118884549D01*
X84062531Y-118853393D01*
X84116695Y-118823085D01*
X84192644Y-118767376D01*
X84263878Y-118701252D01*
X84324049Y-118630789D01*
X84366808Y-118562066D01*
X84390792Y-118505982D01*
X84423144Y-118389412D01*
X84436346Y-118268039D01*
X84431037Y-118145959D01*
X84407855Y-118027267D01*
X84367439Y-117916061D01*
X84310427Y-117816435D01*
X84237459Y-117732486D01*
X84169495Y-117678439D01*
X84073789Y-117620664D01*
X83967607Y-117572202D01*
X83858730Y-117537071D01*
X83797228Y-117523185D01*
X83627487Y-117499031D01*
X83446718Y-117491490D01*
X83259933Y-117500000D01*
X83072147Y-117524000D01*
X82888372Y-117562928D01*
X82713623Y-117616222D01*
X82552911Y-117683321D01*
X82534981Y-117692021D01*
X82492521Y-117712567D01*
X82460966Y-117727755D01*
X82446111Y-117734794D01*
X82445485Y-117734515D01*
X82442704Y-117719095D01*
X82440300Y-117683097D01*
X82438410Y-117630177D01*
X82437174Y-117563992D01*
X82436731Y-117488199D01*
X82436731Y-117237436D01*
X82539907Y-117206279D01*
X82587007Y-117192290D01*
X82811200Y-117132779D01*
X83020671Y-117089606D01*
X83218366Y-117062146D01*
X83266466Y-117058383D01*
X83357316Y-117055173D01*
X83461064Y-117055021D01*
X83570467Y-117057716D01*
G37*
G36*
X88514722Y-116561300D02*
G01*
X85431462Y-116561300D01*
X85231293Y-116561314D01*
X84861010Y-116561425D01*
X84514682Y-116561644D01*
X84192387Y-116561972D01*
X83894198Y-116562408D01*
X83620192Y-116562952D01*
X83370444Y-116563604D01*
X83145029Y-116564362D01*
X82944023Y-116565228D01*
X82767501Y-116566200D01*
X82615539Y-116567279D01*
X82488211Y-116568463D01*
X82385594Y-116569754D01*
X82307763Y-116571149D01*
X82254793Y-116572650D01*
X82226760Y-116574256D01*
X82012085Y-116605877D01*
X81774362Y-116663189D01*
X81546541Y-116743181D01*
X81327450Y-116846275D01*
X81115916Y-116972892D01*
X81021803Y-117038745D01*
X80834361Y-117191434D01*
X80665310Y-117359594D01*
X80515173Y-117541675D01*
X80384469Y-117736128D01*
X80273722Y-117941403D01*
X80183452Y-118155949D01*
X80114182Y-118378218D01*
X80066432Y-118606660D01*
X80040724Y-118839725D01*
X80037580Y-119075864D01*
X80057521Y-119313526D01*
X80101069Y-119551162D01*
X80168746Y-119787223D01*
X80186716Y-119835340D01*
X80212576Y-119898335D01*
X80242662Y-119967448D01*
X80273500Y-120034478D01*
X80301505Y-120091512D01*
X80422469Y-120303129D01*
X80562301Y-120499225D01*
X80719746Y-120678914D01*
X80893548Y-120841306D01*
X81082452Y-120985516D01*
X81285203Y-121110655D01*
X81500544Y-121215837D01*
X81727221Y-121300174D01*
X81963977Y-121362778D01*
X82209557Y-121402763D01*
X82336682Y-121417219D01*
X82336682Y-121942806D01*
X82183481Y-121934966D01*
X81969112Y-121914701D01*
X81728250Y-121871103D01*
X81488206Y-121806556D01*
X81253900Y-121722404D01*
X81030248Y-121619988D01*
X80898097Y-121547969D01*
X80671326Y-121402806D01*
X80459889Y-121238821D01*
X80264870Y-121057270D01*
X80087351Y-120859411D01*
X79928415Y-120646500D01*
X79789146Y-120419793D01*
X79670627Y-120180548D01*
X79573939Y-119930021D01*
X79548193Y-119850097D01*
X79497225Y-119666350D01*
X79460561Y-119487880D01*
X79437181Y-119307662D01*
X79426062Y-119118667D01*
X79426183Y-118913869D01*
X79431550Y-118784964D01*
X79453302Y-118555513D01*
X79491378Y-118338267D01*
X79547079Y-118127811D01*
X79621707Y-117918731D01*
X79716562Y-117705613D01*
X79807165Y-117533552D01*
X79950155Y-117306640D01*
X80111427Y-117095610D01*
X80289739Y-116901298D01*
X80483845Y-116724540D01*
X80692503Y-116566174D01*
X80914468Y-116427035D01*
X81148495Y-116307960D01*
X81393342Y-116209786D01*
X81647763Y-116133348D01*
X81910515Y-116079483D01*
X82180355Y-116049029D01*
X82183311Y-116048862D01*
X82212918Y-116048020D01*
X82266187Y-116047185D01*
X82341989Y-116046360D01*
X82439198Y-116045550D01*
X82556686Y-116044757D01*
X82693325Y-116043987D01*
X82847987Y-116043243D01*
X83019545Y-116042529D01*
X83206871Y-116041848D01*
X83408838Y-116041205D01*
X83624318Y-116040603D01*
X83852183Y-116040047D01*
X84091307Y-116039540D01*
X84340560Y-116039086D01*
X84598816Y-116038690D01*
X84864946Y-116038354D01*
X85137825Y-116038083D01*
X85416322Y-116037880D01*
X88514722Y-116036041D01*
X88514722Y-116561300D01*
G37*
%TD*%
M02*
