%TF.GenerationSoftware,KiCad,Pcbnew,6.0.11+dfsg-1*%
%TF.CreationDate,2023-11-18T19:10:20+05:30*%
%TF.ProjectId,c3rl-at-r-beta-2,6333726c-2d61-4742-9d72-2d626574612d,rev?*%
%TF.SameCoordinates,Original*%
%TF.FileFunction,Copper,L2,Bot*%
%TF.FilePolarity,Positive*%
%FSLAX46Y46*%
G04 Gerber Fmt 4.6, Leading zero omitted, Abs format (unit mm)*
G04 Created by KiCad (PCBNEW 6.0.11+dfsg-1) date 2023-11-18 19:10:20*
%MOMM*%
%LPD*%
G01*
G04 APERTURE LIST*
G04 Aperture macros list*
%AMFreePoly0*
4,1,22,0.145671,0.855970,0.226777,0.801777,0.626777,0.401777,0.680970,0.320671,0.700000,0.225000,0.700000,-0.625000,0.680970,-0.720671,0.626777,-0.801777,0.545671,-0.855970,0.450000,-0.875000,-0.450000,-0.875000,-0.545671,-0.855970,-0.626777,-0.801777,-0.680970,-0.720671,-0.700000,-0.625000,-0.700000,0.625000,-0.680970,0.720671,-0.626777,0.801777,-0.545671,0.855970,-0.450000,0.875000,
0.050000,0.875000,0.145671,0.855970,0.145671,0.855970,$1*%
G04 Aperture macros list end*
%TA.AperFunction,EtchedComponent*%
%ADD10C,0.120000*%
%TD*%
%TA.AperFunction,ComponentPad*%
%ADD11FreePoly0,270.000000*%
%TD*%
%TA.AperFunction,ComponentPad*%
%ADD12O,1.750000X1.400000*%
%TD*%
%TA.AperFunction,ComponentPad*%
%ADD13R,1.350000X1.350000*%
%TD*%
%TA.AperFunction,ComponentPad*%
%ADD14O,1.350000X1.350000*%
%TD*%
%TA.AperFunction,ComponentPad*%
%ADD15C,0.400000*%
%TD*%
%TA.AperFunction,ComponentPad*%
%ADD16R,1.000000X1.000000*%
%TD*%
%TA.AperFunction,ComponentPad*%
%ADD17O,1.000000X1.000000*%
%TD*%
%TA.AperFunction,ComponentPad*%
%ADD18FreePoly0,180.000000*%
%TD*%
%TA.AperFunction,ComponentPad*%
%ADD19O,1.400000X1.750000*%
%TD*%
%TA.AperFunction,ComponentPad*%
%ADD20O,2.100000X1.050000*%
%TD*%
%TA.AperFunction,ComponentPad*%
%ADD21O,2.000000X1.000000*%
%TD*%
%TA.AperFunction,ViaPad*%
%ADD22C,0.800000*%
%TD*%
%TA.AperFunction,ViaPad*%
%ADD23C,0.450000*%
%TD*%
%TA.AperFunction,Conductor*%
%ADD24C,0.300000*%
%TD*%
%TA.AperFunction,Conductor*%
%ADD25C,0.200000*%
%TD*%
%TA.AperFunction,Conductor*%
%ADD26C,1.000000*%
%TD*%
%TA.AperFunction,Conductor*%
%ADD27C,0.600000*%
%TD*%
%TA.AperFunction,Conductor*%
%ADD28C,0.500000*%
%TD*%
%TA.AperFunction,Conductor*%
%ADD29C,0.250000*%
%TD*%
G04 APERTURE END LIST*
D10*
%TO.C,ANT1*%
X74500000Y-80370000D02*
X74000000Y-80370000D01*
X74000000Y-80370000D02*
X74000000Y-84020000D01*
X74000000Y-84020000D02*
X74500000Y-84020000D01*
X74500000Y-84020000D02*
X74500000Y-80370000D01*
G36*
X74500000Y-80370000D02*
G01*
X74000000Y-80370000D01*
X74000000Y-84020000D01*
X74500000Y-84020000D01*
X74500000Y-80370000D01*
G37*
X78250000Y-80570000D02*
X74000000Y-80570000D01*
X74000000Y-80570000D02*
X74000000Y-80070000D01*
X74000000Y-80070000D02*
X78250000Y-80070000D01*
X78250000Y-80070000D02*
X78250000Y-80570000D01*
G36*
X78250000Y-80570000D02*
G01*
X74000000Y-80570000D01*
X74000000Y-80070000D01*
X78250000Y-80070000D01*
X78250000Y-80570000D01*
G37*
%TD*%
D11*
%TO.P,J3,1,Pin_1*%
%TO.N,+3V3*%
X117175000Y-103250000D03*
D12*
%TO.P,J3,2,Pin_2*%
%TO.N,Net-(J3-Pad2)*%
X119175000Y-104750000D03*
%TO.P,J3,3,Pin_3*%
%TO.N,Net-(J3-Pad3)*%
X117175000Y-106250000D03*
%TO.P,J3,4,Pin_4*%
%TO.N,GND*%
X119175000Y-107750000D03*
%TD*%
D13*
%TO.P,J11,1,Pin_1*%
%TO.N,GND*%
X87600000Y-98150000D03*
D14*
%TO.P,J11,2,Pin_2*%
%TO.N,/LC_V_BCKP*%
X87600000Y-96150000D03*
%TD*%
D15*
%TO.P,ANT1,2*%
%TO.N,N/C*%
X74250000Y-83270000D03*
X74250000Y-82270000D03*
X74250000Y-80320000D03*
X76500000Y-80320000D03*
X77650000Y-80320000D03*
X75400000Y-80320000D03*
X74250000Y-81220000D03*
%TD*%
D16*
%TO.P,J9,1,Pin_1*%
%TO.N,GND*%
X119750000Y-112550000D03*
D17*
%TO.P,J9,2,Pin_2*%
%TO.N,/RP_SWD*%
X119750000Y-113820000D03*
%TO.P,J9,3,Pin_3*%
%TO.N,/RP_SWCLK*%
X119750000Y-115090000D03*
%TO.P,J9,4,Pin_4*%
%TO.N,Net-(J8-Pad1)*%
X119750000Y-116360000D03*
%TD*%
D18*
%TO.P,J2,1,Pin_1*%
%TO.N,+3V3*%
X96400000Y-119250000D03*
D19*
%TO.P,J2,2,Pin_2*%
%TO.N,/RP_UART0_RX*%
X94900000Y-121250000D03*
%TO.P,J2,3,Pin_3*%
%TO.N,/RP_UART0_TX*%
X93400000Y-119250000D03*
%TO.P,J2,4,Pin_4*%
%TO.N,GND*%
X91900000Y-121250000D03*
%TD*%
D18*
%TO.P,J4,1,Pin_1*%
%TO.N,+3V3*%
X115250000Y-119275000D03*
D19*
%TO.P,J4,2,Pin_2*%
%TO.N,/RP_SPI0_CLK*%
X113750000Y-121275000D03*
%TO.P,J4,3,Pin_3*%
%TO.N,/RP_SPI0_CS*%
X112250000Y-119275000D03*
%TO.P,J4,4,Pin_4*%
%TO.N,/RP_SPI0_MISO*%
X110750000Y-121275000D03*
%TO.P,J4,5,Pin_5*%
%TO.N,/RP_SPI0_MOSI*%
X109250000Y-119275000D03*
%TO.P,J4,6,Pin_6*%
%TO.N,GND*%
X107750000Y-121275000D03*
%TD*%
D16*
%TO.P,J5,1,Pin_1*%
%TO.N,/LC_RX*%
X79400000Y-90950000D03*
D17*
%TO.P,J5,2,Pin_2*%
%TO.N,/LC_TX*%
X79400000Y-92220000D03*
%TD*%
D20*
%TO.P,J1,S1,SHELL_GND*%
%TO.N,Net-(J1-PadS1)*%
X79780000Y-105310000D03*
D21*
%TO.P,J1,S2,SHELL_GND*%
X75600000Y-105310000D03*
%TO.P,J1,S3,SHELL_GND*%
X75600000Y-113950000D03*
D20*
%TO.P,J1,S4,SHELL_GND*%
X79780000Y-113950000D03*
%TD*%
D22*
%TO.N,GND*%
X98250000Y-103500000D03*
X104500000Y-99250000D03*
X106500000Y-100500000D03*
X109750000Y-92250000D03*
X86500000Y-95200000D03*
X80250000Y-117250000D03*
X84500000Y-78500000D03*
X102500000Y-101750000D03*
X94000000Y-92250000D03*
X91500000Y-99750000D03*
X88900000Y-94600000D03*
X85600000Y-91000000D03*
X96500000Y-84750000D03*
X113800000Y-112200000D03*
X100500000Y-88750000D03*
X116250000Y-112750000D03*
X115000000Y-86500000D03*
X92500000Y-96000000D03*
X90250000Y-85000000D03*
X102250000Y-103500000D03*
X104250000Y-86750000D03*
X87250000Y-85000000D03*
X112250000Y-102250000D03*
X113500000Y-75750000D03*
X88750000Y-85000000D03*
X112250000Y-99250000D03*
X122000000Y-97000000D03*
X96250000Y-103000000D03*
X96500000Y-77250000D03*
X89000000Y-77250000D03*
X94750000Y-96500000D03*
X105300000Y-101800000D03*
X93500000Y-113500000D03*
X93000000Y-107000000D03*
X109750000Y-95250000D03*
X111750000Y-109250000D03*
X98750000Y-122000000D03*
X98000000Y-77250000D03*
X101750000Y-79000000D03*
X92500000Y-99000000D03*
X75000000Y-112500000D03*
X103000000Y-116250000D03*
X87000000Y-116750000D03*
X98000000Y-76000000D03*
X92250000Y-87750000D03*
X85000000Y-79750000D03*
X92750000Y-82250000D03*
X88000000Y-79750000D03*
X80800000Y-92750000D03*
X109750000Y-114000000D03*
X97750000Y-119500000D03*
X104000000Y-83000000D03*
X110750000Y-108250000D03*
X105500000Y-81250000D03*
X81800000Y-94400000D03*
X105800000Y-118000000D03*
X84750000Y-111250000D03*
X76750000Y-85500000D03*
X89000000Y-87750000D03*
X93000000Y-108500000D03*
X85500000Y-87750000D03*
X101750000Y-110500000D03*
D23*
X85000000Y-102000000D03*
D22*
X81000000Y-83250000D03*
X97250000Y-92250000D03*
X80250000Y-116000000D03*
X89000000Y-76000000D03*
X103000000Y-117500000D03*
X76500000Y-92500000D03*
X80750000Y-90000000D03*
X99750000Y-112500000D03*
X96000000Y-81750000D03*
X122000000Y-87000000D03*
X96750000Y-106750000D03*
X115000000Y-83000000D03*
X92750000Y-81000000D03*
X122200000Y-119200000D03*
X88500000Y-111250000D03*
X75500000Y-88500000D03*
X98000000Y-82500000D03*
X81750000Y-113500000D03*
X89000000Y-78500000D03*
X91250000Y-108500000D03*
X79000000Y-94250000D03*
X82000000Y-117250000D03*
X77250000Y-119500000D03*
X108500000Y-112750000D03*
X97500000Y-86750000D03*
X97750000Y-118500000D03*
X100500000Y-90250000D03*
X80800000Y-94200000D03*
X97500000Y-88250000D03*
X90250000Y-80000000D03*
X86000000Y-76000000D03*
X122000000Y-93000000D03*
X116500000Y-100500000D03*
X81000000Y-104000000D03*
X106200000Y-113600000D03*
X122000000Y-83000000D03*
X81600000Y-106000000D03*
X89500000Y-113500000D03*
X74250000Y-92500000D03*
D23*
X85750000Y-101250000D03*
D22*
X91000000Y-81000000D03*
X122000000Y-95000000D03*
D23*
X85750000Y-102750000D03*
D22*
X75250000Y-85500000D03*
X100750000Y-111500000D03*
X83200000Y-106000000D03*
X81750000Y-114750000D03*
X113750000Y-114250000D03*
X94600000Y-83800000D03*
X92250000Y-89750000D03*
X111250000Y-79750000D03*
X95000000Y-76000000D03*
X100500000Y-86750000D03*
X105500000Y-80000000D03*
X88500000Y-116750000D03*
X90250000Y-118250000D03*
X108750000Y-86750000D03*
X81250000Y-79750000D03*
X99750000Y-110500000D03*
X96500000Y-79750000D03*
X90250000Y-120000000D03*
X93500000Y-121250000D03*
X106500000Y-86750000D03*
X87500000Y-76000000D03*
X86000000Y-79750000D03*
X104500000Y-81250000D03*
X84500000Y-94400000D03*
X89700000Y-103300000D03*
X94600000Y-116200000D03*
X92500000Y-111250000D03*
X95000000Y-79750000D03*
X89250000Y-108500000D03*
X85750000Y-85000000D03*
X75200000Y-115300000D03*
X74250000Y-98250000D03*
X88500000Y-107000000D03*
X116250000Y-111750000D03*
D23*
X85000000Y-101250000D03*
D22*
X98000000Y-96250000D03*
X99500000Y-84500000D03*
X122000000Y-103000000D03*
X86500000Y-111250000D03*
X103000000Y-92250000D03*
X78250000Y-85500000D03*
X109200000Y-122000000D03*
X81000000Y-102750000D03*
X108500000Y-108250000D03*
X105750000Y-94250000D03*
X90250000Y-122000000D03*
X91250000Y-107000000D03*
X73750000Y-87000000D03*
X96500000Y-78500000D03*
X105700000Y-107600000D03*
X79750000Y-85500000D03*
X109250000Y-79500000D03*
X104250000Y-115000000D03*
X92250000Y-85750000D03*
X99500000Y-76000000D03*
X79750000Y-101500000D03*
D23*
X85750000Y-102000000D03*
D22*
X77900000Y-96500000D03*
X82000000Y-116000000D03*
X92500000Y-97750000D03*
X75000000Y-108250000D03*
X82750000Y-81750000D03*
X99500000Y-77250000D03*
X86000000Y-77250000D03*
X75000000Y-110250000D03*
X115000000Y-100500000D03*
X79750000Y-102750000D03*
X96000000Y-82750000D03*
X82000000Y-118750000D03*
X115000000Y-90500000D03*
X122000000Y-91000000D03*
X101750000Y-112500000D03*
X122250000Y-79000000D03*
X83500000Y-87750000D03*
X115000000Y-94000000D03*
X122000000Y-101000000D03*
X100600000Y-96200000D03*
X111000000Y-103750000D03*
X122400000Y-114400000D03*
X87500000Y-77250000D03*
X109750000Y-89000000D03*
X87000000Y-113500000D03*
X96500000Y-76000000D03*
X74250000Y-119750000D03*
X85000000Y-81750000D03*
X111750000Y-79000000D03*
X116500000Y-124100000D03*
X109000000Y-102300000D03*
X106600000Y-104700000D03*
X84000000Y-123000000D03*
X87500000Y-108500000D03*
X107250000Y-82750000D03*
X85500000Y-123000000D03*
X94750000Y-95000000D03*
X94000000Y-87250000D03*
X81000000Y-82000000D03*
X78000000Y-106000000D03*
X120000000Y-83000000D03*
X81250000Y-78500000D03*
X115500000Y-108500000D03*
X78000000Y-104500000D03*
X113250000Y-81000000D03*
X94000000Y-103250000D03*
X80250000Y-118750000D03*
X92500000Y-103250000D03*
X86000000Y-78500000D03*
X92000000Y-118250000D03*
X89700000Y-102100000D03*
X95900000Y-106100000D03*
X78750000Y-119500000D03*
X94000000Y-80500000D03*
X81000000Y-85500000D03*
X82750000Y-120250000D03*
X115000000Y-97500000D03*
X92500000Y-95000000D03*
X108500000Y-80000000D03*
X107250000Y-76000000D03*
X85500000Y-94400000D03*
X83300000Y-94400000D03*
X76250000Y-98250000D03*
X98600000Y-98600000D03*
X109250000Y-80750000D03*
X116500000Y-101500000D03*
D23*
X85000000Y-102750000D03*
D22*
X101250000Y-76000000D03*
X90500000Y-111250000D03*
X81000000Y-101500000D03*
X117750000Y-111750000D03*
X98000000Y-78500000D03*
X116500000Y-120600000D03*
X104000000Y-85000000D03*
X77750000Y-123000000D03*
X87500000Y-78500000D03*
X122000000Y-99000000D03*
X80800000Y-94200000D03*
X81000000Y-84500000D03*
X112750000Y-110500000D03*
X110000000Y-115750000D03*
X79200000Y-97500000D03*
X82500000Y-124000000D03*
X106600000Y-117200000D03*
X106250000Y-98750000D03*
X83500000Y-118750000D03*
X74000000Y-106500000D03*
X122000000Y-89000000D03*
X87250000Y-81750000D03*
X122000000Y-85000000D03*
X84500000Y-97500000D03*
X73750000Y-85500000D03*
X89000000Y-79750000D03*
%TO.N,+3V3*%
X105750000Y-97500000D03*
X96000000Y-96750000D03*
X95000000Y-110789500D03*
X90750000Y-101150000D03*
X103380378Y-104130378D03*
X96250000Y-108000000D03*
X118250000Y-118000000D03*
X121200000Y-108900000D03*
X96500000Y-122500000D03*
X121200000Y-109800000D03*
X96750000Y-115500000D03*
X97475000Y-105225000D03*
X117375000Y-118875000D03*
X108750000Y-97500000D03*
%TO.N,/ACT_LED*%
X104500000Y-118250000D03*
X86500000Y-124000000D03*
%TO.N,/HDC2021_INT*%
X112750000Y-82250000D03*
X110000000Y-77000000D03*
%TO.N,/RP_SPI1_CS*%
X104000000Y-94500000D03*
X105750000Y-90000000D03*
%TO.N,/RP_SENSOR_VDD_1_EN*%
X102750000Y-100250000D03*
X95000000Y-90900000D03*
%TO.N,/LSM_INT2*%
X101384668Y-82515332D03*
X103632000Y-98552000D03*
%TO.N,/LSM_INT1*%
X105720150Y-105466150D03*
X104000000Y-100250000D03*
X104390378Y-103120378D03*
X96000000Y-83750000D03*
%TO.N,/APDS_INT*%
X107250000Y-77500000D03*
X109800500Y-82698863D03*
X107250000Y-80000000D03*
X111750000Y-83250000D03*
%TO.N,/I2C_SDA*%
X103539781Y-89800423D03*
X111800000Y-81500000D03*
X103000000Y-77079500D03*
X113400000Y-92500000D03*
X121000000Y-79750000D03*
X111199500Y-92500000D03*
X109099466Y-83411291D03*
X110250000Y-85000000D03*
X80250000Y-86750000D03*
X100700000Y-77000000D03*
X102897688Y-81053688D03*
X84000000Y-86750000D03*
%TO.N,/I2C_SCL*%
X100500000Y-79500000D03*
X110500000Y-93900000D03*
X94500000Y-81750000D03*
X102590332Y-89790332D03*
X103100000Y-82200000D03*
X82250000Y-87750000D03*
X102600000Y-85600000D03*
X76750000Y-87000000D03*
X113200500Y-93912826D03*
%TO.N,/VIN*%
X81700000Y-112100000D03*
X87300000Y-106200000D03*
X77750000Y-109750000D03*
X81900000Y-107300000D03*
X89700000Y-104500000D03*
X77750000Y-112250000D03*
X77750000Y-111000000D03*
%TD*%
D24*
%TO.N,+3V3*%
X97475000Y-105225000D02*
X97250000Y-105000000D01*
X97250000Y-105000000D02*
X97250000Y-103000000D01*
X97250000Y-103000000D02*
X97500000Y-102750000D01*
X97500000Y-102750000D02*
X103000000Y-102750000D01*
X103000000Y-102750000D02*
X103380378Y-103130378D01*
X103380378Y-103130378D02*
X103380378Y-104130378D01*
D25*
%TO.N,/I2C_SCL*%
X103100000Y-82200000D02*
X100500000Y-79600000D01*
X100500000Y-79600000D02*
X100500000Y-79500000D01*
%TO.N,GND*%
X120500000Y-76250000D02*
X118000000Y-76250000D01*
X122250000Y-78000000D02*
X122250000Y-79000000D01*
X118000000Y-76250000D02*
X116750000Y-77500000D01*
X120500000Y-76250000D02*
X122250000Y-78000000D01*
X116750000Y-77500000D02*
X116250000Y-78000000D01*
X113500000Y-78000000D02*
X112750000Y-78000000D01*
X116250000Y-78000000D02*
X113500000Y-78000000D01*
X112750000Y-78000000D02*
X111750000Y-79000000D01*
D24*
%TO.N,+3V3*%
X95000000Y-110789500D02*
X95039500Y-110750000D01*
D26*
X96500000Y-122500000D02*
X96500000Y-119350000D01*
D24*
X95000000Y-110789500D02*
X98189500Y-110789500D01*
D27*
X97750000Y-108000000D02*
X98275000Y-108525000D01*
D24*
X98189500Y-110789500D02*
X98425000Y-111025000D01*
D26*
X121200000Y-117950000D02*
X118300000Y-117950000D01*
D27*
X98275000Y-108525000D02*
X98425000Y-108675000D01*
X98425000Y-108675000D02*
X98425000Y-111025000D01*
D26*
X121200000Y-109800000D02*
X121200000Y-108900000D01*
D27*
X98425000Y-111025000D02*
X98425000Y-113825000D01*
D26*
X95000000Y-98750000D02*
X95625000Y-98125000D01*
X90750000Y-101150000D02*
X92600000Y-101150000D01*
X92600000Y-101150000D02*
X95000000Y-98750000D01*
X95000000Y-98750000D02*
X96000000Y-97750000D01*
D27*
X98425000Y-113825000D02*
X98000000Y-114250000D01*
D26*
X96000000Y-97750000D02*
X96000000Y-96750000D01*
X121200000Y-109800000D02*
X121200000Y-117950000D01*
X118300000Y-117950000D02*
X118250000Y-118000000D01*
D27*
X96250000Y-108000000D02*
X97750000Y-108000000D01*
D26*
X96500000Y-119350000D02*
X96400000Y-119250000D01*
D27*
X98000000Y-114250000D02*
X96750000Y-115500000D01*
D26*
X118250000Y-118000000D02*
X117375000Y-118875000D01*
D28*
X105750000Y-97500000D02*
X108750000Y-97500000D01*
D25*
%TO.N,/ACT_LED*%
X86750000Y-124250000D02*
X86500000Y-124000000D01*
X104500000Y-124000000D02*
X104250000Y-124250000D01*
X104250000Y-124250000D02*
X86750000Y-124250000D01*
X104500000Y-118250000D02*
X104500000Y-124000000D01*
%TO.N,/HDC2021_INT*%
X110750000Y-81750000D02*
X111250000Y-82250000D01*
X110250000Y-77250000D02*
X110000000Y-77000000D01*
X111250000Y-82250000D02*
X112750000Y-82250000D01*
X110250000Y-81250000D02*
X110750000Y-81750000D01*
X110250000Y-81250000D02*
X110250000Y-77250000D01*
%TO.N,/RP_SPI1_CS*%
X105000000Y-90250000D02*
X105250000Y-90000000D01*
X105000000Y-93500000D02*
X105000000Y-90250000D01*
X104000000Y-94500000D02*
X105000000Y-93500000D01*
X105250000Y-90000000D02*
X105750000Y-90000000D01*
%TO.N,/RP_SENSOR_VDD_1_EN*%
X96950000Y-93700000D02*
X95000000Y-91750000D01*
X95000000Y-91750000D02*
X95000000Y-90900000D01*
X100780378Y-97530378D02*
X96950000Y-93700000D01*
X102750000Y-100250000D02*
X102750000Y-99500000D01*
X102750000Y-99500000D02*
X100780378Y-97530378D01*
%TO.N,/LSM_INT2*%
X102933372Y-98552000D02*
X102520686Y-98139314D01*
X101749519Y-96050481D02*
X101749519Y-85790519D01*
X102520686Y-96821647D02*
X101749519Y-96050481D01*
X102520686Y-98139314D02*
X102520686Y-96821647D01*
X101429500Y-85470500D02*
X101429500Y-82560164D01*
X101749519Y-85790519D02*
X101429500Y-85470500D01*
X103632000Y-98552000D02*
X102933372Y-98552000D01*
X101429500Y-82560164D02*
X101384668Y-82515332D01*
%TO.N,/LSM_INT1*%
X101079500Y-83379500D02*
X101000000Y-83300000D01*
X96450000Y-83300000D02*
X97686151Y-83300000D01*
X101452032Y-96247967D02*
X101399519Y-96195456D01*
X102257843Y-98442157D02*
X102170686Y-98355000D01*
X105720150Y-105466150D02*
X105720150Y-104450150D01*
X101399519Y-96195456D02*
X101399519Y-94800000D01*
X102170686Y-96966621D02*
X101452032Y-96247967D01*
X101399519Y-85935493D02*
X101079500Y-85615474D01*
X105720150Y-104450150D02*
X104390378Y-103120378D01*
X101079500Y-84500000D02*
X101079500Y-83379500D01*
X104000000Y-100184314D02*
X104000000Y-100250000D01*
X101399519Y-94800000D02*
X101399519Y-85935493D01*
X102257843Y-98442157D02*
X104000000Y-100184314D01*
X102170686Y-97300000D02*
X102170686Y-96966621D01*
X101079500Y-85615474D02*
X101079500Y-84500000D01*
X102170686Y-98355000D02*
X102170686Y-97300000D01*
X101000000Y-83300000D02*
X97686151Y-83300000D01*
X96000000Y-83750000D02*
X96450000Y-83300000D01*
%TO.N,/APDS_INT*%
X107250000Y-80000000D02*
X107250000Y-77500000D01*
X110351637Y-83250000D02*
X109800500Y-82698863D01*
X111750000Y-83250000D02*
X110351637Y-83250000D01*
%TO.N,/I2C_SDA*%
X115900000Y-78400000D02*
X114400000Y-78400000D01*
X110250000Y-84561825D02*
X109099466Y-83411291D01*
D29*
X102920500Y-77000000D02*
X103000000Y-77079500D01*
D25*
X113400000Y-92500000D02*
X111199500Y-92500000D01*
X112800000Y-80000000D02*
X111800000Y-81000000D01*
X80250000Y-86750000D02*
X84000000Y-86750000D01*
X102897688Y-81053688D02*
X103000000Y-80951376D01*
X104240204Y-89100000D02*
X107799500Y-89100000D01*
X121000000Y-79750000D02*
X119650000Y-78400000D01*
X107799500Y-89100000D02*
X111199500Y-92500000D01*
X110250000Y-85000000D02*
X110250000Y-84561825D01*
D29*
X100700000Y-77000000D02*
X102920500Y-77000000D01*
D25*
X114400000Y-78400000D02*
X112800000Y-80000000D01*
X103000000Y-80951376D02*
X103000000Y-77079500D01*
X103539781Y-89800423D02*
X104240204Y-89100000D01*
X111800000Y-81000000D02*
X111800000Y-81500000D01*
X119650000Y-78400000D02*
X115900000Y-78400000D01*
%TO.N,/I2C_SCL*%
X95500000Y-80750000D02*
X98500000Y-80750000D01*
X102590332Y-86790332D02*
X102590332Y-85609668D01*
X113200500Y-93912826D02*
X113187674Y-93900000D01*
X99250000Y-80750000D02*
X100500000Y-79500000D01*
X102590332Y-89790332D02*
X102590332Y-86790332D01*
X98500000Y-80750000D02*
X99250000Y-80750000D01*
X102590332Y-85609668D02*
X102600000Y-85600000D01*
X82250000Y-87750000D02*
X77500000Y-87750000D01*
X113187674Y-93900000D02*
X110500000Y-93900000D01*
X77500000Y-87750000D02*
X76750000Y-87000000D01*
X94500000Y-81750000D02*
X95500000Y-80750000D01*
%TO.N,/VIN*%
X88300000Y-105200000D02*
X89000000Y-104500000D01*
X87300000Y-106200000D02*
X88300000Y-105200000D01*
X89000000Y-104500000D02*
X89700000Y-104500000D01*
%TD*%
%TA.AperFunction,Conductor*%
%TO.N,GND*%
G36*
X113904399Y-75219407D02*
G01*
X113924766Y-75239254D01*
X113925095Y-75239683D01*
X113938001Y-75262043D01*
X113977975Y-75358549D01*
X113984664Y-75383513D01*
X113999153Y-75493566D01*
X114000000Y-75506488D01*
X114000000Y-78334020D01*
X113981093Y-78392211D01*
X113971004Y-78404024D01*
X113230711Y-79144318D01*
X112625056Y-79749973D01*
X112625051Y-79749977D01*
X112625042Y-79749986D01*
X111625349Y-80749680D01*
X111622220Y-80752380D01*
X111617731Y-80754575D01*
X111611513Y-80761278D01*
X111584107Y-80790822D01*
X111581531Y-80793498D01*
X111567752Y-80807277D01*
X111565207Y-80810987D01*
X111561771Y-80814900D01*
X111541599Y-80836646D01*
X111538212Y-80845134D01*
X111538212Y-80845135D01*
X111537334Y-80847336D01*
X111527020Y-80866652D01*
X111525679Y-80868607D01*
X111525678Y-80868610D01*
X111520508Y-80876146D01*
X111518398Y-80885038D01*
X111514359Y-80902058D01*
X111509986Y-80915884D01*
X111502707Y-80934129D01*
X111500117Y-80940622D01*
X111499562Y-80946281D01*
X111463938Y-81000956D01*
X111371718Y-81071718D01*
X111275464Y-81197159D01*
X111214956Y-81343238D01*
X111194318Y-81500000D01*
X111195165Y-81506434D01*
X111195165Y-81506435D01*
X111197087Y-81521035D01*
X111185936Y-81581195D01*
X111141554Y-81623312D01*
X111080892Y-81631298D01*
X111028932Y-81603961D01*
X111000027Y-81575056D01*
X111000023Y-81575051D01*
X110579497Y-81154526D01*
X110551719Y-81100009D01*
X110550500Y-81084522D01*
X110550500Y-77303508D01*
X110550803Y-77299383D01*
X110552425Y-77294658D01*
X110551201Y-77262041D01*
X110558667Y-77220442D01*
X110582560Y-77162759D01*
X110585044Y-77156762D01*
X110605682Y-77000000D01*
X110585044Y-76843238D01*
X110524536Y-76697159D01*
X110428282Y-76571718D01*
X110302841Y-76475464D01*
X110156762Y-76414956D01*
X110000000Y-76394318D01*
X109843238Y-76414956D01*
X109697159Y-76475464D01*
X109571718Y-76571718D01*
X109475464Y-76697159D01*
X109414956Y-76843238D01*
X109394318Y-77000000D01*
X109414956Y-77156762D01*
X109475464Y-77302841D01*
X109571718Y-77428282D01*
X109697159Y-77524536D01*
X109843238Y-77585044D01*
X109863422Y-77587701D01*
X109918646Y-77614041D01*
X109947842Y-77667811D01*
X109949500Y-77685854D01*
X109949500Y-81196492D01*
X109949197Y-81200617D01*
X109947575Y-81205342D01*
X109947918Y-81214476D01*
X109949430Y-81254761D01*
X109949500Y-81258474D01*
X109949500Y-81277948D01*
X109950325Y-81282378D01*
X109950661Y-81287571D01*
X109951774Y-81317208D01*
X109955380Y-81325602D01*
X109955381Y-81325605D01*
X109956317Y-81327783D01*
X109962683Y-81348734D01*
X109964791Y-81360053D01*
X109969588Y-81367835D01*
X109978768Y-81382728D01*
X109985451Y-81395595D01*
X109995964Y-81420063D01*
X109999978Y-81424949D01*
X110004342Y-81429313D01*
X110018613Y-81447368D01*
X110023532Y-81455348D01*
X110046769Y-81473018D01*
X110056839Y-81481810D01*
X110999680Y-82424651D01*
X111002380Y-82427780D01*
X111004575Y-82432269D01*
X111011278Y-82438487D01*
X111040822Y-82465893D01*
X111043498Y-82468469D01*
X111057277Y-82482248D01*
X111060987Y-82484793D01*
X111064900Y-82488229D01*
X111086646Y-82508401D01*
X111095132Y-82511787D01*
X111095134Y-82511788D01*
X111097337Y-82512667D01*
X111116648Y-82522978D01*
X111118607Y-82524322D01*
X111118610Y-82524323D01*
X111126146Y-82529493D01*
X111135038Y-82531603D01*
X111135040Y-82531604D01*
X111152066Y-82535644D01*
X111165885Y-82540014D01*
X111190622Y-82549883D01*
X111196915Y-82550500D01*
X111203085Y-82550500D01*
X111225941Y-82553175D01*
X111235066Y-82555340D01*
X111263988Y-82551404D01*
X111277337Y-82550500D01*
X111383532Y-82550500D01*
X111441723Y-82569407D01*
X111477687Y-82618907D01*
X111477687Y-82680093D01*
X111443799Y-82728042D01*
X111321718Y-82821718D01*
X111263255Y-82897909D01*
X111253388Y-82910768D01*
X111202963Y-82945423D01*
X111174846Y-82949500D01*
X110517116Y-82949500D01*
X110458925Y-82930593D01*
X110447112Y-82920504D01*
X110419680Y-82893072D01*
X110391903Y-82838555D01*
X110391531Y-82810146D01*
X110392129Y-82805609D01*
X110406182Y-82698863D01*
X110385544Y-82542101D01*
X110325036Y-82396022D01*
X110228782Y-82270581D01*
X110103341Y-82174327D01*
X109957262Y-82113819D01*
X109800500Y-82093181D01*
X109643738Y-82113819D01*
X109497659Y-82174327D01*
X109372218Y-82270581D01*
X109275964Y-82396022D01*
X109215456Y-82542101D01*
X109194818Y-82698863D01*
X109195665Y-82705296D01*
X109195665Y-82707456D01*
X109176758Y-82765647D01*
X109127258Y-82801611D01*
X109100857Y-82805792D01*
X109099466Y-82805609D01*
X108942704Y-82826247D01*
X108796625Y-82886755D01*
X108671184Y-82983009D01*
X108574930Y-83108450D01*
X108514422Y-83254529D01*
X108493784Y-83411291D01*
X108514422Y-83568053D01*
X108574930Y-83714132D01*
X108671184Y-83839573D01*
X108796625Y-83935827D01*
X108942704Y-83996335D01*
X109099466Y-84016973D01*
X109210750Y-84002322D01*
X109270909Y-84013472D01*
X109293675Y-84030471D01*
X109766060Y-84502856D01*
X109793837Y-84557373D01*
X109784266Y-84617805D01*
X109774605Y-84633118D01*
X109725464Y-84697159D01*
X109664956Y-84843238D01*
X109644318Y-85000000D01*
X109664956Y-85156762D01*
X109725464Y-85302841D01*
X109821718Y-85428282D01*
X109947159Y-85524536D01*
X110093238Y-85585044D01*
X110250000Y-85605682D01*
X110406762Y-85585044D01*
X110552841Y-85524536D01*
X110678282Y-85428282D01*
X110774536Y-85302841D01*
X110835044Y-85156762D01*
X110855682Y-85000000D01*
X110835044Y-84843238D01*
X110774536Y-84697159D01*
X110678282Y-84571718D01*
X110560308Y-84481194D01*
X110537326Y-84450467D01*
X110535209Y-84451772D01*
X110521232Y-84429097D01*
X110514548Y-84416229D01*
X110506793Y-84398178D01*
X110506792Y-84398176D01*
X110504036Y-84391762D01*
X110500023Y-84386876D01*
X110495657Y-84382510D01*
X110481385Y-84364454D01*
X110481264Y-84364257D01*
X110481263Y-84364256D01*
X110476468Y-84356477D01*
X110453244Y-84338817D01*
X110443165Y-84330018D01*
X109718646Y-83605500D01*
X109690869Y-83550983D01*
X109690497Y-83522574D01*
X109691802Y-83512667D01*
X109705148Y-83411291D01*
X109704301Y-83404857D01*
X109704301Y-83402698D01*
X109723208Y-83344507D01*
X109772708Y-83308543D01*
X109799109Y-83304362D01*
X109800500Y-83304545D01*
X109911785Y-83289894D01*
X109971945Y-83301044D01*
X109994710Y-83318044D01*
X110101318Y-83424653D01*
X110104018Y-83427781D01*
X110106212Y-83432269D01*
X110112914Y-83438486D01*
X110142446Y-83465881D01*
X110145122Y-83468457D01*
X110158913Y-83482248D01*
X110162624Y-83484793D01*
X110166543Y-83488234D01*
X110188283Y-83508401D01*
X110196771Y-83511787D01*
X110196774Y-83511789D01*
X110198975Y-83512667D01*
X110218291Y-83522981D01*
X110220246Y-83524322D01*
X110220248Y-83524323D01*
X110227783Y-83529492D01*
X110236671Y-83531601D01*
X110236673Y-83531602D01*
X110253695Y-83535641D01*
X110267521Y-83540014D01*
X110285769Y-83547294D01*
X110285771Y-83547294D01*
X110292259Y-83549883D01*
X110298552Y-83550500D01*
X110304721Y-83550500D01*
X110327580Y-83553175D01*
X110327810Y-83553230D01*
X110327812Y-83553230D01*
X110336703Y-83555340D01*
X110365625Y-83551404D01*
X110378974Y-83550500D01*
X111174846Y-83550500D01*
X111233037Y-83569407D01*
X111253387Y-83589231D01*
X111321718Y-83678282D01*
X111447159Y-83774536D01*
X111593238Y-83835044D01*
X111750000Y-83855682D01*
X111906762Y-83835044D01*
X112052841Y-83774536D01*
X112178282Y-83678282D01*
X112274536Y-83552841D01*
X112335044Y-83406762D01*
X112355682Y-83250000D01*
X112335044Y-83093238D01*
X112326882Y-83073532D01*
X112301678Y-83012685D01*
X112274536Y-82947159D01*
X112178282Y-82821718D01*
X112056201Y-82728042D01*
X112021545Y-82677618D01*
X112023146Y-82616453D01*
X112060394Y-82567912D01*
X112116468Y-82550500D01*
X112174846Y-82550500D01*
X112233037Y-82569407D01*
X112253387Y-82589231D01*
X112321718Y-82678282D01*
X112447159Y-82774536D01*
X112593238Y-82835044D01*
X112750000Y-82855682D01*
X112906762Y-82835044D01*
X113052841Y-82774536D01*
X113178282Y-82678282D01*
X113274536Y-82552841D01*
X113335044Y-82406762D01*
X113355682Y-82250000D01*
X113335044Y-82093238D01*
X113274536Y-81947159D01*
X113178282Y-81821718D01*
X113052841Y-81725464D01*
X112906762Y-81664956D01*
X112750000Y-81644318D01*
X112593238Y-81664956D01*
X112587240Y-81667440D01*
X112587238Y-81667441D01*
X112530315Y-81691019D01*
X112469319Y-81695820D01*
X112417150Y-81663850D01*
X112393735Y-81607322D01*
X112394277Y-81586633D01*
X112404835Y-81506434D01*
X112405682Y-81500000D01*
X112385044Y-81343238D01*
X112324536Y-81197159D01*
X112295232Y-81158969D01*
X112248560Y-81098144D01*
X112228136Y-81040468D01*
X112245514Y-80981802D01*
X112257098Y-80967873D01*
X113830996Y-79393975D01*
X113885513Y-79366198D01*
X113945945Y-79375769D01*
X113989210Y-79419034D01*
X114000000Y-79463979D01*
X114000000Y-81900000D01*
X114450496Y-81900000D01*
X114508687Y-81918907D01*
X114544651Y-81968407D01*
X114549496Y-81999085D01*
X114549455Y-82045563D01*
X114554280Y-82055611D01*
X114554712Y-82056511D01*
X114561987Y-82077345D01*
X114564688Y-82089185D01*
X114571635Y-82097903D01*
X114572091Y-82098475D01*
X114583909Y-82117314D01*
X114589052Y-82128024D01*
X114598532Y-82135605D01*
X114614123Y-82151222D01*
X114621695Y-82160724D01*
X114632392Y-82165883D01*
X114651214Y-82177736D01*
X114660492Y-82185156D01*
X114672327Y-82187877D01*
X114693151Y-82195190D01*
X114694048Y-82195623D01*
X114694049Y-82195623D01*
X114704087Y-82200465D01*
X114715232Y-82200475D01*
X114715233Y-82200475D01*
X114727155Y-82200485D01*
X114727153Y-82202230D01*
X114727219Y-82202224D01*
X114727219Y-82200500D01*
X114744108Y-82200500D01*
X114795274Y-82200545D01*
X114795563Y-82200545D01*
X114795651Y-82200503D01*
X114795675Y-82200500D01*
X121994108Y-82200500D01*
X122045563Y-82200545D01*
X122056512Y-82195288D01*
X122077345Y-82188013D01*
X122089185Y-82185312D01*
X122098475Y-82177909D01*
X122117314Y-82166091D01*
X122128024Y-82160948D01*
X122135611Y-82151461D01*
X122151222Y-82135877D01*
X122160724Y-82128305D01*
X122165883Y-82117608D01*
X122177736Y-82098786D01*
X122185156Y-82089508D01*
X122187877Y-82077673D01*
X122195190Y-82056849D01*
X122195623Y-82055952D01*
X122195623Y-82055951D01*
X122200465Y-82045913D01*
X122200485Y-82022845D01*
X122202230Y-82022847D01*
X122202224Y-82022781D01*
X122200500Y-82022781D01*
X122200500Y-82005894D01*
X122200506Y-81998915D01*
X122219463Y-81940740D01*
X122268994Y-81904819D01*
X122299506Y-81900000D01*
X122491941Y-81900000D01*
X122504867Y-81900847D01*
X122614492Y-81915284D01*
X122639462Y-81921977D01*
X122672720Y-81935757D01*
X122735196Y-81961644D01*
X122781716Y-82001385D01*
X122796299Y-82053148D01*
X122778196Y-121944639D01*
X122775678Y-121966781D01*
X122773024Y-121978322D01*
X122775485Y-121989197D01*
X122775467Y-121999412D01*
X122776393Y-122010507D01*
X122760915Y-122286144D01*
X122760891Y-122286574D01*
X122759648Y-122297605D01*
X122740342Y-122411240D01*
X122708926Y-122596146D01*
X122706458Y-122606963D01*
X122664540Y-122752465D01*
X122622624Y-122897960D01*
X122618957Y-122908439D01*
X122503076Y-123188204D01*
X122498259Y-123198207D01*
X122351776Y-123463248D01*
X122345880Y-123472633D01*
X122225798Y-123641873D01*
X122170641Y-123719610D01*
X122163719Y-123728290D01*
X121961936Y-123954085D01*
X121954085Y-123961936D01*
X121934576Y-123979370D01*
X121739721Y-124153504D01*
X121728290Y-124163719D01*
X121719613Y-124170639D01*
X121472633Y-124345880D01*
X121463248Y-124351776D01*
X121297909Y-124443156D01*
X121198207Y-124498259D01*
X121188204Y-124503076D01*
X120908439Y-124618957D01*
X120897960Y-124622624D01*
X120796375Y-124651890D01*
X120606963Y-124706458D01*
X120596151Y-124708925D01*
X120329648Y-124754204D01*
X120297606Y-124759648D01*
X120286580Y-124760890D01*
X120011027Y-124776364D01*
X120001055Y-124775514D01*
X120001055Y-124775542D01*
X119989904Y-124775522D01*
X119979040Y-124773024D01*
X119968167Y-124775484D01*
X119968165Y-124775484D01*
X119966974Y-124775754D01*
X119945172Y-124778195D01*
X119095595Y-124778581D01*
X86585128Y-124793335D01*
X86526930Y-124774454D01*
X86501946Y-124740100D01*
X86462738Y-124781415D01*
X86415546Y-124793412D01*
X74986332Y-124798599D01*
X73299545Y-124799364D01*
X73241346Y-124780483D01*
X73205359Y-124730999D01*
X73200500Y-124700364D01*
X73200500Y-124000000D01*
X85894318Y-124000000D01*
X85914956Y-124156762D01*
X85917440Y-124162759D01*
X85917838Y-124163719D01*
X85975464Y-124302841D01*
X86071718Y-124428282D01*
X86197159Y-124524536D01*
X86343238Y-124585044D01*
X86385491Y-124590607D01*
X86428422Y-124596259D01*
X86483647Y-124622600D01*
X86499550Y-124651890D01*
X86526857Y-124614269D01*
X86572162Y-124596182D01*
X86607561Y-124591521D01*
X86656762Y-124585044D01*
X86713413Y-124561578D01*
X86737942Y-124554949D01*
X86759245Y-124552049D01*
X86763988Y-124551404D01*
X86777337Y-124550500D01*
X104196492Y-124550500D01*
X104200617Y-124550803D01*
X104205342Y-124552425D01*
X104254761Y-124550570D01*
X104258474Y-124550500D01*
X104277948Y-124550500D01*
X104282378Y-124549675D01*
X104287571Y-124549339D01*
X104303602Y-124548737D01*
X104308075Y-124548569D01*
X104317208Y-124548226D01*
X104325602Y-124544620D01*
X104325605Y-124544619D01*
X104327783Y-124543683D01*
X104348734Y-124537317D01*
X104360053Y-124535209D01*
X104382729Y-124521232D01*
X104395596Y-124514548D01*
X104413642Y-124506795D01*
X104413643Y-124506794D01*
X104420063Y-124504036D01*
X104424949Y-124500022D01*
X104429313Y-124495658D01*
X104447368Y-124481387D01*
X104455348Y-124476468D01*
X104473014Y-124453236D01*
X104481815Y-124443156D01*
X104674653Y-124250319D01*
X104677781Y-124247619D01*
X104682269Y-124245425D01*
X104715881Y-124209191D01*
X104718457Y-124206515D01*
X104732248Y-124192724D01*
X104734793Y-124189013D01*
X104738234Y-124185094D01*
X104752185Y-124170055D01*
X104752185Y-124170054D01*
X104758401Y-124163354D01*
X104761787Y-124154866D01*
X104761789Y-124154863D01*
X104762667Y-124152662D01*
X104772981Y-124133346D01*
X104774322Y-124131391D01*
X104774323Y-124131389D01*
X104779492Y-124123854D01*
X104785641Y-124097941D01*
X104790014Y-124084116D01*
X104797294Y-124065868D01*
X104797294Y-124065866D01*
X104799883Y-124059378D01*
X104800500Y-124053085D01*
X104800500Y-124046916D01*
X104803175Y-124024057D01*
X104803230Y-124023827D01*
X104803230Y-124023825D01*
X104805340Y-124014934D01*
X104801404Y-123986012D01*
X104800500Y-123972663D01*
X104800500Y-121498266D01*
X106750000Y-121498266D01*
X106750253Y-121503263D01*
X106764866Y-121647128D01*
X106766871Y-121656897D01*
X106824626Y-121841189D01*
X106828555Y-121850356D01*
X106922189Y-122019278D01*
X106927875Y-122027459D01*
X107053558Y-122174096D01*
X107060791Y-122180983D01*
X107213385Y-122299347D01*
X107221847Y-122304635D01*
X107395127Y-122389900D01*
X107404487Y-122393381D01*
X107589020Y-122441448D01*
X107597226Y-122439250D01*
X107599663Y-122436240D01*
X107600000Y-122434425D01*
X107600000Y-122423017D01*
X107900000Y-122423017D01*
X107904122Y-122435702D01*
X107905161Y-122436457D01*
X107911411Y-122436971D01*
X107995010Y-122424328D01*
X108004682Y-122421845D01*
X108185929Y-122355159D01*
X108194892Y-122350788D01*
X108359028Y-122249019D01*
X108366936Y-122242929D01*
X108507256Y-122110235D01*
X108513776Y-122102681D01*
X108624549Y-121944482D01*
X108629415Y-121935776D01*
X108706114Y-121758533D01*
X108709132Y-121749018D01*
X108748873Y-121558793D01*
X108749850Y-121551265D01*
X108749931Y-121549716D01*
X108750000Y-121547105D01*
X108750000Y-121497192D01*
X109849500Y-121497192D01*
X109864326Y-121638256D01*
X109865927Y-121643183D01*
X109865928Y-121643188D01*
X109913096Y-121788354D01*
X109922821Y-121818284D01*
X109925412Y-121822772D01*
X109925413Y-121822774D01*
X110008946Y-121967457D01*
X110017467Y-121982216D01*
X110020939Y-121986072D01*
X110140659Y-122119035D01*
X110140663Y-122119038D01*
X110144129Y-122122888D01*
X110297270Y-122234151D01*
X110302002Y-122236258D01*
X110302004Y-122236259D01*
X110443701Y-122299347D01*
X110470197Y-122311144D01*
X110475267Y-122312222D01*
X110475268Y-122312222D01*
X110482137Y-122313682D01*
X110655354Y-122350500D01*
X110844646Y-122350500D01*
X111017863Y-122313682D01*
X111024732Y-122312222D01*
X111024733Y-122312222D01*
X111029803Y-122311144D01*
X111056299Y-122299347D01*
X111197996Y-122236259D01*
X111197998Y-122236258D01*
X111202730Y-122234151D01*
X111355871Y-122122888D01*
X111359337Y-122119038D01*
X111359341Y-122119035D01*
X111479061Y-121986072D01*
X111482533Y-121982216D01*
X111491054Y-121967457D01*
X111574587Y-121822774D01*
X111574588Y-121822772D01*
X111577179Y-121818284D01*
X111586904Y-121788354D01*
X111634072Y-121643188D01*
X111634073Y-121643183D01*
X111635674Y-121638256D01*
X111650500Y-121497192D01*
X112849500Y-121497192D01*
X112864326Y-121638256D01*
X112865927Y-121643183D01*
X112865928Y-121643188D01*
X112913096Y-121788354D01*
X112922821Y-121818284D01*
X112925412Y-121822772D01*
X112925413Y-121822774D01*
X113008946Y-121967457D01*
X113017467Y-121982216D01*
X113020939Y-121986072D01*
X113140659Y-122119035D01*
X113140663Y-122119038D01*
X113144129Y-122122888D01*
X113297270Y-122234151D01*
X113302002Y-122236258D01*
X113302004Y-122236259D01*
X113443701Y-122299347D01*
X113470197Y-122311144D01*
X113475267Y-122312222D01*
X113475268Y-122312222D01*
X113482137Y-122313682D01*
X113655354Y-122350500D01*
X113844646Y-122350500D01*
X114017863Y-122313682D01*
X114024732Y-122312222D01*
X114024733Y-122312222D01*
X114029803Y-122311144D01*
X114056299Y-122299347D01*
X114197996Y-122236259D01*
X114197998Y-122236258D01*
X114202730Y-122234151D01*
X114355871Y-122122888D01*
X114359337Y-122119038D01*
X114359341Y-122119035D01*
X114479061Y-121986072D01*
X114482533Y-121982216D01*
X114484563Y-121978700D01*
X117623157Y-121978700D01*
X117623369Y-121981934D01*
X117642535Y-122274347D01*
X117643309Y-122286160D01*
X117703420Y-122588359D01*
X117802462Y-122880127D01*
X117813890Y-122903300D01*
X117898796Y-123075472D01*
X117938740Y-123156471D01*
X118109922Y-123412664D01*
X118313080Y-123644320D01*
X118544736Y-123847478D01*
X118800929Y-124018660D01*
X118803835Y-124020093D01*
X118803840Y-124020096D01*
X118896657Y-124065868D01*
X119077273Y-124154938D01*
X119369041Y-124253980D01*
X119671240Y-124314091D01*
X119674462Y-124314302D01*
X119674468Y-124314303D01*
X119900141Y-124329094D01*
X119900143Y-124329094D01*
X119901759Y-124329200D01*
X120055641Y-124329200D01*
X120057257Y-124329094D01*
X120057259Y-124329094D01*
X120282932Y-124314303D01*
X120282938Y-124314302D01*
X120286160Y-124314091D01*
X120588359Y-124253980D01*
X120880127Y-124154938D01*
X121060743Y-124065868D01*
X121153560Y-124020096D01*
X121153565Y-124020093D01*
X121156471Y-124018660D01*
X121412664Y-123847478D01*
X121644320Y-123644320D01*
X121847478Y-123412664D01*
X121859171Y-123395165D01*
X121990493Y-123198627D01*
X122018660Y-123156472D01*
X122154938Y-122880127D01*
X122253980Y-122588359D01*
X122314091Y-122286160D01*
X122314866Y-122274347D01*
X122334031Y-121981934D01*
X122334243Y-121978700D01*
X122323729Y-121818284D01*
X122314303Y-121674468D01*
X122314302Y-121674462D01*
X122314091Y-121671240D01*
X122253980Y-121369041D01*
X122154938Y-121077273D01*
X122063523Y-120891902D01*
X122020096Y-120803840D01*
X122020093Y-120803835D01*
X122018660Y-120800929D01*
X121847478Y-120544736D01*
X121644320Y-120313080D01*
X121412664Y-120109922D01*
X121156471Y-119938740D01*
X121153565Y-119937307D01*
X121153560Y-119937304D01*
X120997042Y-119860118D01*
X120880127Y-119802462D01*
X120588359Y-119703420D01*
X120286160Y-119643309D01*
X120282938Y-119643098D01*
X120282932Y-119643097D01*
X120057259Y-119628306D01*
X120057257Y-119628306D01*
X120055641Y-119628200D01*
X119901759Y-119628200D01*
X119900143Y-119628306D01*
X119900141Y-119628306D01*
X119674468Y-119643097D01*
X119674462Y-119643098D01*
X119671240Y-119643309D01*
X119369041Y-119703420D01*
X119077273Y-119802462D01*
X118960358Y-119860118D01*
X118803840Y-119937304D01*
X118803835Y-119937307D01*
X118800929Y-119938740D01*
X118544736Y-120109922D01*
X118313080Y-120313080D01*
X118109922Y-120544736D01*
X118108117Y-120547438D01*
X118108115Y-120547440D01*
X118024331Y-120672832D01*
X117938740Y-120800928D01*
X117802462Y-121077273D01*
X117703420Y-121369041D01*
X117643309Y-121671240D01*
X117643098Y-121674462D01*
X117643097Y-121674468D01*
X117633671Y-121818284D01*
X117623157Y-121978700D01*
X114484563Y-121978700D01*
X114491054Y-121967457D01*
X114574587Y-121822774D01*
X114574588Y-121822772D01*
X114577179Y-121818284D01*
X114586904Y-121788354D01*
X114634072Y-121643188D01*
X114634073Y-121643183D01*
X114635674Y-121638256D01*
X114650500Y-121497192D01*
X114650500Y-121052808D01*
X114635674Y-120911744D01*
X114634073Y-120906817D01*
X114634072Y-120906812D01*
X114578781Y-120736646D01*
X114578780Y-120736645D01*
X114577179Y-120731716D01*
X114562746Y-120706716D01*
X114485126Y-120572275D01*
X114485125Y-120572274D01*
X114482533Y-120567784D01*
X114464067Y-120547275D01*
X114359341Y-120430965D01*
X114359337Y-120430962D01*
X114355871Y-120427112D01*
X114202730Y-120315849D01*
X114197998Y-120313742D01*
X114197996Y-120313741D01*
X114034540Y-120240965D01*
X114034539Y-120240965D01*
X114029803Y-120238856D01*
X114024733Y-120237778D01*
X114024732Y-120237778D01*
X113967687Y-120225653D01*
X113844646Y-120199500D01*
X113655354Y-120199500D01*
X113532313Y-120225653D01*
X113475268Y-120237778D01*
X113475267Y-120237778D01*
X113470197Y-120238856D01*
X113465461Y-120240965D01*
X113465460Y-120240965D01*
X113302004Y-120313741D01*
X113302002Y-120313742D01*
X113297270Y-120315849D01*
X113144129Y-120427112D01*
X113140663Y-120430962D01*
X113140659Y-120430965D01*
X113035933Y-120547275D01*
X113017467Y-120567784D01*
X113014875Y-120572274D01*
X113014874Y-120572275D01*
X112937255Y-120706716D01*
X112922821Y-120731716D01*
X112921220Y-120736645D01*
X112921219Y-120736646D01*
X112865928Y-120906812D01*
X112865927Y-120906817D01*
X112864326Y-120911744D01*
X112849500Y-121052808D01*
X112849500Y-121497192D01*
X111650500Y-121497192D01*
X111650500Y-121052808D01*
X111635674Y-120911744D01*
X111634073Y-120906817D01*
X111634072Y-120906812D01*
X111578781Y-120736646D01*
X111578780Y-120736645D01*
X111577179Y-120731716D01*
X111562746Y-120706716D01*
X111485126Y-120572275D01*
X111485125Y-120572274D01*
X111482533Y-120567784D01*
X111464067Y-120547275D01*
X111359341Y-120430965D01*
X111359337Y-120430962D01*
X111355871Y-120427112D01*
X111202730Y-120315849D01*
X111197998Y-120313742D01*
X111197996Y-120313741D01*
X111034540Y-120240965D01*
X111034539Y-120240965D01*
X111029803Y-120238856D01*
X111024733Y-120237778D01*
X111024732Y-120237778D01*
X110967687Y-120225653D01*
X110844646Y-120199500D01*
X110655354Y-120199500D01*
X110532313Y-120225653D01*
X110475268Y-120237778D01*
X110475267Y-120237778D01*
X110470197Y-120238856D01*
X110465461Y-120240965D01*
X110465460Y-120240965D01*
X110302004Y-120313741D01*
X110302002Y-120313742D01*
X110297270Y-120315849D01*
X110144129Y-120427112D01*
X110140663Y-120430962D01*
X110140659Y-120430965D01*
X110035933Y-120547275D01*
X110017467Y-120567784D01*
X110014875Y-120572274D01*
X110014874Y-120572275D01*
X109937255Y-120706716D01*
X109922821Y-120731716D01*
X109921220Y-120736645D01*
X109921219Y-120736646D01*
X109865928Y-120906812D01*
X109865927Y-120906817D01*
X109864326Y-120911744D01*
X109849500Y-121052808D01*
X109849500Y-121497192D01*
X108750000Y-121497192D01*
X108750000Y-121440680D01*
X108745878Y-121427995D01*
X108741757Y-121425000D01*
X107915680Y-121425000D01*
X107902995Y-121429122D01*
X107900000Y-121433243D01*
X107900000Y-122423017D01*
X107600000Y-122423017D01*
X107600000Y-121440680D01*
X107595878Y-121427995D01*
X107591757Y-121425000D01*
X106765680Y-121425000D01*
X106752995Y-121429122D01*
X106750000Y-121433243D01*
X106750000Y-121498266D01*
X104800500Y-121498266D01*
X104800500Y-121109320D01*
X106750000Y-121109320D01*
X106754122Y-121122005D01*
X106758243Y-121125000D01*
X107584320Y-121125000D01*
X107597005Y-121120878D01*
X107600000Y-121116757D01*
X107600000Y-121109320D01*
X107900000Y-121109320D01*
X107904122Y-121122005D01*
X107908243Y-121125000D01*
X108734320Y-121125000D01*
X108747005Y-121120878D01*
X108750000Y-121116757D01*
X108750000Y-121051734D01*
X108749747Y-121046737D01*
X108735134Y-120902872D01*
X108733129Y-120893103D01*
X108675374Y-120708811D01*
X108671445Y-120699644D01*
X108577811Y-120530722D01*
X108572125Y-120522541D01*
X108446442Y-120375904D01*
X108439209Y-120369017D01*
X108286615Y-120250653D01*
X108278153Y-120245365D01*
X108104873Y-120160100D01*
X108095513Y-120156619D01*
X107910980Y-120108552D01*
X107902774Y-120110750D01*
X107900337Y-120113760D01*
X107900000Y-120115575D01*
X107900000Y-121109320D01*
X107600000Y-121109320D01*
X107600000Y-120126983D01*
X107595878Y-120114298D01*
X107594839Y-120113543D01*
X107588589Y-120113029D01*
X107504990Y-120125672D01*
X107495318Y-120128155D01*
X107314071Y-120194841D01*
X107305108Y-120199212D01*
X107140972Y-120300981D01*
X107133064Y-120307071D01*
X106992744Y-120439765D01*
X106986224Y-120447319D01*
X106875451Y-120605518D01*
X106870585Y-120614224D01*
X106793886Y-120791467D01*
X106790868Y-120800982D01*
X106751127Y-120991207D01*
X106750150Y-120998735D01*
X106750069Y-121000284D01*
X106750000Y-121002895D01*
X106750000Y-121109320D01*
X104800500Y-121109320D01*
X104800500Y-119497192D01*
X108349500Y-119497192D01*
X108364326Y-119638256D01*
X108365927Y-119643183D01*
X108365928Y-119643188D01*
X108399964Y-119747938D01*
X108422821Y-119818284D01*
X108425412Y-119822772D01*
X108425413Y-119822774D01*
X108508773Y-119967157D01*
X108517467Y-119982216D01*
X108520939Y-119986072D01*
X108640659Y-120119035D01*
X108640663Y-120119038D01*
X108644129Y-120122888D01*
X108797270Y-120234151D01*
X108802002Y-120236258D01*
X108802004Y-120236259D01*
X108924614Y-120290849D01*
X108970197Y-120311144D01*
X108975267Y-120312222D01*
X108975268Y-120312222D01*
X108992332Y-120315849D01*
X109155354Y-120350500D01*
X109344646Y-120350500D01*
X109507668Y-120315849D01*
X109524732Y-120312222D01*
X109524733Y-120312222D01*
X109529803Y-120311144D01*
X109575386Y-120290849D01*
X109697996Y-120236259D01*
X109697998Y-120236258D01*
X109702730Y-120234151D01*
X109855871Y-120122888D01*
X109859337Y-120119038D01*
X109859341Y-120119035D01*
X109979061Y-119986072D01*
X109982533Y-119982216D01*
X109991227Y-119967157D01*
X110074587Y-119822774D01*
X110074588Y-119822772D01*
X110077179Y-119818284D01*
X110100036Y-119747938D01*
X110134072Y-119643188D01*
X110134073Y-119643183D01*
X110135674Y-119638256D01*
X110150500Y-119497192D01*
X111349500Y-119497192D01*
X111364326Y-119638256D01*
X111365927Y-119643183D01*
X111365928Y-119643188D01*
X111399964Y-119747938D01*
X111422821Y-119818284D01*
X111425412Y-119822772D01*
X111425413Y-119822774D01*
X111508773Y-119967157D01*
X111517467Y-119982216D01*
X111520939Y-119986072D01*
X111640659Y-120119035D01*
X111640663Y-120119038D01*
X111644129Y-120122888D01*
X111797270Y-120234151D01*
X111802002Y-120236258D01*
X111802004Y-120236259D01*
X111924614Y-120290849D01*
X111970197Y-120311144D01*
X111975267Y-120312222D01*
X111975268Y-120312222D01*
X111992332Y-120315849D01*
X112155354Y-120350500D01*
X112344646Y-120350500D01*
X112507668Y-120315849D01*
X112524732Y-120312222D01*
X112524733Y-120312222D01*
X112529803Y-120311144D01*
X112575386Y-120290849D01*
X112697996Y-120236259D01*
X112697998Y-120236258D01*
X112702730Y-120234151D01*
X112855871Y-120122888D01*
X112859337Y-120119038D01*
X112859341Y-120119035D01*
X112979061Y-119986072D01*
X112982533Y-119982216D01*
X112991227Y-119967157D01*
X113074587Y-119822774D01*
X113074588Y-119822772D01*
X113077179Y-119818284D01*
X113100036Y-119747938D01*
X113134072Y-119643188D01*
X113134073Y-119643183D01*
X113135674Y-119638256D01*
X113146013Y-119539882D01*
X114344602Y-119539882D01*
X114349863Y-119566330D01*
X114362191Y-119628306D01*
X114364005Y-119637428D01*
X114365865Y-119641918D01*
X114365866Y-119641922D01*
X114391078Y-119702789D01*
X114394530Y-119711122D01*
X114397231Y-119715164D01*
X114397233Y-119715168D01*
X114435376Y-119772251D01*
X114435835Y-119772938D01*
X114449783Y-119793813D01*
X114506185Y-119850215D01*
X114508937Y-119852054D01*
X114513842Y-119856499D01*
X114843501Y-120186158D01*
X114847946Y-120191063D01*
X114849785Y-120193815D01*
X114906186Y-120250216D01*
X114910230Y-120252918D01*
X114984833Y-120302767D01*
X114984839Y-120302770D01*
X114988881Y-120305471D01*
X114993381Y-120307335D01*
X115013936Y-120315849D01*
X115062573Y-120335995D01*
X115135494Y-120350500D01*
X115160118Y-120355398D01*
X115239882Y-120355398D01*
X115243127Y-120354753D01*
X115249731Y-120354428D01*
X115650269Y-120354428D01*
X115656873Y-120354753D01*
X115660118Y-120355398D01*
X115739882Y-120355398D01*
X115764506Y-120350500D01*
X115837427Y-120335995D01*
X115886064Y-120315849D01*
X115906619Y-120307335D01*
X115911119Y-120305471D01*
X115915161Y-120302770D01*
X115915167Y-120302767D01*
X115989770Y-120252918D01*
X115993814Y-120250216D01*
X116050216Y-120193814D01*
X116066234Y-120169841D01*
X116102767Y-120115167D01*
X116102770Y-120115161D01*
X116105471Y-120111119D01*
X116114510Y-120089298D01*
X116134134Y-120041920D01*
X116135995Y-120037427D01*
X116155398Y-119939882D01*
X116155398Y-119860118D01*
X116154753Y-119856873D01*
X116154428Y-119850269D01*
X116154428Y-118830692D01*
X116670748Y-118830692D01*
X116680507Y-118999959D01*
X116730361Y-119162011D01*
X116733422Y-119167126D01*
X116733424Y-119167130D01*
X116814364Y-119302371D01*
X116817431Y-119307495D01*
X116821629Y-119311738D01*
X116821632Y-119311741D01*
X116876678Y-119367366D01*
X116936690Y-119428010D01*
X117081254Y-119516598D01*
X117242775Y-119568146D01*
X117411930Y-119579678D01*
X117417802Y-119578653D01*
X117417805Y-119578653D01*
X117490836Y-119565906D01*
X117578954Y-119550527D01*
X117734202Y-119482379D01*
X117837678Y-119402978D01*
X118190412Y-119050244D01*
X118561161Y-118679496D01*
X118615678Y-118651719D01*
X118631165Y-118650500D01*
X121191231Y-118650500D01*
X121191750Y-118650501D01*
X121275138Y-118650938D01*
X121275140Y-118650938D01*
X121281105Y-118650969D01*
X121318723Y-118641938D01*
X121329924Y-118639923D01*
X121368320Y-118635276D01*
X121400568Y-118623090D01*
X121412444Y-118619436D01*
X121445968Y-118611388D01*
X121480329Y-118593653D01*
X121490741Y-118589017D01*
X121521340Y-118577455D01*
X121521343Y-118577454D01*
X121526923Y-118575345D01*
X121531836Y-118571968D01*
X121531846Y-118571963D01*
X121555335Y-118555818D01*
X121566006Y-118549431D01*
X121596631Y-118533625D01*
X121601130Y-118529701D01*
X121601132Y-118529699D01*
X121625779Y-118508199D01*
X121634783Y-118501214D01*
X121666651Y-118479312D01*
X121689582Y-118453575D01*
X121698418Y-118444831D01*
X121719899Y-118426092D01*
X121724396Y-118422169D01*
X121727826Y-118417288D01*
X121727830Y-118417284D01*
X121746633Y-118390530D01*
X121753711Y-118381599D01*
X121762202Y-118372069D01*
X121779440Y-118352721D01*
X121788701Y-118335230D01*
X121795572Y-118322254D01*
X121802066Y-118311656D01*
X121807993Y-118303222D01*
X121821887Y-118283453D01*
X121835933Y-118247427D01*
X121840677Y-118237064D01*
X121855984Y-118208155D01*
X121855985Y-118208152D01*
X121858776Y-118202881D01*
X121860612Y-118195572D01*
X121867174Y-118169448D01*
X121870953Y-118157606D01*
X121881309Y-118131044D01*
X121883476Y-118125487D01*
X121888525Y-118087139D01*
X121890660Y-118075947D01*
X121898627Y-118044231D01*
X121898627Y-118044228D01*
X121900081Y-118038441D01*
X121900288Y-117998903D01*
X121900342Y-117997371D01*
X121900500Y-117996174D01*
X121900500Y-117958769D01*
X121900501Y-117958250D01*
X121900947Y-117873115D01*
X121900947Y-117873113D01*
X121900969Y-117868895D01*
X121900619Y-117867439D01*
X121900500Y-117865371D01*
X121900500Y-108857484D01*
X121887475Y-108749850D01*
X121885993Y-108737602D01*
X121885992Y-108737599D01*
X121885276Y-108731680D01*
X121825345Y-108573077D01*
X121821741Y-108567832D01*
X121732692Y-108438267D01*
X121729312Y-108433349D01*
X121602721Y-108320560D01*
X121452881Y-108241224D01*
X121354842Y-108216598D01*
X121294231Y-108201373D01*
X121294228Y-108201373D01*
X121288441Y-108199919D01*
X121202841Y-108199471D01*
X121124861Y-108199062D01*
X121124859Y-108199062D01*
X121118895Y-108199031D01*
X121113099Y-108200423D01*
X121113095Y-108200423D01*
X121039685Y-108218048D01*
X120954032Y-108238612D01*
X120909331Y-108261684D01*
X120808675Y-108313636D01*
X120808673Y-108313638D01*
X120803369Y-108316375D01*
X120675604Y-108427831D01*
X120672173Y-108432713D01*
X120672172Y-108432714D01*
X120594496Y-108543236D01*
X120578113Y-108566547D01*
X120563407Y-108604266D01*
X120523698Y-108706114D01*
X120516524Y-108724513D01*
X120499500Y-108853826D01*
X120499500Y-111680242D01*
X120480593Y-111738433D01*
X120431093Y-111774397D01*
X120369907Y-111774397D01*
X120360470Y-111770788D01*
X120327020Y-111756000D01*
X120312815Y-111752127D01*
X120297420Y-111750332D01*
X120291708Y-111750000D01*
X119915680Y-111750000D01*
X119902995Y-111754122D01*
X119900000Y-111758243D01*
X119900000Y-112601000D01*
X119881093Y-112659191D01*
X119831593Y-112695155D01*
X119801000Y-112700000D01*
X118965680Y-112700000D01*
X118952995Y-112704122D01*
X118950000Y-112708243D01*
X118950000Y-113091639D01*
X118950346Y-113097485D01*
X118952234Y-113113353D01*
X118956128Y-113127519D01*
X118994770Y-113214514D01*
X119004946Y-113229321D01*
X119071108Y-113295367D01*
X119085934Y-113305519D01*
X119104853Y-113313883D01*
X119150429Y-113354705D01*
X119163306Y-113414520D01*
X119145819Y-113461354D01*
X119128113Y-113486547D01*
X119103814Y-113548871D01*
X119076984Y-113617686D01*
X119066524Y-113644513D01*
X119065745Y-113650428D01*
X119065745Y-113650429D01*
X119060737Y-113688474D01*
X119044394Y-113812611D01*
X119045049Y-113818544D01*
X119045049Y-113818548D01*
X119061313Y-113965867D01*
X119062999Y-113981135D01*
X119121266Y-114140356D01*
X119124591Y-114145305D01*
X119124592Y-114145306D01*
X119135493Y-114161528D01*
X119215830Y-114281083D01*
X119327374Y-114382580D01*
X119357687Y-114435725D01*
X119350973Y-114496541D01*
X119325824Y-114530404D01*
X119225604Y-114617831D01*
X119222173Y-114622713D01*
X119222172Y-114622714D01*
X119154468Y-114719048D01*
X119128113Y-114756547D01*
X119066524Y-114914513D01*
X119044394Y-115082611D01*
X119045049Y-115088544D01*
X119045049Y-115088548D01*
X119057040Y-115197159D01*
X119062999Y-115251135D01*
X119121266Y-115410356D01*
X119124591Y-115415305D01*
X119124592Y-115415306D01*
X119155003Y-115460562D01*
X119215830Y-115551083D01*
X119327374Y-115652580D01*
X119357687Y-115705725D01*
X119350973Y-115766541D01*
X119325824Y-115800404D01*
X119225604Y-115887831D01*
X119222173Y-115892713D01*
X119222172Y-115892714D01*
X119154468Y-115989048D01*
X119128113Y-116026547D01*
X119066524Y-116184513D01*
X119044394Y-116352611D01*
X119045049Y-116358544D01*
X119045049Y-116358548D01*
X119046841Y-116374778D01*
X119062999Y-116521135D01*
X119121266Y-116680356D01*
X119124591Y-116685305D01*
X119124592Y-116685306D01*
X119155003Y-116730562D01*
X119215830Y-116821083D01*
X119341233Y-116935191D01*
X119490235Y-117016092D01*
X119634728Y-117053999D01*
X119637553Y-117054740D01*
X119689041Y-117087795D01*
X119711267Y-117144801D01*
X119695741Y-117203984D01*
X119648393Y-117242737D01*
X119612431Y-117249500D01*
X118327729Y-117249500D01*
X118320995Y-117249271D01*
X118320683Y-117249250D01*
X118263070Y-117245322D01*
X118219960Y-117252846D01*
X118200182Y-117256297D01*
X118195057Y-117257054D01*
X118137602Y-117264007D01*
X118137599Y-117264008D01*
X118131680Y-117264724D01*
X118123079Y-117267974D01*
X118105105Y-117272891D01*
X118101929Y-117273445D01*
X118101926Y-117273446D01*
X118096047Y-117274472D01*
X118090579Y-117276872D01*
X118090580Y-117276872D01*
X118037590Y-117300132D01*
X118032794Y-117302090D01*
X117973077Y-117324655D01*
X117968160Y-117328034D01*
X117968157Y-117328036D01*
X117965501Y-117329862D01*
X117949219Y-117338925D01*
X117940798Y-117342621D01*
X117936066Y-117346252D01*
X117936061Y-117346255D01*
X117890146Y-117381487D01*
X117885954Y-117384533D01*
X117833349Y-117420688D01*
X117829379Y-117425144D01*
X117791880Y-117467232D01*
X117787966Y-117471378D01*
X117724608Y-117534735D01*
X117724604Y-117534739D01*
X116851713Y-118407629D01*
X116851705Y-118407638D01*
X116849608Y-118409735D01*
X116771416Y-118509457D01*
X116768961Y-118514893D01*
X116768961Y-118514894D01*
X116750483Y-118555818D01*
X116701645Y-118663984D01*
X116670748Y-118830692D01*
X116154428Y-118830692D01*
X116154428Y-118699731D01*
X116154753Y-118693127D01*
X116155398Y-118689882D01*
X116155398Y-118610118D01*
X116150500Y-118585494D01*
X116135995Y-118512573D01*
X116105471Y-118438881D01*
X116102770Y-118434839D01*
X116102767Y-118434833D01*
X116052918Y-118360230D01*
X116050216Y-118356186D01*
X115993814Y-118299784D01*
X115969373Y-118283453D01*
X115915167Y-118247233D01*
X115915161Y-118247230D01*
X115911119Y-118244529D01*
X115837427Y-118214005D01*
X115739882Y-118194602D01*
X115660118Y-118194602D01*
X115656873Y-118195247D01*
X115650269Y-118195572D01*
X114849731Y-118195572D01*
X114843127Y-118195247D01*
X114839882Y-118194602D01*
X114760118Y-118194602D01*
X114662573Y-118214005D01*
X114588881Y-118244529D01*
X114584839Y-118247230D01*
X114584833Y-118247233D01*
X114530627Y-118283453D01*
X114506186Y-118299784D01*
X114449784Y-118356186D01*
X114447082Y-118360230D01*
X114397233Y-118434833D01*
X114397230Y-118434839D01*
X114394529Y-118438881D01*
X114364005Y-118512573D01*
X114349500Y-118585494D01*
X114344602Y-118610118D01*
X114344602Y-118689882D01*
X114345247Y-118693127D01*
X114345572Y-118699731D01*
X114345572Y-119450269D01*
X114345247Y-119456873D01*
X114344602Y-119460118D01*
X114344602Y-119539882D01*
X113146013Y-119539882D01*
X113150500Y-119497192D01*
X113150500Y-119052808D01*
X113135674Y-118911744D01*
X113134073Y-118906817D01*
X113134072Y-118906812D01*
X113078781Y-118736646D01*
X113078780Y-118736645D01*
X113077179Y-118731716D01*
X113062746Y-118706716D01*
X112985126Y-118572275D01*
X112985125Y-118572274D01*
X112982533Y-118567784D01*
X112937113Y-118517340D01*
X112859341Y-118430965D01*
X112859337Y-118430962D01*
X112855871Y-118427112D01*
X112702730Y-118315849D01*
X112697998Y-118313742D01*
X112697996Y-118313741D01*
X112534540Y-118240965D01*
X112534539Y-118240965D01*
X112529803Y-118238856D01*
X112524733Y-118237778D01*
X112524732Y-118237778D01*
X112451597Y-118222233D01*
X112344646Y-118199500D01*
X112155354Y-118199500D01*
X112048403Y-118222233D01*
X111975268Y-118237778D01*
X111975267Y-118237778D01*
X111970197Y-118238856D01*
X111965461Y-118240965D01*
X111965460Y-118240965D01*
X111802004Y-118313741D01*
X111802002Y-118313742D01*
X111797270Y-118315849D01*
X111644129Y-118427112D01*
X111640663Y-118430962D01*
X111640659Y-118430965D01*
X111562887Y-118517340D01*
X111517467Y-118567784D01*
X111514875Y-118572274D01*
X111514874Y-118572275D01*
X111437255Y-118706716D01*
X111422821Y-118731716D01*
X111421220Y-118736645D01*
X111421219Y-118736646D01*
X111365928Y-118906812D01*
X111365927Y-118906817D01*
X111364326Y-118911744D01*
X111349500Y-119052808D01*
X111349500Y-119497192D01*
X110150500Y-119497192D01*
X110150500Y-119052808D01*
X110135674Y-118911744D01*
X110134073Y-118906817D01*
X110134072Y-118906812D01*
X110078781Y-118736646D01*
X110078780Y-118736645D01*
X110077179Y-118731716D01*
X110062746Y-118706716D01*
X109985126Y-118572275D01*
X109985125Y-118572274D01*
X109982533Y-118567784D01*
X109937113Y-118517340D01*
X109859341Y-118430965D01*
X109859337Y-118430962D01*
X109855871Y-118427112D01*
X109702730Y-118315849D01*
X109697998Y-118313742D01*
X109697996Y-118313741D01*
X109534540Y-118240965D01*
X109534539Y-118240965D01*
X109529803Y-118238856D01*
X109524733Y-118237778D01*
X109524732Y-118237778D01*
X109451597Y-118222233D01*
X109344646Y-118199500D01*
X109155354Y-118199500D01*
X109048403Y-118222233D01*
X108975268Y-118237778D01*
X108975267Y-118237778D01*
X108970197Y-118238856D01*
X108965461Y-118240965D01*
X108965460Y-118240965D01*
X108802004Y-118313741D01*
X108802002Y-118313742D01*
X108797270Y-118315849D01*
X108644129Y-118427112D01*
X108640663Y-118430962D01*
X108640659Y-118430965D01*
X108562887Y-118517340D01*
X108517467Y-118567784D01*
X108514875Y-118572274D01*
X108514874Y-118572275D01*
X108437255Y-118706716D01*
X108422821Y-118731716D01*
X108421220Y-118736645D01*
X108421219Y-118736646D01*
X108365928Y-118906812D01*
X108365927Y-118906817D01*
X108364326Y-118911744D01*
X108349500Y-119052808D01*
X108349500Y-119497192D01*
X104800500Y-119497192D01*
X104800500Y-118825154D01*
X104819407Y-118766963D01*
X104839232Y-118746612D01*
X104858645Y-118731716D01*
X104928282Y-118678282D01*
X105024536Y-118552841D01*
X105085044Y-118406762D01*
X105105682Y-118250000D01*
X105085044Y-118093238D01*
X105024536Y-117947159D01*
X104928282Y-117821718D01*
X104802841Y-117725464D01*
X104656762Y-117664956D01*
X104500000Y-117644318D01*
X104343238Y-117664956D01*
X104197159Y-117725464D01*
X104071718Y-117821718D01*
X103975464Y-117947159D01*
X103914956Y-118093238D01*
X103894318Y-118250000D01*
X103914956Y-118406762D01*
X103975464Y-118552841D01*
X104071718Y-118678282D01*
X104141355Y-118731716D01*
X104160768Y-118746612D01*
X104195423Y-118797037D01*
X104199500Y-118825154D01*
X104199500Y-123834521D01*
X104180593Y-123892712D01*
X104170504Y-123904525D01*
X104154525Y-123920504D01*
X104100008Y-123948281D01*
X104084521Y-123949500D01*
X87185854Y-123949500D01*
X87127663Y-123930593D01*
X87091699Y-123881093D01*
X87087701Y-123863421D01*
X87085891Y-123849674D01*
X87085044Y-123843238D01*
X87024536Y-123697159D01*
X86928282Y-123571718D01*
X86802841Y-123475464D01*
X86656762Y-123414956D01*
X86500000Y-123394318D01*
X86343238Y-123414956D01*
X86197159Y-123475464D01*
X86071718Y-123571718D01*
X85975464Y-123697159D01*
X85914956Y-123843238D01*
X85894318Y-124000000D01*
X73200500Y-124000000D01*
X73200500Y-121473266D01*
X90900000Y-121473266D01*
X90900253Y-121478263D01*
X90914866Y-121622128D01*
X90916871Y-121631897D01*
X90974626Y-121816189D01*
X90978555Y-121825356D01*
X91072189Y-121994278D01*
X91077875Y-122002459D01*
X91203558Y-122149096D01*
X91210791Y-122155983D01*
X91363385Y-122274347D01*
X91371847Y-122279635D01*
X91545127Y-122364900D01*
X91554487Y-122368381D01*
X91739020Y-122416448D01*
X91747226Y-122414250D01*
X91749663Y-122411240D01*
X91750000Y-122409425D01*
X91750000Y-122398017D01*
X92050000Y-122398017D01*
X92054122Y-122410702D01*
X92055161Y-122411457D01*
X92061411Y-122411971D01*
X92145010Y-122399328D01*
X92154682Y-122396845D01*
X92335929Y-122330159D01*
X92344892Y-122325788D01*
X92509028Y-122224019D01*
X92516936Y-122217929D01*
X92657256Y-122085235D01*
X92663776Y-122077681D01*
X92774549Y-121919482D01*
X92779415Y-121910776D01*
X92856114Y-121733533D01*
X92859132Y-121724018D01*
X92898873Y-121533793D01*
X92899850Y-121526265D01*
X92899931Y-121524716D01*
X92900000Y-121522105D01*
X92900000Y-121472192D01*
X93999500Y-121472192D01*
X94014326Y-121613256D01*
X94015927Y-121618183D01*
X94015928Y-121618188D01*
X94071219Y-121788354D01*
X94072821Y-121793284D01*
X94075412Y-121797772D01*
X94075413Y-121797774D01*
X94157090Y-121939243D01*
X94167467Y-121957216D01*
X94170939Y-121961072D01*
X94290659Y-122094035D01*
X94290663Y-122094038D01*
X94294129Y-122097888D01*
X94447270Y-122209151D01*
X94452002Y-122211258D01*
X94452004Y-122211259D01*
X94536814Y-122249019D01*
X94620197Y-122286144D01*
X94625267Y-122287222D01*
X94625268Y-122287222D01*
X94648340Y-122292126D01*
X94805354Y-122325500D01*
X94994646Y-122325500D01*
X95151660Y-122292126D01*
X95174732Y-122287222D01*
X95174733Y-122287222D01*
X95179803Y-122286144D01*
X95263186Y-122249019D01*
X95347996Y-122211259D01*
X95347998Y-122211258D01*
X95352730Y-122209151D01*
X95505871Y-122097888D01*
X95509337Y-122094038D01*
X95509341Y-122094035D01*
X95626929Y-121963440D01*
X95679917Y-121932847D01*
X95740767Y-121939243D01*
X95786237Y-121980184D01*
X95799500Y-122029684D01*
X95799500Y-122542516D01*
X95802274Y-122565443D01*
X95811904Y-122645015D01*
X95814724Y-122668320D01*
X95874655Y-122826923D01*
X95970688Y-122966651D01*
X96097279Y-123079440D01*
X96247119Y-123158776D01*
X96329339Y-123179429D01*
X96405769Y-123198627D01*
X96405772Y-123198627D01*
X96411559Y-123200081D01*
X96497159Y-123200529D01*
X96575139Y-123200938D01*
X96575141Y-123200938D01*
X96581105Y-123200969D01*
X96586901Y-123199577D01*
X96586905Y-123199577D01*
X96694297Y-123173793D01*
X96745968Y-123161388D01*
X96821299Y-123122507D01*
X96891325Y-123086364D01*
X96891327Y-123086362D01*
X96896631Y-123083625D01*
X97024396Y-122972169D01*
X97121887Y-122833453D01*
X97183476Y-122675487D01*
X97200500Y-122546174D01*
X97200500Y-120198421D01*
X97217184Y-120143420D01*
X97250182Y-120094035D01*
X97255471Y-120086119D01*
X97285995Y-120012427D01*
X97305398Y-119914882D01*
X97305398Y-119835118D01*
X97304753Y-119831873D01*
X97304428Y-119825269D01*
X97304428Y-118674731D01*
X97304753Y-118668127D01*
X97305398Y-118664882D01*
X97305398Y-118585118D01*
X97300500Y-118560494D01*
X97285995Y-118487573D01*
X97255471Y-118413881D01*
X97252770Y-118409839D01*
X97252767Y-118409833D01*
X97202918Y-118335230D01*
X97200216Y-118331186D01*
X97143814Y-118274784D01*
X97130401Y-118265822D01*
X97065167Y-118222233D01*
X97065161Y-118222230D01*
X97061119Y-118219529D01*
X97000940Y-118194602D01*
X96991920Y-118190866D01*
X96987427Y-118189005D01*
X96889882Y-118169602D01*
X96810118Y-118169602D01*
X96806873Y-118170247D01*
X96800269Y-118170572D01*
X95999731Y-118170572D01*
X95993127Y-118170247D01*
X95989882Y-118169602D01*
X95910118Y-118169602D01*
X95812573Y-118189005D01*
X95808080Y-118190866D01*
X95799061Y-118194602D01*
X95738881Y-118219529D01*
X95734839Y-118222230D01*
X95734833Y-118222233D01*
X95669599Y-118265822D01*
X95656186Y-118274784D01*
X95599784Y-118331186D01*
X95597082Y-118335230D01*
X95547233Y-118409833D01*
X95547230Y-118409839D01*
X95544529Y-118413881D01*
X95514005Y-118487573D01*
X95499500Y-118560494D01*
X95494602Y-118585118D01*
X95494602Y-118664882D01*
X95495247Y-118668127D01*
X95495572Y-118674731D01*
X95495572Y-119425269D01*
X95495247Y-119431873D01*
X95494602Y-119435118D01*
X95494602Y-119514882D01*
X95514005Y-119612428D01*
X95515865Y-119616918D01*
X95515866Y-119616922D01*
X95542668Y-119681627D01*
X95544530Y-119686122D01*
X95547231Y-119690164D01*
X95547233Y-119690168D01*
X95563938Y-119715168D01*
X95585835Y-119747938D01*
X95599783Y-119768813D01*
X95656185Y-119825215D01*
X95658937Y-119827054D01*
X95663842Y-119831499D01*
X95770504Y-119938161D01*
X95798281Y-119992678D01*
X95799500Y-120008165D01*
X95799500Y-120470316D01*
X95780593Y-120528507D01*
X95731093Y-120564471D01*
X95669907Y-120564471D01*
X95626929Y-120536560D01*
X95509341Y-120405965D01*
X95509337Y-120405962D01*
X95505871Y-120402112D01*
X95352730Y-120290849D01*
X95347998Y-120288742D01*
X95347996Y-120288741D01*
X95184540Y-120215965D01*
X95184539Y-120215965D01*
X95179803Y-120213856D01*
X95174733Y-120212778D01*
X95174732Y-120212778D01*
X95117339Y-120200579D01*
X94994646Y-120174500D01*
X94805354Y-120174500D01*
X94682661Y-120200579D01*
X94625268Y-120212778D01*
X94625267Y-120212778D01*
X94620197Y-120213856D01*
X94615461Y-120215965D01*
X94615460Y-120215965D01*
X94452004Y-120288741D01*
X94452002Y-120288742D01*
X94447270Y-120290849D01*
X94294129Y-120402112D01*
X94290663Y-120405962D01*
X94290659Y-120405965D01*
X94208204Y-120497541D01*
X94167467Y-120542784D01*
X94164875Y-120547274D01*
X94164874Y-120547275D01*
X94091338Y-120674644D01*
X94072821Y-120706716D01*
X94071220Y-120711645D01*
X94071219Y-120711646D01*
X94015928Y-120881812D01*
X94015927Y-120881817D01*
X94014326Y-120886744D01*
X93999500Y-121027808D01*
X93999500Y-121472192D01*
X92900000Y-121472192D01*
X92900000Y-121415680D01*
X92895878Y-121402995D01*
X92891757Y-121400000D01*
X92065680Y-121400000D01*
X92052995Y-121404122D01*
X92050000Y-121408243D01*
X92050000Y-122398017D01*
X91750000Y-122398017D01*
X91750000Y-121415680D01*
X91745878Y-121402995D01*
X91741757Y-121400000D01*
X90915680Y-121400000D01*
X90902995Y-121404122D01*
X90900000Y-121408243D01*
X90900000Y-121473266D01*
X73200500Y-121473266D01*
X73200500Y-121084320D01*
X90900000Y-121084320D01*
X90904122Y-121097005D01*
X90908243Y-121100000D01*
X91734320Y-121100000D01*
X91747005Y-121095878D01*
X91750000Y-121091757D01*
X91750000Y-121084320D01*
X92050000Y-121084320D01*
X92054122Y-121097005D01*
X92058243Y-121100000D01*
X92884320Y-121100000D01*
X92897005Y-121095878D01*
X92900000Y-121091757D01*
X92900000Y-121026734D01*
X92899747Y-121021737D01*
X92885134Y-120877872D01*
X92883129Y-120868103D01*
X92825374Y-120683811D01*
X92821445Y-120674644D01*
X92727811Y-120505722D01*
X92722125Y-120497541D01*
X92596442Y-120350904D01*
X92589209Y-120344017D01*
X92436615Y-120225653D01*
X92428153Y-120220365D01*
X92254873Y-120135100D01*
X92245513Y-120131619D01*
X92060980Y-120083552D01*
X92052774Y-120085750D01*
X92050337Y-120088760D01*
X92050000Y-120090575D01*
X92050000Y-121084320D01*
X91750000Y-121084320D01*
X91750000Y-120101983D01*
X91745878Y-120089298D01*
X91744839Y-120088543D01*
X91738589Y-120088029D01*
X91654990Y-120100672D01*
X91645318Y-120103155D01*
X91464071Y-120169841D01*
X91455108Y-120174212D01*
X91290972Y-120275981D01*
X91283064Y-120282071D01*
X91142744Y-120414765D01*
X91136224Y-120422319D01*
X91025451Y-120580518D01*
X91020585Y-120589224D01*
X90943886Y-120766467D01*
X90940868Y-120775982D01*
X90901127Y-120966207D01*
X90900150Y-120973735D01*
X90900069Y-120975284D01*
X90900000Y-120977895D01*
X90900000Y-121084320D01*
X73200500Y-121084320D01*
X73200500Y-119472192D01*
X92499500Y-119472192D01*
X92514326Y-119613256D01*
X92515927Y-119618183D01*
X92515928Y-119618188D01*
X92547439Y-119715168D01*
X92572821Y-119793284D01*
X92575412Y-119797772D01*
X92575413Y-119797774D01*
X92656800Y-119938740D01*
X92667467Y-119957216D01*
X92670939Y-119961072D01*
X92790659Y-120094035D01*
X92790663Y-120094038D01*
X92794129Y-120097888D01*
X92947270Y-120209151D01*
X92952002Y-120211258D01*
X92952004Y-120211259D01*
X93039502Y-120250216D01*
X93120197Y-120286144D01*
X93125267Y-120287222D01*
X93125268Y-120287222D01*
X93132415Y-120288741D01*
X93305354Y-120325500D01*
X93494646Y-120325500D01*
X93667585Y-120288741D01*
X93674732Y-120287222D01*
X93674733Y-120287222D01*
X93679803Y-120286144D01*
X93760498Y-120250216D01*
X93847996Y-120211259D01*
X93847998Y-120211258D01*
X93852730Y-120209151D01*
X94005871Y-120097888D01*
X94009337Y-120094038D01*
X94009341Y-120094035D01*
X94129061Y-119961072D01*
X94132533Y-119957216D01*
X94143200Y-119938740D01*
X94224587Y-119797774D01*
X94224588Y-119797772D01*
X94227179Y-119793284D01*
X94252561Y-119715168D01*
X94284072Y-119618188D01*
X94284073Y-119618183D01*
X94285674Y-119613256D01*
X94300500Y-119472192D01*
X94300500Y-119027808D01*
X94285674Y-118886744D01*
X94284073Y-118881817D01*
X94284072Y-118881812D01*
X94228781Y-118711646D01*
X94228780Y-118711645D01*
X94227179Y-118706716D01*
X94223147Y-118699731D01*
X94135126Y-118547275D01*
X94135125Y-118547274D01*
X94132533Y-118542784D01*
X94102525Y-118509457D01*
X94009341Y-118405965D01*
X94009337Y-118405962D01*
X94005871Y-118402112D01*
X93852730Y-118290849D01*
X93847998Y-118288742D01*
X93847996Y-118288741D01*
X93684540Y-118215965D01*
X93684539Y-118215965D01*
X93679803Y-118213856D01*
X93674733Y-118212778D01*
X93674732Y-118212778D01*
X93617339Y-118200579D01*
X93494646Y-118174500D01*
X93305354Y-118174500D01*
X93182661Y-118200579D01*
X93125268Y-118212778D01*
X93125267Y-118212778D01*
X93120197Y-118213856D01*
X93115461Y-118215965D01*
X93115460Y-118215965D01*
X92952004Y-118288741D01*
X92952002Y-118288742D01*
X92947270Y-118290849D01*
X92794129Y-118402112D01*
X92790663Y-118405962D01*
X92790659Y-118405965D01*
X92697475Y-118509457D01*
X92667467Y-118542784D01*
X92664875Y-118547274D01*
X92664874Y-118547275D01*
X92576854Y-118699731D01*
X92572821Y-118706716D01*
X92571220Y-118711645D01*
X92571219Y-118711646D01*
X92515928Y-118881812D01*
X92515927Y-118881817D01*
X92514326Y-118886744D01*
X92499500Y-119027808D01*
X92499500Y-119472192D01*
X73200500Y-119472192D01*
X73200500Y-114031105D01*
X74399031Y-114031105D01*
X74400423Y-114036901D01*
X74400423Y-114036905D01*
X74416199Y-114102612D01*
X74438612Y-114195968D01*
X74459149Y-114235757D01*
X74495720Y-114306612D01*
X74516375Y-114346631D01*
X74627831Y-114474396D01*
X74632713Y-114477827D01*
X74632714Y-114477828D01*
X74750073Y-114560309D01*
X74766547Y-114571887D01*
X74838575Y-114599970D01*
X74911153Y-114628267D01*
X74924513Y-114633476D01*
X74930428Y-114634255D01*
X74930429Y-114634255D01*
X75043624Y-114649157D01*
X75053826Y-114650500D01*
X76142516Y-114650500D01*
X76165443Y-114647726D01*
X76262398Y-114635993D01*
X76262401Y-114635992D01*
X76268320Y-114635276D01*
X76426923Y-114575345D01*
X76431840Y-114571965D01*
X76431843Y-114571964D01*
X76561733Y-114482692D01*
X76566651Y-114479312D01*
X76679440Y-114352721D01*
X76682665Y-114346631D01*
X76711172Y-114292790D01*
X76758776Y-114202881D01*
X76786294Y-114093328D01*
X76798627Y-114044231D01*
X76798627Y-114044228D01*
X76800081Y-114038441D01*
X76800969Y-113868895D01*
X76795903Y-113847791D01*
X76762781Y-113709835D01*
X76761388Y-113704032D01*
X76722507Y-113628701D01*
X76686364Y-113558675D01*
X76686362Y-113558673D01*
X76683625Y-113553369D01*
X76572169Y-113425604D01*
X76520988Y-113389633D01*
X76438335Y-113331544D01*
X76438334Y-113331544D01*
X76433453Y-113328113D01*
X76275487Y-113266524D01*
X76269572Y-113265745D01*
X76269571Y-113265745D01*
X76149387Y-113249923D01*
X76146174Y-113249500D01*
X75057484Y-113249500D01*
X75053989Y-113249923D01*
X74937602Y-113264007D01*
X74937599Y-113264008D01*
X74931680Y-113264724D01*
X74773077Y-113324655D01*
X74768160Y-113328035D01*
X74768157Y-113328036D01*
X74678534Y-113389633D01*
X74633349Y-113420688D01*
X74520560Y-113547279D01*
X74517770Y-113552549D01*
X74517769Y-113552550D01*
X74514526Y-113558675D01*
X74441224Y-113697119D01*
X74420571Y-113779339D01*
X74404301Y-113844115D01*
X74399919Y-113861559D01*
X74399471Y-113947159D01*
X74399092Y-114019520D01*
X74399031Y-114031105D01*
X73200500Y-114031105D01*
X73200500Y-112293512D01*
X75794500Y-112293512D01*
X75794940Y-112306953D01*
X75795787Y-112319875D01*
X75797105Y-112333258D01*
X75797205Y-112334015D01*
X75797208Y-112334044D01*
X75811384Y-112441719D01*
X75811594Y-112443311D01*
X75816838Y-112469674D01*
X75823527Y-112494638D01*
X75832168Y-112520092D01*
X75872142Y-112616598D01*
X75884030Y-112640705D01*
X75896952Y-112663087D01*
X75911887Y-112685440D01*
X75912862Y-112686711D01*
X75912868Y-112686719D01*
X75974494Y-112767031D01*
X75974502Y-112767041D01*
X75975479Y-112768314D01*
X75993203Y-112788523D01*
X76011477Y-112806797D01*
X76031686Y-112824521D01*
X76032959Y-112825498D01*
X76032969Y-112825506D01*
X76113281Y-112887132D01*
X76113289Y-112887138D01*
X76114560Y-112888113D01*
X76136913Y-112903048D01*
X76138316Y-112903858D01*
X76154759Y-112913351D01*
X76159295Y-112915970D01*
X76183402Y-112927858D01*
X76184889Y-112928474D01*
X76184898Y-112928478D01*
X76278398Y-112967207D01*
X76278410Y-112967212D01*
X76279908Y-112967832D01*
X76305362Y-112976473D01*
X76312005Y-112978253D01*
X76328768Y-112982745D01*
X76328781Y-112982748D01*
X76330326Y-112983162D01*
X76331899Y-112983475D01*
X76331908Y-112983477D01*
X76355119Y-112988094D01*
X76355128Y-112988095D01*
X76356689Y-112988406D01*
X76358269Y-112988614D01*
X76358281Y-112988616D01*
X76465956Y-113002792D01*
X76465985Y-113002795D01*
X76466742Y-113002895D01*
X76467515Y-113002971D01*
X76467540Y-113002974D01*
X76473214Y-113003532D01*
X76480125Y-113004213D01*
X76485408Y-113004559D01*
X76492221Y-113005006D01*
X76492230Y-113005006D01*
X76493047Y-113005060D01*
X76506488Y-113005500D01*
X78625941Y-113005500D01*
X78650121Y-113001994D01*
X78680779Y-112997549D01*
X78680785Y-112997548D01*
X78684307Y-112997037D01*
X78723982Y-112985285D01*
X78736418Y-112981601D01*
X78736421Y-112981600D01*
X78738227Y-112981065D01*
X78745594Y-112978253D01*
X78760664Y-112972501D01*
X78760667Y-112972499D01*
X78767639Y-112969838D01*
X78773509Y-112965228D01*
X78773511Y-112965227D01*
X78782928Y-112957831D01*
X78840371Y-112936760D01*
X78899228Y-112953478D01*
X78904341Y-112957149D01*
X78984617Y-113018747D01*
X78984621Y-113018749D01*
X78989767Y-113022698D01*
X78995756Y-113025179D01*
X78995760Y-113025181D01*
X79078164Y-113059314D01*
X79124690Y-113099051D01*
X79138973Y-113158546D01*
X79115558Y-113215074D01*
X79074058Y-113243836D01*
X78927939Y-113296875D01*
X78923130Y-113300028D01*
X78923126Y-113300030D01*
X78880293Y-113328113D01*
X78786460Y-113389633D01*
X78670115Y-113512450D01*
X78667229Y-113517419D01*
X78589244Y-113651680D01*
X78585144Y-113658738D01*
X78573033Y-113698726D01*
X78538540Y-113812611D01*
X78536105Y-113820650D01*
X78525630Y-113989501D01*
X78554280Y-114156233D01*
X78620518Y-114311902D01*
X78720791Y-114448158D01*
X78725173Y-114451881D01*
X78725175Y-114451883D01*
X78789316Y-114506375D01*
X78849720Y-114557692D01*
X79000389Y-114634627D01*
X79005974Y-114635994D01*
X79005975Y-114635994D01*
X79160437Y-114673791D01*
X79160440Y-114673792D01*
X79164717Y-114674838D01*
X79169115Y-114675111D01*
X79169116Y-114675111D01*
X79173872Y-114675406D01*
X79173874Y-114675406D01*
X79175388Y-114675500D01*
X80347363Y-114675500D01*
X80473037Y-114660848D01*
X80478443Y-114658886D01*
X80478446Y-114658885D01*
X80626653Y-114605088D01*
X80632061Y-114603125D01*
X80636870Y-114599972D01*
X80636874Y-114599970D01*
X80707041Y-114553966D01*
X80773540Y-114510367D01*
X80889885Y-114387550D01*
X80894832Y-114379034D01*
X80971967Y-114246236D01*
X80971967Y-114246235D01*
X80974856Y-114241262D01*
X81018784Y-114096226D01*
X81022228Y-114084855D01*
X81022228Y-114084852D01*
X81023895Y-114079350D01*
X81032342Y-113943183D01*
X81034014Y-113916239D01*
X81034014Y-113916238D01*
X81034370Y-113910499D01*
X81005720Y-113743767D01*
X80967423Y-113653764D01*
X80941733Y-113593388D01*
X80941733Y-113593387D01*
X80939482Y-113588098D01*
X80864749Y-113486547D01*
X80842618Y-113456474D01*
X80842617Y-113456473D01*
X80839209Y-113451842D01*
X80834827Y-113448119D01*
X80834825Y-113448117D01*
X80714666Y-113346034D01*
X80714665Y-113346033D01*
X80710280Y-113342308D01*
X80559611Y-113265373D01*
X80554025Y-113264006D01*
X80399563Y-113226209D01*
X80399560Y-113226208D01*
X80395283Y-113225162D01*
X80390885Y-113224889D01*
X80390884Y-113224889D01*
X80386128Y-113224594D01*
X80386126Y-113224594D01*
X80384612Y-113224500D01*
X79580747Y-113224500D01*
X79522556Y-113205593D01*
X79486592Y-113156093D01*
X79486592Y-113094907D01*
X79522556Y-113045407D01*
X79542861Y-113034036D01*
X79564240Y-113025181D01*
X79564244Y-113025179D01*
X79570233Y-113022698D01*
X79575375Y-113018752D01*
X79575379Y-113018750D01*
X79656721Y-112956333D01*
X79714397Y-112935909D01*
X79767765Y-112949888D01*
X79812366Y-112976536D01*
X79817649Y-112978252D01*
X79817650Y-112978253D01*
X79849545Y-112988616D01*
X79870557Y-112995443D01*
X79874401Y-112996052D01*
X79874406Y-112996053D01*
X79930211Y-113004891D01*
X79930216Y-113004891D01*
X79934059Y-113005500D01*
X81693512Y-113005500D01*
X81706953Y-113005060D01*
X81707770Y-113005006D01*
X81707779Y-113005006D01*
X81714592Y-113004559D01*
X81719875Y-113004213D01*
X81726786Y-113003532D01*
X81732460Y-113002974D01*
X81732485Y-113002971D01*
X81733258Y-113002895D01*
X81734015Y-113002795D01*
X81734044Y-113002792D01*
X81841719Y-112988616D01*
X81841731Y-112988614D01*
X81843311Y-112988406D01*
X81844872Y-112988095D01*
X81844881Y-112988094D01*
X81868092Y-112983477D01*
X81868101Y-112983475D01*
X81869674Y-112983162D01*
X81871219Y-112982748D01*
X81871232Y-112982745D01*
X81887995Y-112978253D01*
X81894638Y-112976473D01*
X81920092Y-112967832D01*
X81921590Y-112967212D01*
X81921602Y-112967207D01*
X82015102Y-112928478D01*
X82015111Y-112928474D01*
X82016598Y-112927858D01*
X82040705Y-112915970D01*
X82045242Y-112913351D01*
X82061684Y-112903858D01*
X82063087Y-112903048D01*
X82085440Y-112888113D01*
X82086711Y-112887138D01*
X82086719Y-112887132D01*
X82167031Y-112825506D01*
X82167041Y-112825498D01*
X82168314Y-112824521D01*
X82188523Y-112806797D01*
X82206797Y-112788523D01*
X82224521Y-112768314D01*
X82225498Y-112767041D01*
X82225506Y-112767031D01*
X82287132Y-112686719D01*
X82287138Y-112686711D01*
X82288113Y-112685440D01*
X82303048Y-112663087D01*
X82315970Y-112640705D01*
X82327858Y-112616598D01*
X82367832Y-112520092D01*
X82376473Y-112494638D01*
X82383162Y-112469674D01*
X82388406Y-112443311D01*
X82388616Y-112441719D01*
X82402792Y-112334044D01*
X82402795Y-112334015D01*
X82402895Y-112333258D01*
X82404213Y-112319875D01*
X82405060Y-112306953D01*
X82405500Y-112293512D01*
X82405500Y-111306488D01*
X82405060Y-111293047D01*
X82404213Y-111280125D01*
X82402895Y-111266742D01*
X82396450Y-111217782D01*
X82388616Y-111158281D01*
X82388614Y-111158269D01*
X82388406Y-111156689D01*
X82388094Y-111155119D01*
X82383477Y-111131908D01*
X82383475Y-111131899D01*
X82383162Y-111130326D01*
X82376473Y-111105362D01*
X82367832Y-111079908D01*
X82327858Y-110983402D01*
X82315970Y-110959295D01*
X82303048Y-110936913D01*
X82288113Y-110914560D01*
X82287132Y-110913281D01*
X82225506Y-110832969D01*
X82225498Y-110832959D01*
X82224521Y-110831686D01*
X82206797Y-110811477D01*
X82188523Y-110793203D01*
X82184301Y-110789500D01*
X94394318Y-110789500D01*
X94414956Y-110946262D01*
X94475464Y-111092341D01*
X94571718Y-111217782D01*
X94697159Y-111314036D01*
X94843238Y-111374544D01*
X95000000Y-111395182D01*
X95156762Y-111374544D01*
X95302841Y-111314036D01*
X95428282Y-111217782D01*
X95458246Y-111178733D01*
X95508669Y-111144077D01*
X95536787Y-111140000D01*
X97825500Y-111140000D01*
X97883691Y-111158907D01*
X97919655Y-111208407D01*
X97924500Y-111239000D01*
X97924500Y-113576678D01*
X97905593Y-113634869D01*
X97895504Y-113646682D01*
X96656146Y-114886040D01*
X96605553Y-114910988D01*
X96605939Y-114912429D01*
X96599668Y-114914109D01*
X96593238Y-114914956D01*
X96447159Y-114975464D01*
X96321718Y-115071718D01*
X96225464Y-115197159D01*
X96164956Y-115343238D01*
X96144318Y-115500000D01*
X96164956Y-115656762D01*
X96225464Y-115802841D01*
X96321718Y-115928282D01*
X96447159Y-116024536D01*
X96593238Y-116085044D01*
X96750000Y-116105682D01*
X96906762Y-116085044D01*
X97052841Y-116024536D01*
X97178282Y-115928282D01*
X97274536Y-115802841D01*
X97335044Y-115656762D01*
X97335891Y-115650332D01*
X97337571Y-115644061D01*
X97339012Y-115644447D01*
X97363960Y-115593854D01*
X98326328Y-114631485D01*
X98326343Y-114631471D01*
X98731419Y-114226395D01*
X98741399Y-114218421D01*
X98741384Y-114218404D01*
X98746754Y-114213834D01*
X98752720Y-114210070D01*
X98757388Y-114204785D01*
X98757391Y-114204782D01*
X98788292Y-114169792D01*
X98792492Y-114165322D01*
X98804321Y-114153493D01*
X98811106Y-114144440D01*
X98816101Y-114138304D01*
X98847623Y-114102612D01*
X98850620Y-114096229D01*
X98850622Y-114096226D01*
X98851983Y-114093328D01*
X98862372Y-114076038D01*
X98864297Y-114073470D01*
X98864301Y-114073464D01*
X98868527Y-114067824D01*
X98877372Y-114044231D01*
X98885238Y-114023247D01*
X98888324Y-114015924D01*
X98905552Y-113979230D01*
X98905553Y-113979227D01*
X98908553Y-113972837D01*
X98910132Y-113962698D01*
X98915252Y-113943183D01*
X98916377Y-113940183D01*
X98916377Y-113940181D01*
X98918852Y-113933580D01*
X98922381Y-113886092D01*
X98923287Y-113878207D01*
X98924912Y-113867772D01*
X98924913Y-113867764D01*
X98925500Y-113863991D01*
X98925500Y-113847791D01*
X98925772Y-113840455D01*
X98926817Y-113826393D01*
X98929476Y-113790608D01*
X98927681Y-113782199D01*
X98925500Y-113761532D01*
X98925500Y-112384320D01*
X118950000Y-112384320D01*
X118954122Y-112397005D01*
X118958243Y-112400000D01*
X119584320Y-112400000D01*
X119597005Y-112395878D01*
X119600000Y-112391757D01*
X119600000Y-111765680D01*
X119595878Y-111752995D01*
X119591757Y-111750000D01*
X119208361Y-111750000D01*
X119202515Y-111750346D01*
X119186647Y-111752234D01*
X119172481Y-111756128D01*
X119085486Y-111794770D01*
X119070679Y-111804946D01*
X119004633Y-111871108D01*
X118994483Y-111885931D01*
X118956000Y-111972980D01*
X118952127Y-111987185D01*
X118950332Y-112002580D01*
X118950000Y-112008292D01*
X118950000Y-112384320D01*
X98925500Y-112384320D01*
X98925500Y-108742166D01*
X98926919Y-108729465D01*
X98926897Y-108729463D01*
X98927463Y-108722431D01*
X98929019Y-108715553D01*
X98925690Y-108661898D01*
X98925500Y-108655767D01*
X98925500Y-108639060D01*
X98925001Y-108635573D01*
X98925000Y-108635565D01*
X98923899Y-108627879D01*
X98923089Y-108619976D01*
X98920578Y-108579499D01*
X98920577Y-108579496D01*
X98920141Y-108572462D01*
X98917748Y-108565833D01*
X98917747Y-108565829D01*
X98916658Y-108562813D01*
X98911777Y-108543236D01*
X98911323Y-108540064D01*
X98911323Y-108540063D01*
X98910323Y-108533082D01*
X98907404Y-108526663D01*
X98907403Y-108526658D01*
X98890619Y-108489743D01*
X98887623Y-108482385D01*
X98873855Y-108444248D01*
X98871460Y-108437613D01*
X98865408Y-108429328D01*
X98855232Y-108411914D01*
X98850984Y-108402572D01*
X98822515Y-108369532D01*
X98819907Y-108366505D01*
X98814967Y-108360284D01*
X98814049Y-108359028D01*
X98806478Y-108348664D01*
X98795014Y-108337200D01*
X98790019Y-108331819D01*
X98762005Y-108299307D01*
X98762004Y-108299306D01*
X98757400Y-108293963D01*
X98750189Y-108289289D01*
X98734032Y-108276218D01*
X98369225Y-107911411D01*
X118013029Y-107911411D01*
X118025672Y-107995010D01*
X118028155Y-108004682D01*
X118094841Y-108185929D01*
X118099212Y-108194892D01*
X118200981Y-108359028D01*
X118207071Y-108366936D01*
X118339765Y-108507256D01*
X118347319Y-108513776D01*
X118505518Y-108624549D01*
X118514224Y-108629415D01*
X118691467Y-108706114D01*
X118700982Y-108709132D01*
X118891207Y-108748873D01*
X118898735Y-108749850D01*
X118900284Y-108749931D01*
X118902895Y-108750000D01*
X119009320Y-108750000D01*
X119022005Y-108745878D01*
X119025000Y-108741757D01*
X119025000Y-108734320D01*
X119325000Y-108734320D01*
X119329122Y-108747005D01*
X119333243Y-108750000D01*
X119398266Y-108750000D01*
X119403263Y-108749747D01*
X119547128Y-108735134D01*
X119556897Y-108733129D01*
X119741189Y-108675374D01*
X119750356Y-108671445D01*
X119919278Y-108577811D01*
X119927459Y-108572125D01*
X120074096Y-108446442D01*
X120080983Y-108439209D01*
X120199347Y-108286615D01*
X120204635Y-108278153D01*
X120289900Y-108104873D01*
X120293381Y-108095513D01*
X120341448Y-107910980D01*
X120339250Y-107902774D01*
X120336240Y-107900337D01*
X120334425Y-107900000D01*
X119340680Y-107900000D01*
X119327995Y-107904122D01*
X119325000Y-107908243D01*
X119325000Y-108734320D01*
X119025000Y-108734320D01*
X119025000Y-107915680D01*
X119020878Y-107902995D01*
X119016757Y-107900000D01*
X118026983Y-107900000D01*
X118014298Y-107904122D01*
X118013543Y-107905161D01*
X118013029Y-107911411D01*
X98369225Y-107911411D01*
X98151395Y-107693581D01*
X98143421Y-107683601D01*
X98143404Y-107683616D01*
X98138834Y-107678246D01*
X98135070Y-107672280D01*
X98129785Y-107667612D01*
X98129782Y-107667609D01*
X98094792Y-107636708D01*
X98090322Y-107632508D01*
X98078494Y-107620680D01*
X98069447Y-107613900D01*
X98063301Y-107608896D01*
X98040795Y-107589020D01*
X118008552Y-107589020D01*
X118010750Y-107597226D01*
X118013760Y-107599663D01*
X118015575Y-107600000D01*
X119009320Y-107600000D01*
X119022005Y-107595878D01*
X119025000Y-107591757D01*
X119025000Y-107584320D01*
X119325000Y-107584320D01*
X119329122Y-107597005D01*
X119333243Y-107600000D01*
X120323017Y-107600000D01*
X120335702Y-107595878D01*
X120336457Y-107594839D01*
X120336971Y-107588589D01*
X120324328Y-107504990D01*
X120321845Y-107495318D01*
X120255159Y-107314071D01*
X120250788Y-107305108D01*
X120149019Y-107140972D01*
X120142929Y-107133064D01*
X120010235Y-106992744D01*
X120002681Y-106986224D01*
X119844482Y-106875451D01*
X119835776Y-106870585D01*
X119658533Y-106793886D01*
X119649018Y-106790868D01*
X119458793Y-106751127D01*
X119451265Y-106750150D01*
X119449716Y-106750069D01*
X119447105Y-106750000D01*
X119340680Y-106750000D01*
X119327995Y-106754122D01*
X119325000Y-106758243D01*
X119325000Y-107584320D01*
X119025000Y-107584320D01*
X119025000Y-106765680D01*
X119020878Y-106752995D01*
X119016757Y-106750000D01*
X118951734Y-106750000D01*
X118946737Y-106750253D01*
X118802872Y-106764866D01*
X118793103Y-106766871D01*
X118608811Y-106824626D01*
X118599644Y-106828555D01*
X118430722Y-106922189D01*
X118422541Y-106927875D01*
X118275904Y-107053558D01*
X118269017Y-107060791D01*
X118150653Y-107213385D01*
X118145365Y-107221847D01*
X118060100Y-107395127D01*
X118056619Y-107404487D01*
X118008552Y-107589020D01*
X98040795Y-107589020D01*
X98027612Y-107577377D01*
X98018329Y-107573018D01*
X98001034Y-107562627D01*
X97992824Y-107556474D01*
X97971047Y-107548310D01*
X97948254Y-107539765D01*
X97940934Y-107536680D01*
X97904226Y-107519446D01*
X97904222Y-107519445D01*
X97897837Y-107516447D01*
X97890869Y-107515362D01*
X97890865Y-107515361D01*
X97887708Y-107514870D01*
X97868180Y-107509747D01*
X97865180Y-107508622D01*
X97865178Y-107508622D01*
X97858580Y-107506148D01*
X97811092Y-107502619D01*
X97803207Y-107501713D01*
X97792772Y-107500088D01*
X97792764Y-107500087D01*
X97788991Y-107499500D01*
X97772791Y-107499500D01*
X97765455Y-107499228D01*
X97762165Y-107498984D01*
X97715608Y-107495524D01*
X97708713Y-107496996D01*
X97708711Y-107496996D01*
X97707199Y-107497319D01*
X97686532Y-107499500D01*
X96617772Y-107499500D01*
X96564356Y-107481367D01*
X96563610Y-107482659D01*
X96557987Y-107479413D01*
X96552841Y-107475464D01*
X96406762Y-107414956D01*
X96250000Y-107394318D01*
X96093238Y-107414956D01*
X95947159Y-107475464D01*
X95821718Y-107571718D01*
X95725464Y-107697159D01*
X95664956Y-107843238D01*
X95644318Y-108000000D01*
X95664956Y-108156762D01*
X95725464Y-108302841D01*
X95821718Y-108428282D01*
X95947159Y-108524536D01*
X95967791Y-108533082D01*
X96073553Y-108576890D01*
X96093238Y-108585044D01*
X96224431Y-108602316D01*
X96238227Y-108604132D01*
X96250000Y-108605682D01*
X96261774Y-108604132D01*
X96275569Y-108602316D01*
X96406762Y-108585044D01*
X96552841Y-108524536D01*
X96557987Y-108520587D01*
X96563610Y-108517341D01*
X96564356Y-108518633D01*
X96617772Y-108500500D01*
X97501678Y-108500500D01*
X97559869Y-108519407D01*
X97571682Y-108529496D01*
X97895504Y-108853318D01*
X97923281Y-108907835D01*
X97924500Y-108923322D01*
X97924500Y-110340000D01*
X97905593Y-110398191D01*
X97856093Y-110434155D01*
X97825500Y-110439000D01*
X95536787Y-110439000D01*
X95478596Y-110420093D01*
X95458245Y-110400267D01*
X95432236Y-110366371D01*
X95428282Y-110361218D01*
X95302841Y-110264964D01*
X95156762Y-110204456D01*
X95000000Y-110183818D01*
X94843238Y-110204456D01*
X94697159Y-110264964D01*
X94571718Y-110361218D01*
X94475464Y-110486659D01*
X94414956Y-110632738D01*
X94394318Y-110789500D01*
X82184301Y-110789500D01*
X82168314Y-110775479D01*
X82167041Y-110774502D01*
X82167031Y-110774494D01*
X82086719Y-110712868D01*
X82086711Y-110712862D01*
X82085440Y-110711887D01*
X82063087Y-110696952D01*
X82040705Y-110684030D01*
X82016598Y-110672142D01*
X82015111Y-110671526D01*
X82015102Y-110671522D01*
X81921602Y-110632793D01*
X81921590Y-110632788D01*
X81920092Y-110632168D01*
X81894638Y-110623527D01*
X81886651Y-110621387D01*
X81871232Y-110617255D01*
X81871219Y-110617252D01*
X81869674Y-110616838D01*
X81868101Y-110616525D01*
X81868092Y-110616523D01*
X81844881Y-110611906D01*
X81844872Y-110611905D01*
X81843311Y-110611594D01*
X81841731Y-110611386D01*
X81841719Y-110611384D01*
X81734044Y-110597208D01*
X81734015Y-110597205D01*
X81733258Y-110597105D01*
X81732485Y-110597029D01*
X81732460Y-110597026D01*
X81726786Y-110596468D01*
X81719875Y-110595787D01*
X81714592Y-110595441D01*
X81707779Y-110594994D01*
X81707770Y-110594994D01*
X81706953Y-110594940D01*
X81693512Y-110594500D01*
X79704500Y-110594500D01*
X79646309Y-110575593D01*
X79610345Y-110526093D01*
X79605500Y-110495500D01*
X79605500Y-108704500D01*
X79624407Y-108646309D01*
X79673907Y-108610345D01*
X79704500Y-108605500D01*
X81893512Y-108605500D01*
X81906953Y-108605060D01*
X81907770Y-108605006D01*
X81907779Y-108605006D01*
X81914592Y-108604559D01*
X81919875Y-108604213D01*
X81926786Y-108603532D01*
X81932460Y-108602974D01*
X81932485Y-108602971D01*
X81933258Y-108602895D01*
X81934015Y-108602795D01*
X81934044Y-108602792D01*
X82041719Y-108588616D01*
X82041731Y-108588614D01*
X82043311Y-108588406D01*
X82044872Y-108588095D01*
X82044881Y-108588094D01*
X82068092Y-108583477D01*
X82068101Y-108583475D01*
X82069674Y-108583162D01*
X82071219Y-108582748D01*
X82071232Y-108582745D01*
X82089644Y-108577811D01*
X82094638Y-108576473D01*
X82120092Y-108567832D01*
X82121590Y-108567212D01*
X82121602Y-108567207D01*
X82215102Y-108528478D01*
X82215111Y-108528474D01*
X82216598Y-108527858D01*
X82223335Y-108524536D01*
X82224659Y-108523883D01*
X82240705Y-108515970D01*
X82263087Y-108503048D01*
X82285440Y-108488113D01*
X82286711Y-108487138D01*
X82286719Y-108487132D01*
X82367031Y-108425506D01*
X82367041Y-108425498D01*
X82368314Y-108424521D01*
X82388523Y-108406797D01*
X82406797Y-108388523D01*
X82424521Y-108368314D01*
X82425498Y-108367041D01*
X82425506Y-108367031D01*
X82487132Y-108286719D01*
X82487138Y-108286711D01*
X82488113Y-108285440D01*
X82503048Y-108263087D01*
X82515970Y-108240705D01*
X82527858Y-108216598D01*
X82528478Y-108215102D01*
X82567207Y-108121602D01*
X82567212Y-108121590D01*
X82567832Y-108120092D01*
X82576473Y-108094638D01*
X82583162Y-108069674D01*
X82588406Y-108043311D01*
X82593492Y-108004682D01*
X82602792Y-107934044D01*
X82602795Y-107934015D01*
X82602895Y-107933258D01*
X82604213Y-107919875D01*
X82604796Y-107910980D01*
X82605006Y-107907779D01*
X82605006Y-107907770D01*
X82605060Y-107906953D01*
X82605500Y-107893512D01*
X82605500Y-107406488D01*
X82605060Y-107393047D01*
X82604213Y-107380125D01*
X82602895Y-107366742D01*
X82588406Y-107256689D01*
X82583162Y-107230326D01*
X82576473Y-107205362D01*
X82567832Y-107179908D01*
X82551705Y-107140972D01*
X82528478Y-107084898D01*
X82528474Y-107084889D01*
X82527858Y-107083402D01*
X82515970Y-107059295D01*
X82503048Y-107036913D01*
X82488113Y-107014560D01*
X82466370Y-106986224D01*
X82425506Y-106932969D01*
X82425498Y-106932959D01*
X82424521Y-106931686D01*
X82406797Y-106911477D01*
X82388523Y-106893203D01*
X82368314Y-106875479D01*
X82367041Y-106874502D01*
X82367031Y-106874494D01*
X82286719Y-106812868D01*
X82286711Y-106812862D01*
X82285440Y-106811887D01*
X82263087Y-106796952D01*
X82252549Y-106790868D01*
X82242103Y-106784837D01*
X82242100Y-106784836D01*
X82240705Y-106784030D01*
X82216598Y-106772142D01*
X82215111Y-106771526D01*
X82215102Y-106771522D01*
X82121602Y-106732793D01*
X82121590Y-106732788D01*
X82120092Y-106732168D01*
X82103678Y-106726596D01*
X82096176Y-106724049D01*
X82096173Y-106724048D01*
X82094638Y-106723527D01*
X82086651Y-106721387D01*
X82071232Y-106717255D01*
X82071219Y-106717252D01*
X82069674Y-106716838D01*
X82068101Y-106716525D01*
X82068092Y-106716523D01*
X82044881Y-106711906D01*
X82044872Y-106711905D01*
X82043311Y-106711594D01*
X82041731Y-106711386D01*
X82041719Y-106711384D01*
X81934044Y-106697208D01*
X81934015Y-106697205D01*
X81933258Y-106697105D01*
X81932485Y-106697029D01*
X81932460Y-106697026D01*
X81926786Y-106696468D01*
X81919875Y-106695787D01*
X81906953Y-106694940D01*
X81903987Y-106694843D01*
X81900000Y-106694318D01*
X81898734Y-106694485D01*
X81897618Y-106694122D01*
X81897601Y-106694634D01*
X81893512Y-106694500D01*
X79941296Y-106694500D01*
X79883105Y-106675593D01*
X79847141Y-106626093D01*
X79843143Y-106608420D01*
X79841535Y-106596201D01*
X79841534Y-106596197D01*
X79840687Y-106589764D01*
X79838203Y-106583767D01*
X79785181Y-106455760D01*
X79785179Y-106455756D01*
X79782698Y-106449767D01*
X79778752Y-106444625D01*
X79778750Y-106444621D01*
X79694402Y-106334698D01*
X79690451Y-106329549D01*
X79685302Y-106325598D01*
X79575379Y-106241250D01*
X79575375Y-106241248D01*
X79570233Y-106237302D01*
X79564244Y-106234821D01*
X79564240Y-106234819D01*
X79542861Y-106225964D01*
X79512461Y-106200000D01*
X86694318Y-106200000D01*
X86714956Y-106356762D01*
X86775464Y-106502841D01*
X86871718Y-106628282D01*
X86997159Y-106724536D01*
X87143238Y-106785044D01*
X87300000Y-106805682D01*
X87456762Y-106785044D01*
X87602841Y-106724536D01*
X87728282Y-106628282D01*
X87824536Y-106502841D01*
X87885044Y-106356762D01*
X87886639Y-106344646D01*
X116099500Y-106344646D01*
X116103350Y-106362759D01*
X116134220Y-106507990D01*
X116138856Y-106529803D01*
X116140965Y-106534539D01*
X116140965Y-106534540D01*
X116213345Y-106697105D01*
X116215849Y-106702730D01*
X116327112Y-106855871D01*
X116330962Y-106859337D01*
X116330965Y-106859341D01*
X116458356Y-106974044D01*
X116467784Y-106982533D01*
X116472274Y-106985125D01*
X116472275Y-106985126D01*
X116627226Y-107074587D01*
X116627228Y-107074588D01*
X116631716Y-107077179D01*
X116636645Y-107078780D01*
X116636646Y-107078781D01*
X116806812Y-107134072D01*
X116806817Y-107134073D01*
X116811744Y-107135674D01*
X116952808Y-107150500D01*
X117397192Y-107150500D01*
X117538256Y-107135674D01*
X117543183Y-107134073D01*
X117543188Y-107134072D01*
X117713354Y-107078781D01*
X117713355Y-107078780D01*
X117718284Y-107077179D01*
X117722772Y-107074588D01*
X117722774Y-107074587D01*
X117877725Y-106985126D01*
X117877726Y-106985125D01*
X117882216Y-106982533D01*
X117891644Y-106974044D01*
X118019035Y-106859341D01*
X118019038Y-106859337D01*
X118022888Y-106855871D01*
X118134151Y-106702730D01*
X118136656Y-106697105D01*
X118209035Y-106534540D01*
X118209035Y-106534539D01*
X118211144Y-106529803D01*
X118215781Y-106507990D01*
X118246650Y-106362759D01*
X118250500Y-106344646D01*
X118250500Y-106155354D01*
X118216026Y-105993167D01*
X118212222Y-105975268D01*
X118212222Y-105975267D01*
X118211144Y-105970197D01*
X118194087Y-105931887D01*
X118136259Y-105802004D01*
X118136258Y-105802002D01*
X118134151Y-105797270D01*
X118022888Y-105644129D01*
X118019038Y-105640663D01*
X118019035Y-105640659D01*
X117886072Y-105520939D01*
X117882216Y-105517467D01*
X117826200Y-105485126D01*
X117722774Y-105425413D01*
X117722772Y-105425412D01*
X117718284Y-105422821D01*
X117713354Y-105421219D01*
X117543188Y-105365928D01*
X117543183Y-105365927D01*
X117538256Y-105364326D01*
X117397192Y-105349500D01*
X116952808Y-105349500D01*
X116811744Y-105364326D01*
X116806817Y-105365927D01*
X116806812Y-105365928D01*
X116636646Y-105421219D01*
X116631716Y-105422821D01*
X116627228Y-105425412D01*
X116627226Y-105425413D01*
X116523800Y-105485126D01*
X116467784Y-105517467D01*
X116463928Y-105520939D01*
X116330965Y-105640659D01*
X116330962Y-105640663D01*
X116327112Y-105644129D01*
X116215849Y-105797270D01*
X116213742Y-105802002D01*
X116213741Y-105802004D01*
X116155913Y-105931887D01*
X116138856Y-105970197D01*
X116137778Y-105975267D01*
X116137778Y-105975268D01*
X116133974Y-105993167D01*
X116099500Y-106155354D01*
X116099500Y-106344646D01*
X87886639Y-106344646D01*
X87905682Y-106200000D01*
X87891031Y-106088716D01*
X87902181Y-106028557D01*
X87919180Y-106005791D01*
X88699971Y-105225000D01*
X96869318Y-105225000D01*
X96889956Y-105381762D01*
X96950464Y-105527841D01*
X97046718Y-105653282D01*
X97172159Y-105749536D01*
X97318238Y-105810044D01*
X97475000Y-105830682D01*
X97631762Y-105810044D01*
X97777841Y-105749536D01*
X97903282Y-105653282D01*
X97999536Y-105527841D01*
X98060044Y-105381762D01*
X98080682Y-105225000D01*
X98060044Y-105068238D01*
X98054965Y-105055975D01*
X98043839Y-105029115D01*
X97999536Y-104922159D01*
X97903282Y-104796718D01*
X97777841Y-104700464D01*
X97661614Y-104652321D01*
X97615089Y-104612584D01*
X97600500Y-104560857D01*
X97600500Y-103199500D01*
X97619407Y-103141309D01*
X97668907Y-103105345D01*
X97699500Y-103100500D01*
X102813810Y-103100500D01*
X102872001Y-103119407D01*
X102883814Y-103129496D01*
X103000882Y-103246564D01*
X103028659Y-103301081D01*
X103029878Y-103316568D01*
X103029878Y-103593591D01*
X103010971Y-103651782D01*
X102991146Y-103672132D01*
X102952096Y-103702096D01*
X102855842Y-103827537D01*
X102795334Y-103973616D01*
X102774696Y-104130378D01*
X102775543Y-104136812D01*
X102776506Y-104144129D01*
X102795334Y-104287140D01*
X102855842Y-104433219D01*
X102952096Y-104558660D01*
X103077537Y-104654914D01*
X103223616Y-104715422D01*
X103380378Y-104736060D01*
X103537140Y-104715422D01*
X103683219Y-104654914D01*
X103808660Y-104558660D01*
X103904914Y-104433219D01*
X103965422Y-104287140D01*
X103984250Y-104144129D01*
X103985213Y-104136812D01*
X103986060Y-104130378D01*
X103965422Y-103973616D01*
X103904914Y-103827537D01*
X103808660Y-103702096D01*
X103769611Y-103672132D01*
X103734955Y-103621709D01*
X103730878Y-103593591D01*
X103730878Y-103538975D01*
X103749785Y-103480784D01*
X103799285Y-103444820D01*
X103860471Y-103444820D01*
X103908420Y-103478708D01*
X103962096Y-103548660D01*
X104087537Y-103644914D01*
X104233616Y-103705422D01*
X104390378Y-103726060D01*
X104501662Y-103711409D01*
X104561821Y-103722559D01*
X104584587Y-103739558D01*
X105390654Y-104545625D01*
X105418431Y-104600142D01*
X105419650Y-104615629D01*
X105419650Y-104890996D01*
X105400743Y-104949187D01*
X105380919Y-104969537D01*
X105291868Y-105037868D01*
X105195614Y-105163309D01*
X105135106Y-105309388D01*
X105114468Y-105466150D01*
X105135106Y-105622912D01*
X105195614Y-105768991D01*
X105291868Y-105894432D01*
X105417309Y-105990686D01*
X105563388Y-106051194D01*
X105720150Y-106071832D01*
X105876912Y-106051194D01*
X106022991Y-105990686D01*
X106148432Y-105894432D01*
X106244686Y-105768991D01*
X106305194Y-105622912D01*
X106325832Y-105466150D01*
X106305194Y-105309388D01*
X106244686Y-105163309D01*
X106148432Y-105037868D01*
X106059382Y-104969537D01*
X106024727Y-104919113D01*
X106020650Y-104890996D01*
X106020650Y-104844646D01*
X118099500Y-104844646D01*
X118115976Y-104922159D01*
X118136957Y-105020867D01*
X118138856Y-105029803D01*
X118140965Y-105034539D01*
X118140965Y-105034540D01*
X118200967Y-105169304D01*
X118215849Y-105202730D01*
X118327112Y-105355871D01*
X118330962Y-105359337D01*
X118330965Y-105359341D01*
X118425938Y-105444855D01*
X118467784Y-105482533D01*
X118472274Y-105485125D01*
X118472275Y-105485126D01*
X118627226Y-105574587D01*
X118627228Y-105574588D01*
X118631716Y-105577179D01*
X118636645Y-105578780D01*
X118636646Y-105578781D01*
X118806812Y-105634072D01*
X118806817Y-105634073D01*
X118811744Y-105635674D01*
X118952808Y-105650500D01*
X119397192Y-105650500D01*
X119538256Y-105635674D01*
X119543183Y-105634073D01*
X119543188Y-105634072D01*
X119713354Y-105578781D01*
X119713355Y-105578780D01*
X119718284Y-105577179D01*
X119722772Y-105574588D01*
X119722774Y-105574587D01*
X119877725Y-105485126D01*
X119877726Y-105485125D01*
X119882216Y-105482533D01*
X119924062Y-105444855D01*
X120019035Y-105359341D01*
X120019038Y-105359337D01*
X120022888Y-105355871D01*
X120134151Y-105202730D01*
X120149034Y-105169304D01*
X120209035Y-105034540D01*
X120209035Y-105034539D01*
X120211144Y-105029803D01*
X120213044Y-105020867D01*
X120234024Y-104922159D01*
X120250500Y-104844646D01*
X120250500Y-104655354D01*
X120211144Y-104470197D01*
X120192011Y-104427224D01*
X120136259Y-104302004D01*
X120136258Y-104302002D01*
X120134151Y-104297270D01*
X120022888Y-104144129D01*
X120019038Y-104140663D01*
X120019035Y-104140659D01*
X119886072Y-104020939D01*
X119882216Y-104017467D01*
X119847199Y-103997250D01*
X119722774Y-103925413D01*
X119722772Y-103925412D01*
X119718284Y-103922821D01*
X119713354Y-103921219D01*
X119543188Y-103865928D01*
X119543183Y-103865927D01*
X119538256Y-103864326D01*
X119397192Y-103849500D01*
X118952808Y-103849500D01*
X118811744Y-103864326D01*
X118806817Y-103865927D01*
X118806812Y-103865928D01*
X118636646Y-103921219D01*
X118631716Y-103922821D01*
X118627228Y-103925412D01*
X118627226Y-103925413D01*
X118502801Y-103997250D01*
X118467784Y-104017467D01*
X118463928Y-104020939D01*
X118330965Y-104140659D01*
X118330962Y-104140663D01*
X118327112Y-104144129D01*
X118215849Y-104297270D01*
X118213742Y-104302002D01*
X118213741Y-104302004D01*
X118157989Y-104427224D01*
X118138856Y-104470197D01*
X118099500Y-104655354D01*
X118099500Y-104844646D01*
X106020650Y-104844646D01*
X106020650Y-104503664D01*
X106020953Y-104499535D01*
X106022576Y-104494808D01*
X106020720Y-104445373D01*
X106020650Y-104441659D01*
X106020650Y-104422202D01*
X106019825Y-104417772D01*
X106019489Y-104412586D01*
X106018719Y-104392075D01*
X106018719Y-104392074D01*
X106018376Y-104382942D01*
X106014770Y-104374548D01*
X106014769Y-104374545D01*
X106013833Y-104372367D01*
X106007467Y-104351416D01*
X106005359Y-104340097D01*
X105991380Y-104317419D01*
X105984700Y-104304559D01*
X105976942Y-104286502D01*
X105976941Y-104286501D01*
X105974186Y-104280088D01*
X105970173Y-104275201D01*
X105965807Y-104270835D01*
X105951535Y-104252779D01*
X105951414Y-104252582D01*
X105951413Y-104252581D01*
X105946618Y-104244802D01*
X105923394Y-104227142D01*
X105913315Y-104218343D01*
X105434853Y-103739882D01*
X116094602Y-103739882D01*
X116114005Y-103837427D01*
X116144529Y-103911119D01*
X116147230Y-103915161D01*
X116147233Y-103915167D01*
X116182281Y-103967619D01*
X116199784Y-103993814D01*
X116256186Y-104050216D01*
X116260230Y-104052918D01*
X116334833Y-104102767D01*
X116334839Y-104102770D01*
X116338881Y-104105471D01*
X116412573Y-104135995D01*
X116485494Y-104150500D01*
X116510118Y-104155398D01*
X116589882Y-104155398D01*
X116593127Y-104154753D01*
X116599731Y-104154428D01*
X117350269Y-104154428D01*
X117356873Y-104154753D01*
X117360118Y-104155398D01*
X117439882Y-104155398D01*
X117488345Y-104145758D01*
X117532659Y-104136944D01*
X117532663Y-104136943D01*
X117537428Y-104135995D01*
X117541918Y-104134135D01*
X117541922Y-104134134D01*
X117606627Y-104107332D01*
X117606628Y-104107331D01*
X117611122Y-104105470D01*
X117615164Y-104102769D01*
X117615168Y-104102767D01*
X117672937Y-104064166D01*
X117672938Y-104064165D01*
X117689769Y-104052919D01*
X117693813Y-104050217D01*
X117750215Y-103993815D01*
X117752054Y-103991063D01*
X117756499Y-103986158D01*
X118086158Y-103656499D01*
X118091063Y-103652054D01*
X118093815Y-103650215D01*
X118150216Y-103593814D01*
X118183830Y-103543507D01*
X118202767Y-103515167D01*
X118202770Y-103515161D01*
X118205471Y-103511119D01*
X118235995Y-103437427D01*
X118250500Y-103364506D01*
X118255398Y-103339882D01*
X118255398Y-103260118D01*
X118254753Y-103256873D01*
X118254428Y-103250269D01*
X118254428Y-102849731D01*
X118254753Y-102843127D01*
X118255398Y-102839882D01*
X118255398Y-102760118D01*
X118250500Y-102735494D01*
X118235995Y-102662573D01*
X118205471Y-102588881D01*
X118202770Y-102584839D01*
X118202767Y-102584833D01*
X118152918Y-102510230D01*
X118150216Y-102506186D01*
X118093814Y-102449784D01*
X118062028Y-102428545D01*
X118015167Y-102397233D01*
X118015161Y-102397230D01*
X118011119Y-102394529D01*
X117937427Y-102364005D01*
X117839882Y-102344602D01*
X117760118Y-102344602D01*
X117756873Y-102345247D01*
X117750269Y-102345572D01*
X116599731Y-102345572D01*
X116593127Y-102345247D01*
X116589882Y-102344602D01*
X116510118Y-102344602D01*
X116485494Y-102349500D01*
X116412573Y-102364005D01*
X116338881Y-102394529D01*
X116334839Y-102397230D01*
X116334833Y-102397233D01*
X116287972Y-102428545D01*
X116256186Y-102449784D01*
X116199784Y-102506186D01*
X116197082Y-102510230D01*
X116147233Y-102584833D01*
X116147230Y-102584839D01*
X116144529Y-102588881D01*
X116114005Y-102662573D01*
X116094602Y-102760118D01*
X116094602Y-102839882D01*
X116095247Y-102843127D01*
X116095572Y-102849731D01*
X116095572Y-103650269D01*
X116095247Y-103656873D01*
X116094602Y-103660118D01*
X116094602Y-103739882D01*
X105434853Y-103739882D01*
X105009558Y-103314587D01*
X104981781Y-103260070D01*
X104981409Y-103231661D01*
X104987368Y-103186403D01*
X104996060Y-103120378D01*
X104975422Y-102963616D01*
X104914914Y-102817537D01*
X104818660Y-102692096D01*
X104693219Y-102595842D01*
X104547140Y-102535334D01*
X104390378Y-102514696D01*
X104233616Y-102535334D01*
X104087537Y-102595842D01*
X103962096Y-102692096D01*
X103865842Y-102817537D01*
X103863360Y-102823528D01*
X103863357Y-102823534D01*
X103833786Y-102894927D01*
X103794050Y-102941453D01*
X103734555Y-102955737D01*
X103678027Y-102932322D01*
X103669359Y-102923956D01*
X103669161Y-102923740D01*
X103667786Y-102922104D01*
X103666273Y-102920591D01*
X103665100Y-102919312D01*
X103664230Y-102918281D01*
X103661156Y-102912584D01*
X103655151Y-102907033D01*
X103655147Y-102907028D01*
X103624360Y-102878569D01*
X103621557Y-102875875D01*
X103281745Y-102536063D01*
X103268580Y-102519760D01*
X103267267Y-102517726D01*
X103267264Y-102517722D01*
X103262825Y-102510848D01*
X103237668Y-102491015D01*
X103233263Y-102487101D01*
X103233262Y-102487102D01*
X103230131Y-102484449D01*
X103227254Y-102481572D01*
X103212399Y-102470956D01*
X103208681Y-102468165D01*
X103205726Y-102465835D01*
X103188479Y-102452238D01*
X103177614Y-102443673D01*
X103177613Y-102443673D01*
X103171189Y-102438608D01*
X103163882Y-102436042D01*
X103162637Y-102435395D01*
X103156331Y-102430889D01*
X103124542Y-102421382D01*
X103110585Y-102417208D01*
X103106149Y-102415767D01*
X103066967Y-102402007D01*
X103066964Y-102402006D01*
X103061094Y-102399945D01*
X103055956Y-102399500D01*
X103053818Y-102399500D01*
X103052099Y-102399426D01*
X103050738Y-102399311D01*
X103044536Y-102397456D01*
X103036365Y-102397777D01*
X102994446Y-102399424D01*
X102990559Y-102399500D01*
X97547948Y-102399500D01*
X97527112Y-102397282D01*
X97525830Y-102397006D01*
X97516739Y-102395049D01*
X97485580Y-102398737D01*
X97484929Y-102398814D01*
X97479037Y-102399161D01*
X97479037Y-102399164D01*
X97474970Y-102399500D01*
X97470885Y-102399500D01*
X97466859Y-102400170D01*
X97466848Y-102400171D01*
X97452881Y-102402496D01*
X97448269Y-102403153D01*
X97400861Y-102408764D01*
X97393881Y-102412115D01*
X97392540Y-102412540D01*
X97384897Y-102413812D01*
X97342850Y-102436500D01*
X97338724Y-102438601D01*
X97328162Y-102443673D01*
X97301293Y-102456575D01*
X97301291Y-102456576D01*
X97295673Y-102459274D01*
X97291726Y-102462592D01*
X97290220Y-102464098D01*
X97288931Y-102465280D01*
X97287902Y-102466149D01*
X97282206Y-102469222D01*
X97276655Y-102475227D01*
X97276650Y-102475231D01*
X97248191Y-102506018D01*
X97245497Y-102508821D01*
X97036063Y-102718255D01*
X97019760Y-102731420D01*
X97017726Y-102732733D01*
X97017722Y-102732736D01*
X97010848Y-102737175D01*
X96991015Y-102762332D01*
X96987101Y-102766737D01*
X96987102Y-102766738D01*
X96984449Y-102769869D01*
X96981572Y-102772746D01*
X96970956Y-102787601D01*
X96968170Y-102791312D01*
X96938608Y-102828811D01*
X96936042Y-102836118D01*
X96935395Y-102837363D01*
X96930889Y-102843669D01*
X96928545Y-102851508D01*
X96917208Y-102889415D01*
X96915767Y-102893851D01*
X96904878Y-102924860D01*
X96899945Y-102938906D01*
X96899500Y-102944044D01*
X96899500Y-102946182D01*
X96899426Y-102947901D01*
X96899311Y-102949262D01*
X96897456Y-102955464D01*
X96897777Y-102963635D01*
X96899424Y-103005554D01*
X96899500Y-103009441D01*
X96899500Y-104952052D01*
X96897282Y-104972888D01*
X96895049Y-104983261D01*
X96896011Y-104991387D01*
X96898703Y-105014135D01*
X96892960Y-105055665D01*
X96894118Y-105055975D01*
X96892437Y-105062247D01*
X96889956Y-105068238D01*
X96889110Y-105074666D01*
X96889109Y-105074669D01*
X96875157Y-105180650D01*
X96869318Y-105225000D01*
X88699971Y-105225000D01*
X89072484Y-104852487D01*
X89127001Y-104824710D01*
X89187433Y-104834281D01*
X89221030Y-104862224D01*
X89271718Y-104928282D01*
X89397159Y-105024536D01*
X89543238Y-105085044D01*
X89700000Y-105105682D01*
X89856762Y-105085044D01*
X90002841Y-105024536D01*
X90128282Y-104928282D01*
X90224536Y-104802841D01*
X90285044Y-104656762D01*
X90305682Y-104500000D01*
X90285044Y-104343238D01*
X90224536Y-104197159D01*
X90128282Y-104071718D01*
X90002841Y-103975464D01*
X89856762Y-103914956D01*
X89700000Y-103894318D01*
X89543238Y-103914956D01*
X89397159Y-103975464D01*
X89271718Y-104071718D01*
X89203388Y-104160768D01*
X89152963Y-104195423D01*
X89124846Y-104199500D01*
X89053507Y-104199500D01*
X89049383Y-104199197D01*
X89044658Y-104197575D01*
X89003332Y-104199127D01*
X88995250Y-104199430D01*
X88991536Y-104199500D01*
X88972052Y-104199500D01*
X88967620Y-104200325D01*
X88962430Y-104200662D01*
X88932791Y-104201775D01*
X88922219Y-104206317D01*
X88901266Y-104212683D01*
X88898934Y-104213117D01*
X88898932Y-104213118D01*
X88889947Y-104214791D01*
X88867268Y-104228771D01*
X88854407Y-104235451D01*
X88829937Y-104245964D01*
X88825051Y-104249978D01*
X88820687Y-104254342D01*
X88802632Y-104268613D01*
X88794652Y-104273532D01*
X88776982Y-104296769D01*
X88768190Y-104306839D01*
X88125057Y-104949972D01*
X88125051Y-104949977D01*
X87798790Y-105276239D01*
X87494209Y-105580820D01*
X87439692Y-105608597D01*
X87411286Y-105608969D01*
X87300000Y-105594318D01*
X87293566Y-105595165D01*
X87274431Y-105597684D01*
X87143238Y-105614956D01*
X86997159Y-105675464D01*
X86871718Y-105771718D01*
X86775464Y-105897159D01*
X86714956Y-106043238D01*
X86694318Y-106200000D01*
X79512461Y-106200000D01*
X79496335Y-106186227D01*
X79482052Y-106126732D01*
X79505467Y-106070204D01*
X79557636Y-106038235D01*
X79580747Y-106035500D01*
X80347363Y-106035500D01*
X80473037Y-106020848D01*
X80478443Y-106018886D01*
X80478446Y-106018885D01*
X80626653Y-105965088D01*
X80632061Y-105963125D01*
X80636870Y-105959972D01*
X80636874Y-105959970D01*
X80707041Y-105913966D01*
X80773540Y-105870367D01*
X80889885Y-105747550D01*
X80966019Y-105616476D01*
X80971967Y-105606236D01*
X80971967Y-105606235D01*
X80974856Y-105601262D01*
X81023895Y-105439350D01*
X81031957Y-105309388D01*
X81034014Y-105276239D01*
X81034014Y-105276238D01*
X81034370Y-105270499D01*
X81005720Y-105103767D01*
X80988335Y-105062909D01*
X80941733Y-104953388D01*
X80941733Y-104953387D01*
X80939482Y-104948098D01*
X80839209Y-104811842D01*
X80834827Y-104808119D01*
X80834825Y-104808117D01*
X80714666Y-104706034D01*
X80714665Y-104706033D01*
X80710280Y-104702308D01*
X80559611Y-104625373D01*
X80519791Y-104615629D01*
X80399563Y-104586209D01*
X80399560Y-104586208D01*
X80395283Y-104585162D01*
X80390885Y-104584889D01*
X80390884Y-104584889D01*
X80386128Y-104584594D01*
X80386126Y-104584594D01*
X80384612Y-104584500D01*
X79212637Y-104584500D01*
X79086963Y-104599152D01*
X79081557Y-104601114D01*
X79081554Y-104601115D01*
X78985889Y-104635840D01*
X78927939Y-104656875D01*
X78923130Y-104660028D01*
X78923126Y-104660030D01*
X78880293Y-104688113D01*
X78786460Y-104749633D01*
X78670115Y-104872450D01*
X78585144Y-105018738D01*
X78565814Y-105082560D01*
X78542917Y-105158160D01*
X78536105Y-105180650D01*
X78525630Y-105349501D01*
X78554280Y-105516233D01*
X78556533Y-105521528D01*
X78614278Y-105657236D01*
X78620518Y-105671902D01*
X78720791Y-105808158D01*
X78725173Y-105811881D01*
X78725175Y-105811883D01*
X78832608Y-105903154D01*
X78849720Y-105917692D01*
X79000389Y-105994627D01*
X79005974Y-105995994D01*
X79005975Y-105995994D01*
X79068231Y-106011228D01*
X79120260Y-106043425D01*
X79143428Y-106100054D01*
X79128885Y-106159486D01*
X79082586Y-106198855D01*
X78989767Y-106237302D01*
X78984625Y-106241248D01*
X78984621Y-106241250D01*
X78874698Y-106325598D01*
X78869549Y-106329549D01*
X78865598Y-106334698D01*
X78781250Y-106444621D01*
X78781248Y-106444625D01*
X78777302Y-106449767D01*
X78774821Y-106455756D01*
X78774819Y-106455760D01*
X78721797Y-106583767D01*
X78719313Y-106589764D01*
X78718466Y-106596197D01*
X78718465Y-106596201D01*
X78716857Y-106608420D01*
X78690517Y-106663646D01*
X78636747Y-106692842D01*
X78618704Y-106694500D01*
X76506488Y-106694500D01*
X76493047Y-106694940D01*
X76492230Y-106694994D01*
X76492221Y-106694994D01*
X76485408Y-106695441D01*
X76480125Y-106695787D01*
X76473214Y-106696468D01*
X76467540Y-106697026D01*
X76467515Y-106697029D01*
X76466742Y-106697105D01*
X76465985Y-106697205D01*
X76465956Y-106697208D01*
X76358281Y-106711384D01*
X76358269Y-106711386D01*
X76356689Y-106711594D01*
X76355128Y-106711905D01*
X76355119Y-106711906D01*
X76331908Y-106716523D01*
X76331899Y-106716525D01*
X76330326Y-106716838D01*
X76328781Y-106717252D01*
X76328768Y-106717255D01*
X76313349Y-106721387D01*
X76305362Y-106723527D01*
X76303827Y-106724048D01*
X76303824Y-106724049D01*
X76296322Y-106726596D01*
X76279908Y-106732168D01*
X76278410Y-106732788D01*
X76278398Y-106732793D01*
X76184898Y-106771522D01*
X76184889Y-106771526D01*
X76183402Y-106772142D01*
X76159295Y-106784030D01*
X76157900Y-106784836D01*
X76157897Y-106784837D01*
X76147451Y-106790868D01*
X76136913Y-106796952D01*
X76114560Y-106811887D01*
X76113289Y-106812862D01*
X76113281Y-106812868D01*
X76032969Y-106874494D01*
X76032959Y-106874502D01*
X76031686Y-106875479D01*
X76011477Y-106893203D01*
X75993203Y-106911477D01*
X75975479Y-106931686D01*
X75974502Y-106932959D01*
X75974494Y-106932969D01*
X75933630Y-106986224D01*
X75911887Y-107014560D01*
X75896952Y-107036913D01*
X75884030Y-107059295D01*
X75872142Y-107083402D01*
X75871526Y-107084889D01*
X75871522Y-107084898D01*
X75848296Y-107140972D01*
X75832168Y-107179908D01*
X75823527Y-107205362D01*
X75816838Y-107230326D01*
X75811594Y-107256689D01*
X75797105Y-107366742D01*
X75795787Y-107380125D01*
X75794940Y-107393047D01*
X75794500Y-107406488D01*
X75794500Y-112293512D01*
X73200500Y-112293512D01*
X73200500Y-105391105D01*
X74399031Y-105391105D01*
X74400423Y-105396901D01*
X74400423Y-105396905D01*
X74415503Y-105459716D01*
X74438612Y-105555968D01*
X74448222Y-105574587D01*
X74500289Y-105675464D01*
X74516375Y-105706631D01*
X74627831Y-105834396D01*
X74632713Y-105837827D01*
X74632714Y-105837828D01*
X74750073Y-105920309D01*
X74766547Y-105931887D01*
X74924513Y-105993476D01*
X74930428Y-105994255D01*
X74930429Y-105994255D01*
X75018057Y-106005791D01*
X75053826Y-106010500D01*
X76142516Y-106010500D01*
X76181429Y-106005791D01*
X76262398Y-105995993D01*
X76262401Y-105995992D01*
X76268320Y-105995276D01*
X76426923Y-105935345D01*
X76431840Y-105931965D01*
X76431843Y-105931964D01*
X76561733Y-105842692D01*
X76566651Y-105839312D01*
X76679440Y-105712721D01*
X76682665Y-105706631D01*
X76713537Y-105648322D01*
X76758776Y-105562881D01*
X76781457Y-105472584D01*
X76798627Y-105404231D01*
X76798627Y-105404228D01*
X76800081Y-105398441D01*
X76800969Y-105228895D01*
X76798490Y-105218566D01*
X76772289Y-105109438D01*
X76761388Y-105064032D01*
X76709028Y-104962587D01*
X76686364Y-104918675D01*
X76686362Y-104918673D01*
X76683625Y-104913369D01*
X76572169Y-104785604D01*
X76520988Y-104749633D01*
X76438335Y-104691544D01*
X76438334Y-104691544D01*
X76433453Y-104688113D01*
X76275487Y-104626524D01*
X76269572Y-104625745D01*
X76269571Y-104625745D01*
X76149387Y-104609923D01*
X76146174Y-104609500D01*
X75057484Y-104609500D01*
X75053989Y-104609923D01*
X74937602Y-104624007D01*
X74937599Y-104624008D01*
X74931680Y-104624724D01*
X74773077Y-104684655D01*
X74768160Y-104688035D01*
X74768157Y-104688036D01*
X74678534Y-104749633D01*
X74633349Y-104780688D01*
X74520560Y-104907279D01*
X74517770Y-104912549D01*
X74517769Y-104912550D01*
X74507346Y-104932236D01*
X74441224Y-105057119D01*
X74429026Y-105105682D01*
X74404649Y-105202730D01*
X74399919Y-105221559D01*
X74399692Y-105264831D01*
X74399114Y-105375326D01*
X74399031Y-105391105D01*
X73200500Y-105391105D01*
X73200500Y-101750000D01*
X73644457Y-101750000D01*
X73644669Y-101753234D01*
X73650599Y-101843702D01*
X73664609Y-102057460D01*
X73724720Y-102359659D01*
X73823762Y-102651427D01*
X73841868Y-102688142D01*
X73958159Y-102923956D01*
X73960040Y-102927771D01*
X74131222Y-103183964D01*
X74334380Y-103415620D01*
X74566036Y-103618778D01*
X74822229Y-103789960D01*
X74825135Y-103791393D01*
X74825140Y-103791396D01*
X74887986Y-103822388D01*
X75098573Y-103926238D01*
X75390341Y-104025280D01*
X75692540Y-104085391D01*
X75695762Y-104085602D01*
X75695768Y-104085603D01*
X75921441Y-104100394D01*
X75921443Y-104100394D01*
X75923059Y-104100500D01*
X76076941Y-104100500D01*
X76078557Y-104100394D01*
X76078559Y-104100394D01*
X76304232Y-104085603D01*
X76304238Y-104085602D01*
X76307460Y-104085391D01*
X76609659Y-104025280D01*
X76901427Y-103926238D01*
X77112014Y-103822388D01*
X77174860Y-103791396D01*
X77174865Y-103791393D01*
X77177771Y-103789960D01*
X77433964Y-103618778D01*
X77665620Y-103415620D01*
X77868778Y-103183964D01*
X77906967Y-103126811D01*
X77981492Y-103015275D01*
X78039960Y-102927772D01*
X78176238Y-102651427D01*
X78275280Y-102359659D01*
X78335391Y-102057460D01*
X78349402Y-101843702D01*
X78355331Y-101753234D01*
X78355543Y-101750000D01*
X78353280Y-101715467D01*
X78335603Y-101445768D01*
X78335602Y-101445762D01*
X78335391Y-101442540D01*
X78293334Y-101231105D01*
X90049031Y-101231105D01*
X90088612Y-101395968D01*
X90166375Y-101546631D01*
X90277831Y-101674396D01*
X90282713Y-101677827D01*
X90282714Y-101677828D01*
X90340603Y-101718513D01*
X90416547Y-101771887D01*
X90430828Y-101777455D01*
X90556757Y-101826553D01*
X90574513Y-101833476D01*
X90580428Y-101834255D01*
X90580429Y-101834255D01*
X90693624Y-101849157D01*
X90703826Y-101850500D01*
X92572271Y-101850500D01*
X92579005Y-101850729D01*
X92636930Y-101854678D01*
X92642801Y-101853653D01*
X92642806Y-101853653D01*
X92699820Y-101843702D01*
X92704947Y-101842945D01*
X92762396Y-101835993D01*
X92762397Y-101835993D01*
X92768320Y-101835276D01*
X92776932Y-101832022D01*
X92794895Y-101827108D01*
X92803954Y-101825527D01*
X92828542Y-101814734D01*
X92862404Y-101799870D01*
X92867202Y-101797912D01*
X92921339Y-101777455D01*
X92926923Y-101775345D01*
X92931838Y-101771967D01*
X92931846Y-101771963D01*
X92934505Y-101770135D01*
X92950778Y-101761077D01*
X92953739Y-101759777D01*
X92959202Y-101757379D01*
X92963934Y-101753748D01*
X92963939Y-101753745D01*
X93009854Y-101718513D01*
X93014046Y-101715467D01*
X93061732Y-101682693D01*
X93061733Y-101682692D01*
X93066651Y-101679312D01*
X93070618Y-101674859D01*
X93070622Y-101674856D01*
X93108115Y-101632774D01*
X93112028Y-101628628D01*
X95525392Y-99215265D01*
X95525396Y-99215260D01*
X95993159Y-98747497D01*
X96475734Y-98264923D01*
X96480658Y-98260324D01*
X96519899Y-98226092D01*
X96524396Y-98222169D01*
X96561103Y-98169939D01*
X96564188Y-98165786D01*
X96599900Y-98120242D01*
X96599902Y-98120239D01*
X96603584Y-98115543D01*
X96607367Y-98107165D01*
X96616604Y-98090969D01*
X96618456Y-98088334D01*
X96621887Y-98083453D01*
X96645078Y-98023973D01*
X96647086Y-98019197D01*
X96670897Y-97966461D01*
X96670898Y-97966458D01*
X96673355Y-97961016D01*
X96675031Y-97951973D01*
X96680135Y-97934055D01*
X96680845Y-97932236D01*
X96683476Y-97925487D01*
X96691809Y-97862190D01*
X96692619Y-97857077D01*
X96703165Y-97800180D01*
X96703165Y-97800177D01*
X96704253Y-97794308D01*
X96700664Y-97732064D01*
X96700500Y-97726365D01*
X96700500Y-96707484D01*
X96692616Y-96642334D01*
X96685993Y-96587602D01*
X96685992Y-96587599D01*
X96685276Y-96581680D01*
X96625345Y-96423077D01*
X96597776Y-96382963D01*
X96532692Y-96288267D01*
X96529312Y-96283349D01*
X96402721Y-96170560D01*
X96382660Y-96159938D01*
X96348684Y-96141949D01*
X96252881Y-96091224D01*
X96143731Y-96063807D01*
X96094231Y-96051373D01*
X96094228Y-96051373D01*
X96088441Y-96049919D01*
X96002841Y-96049471D01*
X95924861Y-96049062D01*
X95924859Y-96049062D01*
X95918895Y-96049031D01*
X95913099Y-96050423D01*
X95913095Y-96050423D01*
X95834420Y-96069312D01*
X95754032Y-96088612D01*
X95678701Y-96127493D01*
X95608675Y-96163636D01*
X95608673Y-96163638D01*
X95603369Y-96166375D01*
X95475604Y-96277831D01*
X95472173Y-96282713D01*
X95472172Y-96282714D01*
X95401716Y-96382963D01*
X95378113Y-96416547D01*
X95375945Y-96422108D01*
X95324169Y-96554906D01*
X95316524Y-96574513D01*
X95315745Y-96580428D01*
X95315745Y-96580429D01*
X95300843Y-96693624D01*
X95299500Y-96703826D01*
X95299500Y-97418835D01*
X95280593Y-97477026D01*
X95270504Y-97488839D01*
X92338839Y-100420504D01*
X92284322Y-100448281D01*
X92268835Y-100449500D01*
X90707484Y-100449500D01*
X90684557Y-100452274D01*
X90587602Y-100464007D01*
X90587599Y-100464008D01*
X90581680Y-100464724D01*
X90423077Y-100524655D01*
X90418160Y-100528035D01*
X90418157Y-100528036D01*
X90357781Y-100569532D01*
X90283349Y-100620688D01*
X90170560Y-100747279D01*
X90167770Y-100752549D01*
X90167769Y-100752550D01*
X90151865Y-100782588D01*
X90091224Y-100897119D01*
X90049919Y-101061559D01*
X90049031Y-101231105D01*
X78293334Y-101231105D01*
X78275280Y-101140341D01*
X78176238Y-100848573D01*
X78092260Y-100678282D01*
X78041396Y-100575140D01*
X78041393Y-100575135D01*
X78039960Y-100572229D01*
X77868778Y-100316036D01*
X77665620Y-100084380D01*
X77433964Y-99881222D01*
X77177771Y-99710040D01*
X77174865Y-99708607D01*
X77174860Y-99708604D01*
X77035360Y-99639811D01*
X76901427Y-99573762D01*
X76609659Y-99474720D01*
X76307460Y-99414609D01*
X76304238Y-99414398D01*
X76304232Y-99414397D01*
X76078559Y-99399606D01*
X76078557Y-99399606D01*
X76076941Y-99399500D01*
X75923059Y-99399500D01*
X75921443Y-99399606D01*
X75921441Y-99399606D01*
X75695768Y-99414397D01*
X75695762Y-99414398D01*
X75692540Y-99414609D01*
X75390341Y-99474720D01*
X75098573Y-99573762D01*
X74964640Y-99639811D01*
X74825140Y-99708604D01*
X74825135Y-99708607D01*
X74822229Y-99710040D01*
X74566036Y-99881222D01*
X74334380Y-100084380D01*
X74131222Y-100316036D01*
X73960040Y-100572228D01*
X73823762Y-100848573D01*
X73724720Y-101140341D01*
X73664609Y-101442540D01*
X73664398Y-101445762D01*
X73664397Y-101445768D01*
X73646720Y-101715467D01*
X73644457Y-101750000D01*
X73200500Y-101750000D01*
X73200500Y-98866639D01*
X86625000Y-98866639D01*
X86625346Y-98872485D01*
X86627234Y-98888353D01*
X86631128Y-98902519D01*
X86669770Y-98989514D01*
X86679946Y-99004321D01*
X86746108Y-99070367D01*
X86760931Y-99080517D01*
X86847980Y-99119000D01*
X86862185Y-99122873D01*
X86877580Y-99124668D01*
X86883292Y-99125000D01*
X87434320Y-99125000D01*
X87447005Y-99120878D01*
X87450000Y-99116757D01*
X87450000Y-99109320D01*
X87750000Y-99109320D01*
X87754122Y-99122005D01*
X87758243Y-99125000D01*
X88316639Y-99125000D01*
X88322485Y-99124654D01*
X88338353Y-99122766D01*
X88352519Y-99118872D01*
X88439514Y-99080230D01*
X88454321Y-99070054D01*
X88520367Y-99003892D01*
X88530517Y-98989069D01*
X88569000Y-98902020D01*
X88572873Y-98887815D01*
X88574668Y-98872420D01*
X88575000Y-98866708D01*
X88575000Y-98315680D01*
X88570878Y-98302995D01*
X88566757Y-98300000D01*
X87765680Y-98300000D01*
X87752995Y-98304122D01*
X87750000Y-98308243D01*
X87750000Y-99109320D01*
X87450000Y-99109320D01*
X87450000Y-98315680D01*
X87445878Y-98302995D01*
X87441757Y-98300000D01*
X86640680Y-98300000D01*
X86627995Y-98304122D01*
X86625000Y-98308243D01*
X86625000Y-98866639D01*
X73200500Y-98866639D01*
X73200500Y-97984320D01*
X86625000Y-97984320D01*
X86629122Y-97997005D01*
X86633243Y-98000000D01*
X88559320Y-98000000D01*
X88572005Y-97995878D01*
X88575000Y-97991757D01*
X88575000Y-97433361D01*
X88574654Y-97427515D01*
X88572766Y-97411647D01*
X88568872Y-97397481D01*
X88530230Y-97310486D01*
X88520054Y-97295679D01*
X88453892Y-97229633D01*
X88439069Y-97219483D01*
X88352020Y-97181000D01*
X88337815Y-97177127D01*
X88322420Y-97175332D01*
X88316708Y-97175000D01*
X87916068Y-97175000D01*
X87857877Y-97156093D01*
X87821913Y-97106593D01*
X87821913Y-97045407D01*
X87857877Y-96995907D01*
X87875801Y-96985559D01*
X88035427Y-96914489D01*
X88035429Y-96914488D01*
X88040161Y-96912381D01*
X88189050Y-96804207D01*
X88192516Y-96800358D01*
X88192520Y-96800354D01*
X88308723Y-96671297D01*
X88308727Y-96671292D01*
X88312195Y-96667440D01*
X88365847Y-96574513D01*
X88401620Y-96512553D01*
X88401622Y-96512548D01*
X88404214Y-96508059D01*
X88430013Y-96428659D01*
X88459483Y-96337961D01*
X88459484Y-96337956D01*
X88461085Y-96333029D01*
X88480322Y-96150000D01*
X88461085Y-95966971D01*
X88459484Y-95962044D01*
X88459483Y-95962039D01*
X88420197Y-95841132D01*
X88404214Y-95791941D01*
X88401622Y-95787452D01*
X88401620Y-95787447D01*
X88314790Y-95637055D01*
X88312195Y-95632560D01*
X88308727Y-95628708D01*
X88308723Y-95628703D01*
X88192520Y-95499646D01*
X88192516Y-95499642D01*
X88189050Y-95495793D01*
X88040161Y-95387619D01*
X88035429Y-95385512D01*
X88035427Y-95385511D01*
X87876774Y-95314874D01*
X87876771Y-95314873D01*
X87872034Y-95312764D01*
X87692019Y-95274500D01*
X87507981Y-95274500D01*
X87327966Y-95312764D01*
X87323229Y-95314873D01*
X87323226Y-95314874D01*
X87164573Y-95385511D01*
X87164571Y-95385512D01*
X87159839Y-95387619D01*
X87010950Y-95495793D01*
X87007484Y-95499642D01*
X87007480Y-95499646D01*
X86891277Y-95628703D01*
X86891273Y-95628708D01*
X86887805Y-95632560D01*
X86885210Y-95637055D01*
X86798380Y-95787447D01*
X86798378Y-95787452D01*
X86795786Y-95791941D01*
X86779803Y-95841132D01*
X86740517Y-95962039D01*
X86740516Y-95962044D01*
X86738915Y-95966971D01*
X86719678Y-96150000D01*
X86738915Y-96333029D01*
X86740516Y-96337956D01*
X86740517Y-96337961D01*
X86769987Y-96428659D01*
X86795786Y-96508059D01*
X86798378Y-96512548D01*
X86798380Y-96512553D01*
X86834153Y-96574513D01*
X86887805Y-96667440D01*
X86891273Y-96671292D01*
X86891277Y-96671297D01*
X87007480Y-96800354D01*
X87007484Y-96800358D01*
X87010950Y-96804207D01*
X87159839Y-96912381D01*
X87164571Y-96914488D01*
X87164573Y-96914489D01*
X87324199Y-96985559D01*
X87369669Y-97026500D01*
X87382390Y-97086348D01*
X87357503Y-97142244D01*
X87304515Y-97172837D01*
X87283932Y-97175000D01*
X86883361Y-97175000D01*
X86877515Y-97175346D01*
X86861647Y-97177234D01*
X86847481Y-97181128D01*
X86760486Y-97219770D01*
X86745679Y-97229946D01*
X86679633Y-97296108D01*
X86669483Y-97310931D01*
X86631000Y-97397980D01*
X86627127Y-97412185D01*
X86625332Y-97427580D01*
X86625000Y-97433292D01*
X86625000Y-97984320D01*
X73200500Y-97984320D01*
X73200500Y-92212611D01*
X78694394Y-92212611D01*
X78695049Y-92218544D01*
X78695049Y-92218548D01*
X78712344Y-92375204D01*
X78712999Y-92381135D01*
X78771266Y-92540356D01*
X78774591Y-92545305D01*
X78774592Y-92545306D01*
X78787689Y-92564796D01*
X78865830Y-92681083D01*
X78991233Y-92795191D01*
X79140235Y-92876092D01*
X79175189Y-92885262D01*
X79298464Y-92917603D01*
X79298468Y-92917604D01*
X79304233Y-92919116D01*
X79310194Y-92919210D01*
X79310197Y-92919210D01*
X79388965Y-92920447D01*
X79473760Y-92921779D01*
X79479575Y-92920447D01*
X79479577Y-92920447D01*
X79633206Y-92885262D01*
X79633209Y-92885261D01*
X79639029Y-92883928D01*
X79654610Y-92876092D01*
X79727897Y-92839232D01*
X79790498Y-92807747D01*
X79795035Y-92803872D01*
X79795038Y-92803870D01*
X79914888Y-92701508D01*
X79914891Y-92701505D01*
X79919423Y-92697634D01*
X79944483Y-92662759D01*
X80014877Y-92564796D01*
X80014878Y-92564794D01*
X80018361Y-92559947D01*
X80039874Y-92506434D01*
X80079377Y-92408167D01*
X80079378Y-92408165D01*
X80081601Y-92402634D01*
X80087625Y-92360308D01*
X80105034Y-92237985D01*
X80105034Y-92237979D01*
X80105490Y-92234778D01*
X80105645Y-92220000D01*
X80094792Y-92130314D01*
X80085993Y-92057602D01*
X80085992Y-92057599D01*
X80085276Y-92051680D01*
X80025345Y-91893077D01*
X80018233Y-91882728D01*
X79947051Y-91779159D01*
X79929673Y-91720494D01*
X79950097Y-91662818D01*
X79979275Y-91640429D01*
X79978231Y-91638867D01*
X80036442Y-91599971D01*
X80044552Y-91594552D01*
X80088867Y-91528231D01*
X80100500Y-91469748D01*
X80100500Y-90900000D01*
X94394318Y-90900000D01*
X94414956Y-91056762D01*
X94475464Y-91202841D01*
X94571718Y-91328282D01*
X94660768Y-91396612D01*
X94695423Y-91447037D01*
X94699500Y-91475154D01*
X94699500Y-91696492D01*
X94699197Y-91700617D01*
X94697575Y-91705342D01*
X94697918Y-91714476D01*
X94699430Y-91754761D01*
X94699500Y-91758474D01*
X94699500Y-91777948D01*
X94700325Y-91782378D01*
X94700661Y-91787571D01*
X94701774Y-91817208D01*
X94705380Y-91825602D01*
X94705381Y-91825605D01*
X94706317Y-91827783D01*
X94712683Y-91848734D01*
X94714791Y-91860053D01*
X94719588Y-91867835D01*
X94728768Y-91882728D01*
X94735452Y-91895596D01*
X94741198Y-91908969D01*
X94745964Y-91920063D01*
X94749978Y-91924949D01*
X94754342Y-91929313D01*
X94768613Y-91947368D01*
X94773532Y-91955348D01*
X94796769Y-91973018D01*
X94806839Y-91981810D01*
X102420504Y-99595475D01*
X102448281Y-99649992D01*
X102449500Y-99665479D01*
X102449500Y-99674846D01*
X102430593Y-99733037D01*
X102410769Y-99753387D01*
X102321718Y-99821718D01*
X102225464Y-99947159D01*
X102222981Y-99953154D01*
X102167612Y-100086827D01*
X102164956Y-100093238D01*
X102144318Y-100250000D01*
X102164956Y-100406762D01*
X102225464Y-100552841D01*
X102321718Y-100678282D01*
X102447159Y-100774536D01*
X102593238Y-100835044D01*
X102750000Y-100855682D01*
X102906762Y-100835044D01*
X103052841Y-100774536D01*
X103178282Y-100678282D01*
X103274536Y-100552841D01*
X103283536Y-100531113D01*
X103323273Y-100484588D01*
X103382767Y-100470304D01*
X103439295Y-100493719D01*
X103466464Y-100531113D01*
X103475464Y-100552841D01*
X103571718Y-100678282D01*
X103697159Y-100774536D01*
X103843238Y-100835044D01*
X104000000Y-100855682D01*
X104156762Y-100835044D01*
X104302841Y-100774536D01*
X104428282Y-100678282D01*
X104524536Y-100552841D01*
X104585044Y-100406762D01*
X104605682Y-100250000D01*
X104585044Y-100093238D01*
X104582389Y-100086827D01*
X104527019Y-99953154D01*
X104524536Y-99947159D01*
X104428282Y-99821718D01*
X104302841Y-99725464D01*
X104156762Y-99664956D01*
X104000000Y-99644318D01*
X103993567Y-99645165D01*
X103993565Y-99645165D01*
X103946761Y-99651327D01*
X103886600Y-99640177D01*
X103863835Y-99623178D01*
X103566496Y-99325839D01*
X103538719Y-99271322D01*
X103548290Y-99210890D01*
X103591555Y-99167625D01*
X103632030Y-99157908D01*
X103632000Y-99157682D01*
X103634152Y-99157399D01*
X103634155Y-99157398D01*
X103788762Y-99137044D01*
X103934841Y-99076536D01*
X104060282Y-98980282D01*
X104156536Y-98854841D01*
X104217044Y-98708762D01*
X104237682Y-98552000D01*
X104217044Y-98395238D01*
X104156536Y-98249159D01*
X104060282Y-98123718D01*
X103934841Y-98027464D01*
X103788762Y-97966956D01*
X103632000Y-97946318D01*
X103475238Y-97966956D01*
X103329159Y-98027464D01*
X103203718Y-98123718D01*
X103153625Y-98189001D01*
X103103202Y-98223656D01*
X103042038Y-98222055D01*
X103005080Y-98198737D01*
X102850182Y-98043839D01*
X102822405Y-97989322D01*
X102821186Y-97973835D01*
X102821186Y-97500000D01*
X105144318Y-97500000D01*
X105164956Y-97656762D01*
X105225464Y-97802841D01*
X105321718Y-97928282D01*
X105447159Y-98024536D01*
X105593238Y-98085044D01*
X105750000Y-98105682D01*
X105906762Y-98085044D01*
X106052841Y-98024536D01*
X106105252Y-97984320D01*
X106122666Y-97970958D01*
X106182933Y-97950500D01*
X108317067Y-97950500D01*
X108377334Y-97970958D01*
X108394748Y-97984320D01*
X108447159Y-98024536D01*
X108593238Y-98085044D01*
X108750000Y-98105682D01*
X108906762Y-98085044D01*
X109052841Y-98024536D01*
X109178282Y-97928282D01*
X109274536Y-97802841D01*
X109335044Y-97656762D01*
X109355682Y-97500000D01*
X109335044Y-97343238D01*
X109274536Y-97197159D01*
X109178282Y-97071718D01*
X109052841Y-96975464D01*
X108906762Y-96914956D01*
X108750000Y-96894318D01*
X108593238Y-96914956D01*
X108447159Y-96975464D01*
X108442010Y-96979415D01*
X108377334Y-97029042D01*
X108317067Y-97049500D01*
X106182933Y-97049500D01*
X106122666Y-97029042D01*
X106057990Y-96979415D01*
X106052841Y-96975464D01*
X105906762Y-96914956D01*
X105750000Y-96894318D01*
X105593238Y-96914956D01*
X105447159Y-96975464D01*
X105321718Y-97071718D01*
X105225464Y-97197159D01*
X105164956Y-97343238D01*
X105144318Y-97500000D01*
X102821186Y-97500000D01*
X102821186Y-96875155D01*
X102821489Y-96871030D01*
X102823111Y-96866305D01*
X102821256Y-96816885D01*
X102821186Y-96813172D01*
X102821186Y-96793699D01*
X102820361Y-96789269D01*
X102820024Y-96784064D01*
X102819255Y-96763573D01*
X102818912Y-96754438D01*
X102814367Y-96743859D01*
X102808003Y-96722910D01*
X102807570Y-96720583D01*
X102807568Y-96720578D01*
X102805895Y-96711594D01*
X102791918Y-96688918D01*
X102785234Y-96676051D01*
X102777481Y-96658005D01*
X102777480Y-96658004D01*
X102774722Y-96651584D01*
X102770708Y-96646698D01*
X102766344Y-96642334D01*
X102752073Y-96624279D01*
X102751950Y-96624080D01*
X102747154Y-96616299D01*
X102735707Y-96607594D01*
X102723926Y-96598636D01*
X102713846Y-96589836D01*
X102397256Y-96273246D01*
X102094871Y-95970862D01*
X116995497Y-95970862D01*
X117025134Y-96143340D01*
X117093654Y-96304373D01*
X117197383Y-96445324D01*
X117201765Y-96449047D01*
X117201767Y-96449049D01*
X117276841Y-96512829D01*
X117330755Y-96558632D01*
X117364962Y-96576099D01*
X117481492Y-96635603D01*
X117481495Y-96635604D01*
X117486616Y-96638219D01*
X117492201Y-96639586D01*
X117492202Y-96639586D01*
X117652326Y-96678768D01*
X117652329Y-96678768D01*
X117656606Y-96679815D01*
X117661004Y-96680088D01*
X117661005Y-96680088D01*
X117666132Y-96680406D01*
X117666133Y-96680406D01*
X117667648Y-96680500D01*
X117793822Y-96680500D01*
X117799698Y-96679815D01*
X117831982Y-96676051D01*
X117923828Y-96665343D01*
X117929234Y-96663381D01*
X117929237Y-96663380D01*
X118082923Y-96607594D01*
X118088331Y-96605631D01*
X118093140Y-96602478D01*
X118093144Y-96602476D01*
X118229877Y-96512829D01*
X118234685Y-96509677D01*
X118238634Y-96505508D01*
X118238638Y-96505505D01*
X118351084Y-96386804D01*
X118355040Y-96382628D01*
X118359604Y-96374772D01*
X118440050Y-96236272D01*
X118440050Y-96236271D01*
X118442939Y-96231298D01*
X118471296Y-96137669D01*
X118492000Y-96069312D01*
X118492000Y-96069310D01*
X118493667Y-96063807D01*
X118504503Y-95889138D01*
X118474866Y-95716660D01*
X118406346Y-95555627D01*
X118302617Y-95414676D01*
X118298235Y-95410953D01*
X118298233Y-95410951D01*
X118173631Y-95305094D01*
X118173630Y-95305093D01*
X118169245Y-95301368D01*
X118083382Y-95257524D01*
X118018508Y-95224397D01*
X118018505Y-95224396D01*
X118013384Y-95221781D01*
X118007799Y-95220414D01*
X118007798Y-95220414D01*
X117847674Y-95181232D01*
X117847671Y-95181232D01*
X117843394Y-95180185D01*
X117838996Y-95179912D01*
X117838995Y-95179912D01*
X117833868Y-95179594D01*
X117833867Y-95179594D01*
X117832352Y-95179500D01*
X117706178Y-95179500D01*
X117703331Y-95179832D01*
X117703330Y-95179832D01*
X117692662Y-95181076D01*
X117576172Y-95194657D01*
X117570766Y-95196619D01*
X117570763Y-95196620D01*
X117494240Y-95224397D01*
X117411669Y-95254369D01*
X117406860Y-95257522D01*
X117406856Y-95257524D01*
X117324246Y-95311686D01*
X117265315Y-95350323D01*
X117261366Y-95354492D01*
X117261362Y-95354495D01*
X117152451Y-95469464D01*
X117144960Y-95477372D01*
X117142073Y-95482342D01*
X117142071Y-95482345D01*
X117134260Y-95495793D01*
X117057061Y-95628702D01*
X117006333Y-95796193D01*
X116995497Y-95970862D01*
X102094871Y-95970862D01*
X102079015Y-95955006D01*
X102051238Y-95900489D01*
X102050019Y-95885002D01*
X102050019Y-90333401D01*
X102068926Y-90275210D01*
X102118426Y-90239246D01*
X102179612Y-90239246D01*
X102209282Y-90254857D01*
X102287491Y-90314868D01*
X102433570Y-90375376D01*
X102590332Y-90396014D01*
X102747094Y-90375376D01*
X102893173Y-90314868D01*
X102998215Y-90234267D01*
X103055889Y-90213843D01*
X103118747Y-90234267D01*
X103236940Y-90324959D01*
X103383019Y-90385467D01*
X103539781Y-90406105D01*
X103696543Y-90385467D01*
X103842622Y-90324959D01*
X103968063Y-90228705D01*
X104064317Y-90103264D01*
X104124825Y-89957185D01*
X104145463Y-89800423D01*
X104130812Y-89689139D01*
X104141962Y-89628980D01*
X104158961Y-89606214D01*
X104335679Y-89429496D01*
X104390196Y-89401719D01*
X104405683Y-89400500D01*
X105255127Y-89400500D01*
X105313318Y-89419407D01*
X105349282Y-89468907D01*
X105349282Y-89530093D01*
X105325599Y-89568740D01*
X105321718Y-89571718D01*
X105317764Y-89576871D01*
X105250329Y-89664754D01*
X105199905Y-89699410D01*
X105193550Y-89701065D01*
X105191926Y-89701431D01*
X105182791Y-89701774D01*
X105174393Y-89705382D01*
X105174394Y-89705382D01*
X105172212Y-89706319D01*
X105151263Y-89712683D01*
X105148936Y-89713116D01*
X105148931Y-89713118D01*
X105139947Y-89714791D01*
X105117272Y-89728768D01*
X105104404Y-89735452D01*
X105086358Y-89743205D01*
X105086357Y-89743206D01*
X105079937Y-89745964D01*
X105075051Y-89749978D01*
X105070687Y-89754342D01*
X105052632Y-89768613D01*
X105044652Y-89773532D01*
X105026982Y-89796769D01*
X105018190Y-89806839D01*
X104825349Y-89999680D01*
X104822220Y-90002380D01*
X104817731Y-90004575D01*
X104811513Y-90011278D01*
X104784107Y-90040822D01*
X104781531Y-90043498D01*
X104767752Y-90057277D01*
X104765207Y-90060987D01*
X104761771Y-90064900D01*
X104741599Y-90086646D01*
X104738212Y-90095134D01*
X104738212Y-90095135D01*
X104737334Y-90097336D01*
X104727020Y-90116652D01*
X104725679Y-90118607D01*
X104725678Y-90118610D01*
X104720508Y-90126146D01*
X104718398Y-90135038D01*
X104714359Y-90152058D01*
X104709986Y-90165884D01*
X104702706Y-90184132D01*
X104700117Y-90190622D01*
X104699500Y-90196915D01*
X104699500Y-90203084D01*
X104696825Y-90225943D01*
X104694660Y-90235066D01*
X104697354Y-90254859D01*
X104698596Y-90263987D01*
X104699500Y-90277337D01*
X104699500Y-93334520D01*
X104680593Y-93392711D01*
X104670504Y-93404523D01*
X104194209Y-93880819D01*
X104139692Y-93908597D01*
X104111286Y-93908969D01*
X104000000Y-93894318D01*
X103843238Y-93914956D01*
X103697159Y-93975464D01*
X103571718Y-94071718D01*
X103475464Y-94197159D01*
X103414956Y-94343238D01*
X103394318Y-94500000D01*
X103414956Y-94656762D01*
X103475464Y-94802841D01*
X103571718Y-94928282D01*
X103697159Y-95024536D01*
X103843238Y-95085044D01*
X104000000Y-95105682D01*
X104156762Y-95085044D01*
X104302841Y-95024536D01*
X104428282Y-94928282D01*
X104524536Y-94802841D01*
X104585044Y-94656762D01*
X104605682Y-94500000D01*
X104591031Y-94388716D01*
X104602181Y-94328557D01*
X104619180Y-94305791D01*
X105024971Y-93900000D01*
X109894318Y-93900000D01*
X109914956Y-94056762D01*
X109975464Y-94202841D01*
X110071718Y-94328282D01*
X110197159Y-94424536D01*
X110343238Y-94485044D01*
X110500000Y-94505682D01*
X110656762Y-94485044D01*
X110802841Y-94424536D01*
X110928282Y-94328282D01*
X110996613Y-94239232D01*
X111047037Y-94204577D01*
X111075154Y-94200500D01*
X112615505Y-94200500D01*
X112673696Y-94219407D01*
X112694046Y-94239232D01*
X112772218Y-94341108D01*
X112897659Y-94437362D01*
X113043738Y-94497870D01*
X113200500Y-94518508D01*
X113357262Y-94497870D01*
X113503341Y-94437362D01*
X113628782Y-94341108D01*
X113725036Y-94215667D01*
X113785544Y-94069588D01*
X113806182Y-93912826D01*
X113785544Y-93756064D01*
X113779241Y-93740846D01*
X113727519Y-93615980D01*
X113725036Y-93609985D01*
X113628782Y-93484544D01*
X113503341Y-93388290D01*
X113357262Y-93327782D01*
X113200500Y-93307144D01*
X113043738Y-93327782D01*
X112897659Y-93388290D01*
X112772218Y-93484544D01*
X112733249Y-93535330D01*
X112713730Y-93560767D01*
X112663305Y-93595423D01*
X112635188Y-93599500D01*
X111075154Y-93599500D01*
X111016963Y-93580593D01*
X110996612Y-93560768D01*
X110928282Y-93471718D01*
X110802841Y-93375464D01*
X110656762Y-93314956D01*
X110500000Y-93294318D01*
X110343238Y-93314956D01*
X110197159Y-93375464D01*
X110071718Y-93471718D01*
X109975464Y-93597159D01*
X109914956Y-93743238D01*
X109894318Y-93900000D01*
X105024971Y-93900000D01*
X105174651Y-93750320D01*
X105177780Y-93747620D01*
X105182269Y-93745425D01*
X105215893Y-93709178D01*
X105218469Y-93706502D01*
X105232248Y-93692723D01*
X105234793Y-93689013D01*
X105238229Y-93685100D01*
X105252187Y-93670053D01*
X105258401Y-93663354D01*
X105261788Y-93654866D01*
X105262667Y-93652663D01*
X105272978Y-93633352D01*
X105274322Y-93631393D01*
X105274323Y-93631390D01*
X105279493Y-93623854D01*
X105285644Y-93597934D01*
X105290014Y-93584115D01*
X105299883Y-93559378D01*
X105300500Y-93553085D01*
X105300500Y-93546915D01*
X105303175Y-93524056D01*
X105303230Y-93523826D01*
X105305340Y-93514934D01*
X105301404Y-93486012D01*
X105300500Y-93472663D01*
X105300500Y-90610357D01*
X105319407Y-90552166D01*
X105368907Y-90516202D01*
X105430093Y-90516202D01*
X105444878Y-90522786D01*
X105447159Y-90524536D01*
X105593238Y-90585044D01*
X105750000Y-90605682D01*
X105906762Y-90585044D01*
X106052841Y-90524536D01*
X106178282Y-90428282D01*
X106274536Y-90302841D01*
X106335044Y-90156762D01*
X106355682Y-90000000D01*
X106335044Y-89843238D01*
X106274536Y-89697159D01*
X106178282Y-89571718D01*
X106174530Y-89568839D01*
X106147092Y-89514987D01*
X106156663Y-89454555D01*
X106199928Y-89411290D01*
X106244873Y-89400500D01*
X107634021Y-89400500D01*
X107692212Y-89419407D01*
X107704025Y-89429496D01*
X110580320Y-92305791D01*
X110608097Y-92360308D01*
X110608469Y-92388714D01*
X110593818Y-92500000D01*
X110614456Y-92656762D01*
X110616940Y-92662759D01*
X110624530Y-92681083D01*
X110674964Y-92802841D01*
X110771218Y-92928282D01*
X110896659Y-93024536D01*
X111042738Y-93085044D01*
X111199500Y-93105682D01*
X111356262Y-93085044D01*
X111502341Y-93024536D01*
X111627782Y-92928282D01*
X111696113Y-92839232D01*
X111746537Y-92804577D01*
X111774654Y-92800500D01*
X112824846Y-92800500D01*
X112883037Y-92819407D01*
X112903387Y-92839231D01*
X112971718Y-92928282D01*
X113097159Y-93024536D01*
X113243238Y-93085044D01*
X113400000Y-93105682D01*
X113556762Y-93085044D01*
X113702841Y-93024536D01*
X113828282Y-92928282D01*
X113924536Y-92802841D01*
X113974970Y-92681083D01*
X113982560Y-92662759D01*
X113985044Y-92656762D01*
X114005682Y-92500000D01*
X113985044Y-92343238D01*
X113924536Y-92197159D01*
X113828282Y-92071718D01*
X113702841Y-91975464D01*
X113556762Y-91914956D01*
X113425569Y-91897684D01*
X113406434Y-91895165D01*
X113400000Y-91894318D01*
X113393566Y-91895165D01*
X113374431Y-91897684D01*
X113243238Y-91914956D01*
X113097159Y-91975464D01*
X112971718Y-92071718D01*
X112903388Y-92160768D01*
X112852963Y-92195423D01*
X112824846Y-92199500D01*
X111774654Y-92199500D01*
X111716463Y-92180593D01*
X111696112Y-92160768D01*
X111627782Y-92071718D01*
X111502341Y-91975464D01*
X111356262Y-91914956D01*
X111225069Y-91897684D01*
X111205934Y-91895165D01*
X111199500Y-91894318D01*
X111088216Y-91908969D01*
X111028057Y-91897819D01*
X111005291Y-91880820D01*
X108049820Y-88925349D01*
X108047120Y-88922220D01*
X108044925Y-88917731D01*
X108008678Y-88884107D01*
X108006002Y-88881531D01*
X107992223Y-88867752D01*
X107988513Y-88865207D01*
X107984600Y-88861771D01*
X107969555Y-88847815D01*
X107962854Y-88841599D01*
X107952164Y-88837334D01*
X107932848Y-88827020D01*
X107930893Y-88825679D01*
X107930890Y-88825678D01*
X107923354Y-88820508D01*
X107897441Y-88814359D01*
X107883616Y-88809986D01*
X107865368Y-88802706D01*
X107865366Y-88802706D01*
X107858878Y-88800117D01*
X107852585Y-88799500D01*
X107846416Y-88799500D01*
X107823557Y-88796825D01*
X107823327Y-88796770D01*
X107823325Y-88796770D01*
X107814434Y-88794660D01*
X107786674Y-88798438D01*
X107785513Y-88798596D01*
X107772163Y-88799500D01*
X104293717Y-88799500D01*
X104289588Y-88799197D01*
X104284862Y-88797574D01*
X104257641Y-88798596D01*
X104235427Y-88799430D01*
X104231713Y-88799500D01*
X104212256Y-88799500D01*
X104207826Y-88800325D01*
X104202640Y-88800661D01*
X104182129Y-88801431D01*
X104182128Y-88801431D01*
X104172996Y-88801774D01*
X104164602Y-88805380D01*
X104164599Y-88805381D01*
X104162421Y-88806317D01*
X104141470Y-88812683D01*
X104130151Y-88814791D01*
X104122368Y-88819588D01*
X104122369Y-88819588D01*
X104107476Y-88828768D01*
X104094608Y-88835452D01*
X104076557Y-88843207D01*
X104076555Y-88843208D01*
X104070141Y-88845964D01*
X104065255Y-88849977D01*
X104060889Y-88854343D01*
X104042833Y-88868615D01*
X104042636Y-88868736D01*
X104042635Y-88868737D01*
X104034856Y-88873532D01*
X104029324Y-88880808D01*
X104029323Y-88880808D01*
X104017193Y-88896760D01*
X104008393Y-88906839D01*
X103733991Y-89181242D01*
X103679474Y-89209020D01*
X103651067Y-89209392D01*
X103539781Y-89194741D01*
X103383019Y-89215379D01*
X103236940Y-89275887D01*
X103131898Y-89356488D01*
X103074224Y-89376912D01*
X103011366Y-89356489D01*
X102929564Y-89293719D01*
X102894909Y-89243295D01*
X102890832Y-89215178D01*
X102890832Y-87990862D01*
X116995497Y-87990862D01*
X117025134Y-88163340D01*
X117027387Y-88168635D01*
X117029301Y-88173132D01*
X117093654Y-88324373D01*
X117197383Y-88465324D01*
X117201765Y-88469047D01*
X117201767Y-88469049D01*
X117273131Y-88529677D01*
X117330755Y-88578632D01*
X117410337Y-88619269D01*
X117481492Y-88655603D01*
X117481495Y-88655604D01*
X117486616Y-88658219D01*
X117492201Y-88659586D01*
X117492202Y-88659586D01*
X117652326Y-88698768D01*
X117652329Y-88698768D01*
X117656606Y-88699815D01*
X117661004Y-88700088D01*
X117661005Y-88700088D01*
X117666132Y-88700406D01*
X117666133Y-88700406D01*
X117667648Y-88700500D01*
X117793822Y-88700500D01*
X117799698Y-88699815D01*
X117808678Y-88698768D01*
X117923828Y-88685343D01*
X117929234Y-88683381D01*
X117929237Y-88683380D01*
X118082923Y-88627594D01*
X118088331Y-88625631D01*
X118093140Y-88622478D01*
X118093144Y-88622476D01*
X118229877Y-88532829D01*
X118234685Y-88529677D01*
X118238634Y-88525508D01*
X118238638Y-88525505D01*
X118351084Y-88406804D01*
X118355040Y-88402628D01*
X118382309Y-88355682D01*
X118440050Y-88256272D01*
X118440050Y-88256271D01*
X118442939Y-88251298D01*
X118493667Y-88083807D01*
X118503068Y-87932269D01*
X118504147Y-87914878D01*
X118504147Y-87914877D01*
X118504503Y-87909138D01*
X118474866Y-87736660D01*
X118424878Y-87619180D01*
X118408597Y-87580917D01*
X118408597Y-87580916D01*
X118406346Y-87575627D01*
X118338310Y-87483178D01*
X118306026Y-87439308D01*
X118306025Y-87439307D01*
X118302617Y-87434676D01*
X118298235Y-87430953D01*
X118298233Y-87430951D01*
X118173631Y-87325094D01*
X118173630Y-87325093D01*
X118169245Y-87321368D01*
X118082393Y-87277019D01*
X118018508Y-87244397D01*
X118018505Y-87244396D01*
X118013384Y-87241781D01*
X118007799Y-87240414D01*
X118007798Y-87240414D01*
X117847674Y-87201232D01*
X117847671Y-87201232D01*
X117843394Y-87200185D01*
X117838996Y-87199912D01*
X117838995Y-87199912D01*
X117833868Y-87199594D01*
X117833867Y-87199594D01*
X117832352Y-87199500D01*
X117706178Y-87199500D01*
X117703331Y-87199832D01*
X117703330Y-87199832D01*
X117692662Y-87201076D01*
X117576172Y-87214657D01*
X117570766Y-87216619D01*
X117570763Y-87216620D01*
X117494240Y-87244397D01*
X117411669Y-87274369D01*
X117406860Y-87277522D01*
X117406856Y-87277524D01*
X117331595Y-87326868D01*
X117265315Y-87370323D01*
X117261366Y-87374492D01*
X117261362Y-87374495D01*
X117186848Y-87453154D01*
X117144960Y-87497372D01*
X117142073Y-87502342D01*
X117142071Y-87502345D01*
X117059950Y-87643728D01*
X117057061Y-87648702D01*
X117055394Y-87654207D01*
X117028330Y-87743566D01*
X117006333Y-87816193D01*
X116995497Y-87990862D01*
X102890832Y-87990862D01*
X102890832Y-86182572D01*
X102909739Y-86124381D01*
X102929565Y-86104030D01*
X103023129Y-86032236D01*
X103028282Y-86028282D01*
X103124536Y-85902841D01*
X103185044Y-85756762D01*
X103202529Y-85623948D01*
X103204835Y-85606434D01*
X103205682Y-85600000D01*
X103185044Y-85443238D01*
X103124536Y-85297159D01*
X103028282Y-85171718D01*
X102902841Y-85075464D01*
X102756762Y-85014956D01*
X102600000Y-84994318D01*
X102443238Y-85014956D01*
X102297159Y-85075464D01*
X102171718Y-85171718D01*
X102075464Y-85297159D01*
X102070978Y-85307990D01*
X102016666Y-85439109D01*
X101976929Y-85485634D01*
X101917434Y-85499918D01*
X101860906Y-85476503D01*
X101855198Y-85471227D01*
X101758996Y-85375025D01*
X101731219Y-85320508D01*
X101730000Y-85305021D01*
X101730000Y-83056086D01*
X101748907Y-82997895D01*
X101768732Y-82977544D01*
X101807804Y-82947563D01*
X101807805Y-82947562D01*
X101812950Y-82943614D01*
X101909204Y-82818173D01*
X101969712Y-82672094D01*
X101990350Y-82515332D01*
X101969712Y-82358570D01*
X101909204Y-82212491D01*
X101812950Y-82087050D01*
X101687509Y-81990796D01*
X101541430Y-81930288D01*
X101384668Y-81909650D01*
X101227906Y-81930288D01*
X101081827Y-81990796D01*
X100956386Y-82087050D01*
X100860132Y-82212491D01*
X100799624Y-82358570D01*
X100778986Y-82515332D01*
X100799624Y-82672094D01*
X100860132Y-82818173D01*
X100864083Y-82823322D01*
X100877059Y-82840233D01*
X100897483Y-82897909D01*
X100880105Y-82956575D01*
X100831563Y-82993822D01*
X100798517Y-82999500D01*
X96503508Y-82999500D01*
X96499383Y-82999197D01*
X96494658Y-82997575D01*
X96445239Y-82999430D01*
X96441526Y-82999500D01*
X96422052Y-82999500D01*
X96417622Y-83000325D01*
X96412429Y-83000661D01*
X96396398Y-83001263D01*
X96391925Y-83001431D01*
X96382792Y-83001774D01*
X96374398Y-83005380D01*
X96374395Y-83005381D01*
X96372217Y-83006317D01*
X96351266Y-83012683D01*
X96339947Y-83014791D01*
X96332164Y-83019588D01*
X96332165Y-83019588D01*
X96317272Y-83028768D01*
X96304404Y-83035452D01*
X96286358Y-83043205D01*
X96286357Y-83043206D01*
X96279937Y-83045964D01*
X96275051Y-83049978D01*
X96270687Y-83054342D01*
X96252632Y-83068613D01*
X96244652Y-83073532D01*
X96226982Y-83096769D01*
X96218190Y-83106839D01*
X96194209Y-83130820D01*
X96139692Y-83158597D01*
X96111286Y-83158969D01*
X96000000Y-83144318D01*
X95843238Y-83164956D01*
X95697159Y-83225464D01*
X95571718Y-83321718D01*
X95475464Y-83447159D01*
X95414956Y-83593238D01*
X95394318Y-83750000D01*
X95414956Y-83906762D01*
X95475464Y-84052841D01*
X95571718Y-84178282D01*
X95697159Y-84274536D01*
X95843238Y-84335044D01*
X96000000Y-84355682D01*
X96156762Y-84335044D01*
X96302841Y-84274536D01*
X96428282Y-84178282D01*
X96524536Y-84052841D01*
X96585044Y-83906762D01*
X96605682Y-83750000D01*
X96600735Y-83712421D01*
X96611885Y-83652261D01*
X96656268Y-83610144D01*
X96698888Y-83600500D01*
X100680000Y-83600500D01*
X100738191Y-83619407D01*
X100774155Y-83668907D01*
X100779000Y-83699500D01*
X100779000Y-85561966D01*
X100778697Y-85566091D01*
X100777075Y-85570816D01*
X100778284Y-85603016D01*
X100778930Y-85620235D01*
X100779000Y-85623948D01*
X100779000Y-85643422D01*
X100779825Y-85647852D01*
X100780161Y-85653045D01*
X100781274Y-85682682D01*
X100784880Y-85691076D01*
X100784881Y-85691079D01*
X100785817Y-85693257D01*
X100792183Y-85714208D01*
X100794291Y-85725527D01*
X100799088Y-85733309D01*
X100808268Y-85748202D01*
X100814951Y-85761069D01*
X100825464Y-85785537D01*
X100829478Y-85790423D01*
X100833842Y-85794787D01*
X100848113Y-85812842D01*
X100853032Y-85820822D01*
X100860307Y-85826354D01*
X100860308Y-85826355D01*
X100876264Y-85838488D01*
X100886344Y-85847289D01*
X101070023Y-86030969D01*
X101097800Y-86085485D01*
X101099019Y-86100972D01*
X101099019Y-96141949D01*
X101098716Y-96146077D01*
X101097093Y-96150804D01*
X101097436Y-96159938D01*
X101098949Y-96200226D01*
X101099019Y-96203941D01*
X101099019Y-96223404D01*
X101099844Y-96227834D01*
X101100181Y-96233031D01*
X101101294Y-96262670D01*
X101104902Y-96271067D01*
X101105838Y-96273246D01*
X101112204Y-96294201D01*
X101114310Y-96305509D01*
X101128285Y-96328180D01*
X101134969Y-96341046D01*
X101145486Y-96365524D01*
X101149500Y-96370410D01*
X101153865Y-96374775D01*
X101168134Y-96392827D01*
X101173051Y-96400804D01*
X101180327Y-96406337D01*
X101180328Y-96406338D01*
X101196288Y-96418474D01*
X101206356Y-96427263D01*
X101228143Y-96449049D01*
X101233490Y-96454396D01*
X101841190Y-97062097D01*
X101868967Y-97116614D01*
X101870186Y-97132101D01*
X101870186Y-97956207D01*
X101851279Y-98014398D01*
X101801779Y-98050362D01*
X101740593Y-98050362D01*
X101701182Y-98026211D01*
X95329496Y-91654525D01*
X95301719Y-91600008D01*
X95300500Y-91584521D01*
X95300500Y-91475154D01*
X95319407Y-91416963D01*
X95339232Y-91396612D01*
X95428282Y-91328282D01*
X95524536Y-91202841D01*
X95585044Y-91056762D01*
X95605682Y-90900000D01*
X95585044Y-90743238D01*
X95524536Y-90597159D01*
X95428282Y-90471718D01*
X95302841Y-90375464D01*
X95156762Y-90314956D01*
X95000000Y-90294318D01*
X94843238Y-90314956D01*
X94697159Y-90375464D01*
X94571718Y-90471718D01*
X94475464Y-90597159D01*
X94414956Y-90743238D01*
X94394318Y-90900000D01*
X80100500Y-90900000D01*
X80100500Y-90430252D01*
X80088867Y-90371769D01*
X80044552Y-90305448D01*
X79978231Y-90261133D01*
X79968668Y-90259231D01*
X79968666Y-90259230D01*
X79945995Y-90254721D01*
X79919748Y-90249500D01*
X78880252Y-90249500D01*
X78854005Y-90254721D01*
X78831334Y-90259230D01*
X78831332Y-90259231D01*
X78821769Y-90261133D01*
X78755448Y-90305448D01*
X78711133Y-90371769D01*
X78699500Y-90430252D01*
X78699500Y-91469748D01*
X78711133Y-91528231D01*
X78755448Y-91594552D01*
X78763558Y-91599971D01*
X78821769Y-91638867D01*
X78820393Y-91640926D01*
X78856260Y-91671559D01*
X78870544Y-91731054D01*
X78852846Y-91780212D01*
X78819413Y-91827783D01*
X78778113Y-91886547D01*
X78716524Y-92044513D01*
X78694394Y-92212611D01*
X73200500Y-92212611D01*
X73200500Y-87000000D01*
X76144318Y-87000000D01*
X76164956Y-87156762D01*
X76225464Y-87302841D01*
X76321718Y-87428282D01*
X76447159Y-87524536D01*
X76559328Y-87570998D01*
X76583275Y-87580917D01*
X76593238Y-87585044D01*
X76750000Y-87605682D01*
X76861284Y-87591031D01*
X76921443Y-87602181D01*
X76944209Y-87619180D01*
X77249680Y-87924651D01*
X77252380Y-87927780D01*
X77254575Y-87932269D01*
X77261278Y-87938487D01*
X77290822Y-87965893D01*
X77293498Y-87968469D01*
X77307277Y-87982248D01*
X77310987Y-87984793D01*
X77314900Y-87988229D01*
X77336646Y-88008401D01*
X77345134Y-88011788D01*
X77345135Y-88011788D01*
X77347336Y-88012666D01*
X77366652Y-88022980D01*
X77368607Y-88024321D01*
X77368610Y-88024322D01*
X77376146Y-88029492D01*
X77402058Y-88035641D01*
X77415884Y-88040014D01*
X77434132Y-88047294D01*
X77434134Y-88047294D01*
X77440622Y-88049883D01*
X77446915Y-88050500D01*
X77453084Y-88050500D01*
X77475943Y-88053175D01*
X77476173Y-88053230D01*
X77476175Y-88053230D01*
X77485066Y-88055340D01*
X77513988Y-88051404D01*
X77527337Y-88050500D01*
X81674846Y-88050500D01*
X81733037Y-88069407D01*
X81753387Y-88089231D01*
X81821718Y-88178282D01*
X81947159Y-88274536D01*
X82093238Y-88335044D01*
X82250000Y-88355682D01*
X82406762Y-88335044D01*
X82552841Y-88274536D01*
X82678282Y-88178282D01*
X82774536Y-88052841D01*
X82835044Y-87906762D01*
X82855682Y-87750000D01*
X82835044Y-87593238D01*
X82774536Y-87447159D01*
X82678282Y-87321718D01*
X82616793Y-87274536D01*
X82556201Y-87228042D01*
X82521545Y-87177618D01*
X82523146Y-87116453D01*
X82560394Y-87067912D01*
X82616468Y-87050500D01*
X83424846Y-87050500D01*
X83483037Y-87069407D01*
X83503387Y-87089231D01*
X83571718Y-87178282D01*
X83697159Y-87274536D01*
X83843238Y-87335044D01*
X84000000Y-87355682D01*
X84156762Y-87335044D01*
X84302841Y-87274536D01*
X84428282Y-87178282D01*
X84524536Y-87052841D01*
X84585044Y-86906762D01*
X84605682Y-86750000D01*
X84585044Y-86593238D01*
X84524536Y-86447159D01*
X84428282Y-86321718D01*
X84302841Y-86225464D01*
X84156762Y-86164956D01*
X84000000Y-86144318D01*
X83843238Y-86164956D01*
X83697159Y-86225464D01*
X83571718Y-86321718D01*
X83503388Y-86410768D01*
X83452963Y-86445423D01*
X83424846Y-86449500D01*
X80825154Y-86449500D01*
X80766963Y-86430593D01*
X80746612Y-86410768D01*
X80678282Y-86321718D01*
X80552841Y-86225464D01*
X80406762Y-86164956D01*
X80250000Y-86144318D01*
X80093238Y-86164956D01*
X79947159Y-86225464D01*
X79821718Y-86321718D01*
X79725464Y-86447159D01*
X79664956Y-86593238D01*
X79644318Y-86750000D01*
X79664956Y-86906762D01*
X79725464Y-87052841D01*
X79821718Y-87178282D01*
X79826871Y-87182236D01*
X79943799Y-87271958D01*
X79978455Y-87322382D01*
X79976854Y-87383547D01*
X79939606Y-87432088D01*
X79883532Y-87449500D01*
X77665479Y-87449500D01*
X77607288Y-87430593D01*
X77595475Y-87420504D01*
X77369180Y-87194209D01*
X77341403Y-87139692D01*
X77341031Y-87111283D01*
X77348048Y-87057990D01*
X77355682Y-87000000D01*
X77335044Y-86843238D01*
X77274536Y-86697159D01*
X77178282Y-86571718D01*
X77052841Y-86475464D01*
X76906762Y-86414956D01*
X76750000Y-86394318D01*
X76593238Y-86414956D01*
X76447159Y-86475464D01*
X76321718Y-86571718D01*
X76225464Y-86697159D01*
X76164956Y-86843238D01*
X76144318Y-87000000D01*
X73200500Y-87000000D01*
X73200500Y-85119000D01*
X73219407Y-85060809D01*
X73268907Y-85024845D01*
X73299500Y-85020000D01*
X80000000Y-85020000D01*
X80000000Y-81750000D01*
X93894318Y-81750000D01*
X93914956Y-81906762D01*
X93975464Y-82052841D01*
X94071718Y-82178282D01*
X94197159Y-82274536D01*
X94343238Y-82335044D01*
X94500000Y-82355682D01*
X94656762Y-82335044D01*
X94802841Y-82274536D01*
X94928282Y-82178282D01*
X95024536Y-82052841D01*
X95085044Y-81906762D01*
X95105682Y-81750000D01*
X95091031Y-81638716D01*
X95102181Y-81578557D01*
X95119180Y-81555791D01*
X95595475Y-81079496D01*
X95649992Y-81051719D01*
X95665479Y-81050500D01*
X99196492Y-81050500D01*
X99200617Y-81050803D01*
X99205342Y-81052425D01*
X99254761Y-81050570D01*
X99258474Y-81050500D01*
X99277948Y-81050500D01*
X99282378Y-81049675D01*
X99287571Y-81049339D01*
X99303602Y-81048737D01*
X99308075Y-81048569D01*
X99317208Y-81048226D01*
X99325602Y-81044620D01*
X99325605Y-81044619D01*
X99327783Y-81043683D01*
X99348734Y-81037317D01*
X99360053Y-81035209D01*
X99382729Y-81021232D01*
X99395596Y-81014548D01*
X99413642Y-81006795D01*
X99413643Y-81006794D01*
X99420063Y-81004036D01*
X99424949Y-81000022D01*
X99429313Y-80995658D01*
X99447368Y-80981387D01*
X99455348Y-80976468D01*
X99473018Y-80953231D01*
X99481810Y-80943161D01*
X100305791Y-80119180D01*
X100360308Y-80091403D01*
X100388714Y-80091031D01*
X100500000Y-80105682D01*
X100506433Y-80104835D01*
X100506434Y-80104835D01*
X100522917Y-80102665D01*
X100583078Y-80113815D01*
X100605843Y-80130814D01*
X102480820Y-82005791D01*
X102508597Y-82060308D01*
X102508969Y-82088714D01*
X102494318Y-82200000D01*
X102514956Y-82356762D01*
X102575464Y-82502841D01*
X102671718Y-82628282D01*
X102797159Y-82724536D01*
X102943238Y-82785044D01*
X103100000Y-82805682D01*
X103256762Y-82785044D01*
X103402841Y-82724536D01*
X103528282Y-82628282D01*
X103624536Y-82502841D01*
X103685044Y-82356762D01*
X103705682Y-82200000D01*
X103685044Y-82043238D01*
X103624536Y-81897159D01*
X103528282Y-81771718D01*
X103402841Y-81675464D01*
X103396850Y-81672982D01*
X103396844Y-81672979D01*
X103347575Y-81652572D01*
X103301049Y-81612836D01*
X103286765Y-81553341D01*
X103310179Y-81496813D01*
X103316521Y-81490796D01*
X103316233Y-81490508D01*
X103320817Y-81485924D01*
X103325970Y-81481970D01*
X103422224Y-81356529D01*
X103476513Y-81225464D01*
X103480248Y-81216447D01*
X103482732Y-81210450D01*
X103503370Y-81053688D01*
X103482732Y-80896926D01*
X103422224Y-80750847D01*
X103325970Y-80625406D01*
X103326774Y-80624789D01*
X103301719Y-80575614D01*
X103300500Y-80560127D01*
X103300500Y-80000000D01*
X106644318Y-80000000D01*
X106664956Y-80156762D01*
X106725464Y-80302841D01*
X106821718Y-80428282D01*
X106947159Y-80524536D01*
X107093238Y-80585044D01*
X107250000Y-80605682D01*
X107406762Y-80585044D01*
X107552841Y-80524536D01*
X107678282Y-80428282D01*
X107774536Y-80302841D01*
X107835044Y-80156762D01*
X107855682Y-80000000D01*
X107835044Y-79843238D01*
X107774536Y-79697159D01*
X107678282Y-79571718D01*
X107589232Y-79503387D01*
X107554577Y-79452963D01*
X107550500Y-79424846D01*
X107550500Y-78075154D01*
X107569407Y-78016963D01*
X107589232Y-77996612D01*
X107678282Y-77928282D01*
X107774536Y-77802841D01*
X107835044Y-77656762D01*
X107854137Y-77511733D01*
X107854835Y-77506434D01*
X107855682Y-77500000D01*
X107835044Y-77343238D01*
X107774536Y-77197159D01*
X107678282Y-77071718D01*
X107552841Y-76975464D01*
X107406762Y-76914956D01*
X107250000Y-76894318D01*
X107093238Y-76914956D01*
X106947159Y-76975464D01*
X106821718Y-77071718D01*
X106725464Y-77197159D01*
X106664956Y-77343238D01*
X106644318Y-77500000D01*
X106645165Y-77506434D01*
X106645863Y-77511733D01*
X106664956Y-77656762D01*
X106725464Y-77802841D01*
X106821718Y-77928282D01*
X106910768Y-77996612D01*
X106945423Y-78047037D01*
X106949500Y-78075154D01*
X106949500Y-79424846D01*
X106930593Y-79483037D01*
X106910769Y-79503387D01*
X106821718Y-79571718D01*
X106725464Y-79697159D01*
X106664956Y-79843238D01*
X106644318Y-80000000D01*
X103300500Y-80000000D01*
X103300500Y-77654654D01*
X103319407Y-77596463D01*
X103339232Y-77576112D01*
X103428282Y-77507782D01*
X103524536Y-77382341D01*
X103585044Y-77236262D01*
X103605682Y-77079500D01*
X103604658Y-77071718D01*
X103594440Y-76994108D01*
X103585044Y-76922738D01*
X103524536Y-76776659D01*
X103428282Y-76651218D01*
X103302841Y-76554964D01*
X103156762Y-76494456D01*
X103000000Y-76473818D01*
X102843238Y-76494456D01*
X102697159Y-76554964D01*
X102571718Y-76651218D01*
X102570509Y-76649642D01*
X102524114Y-76673281D01*
X102508627Y-76674500D01*
X101255970Y-76674500D01*
X101197779Y-76655593D01*
X101177428Y-76635767D01*
X101132236Y-76576871D01*
X101128282Y-76571718D01*
X101002841Y-76475464D01*
X100856762Y-76414956D01*
X100700000Y-76394318D01*
X100543238Y-76414956D01*
X100397159Y-76475464D01*
X100271718Y-76571718D01*
X100175464Y-76697159D01*
X100114956Y-76843238D01*
X100094318Y-77000000D01*
X100114956Y-77156762D01*
X100175464Y-77302841D01*
X100271718Y-77428282D01*
X100397159Y-77524536D01*
X100543238Y-77585044D01*
X100700000Y-77605682D01*
X100856762Y-77585044D01*
X101002841Y-77524536D01*
X101128282Y-77428282D01*
X101177429Y-77364233D01*
X101227852Y-77329577D01*
X101255970Y-77325500D01*
X102386468Y-77325500D01*
X102444659Y-77344407D01*
X102472206Y-77375002D01*
X102472978Y-77376339D01*
X102475464Y-77382341D01*
X102479415Y-77387490D01*
X102479417Y-77387493D01*
X102510716Y-77428282D01*
X102571718Y-77507782D01*
X102660768Y-77576112D01*
X102695423Y-77626537D01*
X102699500Y-77654654D01*
X102699500Y-80419653D01*
X102680593Y-80477844D01*
X102638387Y-80511117D01*
X102594847Y-80529152D01*
X102469406Y-80625406D01*
X102373152Y-80750847D01*
X102342765Y-80824208D01*
X102303028Y-80870733D01*
X102243534Y-80885017D01*
X102187006Y-80861602D01*
X102181297Y-80856326D01*
X101101560Y-79776589D01*
X101073783Y-79722072D01*
X101080099Y-79668702D01*
X101082559Y-79662762D01*
X101082559Y-79662760D01*
X101085044Y-79656762D01*
X101105682Y-79500000D01*
X101085044Y-79343238D01*
X101024536Y-79197159D01*
X100928282Y-79071718D01*
X100802841Y-78975464D01*
X100656762Y-78914956D01*
X100500000Y-78894318D01*
X100343238Y-78914956D01*
X100197159Y-78975464D01*
X100071718Y-79071718D01*
X99975464Y-79197159D01*
X99914956Y-79343238D01*
X99894318Y-79500000D01*
X99900317Y-79545563D01*
X99908969Y-79611283D01*
X99897819Y-79671443D01*
X99880820Y-79694209D01*
X99154525Y-80420504D01*
X99100008Y-80448281D01*
X99084521Y-80449500D01*
X95553514Y-80449500D01*
X95549385Y-80449197D01*
X95544658Y-80447574D01*
X95503266Y-80449128D01*
X95495223Y-80449430D01*
X95491509Y-80449500D01*
X95472052Y-80449500D01*
X95467622Y-80450325D01*
X95462436Y-80450661D01*
X95441925Y-80451431D01*
X95441924Y-80451431D01*
X95432792Y-80451774D01*
X95424398Y-80455380D01*
X95424395Y-80455381D01*
X95422217Y-80456317D01*
X95401266Y-80462683D01*
X95389947Y-80464791D01*
X95367269Y-80478770D01*
X95354410Y-80485450D01*
X95329938Y-80495964D01*
X95325051Y-80499977D01*
X95320685Y-80504343D01*
X95302629Y-80518615D01*
X95302432Y-80518736D01*
X95302431Y-80518737D01*
X95294652Y-80523532D01*
X95276992Y-80546757D01*
X95268191Y-80556838D01*
X94694209Y-81130820D01*
X94639692Y-81158597D01*
X94611286Y-81158969D01*
X94500000Y-81144318D01*
X94343238Y-81164956D01*
X94197159Y-81225464D01*
X94071718Y-81321718D01*
X93975464Y-81447159D01*
X93914956Y-81593238D01*
X93894318Y-81750000D01*
X80000000Y-81750000D01*
X80000000Y-78000000D01*
X90144457Y-78000000D01*
X90144669Y-78003234D01*
X90152356Y-78120508D01*
X90164609Y-78307460D01*
X90224720Y-78609659D01*
X90323762Y-78901427D01*
X90389811Y-79035360D01*
X90454199Y-79165926D01*
X90460040Y-79177771D01*
X90631222Y-79433964D01*
X90834380Y-79665620D01*
X91066036Y-79868778D01*
X91322229Y-80039960D01*
X91325135Y-80041393D01*
X91325140Y-80041396D01*
X91426545Y-80091403D01*
X91598573Y-80176238D01*
X91890341Y-80275280D01*
X92192540Y-80335391D01*
X92195762Y-80335602D01*
X92195768Y-80335603D01*
X92421441Y-80350394D01*
X92421443Y-80350394D01*
X92423059Y-80350500D01*
X92576941Y-80350500D01*
X92578557Y-80350394D01*
X92578559Y-80350394D01*
X92804232Y-80335603D01*
X92804238Y-80335602D01*
X92807460Y-80335391D01*
X93109659Y-80275280D01*
X93401427Y-80176238D01*
X93573455Y-80091403D01*
X93674860Y-80041396D01*
X93674865Y-80041393D01*
X93677771Y-80039960D01*
X93933964Y-79868778D01*
X94165620Y-79665620D01*
X94368778Y-79433964D01*
X94374871Y-79424846D01*
X94538153Y-79180476D01*
X94539960Y-79177772D01*
X94676238Y-78901427D01*
X94775280Y-78609659D01*
X94835391Y-78307460D01*
X94847645Y-78120508D01*
X94855331Y-78003234D01*
X94855543Y-78000000D01*
X94835391Y-77692540D01*
X94775280Y-77390341D01*
X94676238Y-77098573D01*
X94575928Y-76895165D01*
X94541396Y-76825140D01*
X94541393Y-76825135D01*
X94539960Y-76822229D01*
X94368778Y-76566036D01*
X94165620Y-76334380D01*
X93933964Y-76131222D01*
X93677771Y-75960040D01*
X93674865Y-75958607D01*
X93674860Y-75958604D01*
X93535360Y-75889811D01*
X93401427Y-75823762D01*
X93109659Y-75724720D01*
X92807460Y-75664609D01*
X92804238Y-75664398D01*
X92804232Y-75664397D01*
X92578559Y-75649606D01*
X92578557Y-75649606D01*
X92576941Y-75649500D01*
X92423059Y-75649500D01*
X92421443Y-75649606D01*
X92421441Y-75649606D01*
X92195768Y-75664397D01*
X92195762Y-75664398D01*
X92192540Y-75664609D01*
X91890341Y-75724720D01*
X91598573Y-75823762D01*
X91464640Y-75889811D01*
X91325140Y-75958604D01*
X91325135Y-75958607D01*
X91322229Y-75960040D01*
X91066036Y-76131222D01*
X90834380Y-76334380D01*
X90631222Y-76566036D01*
X90460040Y-76822228D01*
X90323762Y-77098573D01*
X90224720Y-77390341D01*
X90164609Y-77692540D01*
X90144457Y-78000000D01*
X80000000Y-78000000D01*
X80000000Y-75299500D01*
X80018907Y-75241309D01*
X80068407Y-75205345D01*
X80099000Y-75200500D01*
X113846208Y-75200500D01*
X113904399Y-75219407D01*
G37*
%TD.AperFunction*%
%TD*%
%TA.AperFunction,Conductor*%
%TO.N,/VIN*%
G36*
X78715399Y-106918907D02*
G01*
X78748672Y-106961113D01*
X78777302Y-107030233D01*
X78781248Y-107035375D01*
X78781250Y-107035379D01*
X78861269Y-107139661D01*
X78869549Y-107150451D01*
X78874698Y-107154402D01*
X78984621Y-107238750D01*
X78984625Y-107238752D01*
X78989767Y-107242698D01*
X78995756Y-107245179D01*
X78995760Y-107245181D01*
X79123767Y-107298203D01*
X79129764Y-107300687D01*
X79242280Y-107315500D01*
X79317720Y-107315500D01*
X79430236Y-107300687D01*
X79436233Y-107298203D01*
X79564240Y-107245181D01*
X79564244Y-107245179D01*
X79570233Y-107242698D01*
X79575375Y-107238752D01*
X79575379Y-107238750D01*
X79685302Y-107154402D01*
X79690451Y-107150451D01*
X79698731Y-107139661D01*
X79778750Y-107035379D01*
X79778752Y-107035375D01*
X79782698Y-107030233D01*
X79811328Y-106961114D01*
X79851065Y-106914589D01*
X79902792Y-106900000D01*
X81893512Y-106900000D01*
X81906434Y-106900847D01*
X82016487Y-106915336D01*
X82041451Y-106922025D01*
X82137957Y-106961999D01*
X82160339Y-106974921D01*
X82243213Y-107038513D01*
X82261487Y-107056787D01*
X82325079Y-107139661D01*
X82338001Y-107162043D01*
X82377975Y-107258549D01*
X82384664Y-107283513D01*
X82399153Y-107393566D01*
X82400000Y-107406488D01*
X82400000Y-107893512D01*
X82399153Y-107906434D01*
X82384664Y-108016487D01*
X82377975Y-108041451D01*
X82338001Y-108137957D01*
X82325079Y-108160339D01*
X82261487Y-108243213D01*
X82243213Y-108261487D01*
X82160339Y-108325079D01*
X82137957Y-108338001D01*
X82041451Y-108377975D01*
X82016487Y-108384664D01*
X81906434Y-108399153D01*
X81893512Y-108400000D01*
X79400000Y-108400000D01*
X79400000Y-110800000D01*
X81693512Y-110800000D01*
X81706434Y-110800847D01*
X81816487Y-110815336D01*
X81841451Y-110822025D01*
X81937957Y-110861999D01*
X81960339Y-110874921D01*
X82043213Y-110938513D01*
X82061487Y-110956787D01*
X82125079Y-111039661D01*
X82138001Y-111062043D01*
X82177975Y-111158549D01*
X82184664Y-111183513D01*
X82199153Y-111293566D01*
X82200000Y-111306488D01*
X82200000Y-112293512D01*
X82199153Y-112306434D01*
X82184664Y-112416487D01*
X82177975Y-112441451D01*
X82138001Y-112537957D01*
X82125079Y-112560339D01*
X82061487Y-112643213D01*
X82043213Y-112661487D01*
X81960339Y-112725079D01*
X81937957Y-112738001D01*
X81841451Y-112777975D01*
X81816487Y-112784664D01*
X81706434Y-112799153D01*
X81693512Y-112800000D01*
X79934059Y-112800000D01*
X79875868Y-112781093D01*
X79839904Y-112731593D01*
X79838440Y-112675660D01*
X79840687Y-112670236D01*
X79860466Y-112520000D01*
X79840687Y-112369764D01*
X79814455Y-112306434D01*
X79785181Y-112235760D01*
X79785179Y-112235756D01*
X79782698Y-112229767D01*
X79778752Y-112224625D01*
X79778750Y-112224621D01*
X79694402Y-112114698D01*
X79690451Y-112109549D01*
X79685302Y-112105598D01*
X79575379Y-112021250D01*
X79575375Y-112021248D01*
X79570233Y-112017302D01*
X79564244Y-112014821D01*
X79564240Y-112014819D01*
X79436233Y-111961797D01*
X79430236Y-111959313D01*
X79317720Y-111944500D01*
X79242280Y-111944500D01*
X79129764Y-111959313D01*
X79123767Y-111961797D01*
X78995760Y-112014819D01*
X78995756Y-112014821D01*
X78989767Y-112017302D01*
X78984625Y-112021248D01*
X78984621Y-112021250D01*
X78874698Y-112105598D01*
X78869549Y-112109549D01*
X78865598Y-112114698D01*
X78781250Y-112224621D01*
X78781248Y-112224625D01*
X78777302Y-112229767D01*
X78774821Y-112235756D01*
X78774819Y-112235760D01*
X78745545Y-112306434D01*
X78719313Y-112369764D01*
X78699534Y-112520000D01*
X78719313Y-112670236D01*
X78721553Y-112675644D01*
X78718366Y-112736477D01*
X78679861Y-112784028D01*
X78625941Y-112800000D01*
X76506488Y-112800000D01*
X76493566Y-112799153D01*
X76383513Y-112784664D01*
X76358549Y-112777975D01*
X76262043Y-112738001D01*
X76239661Y-112725079D01*
X76156787Y-112661487D01*
X76138513Y-112643213D01*
X76074921Y-112560339D01*
X76061999Y-112537957D01*
X76022025Y-112441451D01*
X76015336Y-112416487D01*
X76000847Y-112306434D01*
X76000000Y-112293512D01*
X76000000Y-107406488D01*
X76000847Y-107393566D01*
X76015336Y-107283513D01*
X76022025Y-107258549D01*
X76061999Y-107162043D01*
X76074921Y-107139661D01*
X76138513Y-107056787D01*
X76156787Y-107038513D01*
X76239661Y-106974921D01*
X76262043Y-106961999D01*
X76358549Y-106922025D01*
X76383513Y-106915336D01*
X76493566Y-106900847D01*
X76506488Y-106900000D01*
X78657208Y-106900000D01*
X78715399Y-106918907D01*
G37*
%TD.AperFunction*%
%TD*%
M02*
