M48
; DRILL file {KiCad 6.0.11+dfsg-1} date Sat Nov 18 19:10:18 2023
; FORMAT={-:-/ absolute / inch / decimal}
; #@! TF.CreationDate,2023-11-18T19:10:18+05:30
; #@! TF.GenerationSoftware,Kicad,Pcbnew,6.0.11+dfsg-1
; #@! TF.FileFunction,Plated,1,2,PTH
FMAT,2
INCH
; #@! TA.AperFunction,Plated,PTH,ViaDrill
T1C0.0079
; #@! TA.AperFunction,Plated,PTH,ComponentDrill
T2C0.0079
; #@! TA.AperFunction,Plated,PTH,ViaDrill
T3C0.0157
; #@! TA.AperFunction,Plated,PTH,ComponentDrill
T4C0.0236
; #@! TA.AperFunction,Plated,PTH,ComponentDrill
T5C0.0256
; #@! TA.AperFunction,Plated,PTH,ComponentDrill
T6C0.0295
; #@! TA.AperFunction,Plated,PTH,ComponentDrill
T7C0.0315
%
G90
G05
T1
X3.3465Y-3.9862
X3.3465Y-4.0157
X3.3465Y-4.0453
X3.376Y-3.9862
X3.376Y-4.0157
X3.376Y-4.0453
T2
X2.9232Y-3.1622
X2.9232Y-3.1976
X2.9232Y-3.239
X2.9232Y-3.2783
X2.9685Y-3.1622
X3.0118Y-3.1622
X3.0571Y-3.1622
T3
X2.9035Y-3.3661
X2.9035Y-3.4252
X2.9134Y-4.1929
X2.9232Y-3.6417
X2.9232Y-3.8681
X2.9232Y-4.7146
X2.9528Y-4.2618
X2.9528Y-4.3406
X2.9528Y-4.4291
X2.9606Y-4.5394
X2.9626Y-3.3661
X2.9724Y-3.4843
X3.002Y-3.8681
X3.0118Y-3.6417
X3.0217Y-3.3661
X3.0217Y-3.4252
X3.0413Y-4.7047
X3.061Y-4.3209
X3.061Y-4.3701
X3.061Y-4.4193
X3.061Y-4.8425
X3.0669Y-3.7992
X3.0709Y-4.1142
X3.0709Y-4.1732
X3.0807Y-3.3661
X3.1004Y-4.7047
X3.1102Y-3.7106
X3.1181Y-3.8386
X3.1398Y-3.3661
X3.1398Y-3.9961
X3.1398Y-4.0453
X3.1594Y-3.4154
X3.1594Y-4.5669
X3.1594Y-4.6161
X3.1594Y-4.6752
X3.1791Y-3.5433
X3.1811Y-3.6516
X3.1811Y-3.7087
X3.1811Y-3.7087
X3.189Y-3.2283
X3.189Y-3.2776
X3.189Y-3.3268
X3.189Y-3.3661
X3.189Y-3.9961
X3.189Y-4.0453
X3.189Y-4.0945
X3.1988Y-3.0906
X3.1988Y-3.1398
X3.2126Y-4.1732
X3.2165Y-4.4134
X3.2185Y-4.4685
X3.2185Y-4.5177
X3.2205Y-3.7165
X3.2244Y-4.2244
X3.2283Y-4.5669
X3.2283Y-4.6161
X3.2283Y-4.6752
X3.2382Y-3.4547
X3.248Y-4.8819
X3.2579Y-3.2185
X3.2579Y-4.7343
X3.2756Y-4.1732
X3.2795Y-3.7165
X3.2874Y-3.4547
X3.2874Y-4.6752
X3.3071Y-3.4154
X3.3071Y-4.8425
X3.3268Y-3.0906
X3.3268Y-3.7165
X3.3268Y-3.8386
X3.3366Y-4.3799
X3.3465Y-3.1398
X3.3465Y-3.2185
X3.3661Y-3.4547
X3.3661Y-3.7165
X3.3661Y-4.8425
X3.3701Y-3.5827
X3.376Y-3.3465
X3.3858Y-2.9921
X3.3858Y-3.0413
X3.3858Y-3.0906
X3.3858Y-3.1398
X3.4055Y-3.748
X3.4055Y-4.3799
X3.4055Y-4.8819
X3.4252Y-4.4685
X3.4252Y-4.5965
X3.435Y-3.2185
X3.435Y-3.3465
X3.437Y-4.1811
X3.4449Y-2.9921
X3.4449Y-3.0413
X3.4449Y-3.0906
X3.4449Y-4.2717
X3.4646Y-3.1398
X3.4843Y-4.2126
X3.4843Y-4.3799
X3.4843Y-4.5965
X3.4941Y-3.3465
X3.5Y-3.7244
X3.5039Y-2.9921
X3.5039Y-3.0413
X3.5039Y-3.0906
X3.5039Y-3.1398
X3.5039Y-3.4547
X3.5138Y-4.2717
X3.5236Y-4.4685
X3.5315Y-4.0197
X3.5315Y-4.0669
X3.5315Y-4.1142
X3.5531Y-3.1496
X3.5531Y-3.3465
X3.5531Y-4.6555
X3.5531Y-4.7244
X3.5531Y-4.8031
X3.563Y-4.3799
X3.5728Y-3.9823
X3.5827Y-3.189
X3.5925Y-4.2126
X3.5925Y-4.2717
X3.6024Y-3.9272
X3.622Y-4.6555
X3.6319Y-3.376
X3.6319Y-3.4547
X3.6319Y-3.5335
X3.6417Y-3.7402
X3.6417Y-3.7795
X3.6417Y-3.8484
X3.6417Y-3.8976
X3.6417Y-4.065
X3.6417Y-4.3799
X3.6516Y-3.189
X3.6516Y-3.2382
X3.6614Y-4.2126
X3.6614Y-4.2717
X3.6811Y-4.4685
X3.6811Y-4.7736
X3.7008Y-3.1693
X3.7008Y-3.435
X3.7008Y-3.6319
X3.7008Y-4.065
X3.7205Y-3.2185
X3.7244Y-3.2992
X3.7244Y-4.5748
X3.7303Y-3.7402
X3.7303Y-3.7992
X3.7402Y-2.9921
X3.7402Y-3.1398
X3.7402Y-3.5787
X3.7402Y-4.3618
X3.7756Y-4.1772
X3.7795Y-3.2185
X3.7795Y-3.2579
X3.7795Y-3.2972
X3.7795Y-3.8091
X3.7894Y-4.0551
X3.7894Y-4.252
X3.7992Y-2.9921
X3.7992Y-3.0413
X3.7992Y-3.0906
X3.7992Y-3.1398
X3.7992Y-3.3366
X3.7992Y-4.8228
X3.8091Y-4.2028
X3.8091Y-4.5472
X3.8287Y-3.6319
X3.8376Y-4.1427
X3.8386Y-3.4154
X3.8386Y-3.4744
X3.8484Y-4.6654
X3.8484Y-4.7047
X3.8583Y-2.9921
X3.8583Y-3.0413
X3.8583Y-3.0906
X3.8583Y-3.248
X3.8583Y-3.7894
X3.8681Y-4.0748
X3.8819Y-3.8819
X3.8878Y-4.8031
X3.9173Y-2.9921
X3.9173Y-3.0413
X3.9173Y-3.3268
X3.9272Y-4.3504
X3.9272Y-4.4291
X3.9567Y-3.1299
X3.9567Y-3.4154
X3.9567Y-3.4941
X3.9567Y-3.5531
X3.9606Y-3.7874
X3.9646Y-3.0315
X3.9665Y-4.3898
X3.9862Y-2.9921
X3.9915Y-3.2486
X4.0059Y-3.1102
X4.0059Y-4.3504
X4.0059Y-4.4291
X4.0256Y-4.0748
X4.0354Y-4.0059
X4.039Y-3.5351
X4.0394Y-3.3701
X4.0453Y-3.9469
X4.0511Y-3.1911
X4.0551Y-3.0346
X4.0551Y-3.6319
X4.0551Y-4.5768
X4.0551Y-4.626
X4.0591Y-3.2362
X4.0701Y-4.0996
X4.0764Y-3.5354
X4.08Y-3.88
X4.0945Y-3.2677
X4.0945Y-3.3465
X4.0945Y-3.7205
X4.0945Y-3.9469
X4.1043Y-3.4154
X4.1043Y-4.5276
X4.1099Y-4.0599
X4.1142Y-3.1988
X4.1142Y-3.9075
X4.1142Y-4.6555
X4.1457Y-4.0079
X4.1535Y-3.1496
X4.1535Y-3.1988
X4.1614Y-4.2362
X4.1622Y-4.1522
X4.1634Y-3.5433
X4.1634Y-3.7106
X4.1634Y-3.8386
X4.1654Y-4.6457
X4.1811Y-4.4724
X4.1831Y-3.8878
X4.1929Y-3.4154
X4.1929Y-3.9567
X4.1969Y-4.122
X4.1969Y-4.6142
X4.2224Y-2.9921
X4.2224Y-3.0512
X4.2224Y-3.1496
X4.2224Y-3.2579
X4.2717Y-3.1496
X4.2717Y-4.2618
X4.2717Y-4.439
X4.2815Y-3.4154
X4.2815Y-3.8386
X4.2913Y-4.0276
X4.2953Y-3.2839
X4.2992Y-4.8031
X4.3012Y-3.1299
X4.3012Y-3.1791
X4.3209Y-3.5039
X4.3209Y-3.6319
X4.3209Y-3.75
X4.3209Y-4.4882
X4.3229Y-3.2559
X4.3307Y-3.0315
X4.3307Y-4.5571
X4.3406Y-3.3465
X4.3504Y-3.6969
X4.3602Y-4.2618
X4.3701Y-4.0846
X4.3779Y-3.6417
X4.3799Y-3.1398
X4.3996Y-3.1102
X4.3996Y-3.2776
X4.3996Y-4.3012
X4.4016Y-3.2087
X4.4193Y-3.9075
X4.4193Y-4.0256
X4.439Y-3.2382
X4.439Y-4.3504
X4.4567Y-3.6974
X4.4587Y-3.189
X4.4646Y-3.6417
X4.4685Y-2.9823
X4.4783Y-4.498
X4.4803Y-4.4173
X4.5276Y-3.2677
X4.5276Y-3.4055
X4.5276Y-3.563
X4.5276Y-3.7008
X4.5276Y-3.8386
X4.5276Y-3.9567
X4.5472Y-4.2717
X4.5768Y-4.3996
X4.5768Y-4.439
X4.5866Y-3.9567
X4.5866Y-3.9961
X4.5866Y-4.748
X4.5866Y-4.8858
X4.6211Y-4.6801
X4.6358Y-4.3996
X4.6555Y-4.6457
X4.7244Y-3.2677
X4.7638Y-3.1398
X4.7717Y-4.2874
X4.7717Y-4.3228
X4.8031Y-3.2677
X4.8031Y-3.3465
X4.8031Y-3.4252
X4.8031Y-3.5039
X4.8031Y-3.5827
X4.8031Y-3.6614
X4.8031Y-3.7402
X4.8031Y-3.8189
X4.8031Y-3.8976
X4.8031Y-3.9764
X4.8031Y-4.0551
X4.811Y-4.6929
X4.813Y-3.1102
X4.8189Y-4.5039
T5
X3.126Y-3.5807
X3.126Y-3.6307
X4.7146Y-4.4311
X4.7146Y-4.4811
X4.7146Y-4.5311
X4.7146Y-4.5811
T6
X3.6181Y-4.7736
X3.6772Y-4.6949
X3.7362Y-4.7736
X3.7953Y-4.6949
X4.2421Y-4.7746
X4.3012Y-4.6959
X4.3602Y-4.7746
X4.4193Y-4.6959
X4.4783Y-4.7746
X4.5374Y-4.6959
X4.6132Y-4.065
X4.6132Y-4.1831
X4.6919Y-4.124
X4.6919Y-4.2421
T7
X3.4488Y-3.7854
X3.4488Y-3.8642
T4
G00X2.9921Y-4.1461
M15
G01X2.9606Y-4.1461
M16
G05
G00X2.9921Y-4.4862
M15
G01X2.9606Y-4.4862
M16
G05
G00X3.1626Y-4.1461
M15
G01X3.1193Y-4.1461
M16
G05
G00X3.1626Y-4.4862
M15
G01X3.1193Y-4.4862
M16
G05
T0
M30
