%TF.GenerationSoftware,KiCad,Pcbnew,6.0.11+dfsg-1*%
%TF.CreationDate,2023-11-18T19:10:20+05:30*%
%TF.ProjectId,c3rl-at-r-beta-2,6333726c-2d61-4742-9d72-2d626574612d,rev?*%
%TF.SameCoordinates,Original*%
%TF.FileFunction,Soldermask,Top*%
%TF.FilePolarity,Negative*%
%FSLAX46Y46*%
G04 Gerber Fmt 4.6, Leading zero omitted, Abs format (unit mm)*
G04 Created by KiCad (PCBNEW 6.0.11+dfsg-1) date 2023-11-18 19:10:20*
%MOMM*%
%LPD*%
G01*
G04 APERTURE LIST*
G04 Aperture macros list*
%AMRoundRect*
0 Rectangle with rounded corners*
0 $1 Rounding radius*
0 $2 $3 $4 $5 $6 $7 $8 $9 X,Y pos of 4 corners*
0 Add a 4 corners polygon primitive as box body*
4,1,4,$2,$3,$4,$5,$6,$7,$8,$9,$2,$3,0*
0 Add four circle primitives for the rounded corners*
1,1,$1+$1,$2,$3*
1,1,$1+$1,$4,$5*
1,1,$1+$1,$6,$7*
1,1,$1+$1,$8,$9*
0 Add four rect primitives between the rounded corners*
20,1,$1+$1,$2,$3,$4,$5,0*
20,1,$1+$1,$4,$5,$6,$7,0*
20,1,$1+$1,$6,$7,$8,$9,0*
20,1,$1+$1,$8,$9,$2,$3,0*%
%AMFreePoly0*
4,1,22,0.145671,0.855970,0.226777,0.801777,0.626777,0.401777,0.680970,0.320671,0.700000,0.225000,0.700000,-0.625000,0.680970,-0.720671,0.626777,-0.801777,0.545671,-0.855970,0.450000,-0.875000,-0.450000,-0.875000,-0.545671,-0.855970,-0.626777,-0.801777,-0.680970,-0.720671,-0.700000,-0.625000,-0.700000,0.625000,-0.680970,0.720671,-0.626777,0.801777,-0.545671,0.855970,-0.450000,0.875000,
0.050000,0.875000,0.145671,0.855970,0.145671,0.855970,$1*%
G04 Aperture macros list end*
%ADD10C,0.010000*%
%ADD11RoundRect,0.150000X0.150000X-0.587500X0.150000X0.587500X-0.150000X0.587500X-0.150000X-0.587500X0*%
%ADD12RoundRect,0.135000X0.185000X-0.135000X0.185000X0.135000X-0.185000X0.135000X-0.185000X-0.135000X0*%
%ADD13RoundRect,0.135000X-0.135000X-0.185000X0.135000X-0.185000X0.135000X0.185000X-0.135000X0.185000X0*%
%ADD14RoundRect,0.135000X0.135000X0.185000X-0.135000X0.185000X-0.135000X-0.185000X0.135000X-0.185000X0*%
%ADD15RoundRect,0.147500X0.147500X0.172500X-0.147500X0.172500X-0.147500X-0.172500X0.147500X-0.172500X0*%
%ADD16R,1.000000X2.000000*%
%ADD17RoundRect,0.225000X-0.225000X-0.250000X0.225000X-0.250000X0.225000X0.250000X-0.225000X0.250000X0*%
%ADD18R,1.340000X0.590000*%
%ADD19FreePoly0,270.000000*%
%ADD20O,1.750000X1.400000*%
%ADD21RoundRect,0.140000X-0.140000X-0.170000X0.140000X-0.170000X0.140000X0.170000X-0.140000X0.170000X0*%
%ADD22RoundRect,0.250000X-0.250000X-1.500000X0.250000X-1.500000X0.250000X1.500000X-0.250000X1.500000X0*%
%ADD23RoundRect,0.250001X-0.499999X-1.449999X0.499999X-1.449999X0.499999X1.449999X-0.499999X1.449999X0*%
%ADD24R,1.350000X1.350000*%
%ADD25O,1.350000X1.350000*%
%ADD26RoundRect,0.225000X0.225000X0.250000X-0.225000X0.250000X-0.225000X-0.250000X0.225000X-0.250000X0*%
%ADD27RoundRect,0.140000X0.140000X0.170000X-0.140000X0.170000X-0.140000X-0.170000X0.140000X-0.170000X0*%
%ADD28R,0.350000X0.800000*%
%ADD29R,0.600000X0.260000*%
%ADD30R,0.600000X0.700000*%
%ADD31O,0.800000X1.800000*%
%ADD32RoundRect,0.135000X-0.185000X0.135000X-0.185000X-0.135000X0.185000X-0.135000X0.185000X0.135000X0*%
%ADD33RoundRect,0.025600X-0.594400X-0.134400X0.594400X-0.134400X0.594400X0.134400X-0.594400X0.134400X0*%
%ADD34R,0.900000X0.300000*%
%ADD35R,0.250000X1.650000*%
%ADD36R,1.000000X1.000000*%
%ADD37O,1.000000X1.000000*%
%ADD38RoundRect,0.140000X0.170000X-0.140000X0.170000X0.140000X-0.170000X0.140000X-0.170000X-0.140000X0*%
%ADD39RoundRect,0.140000X-0.170000X0.140000X-0.170000X-0.140000X0.170000X-0.140000X0.170000X0.140000X0*%
%ADD40FreePoly0,180.000000*%
%ADD41O,1.400000X1.750000*%
%ADD42R,0.300000X0.750000*%
%ADD43R,1.500000X1.300000*%
%ADD44RoundRect,0.218750X-0.218750X-0.256250X0.218750X-0.256250X0.218750X0.256250X-0.218750X0.256250X0*%
%ADD45RoundRect,0.225000X-0.250000X0.225000X-0.250000X-0.225000X0.250000X-0.225000X0.250000X0.225000X0*%
%ADD46C,0.001000*%
%ADD47R,1.600000X0.700000*%
%ADD48R,1.400000X1.200000*%
%ADD49R,2.200000X1.200000*%
%ADD50R,1.400000X1.600000*%
%ADD51RoundRect,0.225000X0.250000X-0.225000X0.250000X0.225000X-0.250000X0.225000X-0.250000X-0.225000X0*%
%ADD52RoundRect,0.150000X-0.150000X0.512500X-0.150000X-0.512500X0.150000X-0.512500X0.150000X0.512500X0*%
%ADD53RoundRect,0.050000X0.050000X-0.387500X0.050000X0.387500X-0.050000X0.387500X-0.050000X-0.387500X0*%
%ADD54RoundRect,0.050000X0.387500X-0.050000X0.387500X0.050000X-0.387500X0.050000X-0.387500X-0.050000X0*%
%ADD55R,3.200000X3.200000*%
%ADD56RoundRect,0.150000X0.650000X0.150000X-0.650000X0.150000X-0.650000X-0.150000X0.650000X-0.150000X0*%
%ADD57R,1.100000X2.250000*%
%ADD58R,1.050000X1.100000*%
%ADD59C,4.700000*%
%ADD60R,1.550000X0.600000*%
%ADD61R,1.800000X1.200000*%
%ADD62R,0.812800X0.406400*%
%ADD63R,1.600200X2.489200*%
%ADD64RoundRect,0.150000X0.587500X0.150000X-0.587500X0.150000X-0.587500X-0.150000X0.587500X-0.150000X0*%
%ADD65R,0.980000X1.100000*%
%ADD66C,0.650000*%
%ADD67R,1.150000X0.600000*%
%ADD68R,1.150000X0.300000*%
%ADD69O,2.100000X1.050000*%
%ADD70O,2.000000X1.000000*%
%ADD71R,0.700000X0.600000*%
G04 APERTURE END LIST*
%TO.C,U8*%
G36*
X99515000Y-82475000D02*
G01*
X98805000Y-82475000D01*
X98805000Y-82025000D01*
X99515000Y-82025000D01*
X99515000Y-82475000D01*
G37*
D10*
X99515000Y-82475000D02*
X98805000Y-82475000D01*
X98805000Y-82025000D01*
X99515000Y-82025000D01*
X99515000Y-82475000D01*
G36*
X97855000Y-83640000D02*
G01*
X97145000Y-83640000D01*
X97145000Y-83190000D01*
X97855000Y-83190000D01*
X97855000Y-83640000D01*
G37*
X97855000Y-83640000D02*
X97145000Y-83640000D01*
X97145000Y-83190000D01*
X97855000Y-83190000D01*
X97855000Y-83640000D01*
G36*
X97195000Y-82975000D02*
G01*
X96485000Y-82975000D01*
X96485000Y-82525000D01*
X97195000Y-82525000D01*
X97195000Y-82975000D01*
G37*
X97195000Y-82975000D02*
X96485000Y-82975000D01*
X96485000Y-82525000D01*
X97195000Y-82525000D01*
X97195000Y-82975000D01*
G36*
X97195000Y-82475000D02*
G01*
X96485000Y-82475000D01*
X96485000Y-82025000D01*
X97195000Y-82025000D01*
X97195000Y-82475000D01*
G37*
X97195000Y-82475000D02*
X96485000Y-82475000D01*
X96485000Y-82025000D01*
X97195000Y-82025000D01*
X97195000Y-82475000D01*
G36*
X97195000Y-83475000D02*
G01*
X96485000Y-83475000D01*
X96485000Y-83025000D01*
X97195000Y-83025000D01*
X97195000Y-83475000D01*
G37*
X97195000Y-83475000D02*
X96485000Y-83475000D01*
X96485000Y-83025000D01*
X97195000Y-83025000D01*
X97195000Y-83475000D01*
G36*
X98855000Y-81810000D02*
G01*
X98145000Y-81810000D01*
X98145000Y-81360000D01*
X98855000Y-81360000D01*
X98855000Y-81810000D01*
G37*
X98855000Y-81810000D02*
X98145000Y-81810000D01*
X98145000Y-81360000D01*
X98855000Y-81360000D01*
X98855000Y-81810000D01*
G36*
X99515000Y-83475000D02*
G01*
X98805000Y-83475000D01*
X98805000Y-83025000D01*
X99515000Y-83025000D01*
X99515000Y-83475000D01*
G37*
X99515000Y-83475000D02*
X98805000Y-83475000D01*
X98805000Y-83025000D01*
X99515000Y-83025000D01*
X99515000Y-83475000D01*
G36*
X98855000Y-83640000D02*
G01*
X98145000Y-83640000D01*
X98145000Y-83190000D01*
X98855000Y-83190000D01*
X98855000Y-83640000D01*
G37*
X98855000Y-83640000D02*
X98145000Y-83640000D01*
X98145000Y-83190000D01*
X98855000Y-83190000D01*
X98855000Y-83640000D01*
G36*
X98355000Y-81810000D02*
G01*
X97645000Y-81810000D01*
X97645000Y-81360000D01*
X98355000Y-81360000D01*
X98355000Y-81810000D01*
G37*
X98355000Y-81810000D02*
X97645000Y-81810000D01*
X97645000Y-81360000D01*
X98355000Y-81360000D01*
X98355000Y-81810000D01*
G36*
X97195000Y-81975000D02*
G01*
X96485000Y-81975000D01*
X96485000Y-81525000D01*
X97195000Y-81525000D01*
X97195000Y-81975000D01*
G37*
X97195000Y-81975000D02*
X96485000Y-81975000D01*
X96485000Y-81525000D01*
X97195000Y-81525000D01*
X97195000Y-81975000D01*
G36*
X99515000Y-81975000D02*
G01*
X98805000Y-81975000D01*
X98805000Y-81525000D01*
X99515000Y-81525000D01*
X99515000Y-81975000D01*
G37*
X99515000Y-81975000D02*
X98805000Y-81975000D01*
X98805000Y-81525000D01*
X99515000Y-81525000D01*
X99515000Y-81975000D01*
G36*
X98355000Y-83640000D02*
G01*
X97645000Y-83640000D01*
X97645000Y-83190000D01*
X98355000Y-83190000D01*
X98355000Y-83640000D01*
G37*
X98355000Y-83640000D02*
X97645000Y-83640000D01*
X97645000Y-83190000D01*
X98355000Y-83190000D01*
X98355000Y-83640000D01*
G36*
X99515000Y-82975000D02*
G01*
X98805000Y-82975000D01*
X98805000Y-82525000D01*
X99515000Y-82525000D01*
X99515000Y-82975000D01*
G37*
X99515000Y-82975000D02*
X98805000Y-82975000D01*
X98805000Y-82525000D01*
X99515000Y-82525000D01*
X99515000Y-82975000D01*
G36*
X97855000Y-81810000D02*
G01*
X97145000Y-81810000D01*
X97145000Y-81360000D01*
X97855000Y-81360000D01*
X97855000Y-81810000D01*
G37*
X97855000Y-81810000D02*
X97145000Y-81810000D01*
X97145000Y-81360000D01*
X97855000Y-81360000D01*
X97855000Y-81810000D01*
%TD*%
D11*
%TO.C,Q5*%
X96600000Y-100570000D03*
X98500000Y-100570000D03*
X97550000Y-98695000D03*
%TD*%
D12*
%TO.C,R39*%
X82750000Y-80770000D03*
X82750000Y-79750000D03*
%TD*%
D13*
%TO.C,R21*%
X78890000Y-103812500D03*
X79910000Y-103812500D03*
%TD*%
D11*
%TO.C,Q3*%
X78300000Y-88687500D03*
X80200000Y-88687500D03*
X79250000Y-86812500D03*
%TD*%
D13*
%TO.C,R27*%
X97810000Y-102142500D03*
X98830000Y-102142500D03*
%TD*%
D14*
%TO.C,R34*%
X115510000Y-104700000D03*
X114490000Y-104700000D03*
%TD*%
D13*
%TO.C,R38*%
X89790000Y-106540000D03*
X90810000Y-106540000D03*
%TD*%
D15*
%TO.C,L1*%
X85970000Y-80770000D03*
X85000000Y-80770000D03*
%TD*%
D16*
%TO.C,SW1*%
X107800000Y-115750000D03*
X112200000Y-115750000D03*
%TD*%
D17*
%TO.C,C29*%
X94025000Y-117200000D03*
X95575000Y-117200000D03*
%TD*%
D18*
%TO.C,U6*%
X85925000Y-103520000D03*
X85925000Y-104470000D03*
X85925000Y-105420000D03*
X88305000Y-105420000D03*
X88305000Y-104470000D03*
X88305000Y-103520000D03*
%TD*%
D19*
%TO.C,J3*%
X117175000Y-103250000D03*
D20*
X119175000Y-104750000D03*
X117175000Y-106250000D03*
X119175000Y-107750000D03*
%TD*%
D21*
%TO.C,C3*%
X90120000Y-95100000D03*
X91080000Y-95100000D03*
%TD*%
D22*
%TO.C,J10*%
X76700000Y-117050000D03*
X78700000Y-117050000D03*
D23*
X74350000Y-122800000D03*
X81050000Y-122800000D03*
%TD*%
D24*
%TO.C,J11*%
X87600000Y-98150000D03*
D25*
X87600000Y-96150000D03*
%TD*%
D13*
%TO.C,R11*%
X101760000Y-120000000D03*
X102780000Y-120000000D03*
%TD*%
D26*
%TO.C,C34*%
X82775000Y-98550000D03*
X81225000Y-98550000D03*
%TD*%
D27*
%TO.C,C6*%
X94980000Y-109000000D03*
X94020000Y-109000000D03*
%TD*%
D28*
%TO.C,ANT1*%
X78125000Y-80770000D03*
X79375000Y-80770000D03*
D29*
X78750000Y-80535000D03*
X78750000Y-81005000D03*
%TD*%
D30*
%TO.C,D4*%
X89950000Y-98900000D03*
X91350000Y-98900000D03*
%TD*%
D31*
%TO.C,U1*%
X82350000Y-92850000D03*
X83450000Y-92850000D03*
X84550000Y-92850000D03*
X85650000Y-92850000D03*
X86750000Y-92850000D03*
X87850000Y-92850000D03*
X88950000Y-92850000D03*
X90050000Y-92850000D03*
X91150000Y-92850000D03*
X91150000Y-83150000D03*
X90050000Y-83150000D03*
X88950000Y-83150000D03*
X87850000Y-83150000D03*
X86750000Y-83150000D03*
X85650000Y-83150000D03*
X84550000Y-83150000D03*
X83450000Y-83150000D03*
X82350000Y-83150000D03*
%TD*%
D32*
%TO.C,R33*%
X115800000Y-114890000D03*
X115800000Y-115910000D03*
%TD*%
D11*
%TO.C,Q2*%
X93050000Y-100570000D03*
X94950000Y-100570000D03*
X94000000Y-98695000D03*
%TD*%
D33*
%TO.C,U7*%
X104355000Y-76100000D03*
X104355000Y-76750000D03*
X104355000Y-77400000D03*
X105845000Y-77400000D03*
X105845000Y-76750000D03*
X105845000Y-76100000D03*
%TD*%
D34*
%TO.C,IC1*%
X89600000Y-115887500D03*
X89600000Y-115387500D03*
X89600000Y-114887500D03*
X89600000Y-114387500D03*
X86800000Y-114387500D03*
X86800000Y-114887500D03*
X86800000Y-115387500D03*
X86800000Y-115887500D03*
D35*
X88200000Y-115137500D03*
%TD*%
D36*
%TO.C,J9*%
X119750000Y-112550000D03*
D37*
X119750000Y-113820000D03*
X119750000Y-115090000D03*
X119750000Y-116360000D03*
%TD*%
D21*
%TO.C,C2*%
X90120000Y-96100000D03*
X91080000Y-96100000D03*
%TD*%
D27*
%TO.C,C9*%
X97730000Y-106000000D03*
X96770000Y-106000000D03*
%TD*%
%TO.C,C13*%
X110740000Y-109200000D03*
X109780000Y-109200000D03*
%TD*%
D38*
%TO.C,C22*%
X104400000Y-80100000D03*
X104400000Y-79140000D03*
%TD*%
D39*
%TO.C,C17*%
X96950000Y-116432500D03*
X96950000Y-117392500D03*
%TD*%
%TO.C,C20*%
X83000000Y-116020000D03*
X83000000Y-116980000D03*
%TD*%
D40*
%TO.C,J2*%
X96400000Y-119250000D03*
D41*
X94900000Y-121250000D03*
X93400000Y-119250000D03*
X91900000Y-121250000D03*
%TD*%
D32*
%TO.C,R13*%
X100400000Y-80690000D03*
X100400000Y-81710000D03*
%TD*%
%TO.C,R7*%
X97950000Y-116402500D03*
X97950000Y-117422500D03*
%TD*%
D12*
%TO.C,R2*%
X80000000Y-100760000D03*
X80000000Y-99740000D03*
%TD*%
D40*
%TO.C,J4*%
X115250000Y-119275000D03*
D41*
X113750000Y-121275000D03*
X112250000Y-119275000D03*
X110750000Y-121275000D03*
X109250000Y-119275000D03*
X107750000Y-121275000D03*
%TD*%
D12*
%TO.C,R29*%
X97250000Y-90760000D03*
X97250000Y-89740000D03*
%TD*%
D14*
%TO.C,R37*%
X90810000Y-105500000D03*
X89790000Y-105500000D03*
%TD*%
D26*
%TO.C,C32*%
X88525000Y-101900000D03*
X86975000Y-101900000D03*
%TD*%
D27*
%TO.C,C37*%
X95930000Y-92400000D03*
X94970000Y-92400000D03*
%TD*%
D38*
%TO.C,C35*%
X84500000Y-96170000D03*
X84500000Y-95210000D03*
%TD*%
D17*
%TO.C,C1*%
X89925000Y-97400000D03*
X91475000Y-97400000D03*
%TD*%
D13*
%TO.C,R26*%
X74230000Y-90500000D03*
X75250000Y-90500000D03*
%TD*%
D14*
%TO.C,R24*%
X75250000Y-91500000D03*
X74230000Y-91500000D03*
%TD*%
D21*
%TO.C,C4*%
X107510000Y-109200000D03*
X108470000Y-109200000D03*
%TD*%
D13*
%TO.C,R12*%
X101760000Y-119000000D03*
X102780000Y-119000000D03*
%TD*%
%TO.C,R25*%
X76240000Y-90500000D03*
X77260000Y-90500000D03*
%TD*%
D38*
%TO.C,C36*%
X85500000Y-96170000D03*
X85500000Y-95210000D03*
%TD*%
D42*
%TO.C,U5*%
X99000000Y-95450000D03*
X99500000Y-95450000D03*
X100000000Y-95450000D03*
X100500000Y-95450000D03*
X100500000Y-92550000D03*
X100000000Y-92550000D03*
X99500000Y-92550000D03*
X99000000Y-92550000D03*
D43*
X99750000Y-94000000D03*
%TD*%
D44*
%TO.C,D1*%
X74047500Y-93940000D03*
X75622500Y-93940000D03*
%TD*%
D27*
%TO.C,C40*%
X95930000Y-87100000D03*
X94970000Y-87100000D03*
%TD*%
%TO.C,C14*%
X94980000Y-110750000D03*
X94020000Y-110750000D03*
%TD*%
%TO.C,C8*%
X94980000Y-107000000D03*
X94020000Y-107000000D03*
%TD*%
D39*
%TO.C,C27*%
X83990000Y-79810000D03*
X83990000Y-80770000D03*
%TD*%
D32*
%TO.C,R17*%
X106600000Y-115380000D03*
X106600000Y-116400000D03*
%TD*%
D14*
%TO.C,R23*%
X77250000Y-91500000D03*
X76230000Y-91500000D03*
%TD*%
D27*
%TO.C,C15*%
X104680000Y-92200000D03*
X103720000Y-92200000D03*
%TD*%
D14*
%TO.C,R20*%
X83510000Y-111250000D03*
X82490000Y-111250000D03*
%TD*%
D27*
%TO.C,C5*%
X94980000Y-111762500D03*
X94020000Y-111762500D03*
%TD*%
D45*
%TO.C,C30*%
X115100000Y-101700000D03*
X115100000Y-103250000D03*
%TD*%
D27*
%TO.C,C7*%
X95000000Y-108000000D03*
X94040000Y-108000000D03*
%TD*%
D21*
%TO.C,C24*%
X97520000Y-84600000D03*
X98480000Y-84600000D03*
%TD*%
D13*
%TO.C,R10*%
X101750000Y-121000000D03*
X102770000Y-121000000D03*
%TD*%
%TO.C,R14*%
X93820000Y-102132500D03*
X94840000Y-102132500D03*
%TD*%
D46*
%TO.C,J7*%
X117750000Y-87950000D03*
X117750000Y-95930000D03*
D47*
X107250000Y-88800000D03*
X107250000Y-89900000D03*
X107250000Y-91000000D03*
X107250000Y-92100000D03*
X107250000Y-93200000D03*
X107250000Y-94300000D03*
X107250000Y-95400000D03*
X107250000Y-96500000D03*
X107250000Y-97600000D03*
D48*
X107750000Y-98750000D03*
D49*
X117350000Y-98750000D03*
X117350000Y-83250000D03*
D50*
X107750000Y-84150000D03*
%TD*%
D32*
%TO.C,R1*%
X79000000Y-99740000D03*
X79000000Y-100760000D03*
%TD*%
%TO.C,R44*%
X85500000Y-97790000D03*
X85500000Y-98810000D03*
%TD*%
D14*
%TO.C,R22*%
X82760000Y-80785000D03*
X81740000Y-80785000D03*
%TD*%
D51*
%TO.C,C11*%
X83250000Y-96925000D03*
X83250000Y-95375000D03*
%TD*%
D52*
%TO.C,U4*%
X95950000Y-88612500D03*
X95000000Y-88612500D03*
X94050000Y-88612500D03*
X94050000Y-90887500D03*
X95950000Y-90887500D03*
%TD*%
D53*
%TO.C,U3*%
X98200000Y-114750000D03*
X98600000Y-114750000D03*
X99000000Y-114750000D03*
X99400000Y-114750000D03*
X99800000Y-114750000D03*
X100200000Y-114750000D03*
X100600000Y-114750000D03*
X101000000Y-114750000D03*
X101400000Y-114750000D03*
X101800000Y-114750000D03*
X102200000Y-114750000D03*
X102600000Y-114750000D03*
X103000000Y-114750000D03*
X103400000Y-114750000D03*
D54*
X104237500Y-113912500D03*
X104237500Y-113512500D03*
X104237500Y-113112500D03*
X104237500Y-112712500D03*
X104237500Y-112312500D03*
X104237500Y-111912500D03*
X104237500Y-111512500D03*
X104237500Y-111112500D03*
X104237500Y-110712500D03*
X104237500Y-110312500D03*
X104237500Y-109912500D03*
X104237500Y-109512500D03*
X104237500Y-109112500D03*
X104237500Y-108712500D03*
D53*
X103400000Y-107875000D03*
X103000000Y-107875000D03*
X102600000Y-107875000D03*
X102200000Y-107875000D03*
X101800000Y-107875000D03*
X101400000Y-107875000D03*
X101000000Y-107875000D03*
X100600000Y-107875000D03*
X100200000Y-107875000D03*
X99800000Y-107875000D03*
X99400000Y-107875000D03*
X99000000Y-107875000D03*
X98600000Y-107875000D03*
X98200000Y-107875000D03*
D54*
X97362500Y-108712500D03*
X97362500Y-109112500D03*
X97362500Y-109512500D03*
X97362500Y-109912500D03*
X97362500Y-110312500D03*
X97362500Y-110712500D03*
X97362500Y-111112500D03*
X97362500Y-111512500D03*
X97362500Y-111912500D03*
X97362500Y-112312500D03*
X97362500Y-112712500D03*
X97362500Y-113112500D03*
X97362500Y-113512500D03*
X97362500Y-113912500D03*
D55*
X100800000Y-111312500D03*
%TD*%
D13*
%TO.C,R15*%
X91840000Y-102132500D03*
X92860000Y-102132500D03*
%TD*%
D49*
%TO.C,L2*%
X83250000Y-104100000D03*
X83250000Y-101900000D03*
%TD*%
D13*
%TO.C,R6*%
X92020000Y-109400000D03*
X93040000Y-109400000D03*
%TD*%
D56*
%TO.C,U2*%
X91800000Y-117042500D03*
X91800000Y-115772500D03*
X91800000Y-114502500D03*
X91800000Y-113232500D03*
X84600000Y-113232500D03*
X84600000Y-114502500D03*
X84600000Y-115772500D03*
X84600000Y-117042500D03*
%TD*%
D17*
%TO.C,C38*%
X94375000Y-93700000D03*
X95925000Y-93700000D03*
%TD*%
D32*
%TO.C,R31*%
X104800000Y-87790000D03*
X104800000Y-88810000D03*
%TD*%
D14*
%TO.C,R35*%
X115510000Y-106200000D03*
X114490000Y-106200000D03*
%TD*%
D16*
%TO.C,SW2*%
X107800000Y-104340000D03*
X112200000Y-104340000D03*
%TD*%
D57*
%TO.C,J6*%
X81275000Y-76770000D03*
X84225000Y-76770000D03*
D58*
X82750000Y-78320000D03*
%TD*%
D51*
%TO.C,C31*%
X86300000Y-108550000D03*
X86300000Y-107000000D03*
%TD*%
D59*
%TO.C,REF\u002A\u002A*%
X119978700Y-121978700D03*
%TD*%
D13*
%TO.C,R36*%
X87180000Y-118600000D03*
X88200000Y-118600000D03*
%TD*%
D60*
%TO.C,J8*%
X117750000Y-115850000D03*
X117750000Y-114850000D03*
X117750000Y-113850000D03*
X117750000Y-112850000D03*
D61*
X121625000Y-117150000D03*
X121625000Y-111550000D03*
%TD*%
D13*
%TO.C,R42*%
X85090000Y-118600000D03*
X86110000Y-118600000D03*
%TD*%
%TO.C,R9*%
X101750000Y-122000000D03*
X102770000Y-122000000D03*
%TD*%
D17*
%TO.C,C28*%
X113600000Y-117200000D03*
X115150000Y-117200000D03*
%TD*%
D36*
%TO.C,J5*%
X79400000Y-90950000D03*
D37*
X79400000Y-92220000D03*
%TD*%
D13*
%TO.C,R19*%
X82490000Y-108412500D03*
X83510000Y-108412500D03*
%TD*%
D38*
%TO.C,C10*%
X102250000Y-105230000D03*
X102250000Y-104270000D03*
%TD*%
D13*
%TO.C,R5*%
X92020000Y-110400000D03*
X93040000Y-110400000D03*
%TD*%
D38*
%TO.C,C25*%
X112750000Y-78980000D03*
X112750000Y-78020000D03*
%TD*%
D14*
%TO.C,R41*%
X111760000Y-77000000D03*
X110740000Y-77000000D03*
%TD*%
D39*
%TO.C,C19*%
X101800000Y-116440000D03*
X101800000Y-117400000D03*
%TD*%
D44*
%TO.C,D2*%
X74037500Y-95620000D03*
X75612500Y-95620000D03*
%TD*%
D39*
%TO.C,C16*%
X99100000Y-90400000D03*
X99100000Y-91360000D03*
%TD*%
D16*
%TO.C,SW3*%
X88400000Y-121000000D03*
X84000000Y-121000000D03*
%TD*%
D62*
%TO.C,U9*%
X120947800Y-79000001D03*
X120947800Y-78000000D03*
X120947800Y-76999999D03*
X118052200Y-76999999D03*
X118052200Y-78000000D03*
X118052200Y-79000001D03*
D63*
X119500000Y-78000000D03*
%TD*%
D64*
%TO.C,Q1*%
X79237500Y-98450000D03*
X79237500Y-96550000D03*
X77362500Y-97500000D03*
%TD*%
D14*
%TO.C,R3*%
X78020000Y-93940000D03*
X77000000Y-93940000D03*
%TD*%
D12*
%TO.C,R40*%
X122250000Y-78010000D03*
X122250000Y-76990000D03*
%TD*%
D14*
%TO.C,R4*%
X78000000Y-95250000D03*
X76980000Y-95250000D03*
%TD*%
D65*
%TO.C,Y1*%
X109760000Y-110600000D03*
X109760000Y-112800000D03*
X111460000Y-112800000D03*
X111460000Y-110600000D03*
%TD*%
D13*
%TO.C,R18*%
X107690000Y-106540000D03*
X108710000Y-106540000D03*
%TD*%
D39*
%TO.C,C26*%
X87000000Y-79810000D03*
X87000000Y-80770000D03*
%TD*%
D12*
%TO.C,R32*%
X104700000Y-97510000D03*
X104700000Y-96490000D03*
%TD*%
D32*
%TO.C,R8*%
X98950000Y-116402500D03*
X98950000Y-117422500D03*
%TD*%
D51*
%TO.C,C21*%
X84750000Y-108525000D03*
X84750000Y-106975000D03*
%TD*%
D66*
%TO.C,J1*%
X79280000Y-112520000D03*
X79280000Y-106740000D03*
D67*
X80355000Y-106430000D03*
X80355000Y-107230000D03*
D68*
X80355000Y-108380000D03*
X80355000Y-109380000D03*
X80355000Y-109880000D03*
X80355000Y-110880000D03*
D67*
X80355000Y-112830000D03*
X80355000Y-112030000D03*
D68*
X80355000Y-111380000D03*
X80355000Y-110380000D03*
X80355000Y-108880000D03*
X80355000Y-107880000D03*
D69*
X79780000Y-105310000D03*
D70*
X75600000Y-105310000D03*
X75600000Y-113950000D03*
D69*
X79780000Y-113950000D03*
%TD*%
D17*
%TO.C,C39*%
X94375000Y-85800000D03*
X95925000Y-85800000D03*
%TD*%
D13*
%TO.C,R28*%
X95810000Y-102142500D03*
X96830000Y-102142500D03*
%TD*%
D11*
%TO.C,Q4*%
X74550000Y-88687500D03*
X76450000Y-88687500D03*
X75500000Y-86812500D03*
%TD*%
D71*
%TO.C,D3*%
X81750000Y-96700000D03*
X81750000Y-95300000D03*
%TD*%
D59*
%TO.C,REF\u002A\u002A*%
X76000000Y-101750000D03*
%TD*%
D14*
%TO.C,R16*%
X108500000Y-111200000D03*
X107480000Y-111200000D03*
%TD*%
D59*
%TO.C,REF\u002A\u002A*%
X92500000Y-78000000D03*
%TD*%
D21*
%TO.C,C12*%
X107510000Y-110200000D03*
X108470000Y-110200000D03*
%TD*%
D39*
%TO.C,C18*%
X112750000Y-112270000D03*
X112750000Y-113230000D03*
%TD*%
D38*
%TO.C,C23*%
X100400000Y-84280000D03*
X100400000Y-83320000D03*
%TD*%
D26*
%TO.C,C33*%
X82775000Y-100250000D03*
X81225000Y-100250000D03*
%TD*%
M02*
